<svg xmlns="http://www.w3.org/2000/svg" width="748" height="148" fill="none"><rect width="115" height="61" x="311" y="34" stroke="#1E1E1E" stroke-linecap="round" stroke-width="4" rx="6"/><path fill="#1E1E1E" d="M355.592 59.91v8.726h-1.845V59.91h1.845Zm3.168 4.942v3.784h-1.816v-6.545h1.73v1.155h.077c.145-.381.388-.682.729-.904.341-.224.754-.336 1.24-.336.454 0 .851.1 1.189.298.338.199.601.483.788.852.188.367.281.804.281 1.313v4.167h-1.815v-3.843c.003-.401-.099-.714-.307-.938-.207-.227-.493-.34-.856-.34a1.3 1.3 0 0 0-.648.157c-.185.105-.33.258-.435.46a1.6 1.6 0 0 0-.157.72Zm5.517 6.239v-9h1.79v1.1h.081a2.39 2.39 0 0 1 .345-.538c.153-.184.352-.338.597-.46.247-.125.554-.187.92-.187.477 0 .918.125 1.321.375.404.247.726.62.967 1.12.242.498.363 1.121.363 1.871 0 .73-.118 1.347-.354 1.85-.233.5-.551.879-.955 1.137-.4.256-.849.384-1.346.384-.352 0-.652-.058-.899-.175a1.851 1.851 0 0 1-.601-.439 2.226 2.226 0 0 1-.358-.54h-.055v3.502h-1.816Zm1.777-5.727c0 .389.054.728.162 1.018.108.29.264.516.469.678.204.159.453.238.746.238.295 0 .545-.08.75-.243.204-.164.359-.392.464-.681.108-.293.162-.63.162-1.01 0-.378-.053-.71-.158-.998a1.487 1.487 0 0 0-.464-.673 1.178 1.178 0 0 0-.754-.243c-.296 0-.546.078-.75.235a1.47 1.47 0 0 0-.465.664 2.876 2.876 0 0 0-.162 1.015Zm9.882.485v-3.758h1.816v6.545h-1.743v-1.189h-.068a1.934 1.934 0 0 1-.738.925c-.341.233-.757.35-1.248.35-.438 0-.823-.1-1.155-.299a2.057 2.057 0 0 1-.78-.848c-.184-.366-.278-.805-.281-1.317v-4.167h1.815v3.844c.003.386.107.691.311.916.205.224.479.337.823.337a1.3 1.3 0 0 0 .613-.15c.191-.102.344-.252.461-.451.119-.2.177-.445.174-.738Zm6.617-3.758v1.364h-3.941V62.09h3.941Zm-3.047-1.568h1.816v6.102a.83.83 0 0 0 .076.392c.052.09.123.155.214.192a.873.873 0 0 0 .323.055c.086 0 .171-.007.256-.021l.196-.038.286 1.35a5.103 5.103 0 0 1-.384.098c-.165.04-.365.064-.601.073-.437.017-.821-.041-1.15-.175a1.606 1.606 0 0 1-.763-.622c-.182-.281-.271-.636-.269-1.065v-6.341Zm85.999 71.369c-.045-.458-.24-.814-.585-1.068-.345-.254-.812-.381-1.403-.381-.402 0-.741.057-1.017.171a1.425 1.425 0 0 0-.637.46c-.144.197-.216.42-.216.67a.962.962 0 0 0 .131.546c.099.155.233.289.403.403.171.11.368.207.591.29.224.079.462.148.716.204l1.046.25c.507.114.973.266 1.397.455.425.189.792.422 1.103.699.31.276.551.602.721.977.175.375.264.805.267 1.29-.003.712-.185 1.329-.545 1.852-.356.519-.871.923-1.546 1.21-.67.284-1.479.427-2.426.427-.939 0-1.757-.144-2.454-.432-.693-.288-1.235-.714-1.625-1.279-.387-.568-.589-1.271-.608-2.108h2.38c.027.391.139.716.336.978.2.257.468.452.801.585.337.129.718.193 1.142.193.417 0 .778-.061 1.085-.182a1.67 1.67 0 0 0 .722-.505 1.17 1.17 0 0 0 .255-.745.964.964 0 0 0-.233-.659c-.151-.178-.375-.329-.67-.454a6.81 6.81 0 0 0-1.074-.341l-1.267-.319c-.981-.238-1.756-.611-2.324-1.119-.568-.507-.85-1.191-.846-2.051-.004-.705.183-1.32.562-1.847.383-.526.907-.937 1.574-1.233.667-.295 1.424-.443 2.273-.443.863 0 1.617.148 2.261.443.648.296 1.152.707 1.511 1.233.36.527.546 1.137.557 1.83h-2.358Zm5.445 11.562c-.307 0-.595-.024-.864-.073a3.187 3.187 0 0 1-.659-.177l.546-1.806c.284.087.54.134.767.142a.98.98 0 0 0 .596-.159c.171-.114.309-.307.415-.58l.142-.369-3.13-8.978h2.545l1.807 6.41h.091l1.824-6.41h2.562l-3.392 9.671c-.163.47-.384.879-.665 1.227a2.732 2.732 0 0 1-1.051.813c-.424.193-.935.289-1.534.289Zm10.125-8.318v5.046h-2.42v-8.728h2.307v1.54h.102c.193-.507.517-.909.971-1.204.455-.3 1.006-.449 1.654-.449.606 0 1.134.132 1.585.398.451.265.801.644 1.051 1.136.25.489.375 1.072.375 1.75v5.557h-2.42v-5.125c.004-.534-.133-.951-.409-1.25-.277-.303-.658-.455-1.142-.455-.326 0-.614.07-.864.21a1.478 1.478 0 0 0-.58.614c-.136.265-.206.585-.21.96Zm11.999-3.682v1.819h-5.256v-1.819h5.256Zm-4.063-2.09h2.421v8.136c0 .223.034.398.102.523a.562.562 0 0 0 .284.255c.125.05.269.074.432.074.114 0 .227-.009.341-.028l.261-.051.381 1.801a6.734 6.734 0 0 1-.511.13c-.22.054-.487.086-.802.097-.583.023-1.094-.055-1.534-.233a2.145 2.145 0 0 1-1.017-.829c-.242-.375-.361-.849-.358-1.421v-8.454Zm8.072 5.772v5.046h-2.421v-11.637h2.352v4.449h.103c.197-.515.515-.918.954-1.21.44-.295.991-.443 1.654-.443.606 0 1.134.132 1.585.398.454.261.807.638 1.057 1.13.253.489.378 1.074.375 1.756v5.557h-2.421v-5.125c.004-.538-.132-.957-.409-1.256-.273-.299-.655-.449-1.148-.449-.329 0-.621.07-.875.21-.25.141-.447.345-.591.614-.14.265-.212.585-.215.96Zm11.365 5.216c-.898 0-1.671-.182-2.318-.545a3.74 3.74 0 0 1-1.489-1.557c-.349-.674-.523-1.472-.523-2.392 0-.898.174-1.686.523-2.364a3.86 3.86 0 0 1 1.472-1.585c.636-.379 1.382-.568 2.238-.568.576 0 1.112.093 1.608.278.5.182.936.457 1.307.824.375.368.667.83.875 1.386.208.554.312 1.201.312 1.944v.664h-7.369v-1.5h5.091a1.86 1.86 0 0 0-.227-.926 1.626 1.626 0 0 0-.631-.63 1.792 1.792 0 0 0-.926-.233c-.368 0-.693.085-.977.255a1.79 1.79 0 0 0-.659.676c-.16.281-.241.593-.245.938v1.426c0 .432.08.805.239 1.119.163.315.392.557.687.728.296.17.646.255 1.052.255.268 0 .515-.037.738-.113.224-.076.415-.19.574-.341.159-.152.28-.337.364-.557l2.238.148a3.045 3.045 0 0 1-.699 1.409c-.348.398-.799.708-1.352.932-.549.219-1.184.329-1.903.329Zm10.051-8.898v1.819h-5.256v-1.819h5.256Zm-4.062-2.09h2.42v8.136c0 .223.034.398.102.523a.562.562 0 0 0 .284.255c.125.05.269.074.432.074.114 0 .227-.009.341-.028l.261-.051.381 1.801a6.734 6.734 0 0 1-.511.13c-.22.054-.487.086-.801.097-.584.023-1.095-.055-1.534-.233a2.143 2.143 0 0 1-1.018-.829c-.242-.375-.361-.849-.357-1.421v-8.454Zm5.463 10.818v-8.728h2.42v8.728h-2.42Zm1.216-9.853a1.32 1.32 0 0 1-.927-.357 1.165 1.165 0 0 1-.38-.87c0-.333.127-.619.38-.858.258-.242.567-.363.927-.363.359 0 .666.121.92.363.258.239.386.525.386.858 0 .337-.128.627-.386.87a1.298 1.298 0 0 1-.92.357Zm6.91 10.023c-.894 0-1.663-.189-2.307-.568a3.846 3.846 0 0 1-1.477-1.591c-.341-.678-.511-1.458-.511-2.341 0-.894.172-1.678.517-2.352a3.84 3.84 0 0 1 1.483-1.585c.64-.383 1.401-.574 2.284-.574.761 0 1.428.138 2 .415a3.335 3.335 0 0 1 1.358 1.164c.333.5.517 1.088.551 1.762h-2.284c-.064-.436-.235-.786-.511-1.051-.273-.269-.631-.404-1.074-.404a1.62 1.62 0 0 0-.983.307c-.277.201-.493.494-.648.881-.155.386-.233.854-.233 1.403 0 .557.076 1.03.227 1.421.156.39.373.687.654.892.28.204.608.306.983.306.276 0 .524-.056.744-.17.223-.114.407-.278.551-.494.148-.22.244-.483.29-.79h2.284c-.038.667-.22 1.254-.545 1.761a3.29 3.29 0 0 1-1.336 1.182c-.568.284-1.24.426-2.017.426Zm16.56-8.045a2.527 2.527 0 0 0-.335-.733 2.079 2.079 0 0 0-.528-.546 2.273 2.273 0 0 0-.705-.346 2.959 2.959 0 0 0-.869-.12c-.595 0-1.118.148-1.568.444-.447.295-.796.725-1.046 1.289-.25.561-.375 1.247-.375 2.057 0 .811.123 1.5.369 2.068.247.569.595 1.002 1.046 1.302.451.295.983.443 1.596.443.557 0 1.033-.099 1.427-.296.397-.2.7-.483.909-.846.212-.364.318-.794.318-1.29l.5.074h-3v-1.853h4.869v1.466c0 1.023-.216 1.902-.648 2.637a4.408 4.408 0 0 1-1.784 1.693c-.757.394-1.625.591-2.602.591-1.091 0-2.049-.241-2.875-.722-.826-.485-1.47-1.172-1.932-2.062-.458-.894-.687-1.955-.687-3.182 0-.943.136-1.784.409-2.523a5.387 5.387 0 0 1 1.159-1.886 5.01 5.01 0 0 1 1.733-1.176 5.614 5.614 0 0 1 2.142-.404c.659 0 1.273.097 1.841.29a4.881 4.881 0 0 1 1.511.807c.443.348.805.763 1.085 1.244.281.477.461 1.004.54 1.58h-2.5Zm8.178 8.045c-.883 0-1.646-.187-2.29-.562a3.858 3.858 0 0 1-1.483-1.58c-.348-.678-.523-1.464-.523-2.358 0-.901.175-1.689.523-2.363a3.81 3.81 0 0 1 1.483-1.58c.644-.379 1.407-.568 2.29-.568.882 0 1.644.189 2.284.568.644.375 1.14.902 1.489 1.58.348.674.522 1.462.522 2.363 0 .894-.174 1.68-.522 2.358a3.846 3.846 0 0 1-1.489 1.58c-.64.375-1.402.562-2.284.562Zm.011-1.875c.402 0 .737-.113 1.006-.341.269-.231.472-.545.608-.943.14-.398.21-.85.21-1.358 0-.507-.07-.96-.21-1.358-.136-.398-.339-.712-.608-.943-.269-.231-.604-.347-1.006-.347-.405 0-.746.116-1.022.347-.273.231-.48.545-.62.943a4.19 4.19 0 0 0-.204 1.358c0 .508.068.96.204 1.358.14.398.347.712.62.943.276.228.617.341 1.022.341Zm8.103-9.932v11.637h-2.421v-11.637h2.421Zm4.979 11.779a3.297 3.297 0 0 1-1.802-.512c-.534-.344-.958-.85-1.272-1.517-.311-.67-.466-1.492-.466-2.466 0-1 .161-1.831.483-2.494.322-.666.75-1.165 1.284-1.494a3.294 3.294 0 0 1 1.767-.5c.488 0 .896.083 1.221.25.33.163.595.367.796.613.204.243.36.482.466.716h.074v-4.375h2.414v11.637h-2.386v-1.398h-.102a3.161 3.161 0 0 1-.483.722c-.205.234-.472.43-.801.585-.326.155-.724.233-1.193.233Zm.767-1.926c.39 0 .719-.106.988-.319.273-.215.481-.517.625-.903.148-.386.222-.839.222-1.358 0-.519-.072-.97-.216-1.352-.144-.383-.352-.678-.625-.887-.273-.208-.604-.312-.994-.312-.398 0-.733.108-1.006.324-.273.216-.479.515-.619.898-.141.382-.211.825-.211 1.329 0 .508.07.957.211 1.347.143.386.35.689.619.909.273.216.608.324 1.006.324Zm9.99 1.954c-.898 0-1.671-.182-2.318-.545a3.74 3.74 0 0 1-1.489-1.557c-.349-.674-.523-1.472-.523-2.392 0-.898.174-1.686.523-2.364a3.86 3.86 0 0 1 1.472-1.585c.636-.379 1.382-.568 2.238-.568.576 0 1.112.093 1.608.278.5.182.936.457 1.307.824.375.368.667.83.875 1.386.208.554.312 1.201.312 1.944v.664h-7.369v-1.5h5.091a1.86 1.86 0 0 0-.227-.926 1.626 1.626 0 0 0-.631-.63 1.792 1.792 0 0 0-.926-.233c-.367 0-.693.085-.977.255a1.79 1.79 0 0 0-.659.676c-.16.281-.241.593-.245.938v1.426c0 .432.08.805.239 1.119.163.315.392.557.687.728.296.17.646.255 1.052.255.268 0 .515-.037.738-.113.224-.076.415-.19.574-.341.159-.152.28-.337.364-.557l2.238.148a3.045 3.045 0 0 1-.699 1.409c-.348.398-.799.708-1.352.932-.549.219-1.184.329-1.903.329Zm7.829-5.216v5.046h-2.42v-8.728h2.307v1.54h.102c.193-.507.517-.909.972-1.204.454-.3 1.005-.449 1.653-.449.606 0 1.135.132 1.585.398.451.265.801.644 1.051 1.136.25.489.375 1.072.375 1.75v5.557h-2.42v-5.125c.004-.534-.133-.951-.409-1.25-.277-.303-.657-.455-1.142-.455-.326 0-.614.07-.864.21a1.47 1.47 0 0 0-.579.614c-.137.265-.207.585-.211.96Zm14.618-1.193-2.215.136a1.151 1.151 0 0 0-.245-.511 1.303 1.303 0 0 0-.494-.369 1.675 1.675 0 0 0-.722-.142c-.375 0-.691.079-.949.238-.257.156-.386.364-.386.625 0 .209.083.385.25.529.167.144.453.259.858.346l1.58.319c.848.174 1.481.454 1.897.84.417.387.625.894.625 1.523 0 .572-.168 1.074-.505 1.506-.334.432-.792.769-1.375 1.011-.58.239-1.248.358-2.006.358-1.155 0-2.076-.24-2.761-.721a2.81 2.81 0 0 1-1.199-1.978l2.38-.125c.072.353.247.622.523.807.277.182.631.273 1.063.273.424 0 .765-.082 1.022-.244.262-.167.394-.381.398-.642a.667.667 0 0 0-.278-.54c-.182-.144-.462-.254-.841-.33l-1.512-.301c-.852-.17-1.486-.466-1.903-.886-.413-.421-.619-.957-.619-1.608 0-.561.151-1.044.454-1.449.307-.405.737-.718 1.29-.938.557-.219 1.208-.329 1.955-.329 1.102 0 1.969.233 2.602.699.636.466 1.007 1.1 1.113 1.903Z"/><rect width="156.712" height="32.396" x="2" y="2" stroke="#1E1E1E" stroke-linecap="round" stroke-width="4" rx="3"/><path fill="#000" fill-opacity=".8" d="M60.29 15.783a1.079 1.079 0 0 0-.44-.801c-.258-.19-.609-.286-1.052-.286-.301 0-.555.043-.763.128a1.073 1.073 0 0 0-.477.345.83.83 0 0 0-.162.503.718.718 0 0 0 .098.409c.074.116.175.217.303.303a2.3 2.3 0 0 0 .443.217c.167.06.346.11.537.153l.784.188c.38.085.73.199 1.048.34.318.143.594.317.827.525.233.207.413.452.541.733.13.281.198.604.2.967-.002.534-.139.997-.409 1.39-.267.389-.653.691-1.159.907-.503.213-1.11.32-1.82.32-.704 0-1.318-.108-1.84-.324a2.705 2.705 0 0 1-1.22-.96c-.289-.425-.44-.952-.455-1.58h1.785c.02.293.104.537.252.733.15.193.35.34.6.439.253.096.539.145.857.145.313 0 .584-.046.814-.137a1.24 1.24 0 0 0 .541-.379.876.876 0 0 0 .192-.558.725.725 0 0 0-.175-.494 1.326 1.326 0 0 0-.502-.341 5.116 5.116 0 0 0-.806-.256l-.95-.239c-.736-.179-1.317-.458-1.743-.84-.426-.38-.638-.893-.635-1.537-.003-.529.138-.99.422-1.385a2.84 2.84 0 0 1 1.18-.925c.5-.222 1.069-.333 1.705-.333.648 0 1.213.111 1.696.333.486.221.864.53 1.133.925.27.394.41.852.418 1.372h-1.769Zm5.92 6.345c-.67 0-1.247-.142-1.73-.426a2.88 2.88 0 0 1-1.108-1.194c-.256-.508-.384-1.093-.384-1.755 0-.67.13-1.259.388-1.764a2.881 2.881 0 0 1 1.112-1.19c.48-.286 1.051-.43 1.713-.43.571 0 1.071.104 1.5.311.43.208.769.499 1.019.874.25.375.388.815.413 1.321H67.42c-.048-.327-.176-.59-.384-.788-.204-.202-.473-.303-.805-.303a1.22 1.22 0 0 0-.737.23c-.208.15-.37.37-.486.66-.117.29-.175.641-.175 1.053 0 .418.057.773.17 1.066.117.292.28.515.49.669.211.153.457.23.738.23.207 0 .394-.043.558-.128.168-.085.306-.209.414-.37a1.42 1.42 0 0 0 .217-.593h1.713c-.028.5-.165.94-.41 1.32a2.47 2.47 0 0 1-1 .887c-.427.213-.93.32-1.513.32Zm6.936 0c-.673 0-1.253-.137-1.738-.41a2.802 2.802 0 0 1-1.117-1.167c-.261-.505-.392-1.104-.392-1.794 0-.673.13-1.264.392-1.773.261-.508.63-.905 1.104-1.189.477-.284 1.037-.426 1.679-.426.432 0 .834.07 1.206.21.375.135.701.341.98.617.281.276.5.622.656 1.04.156.415.234.9.234 1.457v.499h-5.526v-1.125h3.818a1.39 1.39 0 0 0-.17-.695 1.222 1.222 0 0 0-.474-.473 1.35 1.35 0 0 0-.694-.175c-.276 0-.52.064-.733.192-.21.125-.375.294-.495.507-.119.21-.18.445-.183.703v1.07c0 .324.06.604.18.84.121.235.293.417.515.545.221.128.484.192.788.192.202 0 .386-.029.554-.085a1.111 1.111 0 0 0 .703-.673l1.68.11c-.086.403-.26.756-.525 1.057a2.63 2.63 0 0 1-1.014.699c-.412.165-.888.247-1.428.247Zm5.873-3.912V22h-1.816v-6.546h1.73v1.155h.077a1.83 1.83 0 0 1 .729-.903c.34-.224.754-.337 1.24-.337.454 0 .85.1 1.189.299.338.199.6.483.788.852.188.366.281.804.281 1.312V22h-1.815v-3.844c.003-.4-.1-.713-.307-.937-.207-.228-.493-.341-.856-.341-.245 0-.46.052-.648.157-.185.106-.33.259-.435.46a1.596 1.596 0 0 0-.157.72Zm7.383 3.908c-.417 0-.79-.073-1.116-.218a1.797 1.797 0 0 1-.776-.652c-.187-.29-.28-.65-.28-1.082 0-.364.066-.67.2-.916a1.62 1.62 0 0 1 .545-.597c.23-.15.491-.264.784-.34.296-.078.605-.131.929-.163.38-.04.688-.076.92-.11.233-.037.402-.091.508-.162a.356.356 0 0 0 .157-.316v-.025c0-.27-.085-.48-.255-.627-.168-.148-.407-.221-.716-.221-.327 0-.587.072-.78.217a1 1 0 0 0-.384.537l-1.679-.137c.086-.397.253-.741.503-1.03a2.41 2.41 0 0 1 .968-.674c.397-.16.857-.239 1.38-.239.364 0 .712.043 1.044.128.335.085.632.217.89.396.262.18.468.41.619.69.15.28.226.613.226 1.002V22h-1.722v-.908h-.051a1.848 1.848 0 0 1-.422.542 1.952 1.952 0 0 1-.635.362 2.622 2.622 0 0 1-.856.128Zm.52-1.253c.267 0 .503-.053.708-.158.204-.108.365-.253.481-.435a1.12 1.12 0 0 0 .175-.617v-.695a.975.975 0 0 1-.234.102 4.248 4.248 0 0 1-.329.081c-.122.023-.244.044-.366.064l-.332.047c-.213.031-.4.08-.559.15a.893.893 0 0 0-.37.276.675.675 0 0 0-.132.426c0 .247.09.436.268.567.182.128.412.192.69.192ZM91.365 22v-6.546h1.76v1.143h.068c.12-.407.32-.714.6-.92a1.58 1.58 0 0 1 .972-.316 2.763 2.763 0 0 1 .572.064v1.61a2.373 2.373 0 0 0-.354-.068c-.15-.02-.288-.03-.413-.03-.267 0-.506.059-.716.175a1.286 1.286 0 0 0-.495.478c-.119.204-.179.44-.179.707V22h-1.815Zm4.778 0v-6.546h1.816V22h-1.816Zm.912-7.39a.986.986 0 0 1-.695-.268.87.87 0 0 1-.285-.652c0-.25.095-.464.285-.643a.978.978 0 0 1 .695-.273c.27 0 .5.091.69.273.194.179.29.393.29.643 0 .253-.096.47-.29.652a.971.971 0 0 1-.69.269Zm5.183 7.518c-.662 0-1.234-.14-1.717-.422a2.889 2.889 0 0 1-1.112-1.185c-.262-.508-.393-1.098-.393-1.768 0-.676.131-1.267.392-1.773a2.854 2.854 0 0 1 1.113-1.184c.483-.285 1.055-.427 1.717-.427.662 0 1.233.142 1.713.427a2.85 2.85 0 0 1 1.117 1.184c.261.506.392 1.097.392 1.773 0 .67-.131 1.26-.392 1.768-.262.506-.634.9-1.117 1.185-.48.281-1.051.422-1.713.422Zm.009-1.406c.301 0 .552-.086.754-.256.202-.173.354-.41.456-.707.105-.299.157-.638.157-1.019 0-.38-.052-.72-.157-1.018a1.581 1.581 0 0 0-.456-.708 1.117 1.117 0 0 0-.754-.26c-.304 0-.56.087-.767.26-.205.174-.36.41-.465.708a3.14 3.14 0 0 0-.153 1.018c0 .38.051.72.153 1.019.105.298.26.534.465.707.207.17.463.256.767.256Z"/><rect width="156.712" height="32.396" x="4.288" y="58.415" stroke="#1E1E1E" stroke-linecap="round" stroke-width="4" rx="3"/><path fill="#000" fill-opacity=".8" d="M69.364 71.21v-1.522h7.167v1.521H73.86v7.206h-1.823v-7.206h-2.672Zm9.157 7.329c-.417 0-.79-.073-1.116-.218a1.797 1.797 0 0 1-.776-.652c-.187-.29-.28-.65-.28-1.082 0-.364.066-.67.2-.916.133-.247.315-.446.545-.597.23-.15.491-.264.784-.34.296-.078.605-.131.929-.163.38-.04.688-.076.92-.11.233-.037.402-.091.508-.162a.356.356 0 0 0 .157-.316v-.025c0-.27-.085-.479-.255-.627-.168-.148-.407-.221-.716-.221-.327 0-.587.072-.78.217a1 1 0 0 0-.384.537l-1.679-.136c.086-.398.253-.742.503-1.032.25-.292.573-.517.968-.673.397-.16.857-.239 1.38-.239.364 0 .712.043 1.044.128.335.085.632.217.89.396.262.18.468.41.619.69.15.28.226.613.226 1.002v4.415h-1.722v-.908h-.051a1.85 1.85 0 0 1-.422.542 1.954 1.954 0 0 1-.635.362 2.625 2.625 0 0 1-.856.128Zm.52-1.253c.267 0 .503-.053.708-.158.204-.108.365-.253.481-.435a1.12 1.12 0 0 0 .175-.617v-.695a.967.967 0 0 1-.234.102 4.292 4.292 0 0 1-.329.081c-.122.023-.244.044-.366.064l-.332.047c-.213.031-.4.08-.559.15a.893.893 0 0 0-.37.276.675.675 0 0 0-.132.426c0 .247.09.436.268.567.182.128.412.192.69.192Zm9.889-3.55-1.662.102a.859.859 0 0 0-.183-.383.972.972 0 0 0-.37-.277 1.26 1.26 0 0 0-.542-.107c-.281 0-.519.06-.712.18-.193.116-.29.272-.29.468 0 .156.063.288.188.396.125.108.34.195.643.26l1.185.239c.636.13 1.11.34 1.423.63.313.29.47.671.47 1.143 0 .429-.127.805-.38 1.129-.25.324-.594.577-1.031.758-.435.18-.936.269-1.505.269-.866 0-1.556-.18-2.07-.541a2.109 2.109 0 0 1-.9-1.483l1.786-.094a.917.917 0 0 0 .392.605c.207.136.473.205.797.205.318 0 .574-.061.767-.184.196-.125.295-.285.298-.481a.502.502 0 0 0-.209-.405c-.136-.108-.346-.19-.63-.247l-1.134-.226c-.64-.128-1.115-.35-1.428-.665-.31-.315-.464-.717-.464-1.206 0-.42.114-.782.34-1.086.23-.304.553-.539.968-.704.418-.164.906-.247 1.466-.247.827 0 1.477.175 1.952.524.477.35.755.826.835 1.428Zm2.805 2.795.004-2.177h.265L94.1 71.87h2.084l-2.817 3.29h-.43l-1.202 1.371Zm-1.645 1.884v-8.727h1.816v8.727H90.09Zm4.091 0-1.926-2.85 1.21-1.284 2.843 4.134H94.18Z"/><rect width="156.712" height="32.396" x="4.288" y="113.604" stroke="#1E1E1E" stroke-linecap="round" stroke-width="4" rx="3"/><path fill="#000" fill-opacity=".8" d="M48.62 124.876v8.728h-1.845v-8.728h1.845Zm3.167 4.944v3.784h-1.815v-6.546h1.73v1.155h.077c.145-.381.388-.682.729-.903.34-.225.754-.337 1.24-.337.454 0 .85.1 1.189.298.338.199.6.483.788.853.187.366.281.804.281 1.312v4.168h-1.815v-3.844c.003-.401-.1-.713-.307-.937-.207-.228-.493-.341-.856-.341-.245 0-.46.052-.648.157a1.1 1.1 0 0 0-.435.46 1.597 1.597 0 0 0-.158.721Zm5.518 6.238v-9h1.79v1.1h.08c.08-.176.195-.355.346-.537a1.81 1.81 0 0 1 .596-.46c.248-.125.554-.188.92-.188.478 0 .919.125 1.322.375.403.247.726.621.967 1.121.242.497.362 1.121.362 1.871 0 .73-.117 1.346-.353 1.849-.233.5-.551.879-.955 1.138-.4.255-.85.383-1.346.383-.353 0-.652-.058-.9-.174a1.87 1.87 0 0 1-.6-.439 2.231 2.231 0 0 1-.358-.542h-.056v3.503h-1.815Zm1.777-5.727c0 .389.054.729.162 1.018.108.29.264.516.469.678.204.159.453.239.745.239.296 0 .546-.081.75-.243a1.51 1.51 0 0 0 .465-.682c.108-.293.162-.629.162-1.01 0-.378-.053-.71-.158-.997a1.484 1.484 0 0 0-.464-.673 1.177 1.177 0 0 0-.755-.243 1.2 1.2 0 0 0-.75.234 1.468 1.468 0 0 0-.464.665 2.876 2.876 0 0 0-.162 1.014Zm9.882.486v-3.759h1.816v6.546h-1.743v-1.189h-.069a1.936 1.936 0 0 1-.737.925c-.34.233-.757.349-1.248.349-.438 0-.823-.099-1.155-.298a2.055 2.055 0 0 1-.78-.848c-.185-.367-.279-.806-.281-1.317v-4.168h1.815v3.844c.003.386.107.692.311.916.205.225.479.337.823.337.218 0 .423-.05.613-.149.19-.103.344-.253.46-.452.12-.199.178-.445.175-.737Zm6.617-3.759v1.364H71.64v-1.364h3.942Zm-3.047-1.568h1.816v6.102c0 .168.025.299.076.392a.424.424 0 0 0 .213.192.878.878 0 0 0 .324.056c.085 0 .17-.008.256-.022l.196-.038.285 1.351c-.09.028-.218.061-.383.098-.165.04-.365.064-.601.072-.438.017-.821-.041-1.15-.174a1.606 1.606 0 0 1-.763-.623c-.182-.281-.272-.636-.269-1.065v-6.341Zm6.777 8.114v-8.728h5.778v1.522h-3.933v2.079h3.55v1.522h-3.55v3.605h-1.845Zm9.33.128c-.662 0-1.234-.141-1.717-.422a2.885 2.885 0 0 1-1.112-1.185c-.261-.508-.392-1.098-.392-1.768 0-.677.13-1.267.392-1.773a2.85 2.85 0 0 1 1.112-1.185c.483-.284 1.055-.426 1.717-.426.662 0 1.233.142 1.713.426a2.84 2.84 0 0 1 1.117 1.185c.261.506.392 1.096.392 1.773 0 .67-.13 1.26-.392 1.768a2.877 2.877 0 0 1-1.117 1.185c-.48.281-1.05.422-1.713.422Zm.009-1.407c.301 0 .552-.085.754-.255.202-.174.354-.409.456-.708.105-.298.158-.638.158-1.018 0-.381-.053-.72-.158-1.019a1.584 1.584 0 0 0-.456-.707 1.118 1.118 0 0 0-.754-.26c-.304 0-.56.087-.767.26-.205.173-.36.409-.465.707a3.136 3.136 0 0 0-.153 1.019c0 .38.051.72.153 1.018a1.6 1.6 0 0 0 .465.708c.207.17.463.255.767.255Zm4.261 1.279v-6.546h1.76v1.142h.069c.119-.406.32-.713.6-.92a1.58 1.58 0 0 1 .972-.315 2.589 2.589 0 0 1 .571.063v1.611a2.471 2.471 0 0 0-.354-.068 3.16 3.16 0 0 0-.413-.03c-.267 0-.506.058-.716.175a1.292 1.292 0 0 0-.494.477c-.12.205-.18.441-.18.708v3.703h-1.815Zm4.778 0v-6.546h1.73v1.155h.077a1.82 1.82 0 0 1 .682-.908c.318-.221.699-.332 1.142-.332.449 0 .831.112 1.147.337.315.221.525.522.63.903h.068a1.74 1.74 0 0 1 .725-.899c.352-.227.768-.341 1.248-.341.611 0 1.107.195 1.488.584.383.386.575.935.575 1.645v4.402h-1.811v-4.044c0-.364-.097-.637-.29-.818a1.015 1.015 0 0 0-.724-.273c-.33 0-.587.105-.772.315-.184.208-.277.482-.277.823v3.997h-1.76v-4.083c0-.321-.092-.576-.277-.767-.181-.19-.421-.285-.72-.285-.201 0-.383.051-.545.153-.16.1-.286.24-.38.422a1.35 1.35 0 0 0-.14.631v3.929h-1.816Zm12.68.123c-.417 0-.789-.072-1.116-.217a1.802 1.802 0 0 1-.776-.652c-.187-.29-.281-.651-.281-1.082 0-.364.067-.669.2-.917.134-.247.316-.446.546-.596.23-.151.491-.264.784-.341.295-.077.605-.131.929-.162.381-.04.687-.077.92-.111.233-.037.402-.091.507-.162a.354.354 0 0 0 .158-.315v-.026c0-.27-.085-.478-.256-.626-.167-.148-.406-.222-.716-.222-.326 0-.586.073-.779.218a.999.999 0 0 0-.384.537l-1.679-.137c.085-.397.253-.741.503-1.031.25-.293.572-.517.967-.673.398-.159.858-.239 1.381-.239.364 0 .712.043 1.044.128.335.085.632.217.891.396.261.179.467.409.618.691.15.278.225.612.225 1.001v4.415h-1.721v-.908h-.051a1.838 1.838 0 0 1-.422.541 1.941 1.941 0 0 1-.635.362 2.606 2.606 0 0 1-.857.128Zm.52-1.253c.267 0 .503-.052.708-.157.204-.108.365-.253.481-.435.117-.182.175-.388.175-.618v-.694a.96.96 0 0 1-.235.102 4.508 4.508 0 0 1-.328.081c-.122.023-.244.044-.366.064l-.333.047a2.24 2.24 0 0 0-.558.149.884.884 0 0 0-.37.277.669.669 0 0 0-.133.426c0 .247.09.436.269.567.182.128.412.191.69.191Zm7.924-5.416v1.364h-3.941v-1.364h3.941Zm-3.047-1.568h1.816v6.102c0 .168.025.299.076.392a.428.428 0 0 0 .214.192.87.87 0 0 0 .323.056c.086 0 .171-.008.256-.022l.196-.038.286 1.351a5.36 5.36 0 0 1-.384.098c-.165.04-.365.064-.601.072-.437.017-.821-.041-1.15-.174a1.606 1.606 0 0 1-.763-.623c-.182-.281-.271-.636-.269-1.065v-6.341Z"/><path fill="#1E1E1E" d="M193 61a2 2 0 1 0 0 4v-4Zm64.903 10.88c0 1.105 1.352 1.886 2.309 1.334l15.381-8.88c.957-.553.957-2.115 0-2.667l-15.381-8.88c-.957-.553-2.309.228-2.309 1.333v17.76ZM193 65h66.903v-4H193v4Z"/><rect width="115" height="61" x="471" y="34" stroke="#1E1E1E" stroke-linecap="round" stroke-width="4" rx="6"/><path fill="#1E1E1E" d="M516.592 59.91v8.726h-1.845V59.91h1.845Zm3.168 4.942v3.784h-1.816v-6.545h1.73v1.155h.077c.145-.381.388-.682.729-.904.341-.224.754-.336 1.24-.336.454 0 .851.1 1.189.298.338.199.601.483.788.852.188.367.281.804.281 1.313v4.167h-1.815v-3.843c.003-.401-.099-.714-.307-.938-.207-.227-.493-.34-.856-.34a1.3 1.3 0 0 0-.648.157c-.185.105-.33.258-.435.46a1.6 1.6 0 0 0-.157.72Zm5.517 6.239v-9h1.79v1.1h.081a2.39 2.39 0 0 1 .345-.538c.153-.184.352-.338.597-.46.247-.125.554-.187.92-.187.477 0 .918.125 1.321.375.404.247.726.62.967 1.12.242.498.363 1.121.363 1.871 0 .73-.118 1.347-.354 1.85-.233.5-.551.879-.955 1.137-.4.256-.849.384-1.346.384-.352 0-.652-.058-.899-.175a1.851 1.851 0 0 1-.601-.439 2.226 2.226 0 0 1-.358-.54h-.055v3.502h-1.816Zm1.777-5.727c0 .389.054.728.162 1.018.108.29.264.516.469.678.204.159.453.238.746.238.295 0 .545-.08.75-.243.204-.164.359-.392.464-.681.108-.293.162-.63.162-1.01 0-.378-.053-.71-.158-.998a1.487 1.487 0 0 0-.464-.673 1.178 1.178 0 0 0-.754-.243c-.296 0-.546.078-.75.235a1.47 1.47 0 0 0-.465.664 2.876 2.876 0 0 0-.162 1.015Zm9.882.485v-3.758h1.816v6.545h-1.743v-1.189h-.068a1.934 1.934 0 0 1-.738.925c-.341.233-.757.35-1.248.35-.438 0-.823-.1-1.155-.299a2.057 2.057 0 0 1-.78-.848c-.184-.366-.278-.805-.281-1.317v-4.167h1.815v3.844c.003.386.107.691.311.916.205.224.479.337.823.337a1.3 1.3 0 0 0 .613-.15c.191-.102.344-.252.461-.451.119-.2.177-.445.174-.738Zm6.617-3.758v1.364h-3.941V62.09h3.941Zm-3.047-1.568h1.816v6.102a.83.83 0 0 0 .076.392c.052.09.123.155.214.192a.873.873 0 0 0 .323.055c.086 0 .171-.007.256-.021l.196-.038.286 1.35a5.103 5.103 0 0 1-.384.098c-.165.04-.365.064-.601.073-.437.017-.821-.041-1.15-.175a1.606 1.606 0 0 1-.763-.622c-.182-.281-.271-.636-.269-1.065v-6.341Z"/><rect width="115" height="61" x="631" y="34" stroke="#1E1E1E" stroke-linecap="round" stroke-width="4" rx="6"/><path fill="#1E1E1E" d="M676.592 59.91v8.726h-1.845V59.91h1.845Zm3.168 4.942v3.784h-1.816v-6.545h1.73v1.155h.077c.145-.381.388-.682.729-.904.341-.224.754-.336 1.24-.336.454 0 .851.1 1.189.298.338.199.601.483.788.852.188.367.281.804.281 1.313v4.167h-1.815v-3.843c.003-.401-.099-.714-.307-.938-.207-.227-.493-.34-.856-.34a1.3 1.3 0 0 0-.648.157c-.185.105-.33.258-.435.46a1.6 1.6 0 0 0-.157.72Zm5.517 6.239v-9h1.79v1.1h.081a2.39 2.39 0 0 1 .345-.538c.153-.184.352-.338.597-.46.247-.125.554-.187.92-.187.477 0 .918.125 1.321.375.404.247.726.62.967 1.12.242.498.363 1.121.363 1.871 0 .73-.118 1.347-.354 1.85-.233.5-.551.879-.955 1.137-.4.256-.849.384-1.346.384-.352 0-.652-.058-.899-.175a1.851 1.851 0 0 1-.601-.439 2.226 2.226 0 0 1-.358-.54h-.055v3.502h-1.816Zm1.777-5.727c0 .389.054.728.162 1.018.108.29.264.516.469.678.204.159.453.238.746.238.295 0 .545-.08.75-.243.204-.164.359-.392.464-.681.108-.293.162-.63.162-1.01 0-.378-.053-.71-.158-.998a1.487 1.487 0 0 0-.464-.673 1.178 1.178 0 0 0-.754-.243c-.296 0-.546.078-.75.235a1.47 1.47 0 0 0-.465.664 2.876 2.876 0 0 0-.162 1.015Zm9.882.485v-3.758h1.816v6.545h-1.743v-1.189h-.068a1.934 1.934 0 0 1-.738.925c-.341.233-.757.35-1.248.35-.438 0-.823-.1-1.155-.299a2.057 2.057 0 0 1-.78-.848c-.184-.366-.278-.805-.281-1.317v-4.167h1.815v3.844c.003.386.107.691.311.916.205.224.479.337.823.337a1.3 1.3 0 0 0 .613-.15c.191-.102.344-.252.461-.451.119-.2.177-.445.174-.738Zm6.617-3.758v1.364h-3.941V62.09h3.941Zm-3.047-1.568h1.816v6.102a.83.83 0 0 0 .076.392c.052.09.123.155.214.192a.873.873 0 0 0 .323.055c.086 0 .171-.007.256-.021l.196-.038.286 1.35a5.103 5.103 0 0 1-.384.098c-.165.04-.365.064-.601.073-.437.017-.821-.041-1.15-.175a1.606 1.606 0 0 1-.763-.622c-.182-.281-.271-.636-.269-1.065v-6.341Z"/></svg>