<svg xmlns="http://www.w3.org/2000/svg" width="877" height="136" fill="none"><path fill="#1E1E1E" d="M191 50a2 2 0 1 0 0 4zm64.903 10.88c0 1.105 1.352 1.886 2.309 1.334l15.381-8.88c.957-.553.957-2.115 0-2.667l-15.381-8.88c-.957-.553-2.309.228-2.309 1.333zM191 54h66.903v-4H191z"/><path stroke="#FFCD29" stroke-linecap="round" stroke-linejoin="bevel" stroke-width="4" d="M405 52.193h-48m-10 0h-22"/><rect width="109" height="21.518" x="312" y="42" stroke="#1E1E1E" stroke-linecap="round" stroke-width="4" rx="3"/><path fill="#1E1E1E" d="M457.5 50a2 2 0 1 0 0 4zm64.903 10.88c0 1.105 1.352 1.886 2.309 1.334l15.381-8.88c.957-.553.957-2.115 0-2.667l-15.381-8.88c-.957-.553-2.309.228-2.309 1.333zM457.5 54h66.903v-4H457.5zM39.48 129.182v-11.637h7.84v2.029h-5.38v2.773h4.977v2.028H41.94v2.778h5.403v2.029zm11.598-8.728 1.602 3.052 1.642-3.052h2.483l-2.528 4.364 2.596 4.364h-2.471l-1.722-3.017-1.693 3.017h-2.5l2.591-4.364-2.5-4.364zm6.989 8.728v-8.728h2.42v8.728zm1.216-9.853q-.54 0-.927-.357a1.16 1.16 0 0 1-.38-.87q0-.5.38-.858.387-.363.927-.363t.92.363q.387.359.386.858 0 .505-.386.87-.38.357-.92.357m10.228 3.614-2.215.136a1.15 1.15 0 0 0-.245-.511 1.3 1.3 0 0 0-.494-.369 1.7 1.7 0 0 0-.722-.142q-.563 0-.948.238-.387.234-.387.625 0 .313.25.529t.858.346l1.58.319q1.272.261 1.897.84.625.58.625 1.523 0 .858-.505 1.506-.5.648-1.375 1.011-.87.358-2.006.358-1.733 0-2.761-.721a2.8 2.8 0 0 1-1.2-1.978l2.381-.125q.109.53.523.807.415.273 1.063.273.636 0 1.022-.244.393-.25.398-.642a.67.67 0 0 0-.278-.54q-.273-.216-.841-.33l-1.512-.301q-1.278-.255-1.903-.886-.62-.632-.62-1.608 0-.842.455-1.449.46-.608 1.29-.938.835-.329 1.955-.329 1.653 0 2.602.699.954.699 1.114 1.903m6.19-2.489v1.819h-5.256v-1.819zm-4.063-2.09h2.42v8.136q0 .335.103.523a.56.56 0 0 0 .284.255q.188.075.432.074.17 0 .34-.028l.262-.051.38 1.801a7 7 0 0 1-.51.13q-.33.08-.802.097-.875.034-1.534-.233a2.14 2.14 0 0 1-1.017-.829q-.364-.563-.358-1.421zm5.463 10.818v-8.728h2.42v8.728zm1.216-9.853q-.54 0-.926-.357a1.16 1.16 0 0 1-.38-.87q0-.5.38-.858.386-.363.926-.363t.92.363q.387.359.387.858 0 .505-.386.87-.381.357-.92.357m5.388 4.807v5.046h-2.42v-8.728h2.306v1.54h.103q.29-.761.971-1.204.682-.45 1.654-.449.909 0 1.585.398t1.051 1.136q.375.733.375 1.75v5.557h-2.42v-5.125q.005-.801-.41-1.25-.414-.455-1.141-.455-.489 0-.864.21a1.47 1.47 0 0 0-.58.614q-.204.397-.21.96m11.289 8.5q-1.177 0-2.017-.324-.835-.317-1.33-.869a2.67 2.67 0 0 1-.642-1.239l2.239-.301q.102.262.323.489.222.228.586.364.369.141.897.142.79 0 1.302-.387.516-.38.516-1.278v-1.597h-.102a2.3 2.3 0 0 1-.477.688 2.4 2.4 0 0 1-.818.528q-.5.205-1.193.205a3.6 3.6 0 0 1-1.79-.455q-.8-.46-1.279-1.403-.471-.95-.471-2.398 0-1.483.483-2.477t1.284-1.489a3.3 3.3 0 0 1 1.767-.494q.734 0 1.227.25.495.244.796.613.306.365.471.716h.091v-1.466h2.404v8.813q0 1.113-.546 1.864-.546.75-1.511 1.125-.96.38-2.21.38m.05-5.397q.585 0 .99-.29.408-.295.624-.841.222-.552.222-1.318 0-.768-.216-1.33-.216-.568-.625-.881-.41-.312-.994-.312-.597 0-1.006.324-.41.318-.62.886t-.21 1.313q0 .755.21 1.307.217.545.62.846.41.296 1.006.296m17.255-5.932a2.5 2.5 0 0 0-.335-.733 2.1 2.1 0 0 0-.528-.546 2.3 2.3 0 0 0-.705-.346 3 3 0 0 0-.869-.12q-.893 0-1.568.444-.67.443-1.046 1.289-.375.842-.375 2.057 0 1.216.369 2.068.37.853 1.046 1.302.676.443 1.596.443.836 0 1.427-.296.595-.3.909-.846.318-.546.318-1.29l.5.074h-3v-1.853h4.869v1.466q0 1.534-.648 2.637a4.4 4.4 0 0 1-1.784 1.693q-1.136.591-2.602.591-1.636 0-2.875-.722-1.239-.727-1.932-2.062-.687-1.341-.687-3.182 0-1.415.409-2.523a5.4 5.4 0 0 1 1.159-1.886 5 5 0 0 1 1.733-1.176 5.6 5.6 0 0 1 2.142-.404q.989 0 1.841.29a4.9 4.9 0 0 1 1.511.807q.665.522 1.085 1.244.421.716.54 1.58zm8.178 8.045q-1.324 0-2.29-.562a3.86 3.86 0 0 1-1.483-1.58q-.522-1.017-.523-2.358 0-1.352.523-2.363a3.8 3.8 0 0 1 1.483-1.58q.966-.568 2.29-.568 1.323 0 2.284.568.966.563 1.489 1.58.522 1.011.522 2.363 0 1.341-.522 2.358a3.85 3.85 0 0 1-1.489 1.58q-.96.562-2.284.562m.011-1.875q.603 0 1.006-.341.404-.346.608-.943.21-.596.21-1.358 0-.76-.21-1.358-.204-.597-.608-.943-.403-.347-1.006-.347-.608 0-1.022.347-.41.346-.62.943a4.2 4.2 0 0 0-.204 1.358q0 .762.204 1.358.21.597.62.943.414.341 1.022.341m8.103-9.932v11.637h-2.421v-11.637zm4.979 11.779a3.3 3.3 0 0 1-1.802-.512q-.801-.516-1.272-1.517-.466-1.005-.466-2.466 0-1.5.483-2.494.483-1 1.284-1.494a3.3 3.3 0 0 1 1.767-.5q.733 0 1.221.25.495.244.796.613.306.365.466.716h.074v-4.375h2.414v11.637h-2.386v-1.398h-.102a3.2 3.2 0 0 1-.483.722q-.308.352-.801.585-.49.233-1.193.233m.767-1.926q.585 0 .988-.319.41-.323.625-.903.222-.58.222-1.358t-.216-1.352-.625-.887q-.41-.312-.994-.312-.597 0-1.006.324t-.619.898q-.211.573-.211 1.329 0 .762.211 1.347.215.579.619.909.41.324 1.006.324m9.99 1.954q-1.347 0-2.318-.545a3.74 3.74 0 0 1-1.489-1.557q-.523-1.012-.523-2.392 0-1.347.523-2.364a3.86 3.86 0 0 1 1.472-1.585q.954-.568 2.238-.568.864 0 1.608.278.75.273 1.307.824.563.552.875 1.386.312.83.312 1.944v.664h-7.369v-1.5h5.091a1.86 1.86 0 0 0-.227-.926 1.63 1.63 0 0 0-.631-.63 1.8 1.8 0 0 0-.926-.233q-.552 0-.977.255a1.8 1.8 0 0 0-.659.676q-.24.421-.245.938v1.426q0 .648.239 1.119.245.472.687.728.443.255 1.052.255.403 0 .738-.113.336-.114.574-.341t.364-.557l2.238.148a3.05 3.05 0 0 1-.699 1.409q-.522.596-1.352.932-.824.329-1.903.329m7.829-5.216v5.046h-2.42v-8.728h2.307v1.54h.102q.29-.761.972-1.204.681-.45 1.653-.449.91 0 1.585.398.676.398 1.051 1.136.375.733.375 1.75v5.557h-2.42v-5.125q.005-.801-.409-1.25-.415-.455-1.142-.455-.489 0-.864.21a1.47 1.47 0 0 0-.579.614q-.205.397-.211.96m14.618-1.193-2.215.136a1.15 1.15 0 0 0-.245-.511 1.3 1.3 0 0 0-.494-.369 1.7 1.7 0 0 0-.722-.142q-.562 0-.949.238-.386.234-.386.625 0 .313.25.529t.858.346l1.58.319q1.273.261 1.897.84.625.58.625 1.523 0 .858-.505 1.506-.5.648-1.375 1.011-.87.358-2.006.358-1.733 0-2.761-.721a2.8 2.8 0 0 1-1.199-1.978l2.38-.125q.109.53.523.807.415.273 1.063.273.636 0 1.022-.244.392-.25.398-.642a.67.67 0 0 0-.278-.54q-.273-.216-.841-.33l-1.512-.301q-1.278-.255-1.903-.886-.62-.632-.619-1.608 0-.842.454-1.449.46-.608 1.29-.938.835-.329 1.955-.329 1.653 0 2.602.699.954.699 1.113 1.903m176.313-1.324h-2.489a2.4 2.4 0 0 0-.278-.858 2.2 2.2 0 0 0-.54-.647 2.4 2.4 0 0 0-.761-.41 3 3 0 0 0-.927-.142q-.903 0-1.573.449-.67.444-1.04 1.296-.37.846-.37 2.057 0 1.244.37 2.09.375.847 1.045 1.279t1.551.432q.495 0 .915-.131.426-.13.756-.381.33-.255.545-.619.222-.363.307-.83l2.489.012a4.64 4.64 0 0 1-1.512 2.869 4.8 4.8 0 0 1-1.534.921q-.886.335-2.005.335-1.557 0-2.785-.705-1.221-.704-1.931-2.039-.705-1.336-.705-3.233 0-1.904.716-3.239t1.943-2.034q1.227-.705 2.762-.705 1.011 0 1.875.284.869.284 1.539.83.67.54 1.091 1.324.426.784.546 1.795m5.486 7.733q-1.324 0-2.29-.562a3.85 3.85 0 0 1-1.483-1.58q-.523-1.017-.523-2.358 0-1.352.523-2.363a3.8 3.8 0 0 1 1.483-1.58q.966-.568 2.29-.568 1.323 0 2.284.568a3.8 3.8 0 0 1 1.488 1.58q.523 1.011.523 2.363 0 1.341-.523 2.358a3.84 3.84 0 0 1-1.488 1.58q-.96.562-2.284.562m.011-1.875q.603 0 1.006-.341.403-.346.608-.943.21-.596.21-1.358 0-.76-.21-1.358-.205-.597-.608-.943-.403-.347-1.006-.347-.607 0-1.023.347-.408.346-.619.943a4.2 4.2 0 0 0-.205 1.358q0 .762.205 1.358.21.597.619.943.416.341 1.023.341m8.102-3.341v5.046h-2.42v-8.728h2.307v1.54h.102q.29-.761.972-1.204.681-.45 1.653-.449.91 0 1.585.398.676.398 1.051 1.136.375.733.375 1.75v5.557h-2.42v-5.125q.005-.801-.409-1.25-.415-.455-1.142-.455-.489 0-.864.21a1.47 1.47 0 0 0-.579.614q-.205.397-.211.96m11.999-3.682v1.819h-5.256v-1.819zm-4.062-2.09h2.42v8.136q0 .335.102.523a.57.57 0 0 0 .284.255q.188.075.432.074.171 0 .341-.028l.262-.051.38 1.801a7 7 0 0 1-.511.13q-.33.08-.801.097-.876.034-1.534-.233a2.14 2.14 0 0 1-1.017-.829q-.364-.563-.358-1.421zm9.346 10.988q-1.346 0-2.318-.545a3.74 3.74 0 0 1-1.488-1.557q-.523-1.012-.523-2.392 0-1.347.523-2.364a3.86 3.86 0 0 1 1.471-1.585q.955-.568 2.239-.568.864 0 1.608.278.75.273 1.307.824.562.552.875 1.386.312.83.312 1.944v.664h-7.369v-1.5h5.091a1.85 1.85 0 0 0-.228-.926 1.6 1.6 0 0 0-.63-.63 1.8 1.8 0 0 0-.926-.233q-.552 0-.978.255-.42.25-.659.676-.238.421-.244.938v1.426q0 .648.239 1.119.244.472.687.728.443.255 1.051.255.403 0 .739-.113.335-.114.574-.341a1.5 1.5 0 0 0 .363-.557l2.239.148a3.07 3.07 0 0 1-.699 1.409q-.522.596-1.352.932-.824.329-1.904.329m7.276-8.898 1.602 3.052 1.642-3.052h2.483l-2.528 4.364 2.597 4.364h-2.472l-1.722-3.017-1.693 3.017h-2.5l2.591-4.364-2.5-4.364zm11.631 0v1.819h-5.256v-1.819zm-4.063-2.09h2.421v8.136q0 .335.102.523a.56.56 0 0 0 .284.255q.187.075.432.074.17 0 .341-.028l.261-.051.381 1.801a7 7 0 0 1-.511.13q-.33.08-.802.097-.874.034-1.534-.233a2.15 2.15 0 0 1-1.017-.829q-.363-.563-.358-1.421zm12.616 4.579-2.216.136a1.15 1.15 0 0 0-.245-.511 1.3 1.3 0 0 0-.494-.369 1.7 1.7 0 0 0-.722-.142q-.562 0-.948.238-.387.234-.387.625 0 .313.25.529t.858.346l1.58.319q1.272.261 1.897.84.625.58.625 1.523 0 .858-.505 1.506-.5.648-1.375 1.011-.87.358-2.006.358-1.733 0-2.761-.721a2.8 2.8 0 0 1-1.199-1.978l2.381-.125q.108.53.522.807.415.273 1.063.273.636 0 1.022-.244.392-.25.398-.642a.67.67 0 0 0-.278-.54q-.273-.216-.841-.33l-1.511-.301q-1.279-.255-1.904-.886-.62-.632-.619-1.608 0-.842.454-1.449.46-.608 1.29-.938.835-.329 1.955-.329 1.653 0 2.602.699.954.699 1.114 1.903"/><path stroke="#FFCD29" stroke-linecap="round" stroke-linejoin="bevel" stroke-width="4" d="M141 30.157H93m-10 0H61"/><rect width="109" height="23.132" x="48" y="19.2" stroke="#1E1E1E" stroke-linecap="round" stroke-width="4" rx="3"/><rect width="137" height="86" x="34" y="2" stroke="#1E1E1E" stroke-linecap="round" stroke-width="4" rx="6"/><path fill="#1E1E1E" d="M59.67 53.727V61h-1.538v-7.273zm2.64 4.12V61h-1.514v-5.455h1.442v.963h.064q.18-.475.607-.753.426-.28 1.034-.28.569 0 .99.248.423.25.657.71t.235 1.094V61h-1.513v-3.203q.003-.5-.256-.781-.258-.285-.713-.285-.306 0-.54.132a.9.9 0 0 0-.362.383 1.3 1.3 0 0 0-.132.6m4.597 5.198v-7.5H68.4v.917h.067q.099-.22.288-.448.192-.231.497-.383.31-.157.767-.157.597 0 1.1.313.505.309.807.934.302.621.302 1.559 0 .912-.295 1.541-.291.625-.796.948-.5.32-1.122.32-.44 0-.749-.146a1.6 1.6 0 0 1-.5-.366q-.195-.224-.299-.45h-.046v2.918zm1.481-4.772q0 .486.135.848.135.363.39.565.256.2.622.199a.98.98 0 0 0 .625-.203q.256-.205.387-.568.135-.365.135-.841a2.4 2.4 0 0 0-.131-.831 1.24 1.24 0 0 0-.388-.561.98.98 0 0 0-.628-.203 1 1 0 0 0-.625.196q-.252.194-.387.554-.135.358-.135.845m8.235.405v-3.133h1.513V61h-1.453v-.99h-.056a1.6 1.6 0 0 1-.615.77q-.425.291-1.04.291-.547 0-.962-.249a1.7 1.7 0 0 1-.65-.706q-.23-.458-.235-1.097v-3.474h1.513v3.204q.003.483.26.763.255.28.685.28.273.001.511-.124a1 1 0 0 0 .384-.376q.149-.248.145-.614m5.514-3.133v1.137h-3.285v-1.137zm-2.539-1.306h1.513v5.085q0 .21.064.327a.35.35 0 0 0 .177.16q.118.045.27.045.106 0 .213-.017l.164-.032.238 1.125a4 4 0 0 1-.32.082 2.6 2.6 0 0 1-.5.06 2.3 2.3 0 0 1-.96-.145 1.34 1.34 0 0 1-.635-.519q-.227-.351-.224-.887zM57.132 76v-7.273h4.9v1.268H58.67v1.733h3.11v1.268h-3.11v1.736h3.377V76zm7.249-5.454 1.001 1.906 1.027-1.906h1.551l-1.58 2.727L68.003 76h-1.545l-1.076-1.886L64.324 76h-1.562l1.619-2.727-1.563-2.727zm4.368 7.5v-7.5h1.491v.916h.068q.1-.22.287-.448.192-.23.498-.383.309-.157.767-.157.596 0 1.1.313.505.309.807.934.301.621.302 1.559 0 .912-.295 1.541-.291.626-.796.948-.5.32-1.122.32-.44 0-.75-.146a1.6 1.6 0 0 1-.5-.366q-.195-.224-.298-.45h-.046v2.919zm1.48-4.773q0 .486.136.848.135.363.39.565.256.2.622.199a.98.98 0 0 0 .625-.203q.256-.205.387-.568.135-.365.135-.841a2.4 2.4 0 0 0-.132-.831 1.24 1.24 0 0 0-.387-.561.98.98 0 0 0-.628-.203 1 1 0 0 0-.625.196q-.252.194-.387.554-.135.358-.135.845m7.224 2.834q-.841 0-1.449-.341a2.34 2.34 0 0 1-.93-.973q-.327-.633-.327-1.495 0-.842.327-1.478.326-.635.92-.99.596-.356 1.398-.356.54 0 1.005.174.47.171.817.515.352.345.547.867.195.519.195 1.214v.416h-4.605v-.938h3.181q0-.326-.142-.578a1 1 0 0 0-.394-.395 1.1 1.1 0 0 0-.579-.145q-.345 0-.61.16a1.1 1.1 0 0 0-.412.422q-.15.262-.153.586v.891q0 .405.15.7t.429.454q.276.16.657.16.252 0 .461-.07a.93.93 0 0 0 .586-.561l1.4.091a1.9 1.9 0 0 1-.437.881q-.327.373-.846.583-.515.206-1.19.206m5.845 0q-.839 0-1.442-.356a2.4 2.4 0 0 1-.923-.994q-.32-.636-.32-1.463 0-.839.324-1.47a2.4 2.4 0 0 1 .926-.99q.6-.36 1.428-.36.713 0 1.25.26.536.258.849.728.312.469.344 1.1h-1.427a1.1 1.1 0 0 0-.32-.656q-.255-.253-.671-.253-.352 0-.615.192a1.2 1.2 0 0 0-.404.55 2.4 2.4 0 0 0-.146.878q0 .522.142.888.145.365.408.557t.615.192a1 1 0 0 0 .465-.107.9.9 0 0 0 .344-.309q.139-.206.182-.493h1.427a2.24 2.24 0 0 1-.34 1.1 2.06 2.06 0 0 1-.835.74q-.533.266-1.26.266m6.196-5.561v1.136H86.21v-1.136zm-2.539-1.307h1.513v5.085q0 .21.064.327a.35.35 0 0 0 .177.16q.117.045.27.045.106 0 .213-.017l.164-.032.238 1.126a4 4 0 0 1-.32.081 2.6 2.6 0 0 1-.5.06 2.3 2.3 0 0 1-.96-.145 1.34 1.34 0 0 1-.635-.519q-.227-.351-.224-.887zm5.842 6.867q-.841 0-1.45-.34a2.34 2.34 0 0 1-.93-.973q-.326-.633-.326-1.495 0-.842.326-1.478.327-.635.92-.99.597-.356 1.4-.356.54 0 1.004.174.47.171.817.515.351.345.547.867.195.519.195 1.214v.416h-4.606v-.938h3.182q0-.326-.142-.578a1 1 0 0 0-.394-.395 1.1 1.1 0 0 0-.579-.145q-.345 0-.61.16a1.1 1.1 0 0 0-.413.422q-.149.262-.152.586v.891q0 .405.149.7.153.294.43.454.276.16.656.16.253 0 .462-.07a.93.93 0 0 0 .586-.561l1.4.091q-.108.505-.437.881-.327.373-.846.583-.515.206-1.19.206m5.39-.017a2.06 2.06 0 0 1-1.125-.32q-.501-.323-.796-.948-.291-.629-.291-1.541 0-.937.302-1.56.302-.624.802-.933a2.06 2.06 0 0 1 1.105-.313q.458 0 .763.157.309.153.498.383.19.227.29.448h.047v-2.735h1.509V76H99.8v-.874h-.064a2 2 0 0 1-.302.451 1.5 1.5 0 0 1-.5.366 1.7 1.7 0 0 1-.747.146m.48-1.204q.366 0 .618-.199.255-.202.39-.565.14-.362.139-.848 0-.487-.135-.845-.135-.36-.39-.554a1 1 0 0 0-.622-.196.98.98 0 0 0-.629.203q-.256.203-.387.56a2.4 2.4 0 0 0-.131.832q0 .476.131.841.136.362.387.569a.98.98 0 0 0 .629.202m12.674-2.521q0 1.189-.451 2.024a3.13 3.13 0 0 1-1.222 1.275 3.45 3.45 0 0 1-1.733.436 3.45 3.45 0 0 1-1.74-.44 3.14 3.14 0 0 1-1.218-1.275q-.447-.835-.447-2.02 0-1.19.447-2.025a3.1 3.1 0 0 1 1.218-1.27 3.45 3.45 0 0 1 1.74-.441q.963 0 1.733.44.775.437 1.222 1.272.451.834.451 2.024m-1.559 0q0-.77-.231-1.3a1.76 1.76 0 0 0-.643-.803 1.73 1.73 0 0 0-.973-.273 1.73 1.73 0 0 0-.973.273q-.415.274-.646.803-.227.53-.227 1.3t.227 1.3q.23.529.646.802t.973.273q.558 0 .973-.273.416-.273.643-.803.231-.529.231-1.3m6.057 1.314v-3.132h1.513V76H115.9v-.99h-.057q-.185.479-.614.77-.426.291-1.041.291-.546 0-.962-.249a1.7 1.7 0 0 1-.65-.706q-.231-.459-.234-1.097v-3.474h1.512v3.204q.004.483.26.763.255.28.685.28.274.001.511-.124a.97.97 0 0 0 .384-.376 1.15 1.15 0 0 0 .145-.614m5.515-3.132v1.136h-3.285v-1.136zm-2.539-1.307h1.512v5.085q0 .21.064.327a.35.35 0 0 0 .178.16q.117.045.27.045.107 0 .213-.017l.163-.032.238 1.126q-.114.034-.32.081a2.6 2.6 0 0 1-.5.06 2.3 2.3 0 0 1-.959-.145 1.34 1.34 0 0 1-.636-.519q-.227-.351-.223-.887zm3.414 8.807v-7.5h1.491v.916h.068q.099-.22.288-.448.19-.23.497-.383.309-.157.767-.157.596 0 1.101.313.504.309.806.934.302.621.302 1.559 0 .912-.295 1.541-.29.626-.796.948-.5.32-1.122.32a1.75 1.75 0 0 1-.749-.146 1.6 1.6 0 0 1-.501-.366q-.195-.224-.298-.45h-.046v2.919zm1.481-4.773q0 .486.135.848.135.363.39.565a1 1 0 0 0 .622.199.98.98 0 0 0 .625-.203q.255-.205.387-.568.135-.365.135-.841a2.4 2.4 0 0 0-.132-.831 1.23 1.23 0 0 0-.387-.561.98.98 0 0 0-.628-.203 1 1 0 0 0-.625.196q-.252.194-.387.554-.135.358-.135.845m8.235.405v-3.132h1.513V76h-1.453v-.99h-.056q-.185.479-.615.77-.426.291-1.04.291-.547 0-.963-.249a1.7 1.7 0 0 1-.649-.706q-.232-.459-.235-1.097v-3.474h1.513v3.204q.004.483.259.763.256.28.686.28.273.001.511-.124a1 1 0 0 0 .383-.376q.15-.249.146-.614m5.514-3.132v1.136h-3.285v-1.136zm-2.539-1.307h1.513v5.085q0 .21.064.327a.35.35 0 0 0 .177.16q.117.045.27.045.107 0 .213-.017l.164-.032.238 1.126q-.114.034-.32.081a2.6 2.6 0 0 1-.501.06 2.3 2.3 0 0 1-.959-.145 1.34 1.34 0 0 1-.635-.519q-.227-.351-.224-.887zm523.585 51.653q-.067-.687-.585-1.068-.517-.381-1.403-.381-.603 0-1.017.171a1.43 1.43 0 0 0-.637.46q-.216.295-.216.67a.96.96 0 0 0 .131.546q.148.232.403.403.257.165.591.29.336.12.716.204l1.046.25q.76.171 1.397.455.637.283 1.103.699.465.414.721.977.262.563.267 1.29-.005 1.068-.545 1.852-.534.779-1.546 1.21-1.005.427-2.426.427-1.408 0-2.454-.432-1.04-.432-1.625-1.279-.58-.852-.608-2.108h2.38q.04.586.336.978.3.386.801.585.506.193 1.142.193.625 0 1.085-.182a1.67 1.67 0 0 0 .722-.505 1.17 1.17 0 0 0 .255-.745.96.96 0 0 0-.233-.659q-.227-.267-.67-.454a7 7 0 0 0-1.074-.341l-1.267-.319q-1.472-.357-2.324-1.119-.852-.76-.846-2.051-.006-1.057.562-1.847.574-.789 1.574-1.233 1-.443 2.273-.443 1.295 0 2.261.443.972.444 1.511 1.233.54.79.557 1.83zm5.445 11.562q-.46 0-.864-.073a3.2 3.2 0 0 1-.659-.177l.546-1.806q.426.13.767.142a.98.98 0 0 0 .596-.159q.256-.17.415-.58l.142-.369-3.13-8.978h2.545l1.807 6.41h.091l1.824-6.41h2.562l-3.392 9.671q-.244.705-.665 1.227a2.7 2.7 0 0 1-1.051.813q-.636.29-1.534.289m10.125-8.318v5.046h-2.42v-8.728h2.307v1.54h.102q.29-.761.971-1.204.682-.45 1.654-.449.909 0 1.585.398t1.051 1.136q.375.733.375 1.75v5.557h-2.42v-5.125q.005-.801-.409-1.25-.416-.455-1.142-.455-.489 0-.864.21a1.5 1.5 0 0 0-.58.614q-.204.397-.21.96m11.999-3.682v1.819h-5.256v-1.819zm-4.063-2.09h2.421v8.136q0 .335.102.523a.56.56 0 0 0 .284.255q.188.075.432.074.17 0 .341-.028l.261-.051.381 1.801a7 7 0 0 1-.511.13q-.33.08-.802.097-.874.034-1.534-.233a2.15 2.15 0 0 1-1.017-.829q-.363-.563-.358-1.421zm8.072 5.772v5.046h-2.421v-11.637h2.352v4.449h.103q.295-.772.954-1.21.66-.443 1.654-.443.909 0 1.585.398.681.392 1.057 1.13.38.733.375 1.756v5.557h-2.421v-5.125q.006-.807-.409-1.256-.409-.449-1.148-.449-.494 0-.875.21-.375.211-.591.614-.21.397-.215.96m11.365 5.216q-1.347 0-2.318-.545a3.74 3.74 0 0 1-1.489-1.557q-.523-1.012-.523-2.392 0-1.347.523-2.364a3.86 3.86 0 0 1 1.472-1.585q.954-.568 2.238-.568.864 0 1.608.278.75.273 1.307.824.563.552.875 1.386.312.83.312 1.944v.664h-7.369v-1.5h5.091a1.86 1.86 0 0 0-.227-.926 1.63 1.63 0 0 0-.631-.63 1.8 1.8 0 0 0-.926-.233q-.55 0-.977.255a1.8 1.8 0 0 0-.659.676q-.24.421-.245.938v1.426q0 .648.239 1.119.245.472.687.728.443.255 1.052.255.403 0 .738-.113.336-.114.574-.341t.364-.557l2.238.148a3.05 3.05 0 0 1-.699 1.409q-.522.596-1.352.932-.824.329-1.903.329m10.051-8.898v1.819h-5.256v-1.819zm-4.062-2.09h2.42v8.136q0 .335.102.523a.56.56 0 0 0 .284.255q.188.075.432.074.17 0 .341-.028l.261-.051.381 1.801a7 7 0 0 1-.511.13q-.33.08-.801.097-.876.034-1.534-.233a2.14 2.14 0 0 1-1.018-.829q-.363-.563-.357-1.421zm5.463 10.818v-8.728h2.42v8.728zm1.216-9.853a1.32 1.32 0 0 1-.927-.357 1.17 1.17 0 0 1-.38-.87q0-.5.38-.858.387-.363.927-.363.539 0 .92.363.386.359.386.858 0 .505-.386.87a1.3 1.3 0 0 1-.92.357m6.91 10.023q-1.341 0-2.307-.568a3.85 3.85 0 0 1-1.477-1.591q-.511-1.017-.511-2.341 0-1.341.517-2.352a3.84 3.84 0 0 1 1.483-1.585q.96-.574 2.284-.574 1.142 0 2 .415a3.34 3.34 0 0 1 1.358 1.164q.5.75.551 1.762h-2.284q-.096-.654-.511-1.051-.41-.404-1.074-.404a1.62 1.62 0 0 0-.983.307q-.416.301-.648.881t-.233 1.403q0 .835.227 1.421.233.585.654.892.42.306.983.306.414 0 .744-.17.335-.17.551-.494.222-.33.29-.79h2.284q-.057 1-.545 1.761a3.3 3.3 0 0 1-1.336 1.182q-.852.426-2.017.426m16.56-8.045a2.5 2.5 0 0 0-.335-.733 2.1 2.1 0 0 0-.528-.546 2.3 2.3 0 0 0-.705-.346 3 3 0 0 0-.869-.12q-.893 0-1.568.444-.67.443-1.046 1.289-.375.842-.375 2.057 0 1.216.369 2.068.37.853 1.046 1.302.677.443 1.596.443.836 0 1.427-.296.596-.3.909-.846.318-.546.318-1.29l.5.074h-3v-1.853h4.869v1.466q0 1.534-.648 2.637a4.4 4.4 0 0 1-1.784 1.693q-1.136.591-2.602.591-1.636 0-2.875-.722-1.239-.727-1.932-2.062-.687-1.341-.687-3.182 0-1.415.409-2.523a5.4 5.4 0 0 1 1.159-1.886 5 5 0 0 1 1.733-1.176 5.6 5.6 0 0 1 2.142-.404q.989 0 1.841.29a4.9 4.9 0 0 1 1.511.807q.665.522 1.085 1.244.421.716.54 1.58zm8.178 8.045q-1.324 0-2.29-.562a3.86 3.86 0 0 1-1.483-1.58q-.522-1.017-.523-2.358 0-1.352.523-2.363a3.8 3.8 0 0 1 1.483-1.58q.966-.568 2.29-.568t2.284.568q.966.563 1.489 1.58.522 1.011.522 2.363 0 1.341-.522 2.358a3.85 3.85 0 0 1-1.489 1.58q-.96.562-2.284.562m.011-1.875q.603 0 1.006-.341.404-.346.608-.943.21-.596.21-1.358 0-.76-.21-1.358-.204-.597-.608-.943-.403-.347-1.006-.347-.608 0-1.022.347-.41.346-.62.943a4.2 4.2 0 0 0-.204 1.358q0 .762.204 1.358.21.597.62.943.414.341 1.022.341m8.103-9.932v11.637h-2.421v-11.637zm4.979 11.779a3.3 3.3 0 0 1-1.802-.512q-.801-.516-1.272-1.517-.466-1.005-.466-2.466 0-1.5.483-2.494.483-1 1.284-1.494a3.3 3.3 0 0 1 1.767-.5q.733 0 1.221.25.495.244.796.613.307.365.466.716h.074v-4.375h2.414v11.637h-2.386v-1.398h-.102a3.2 3.2 0 0 1-.483.722q-.308.352-.801.585-.49.233-1.193.233m.767-1.926q.585 0 .988-.319.41-.323.625-.903.222-.58.222-1.358t-.216-1.352-.625-.887q-.41-.312-.994-.312-.597 0-1.006.324t-.619.898q-.211.573-.211 1.329 0 .762.211 1.347.215.579.619.909.41.324 1.006.324m9.99 1.954q-1.347 0-2.318-.545a3.74 3.74 0 0 1-1.489-1.557q-.523-1.012-.523-2.392 0-1.347.523-2.364a3.86 3.86 0 0 1 1.472-1.585q.954-.568 2.238-.568.864 0 1.608.278.75.273 1.307.824.563.552.875 1.386.312.83.312 1.944v.664h-7.369v-1.5h5.091a1.86 1.86 0 0 0-.227-.926 1.63 1.63 0 0 0-.631-.63 1.8 1.8 0 0 0-.926-.233q-.55 0-.977.255a1.8 1.8 0 0 0-.659.676q-.24.421-.245.938v1.426q0 .648.239 1.119.245.472.687.728.443.255 1.052.255.403 0 .738-.113.336-.114.574-.341t.364-.557l2.238.148a3.05 3.05 0 0 1-.699 1.409q-.522.596-1.352.932-.824.329-1.903.329m7.829-5.216v5.046h-2.42v-8.728h2.307v1.54h.102q.29-.761.972-1.204.681-.45 1.653-.449.91 0 1.585.398.676.398 1.051 1.136.375.733.375 1.75v5.557h-2.42v-5.125q.005-.801-.409-1.25-.415-.455-1.142-.455-.489 0-.864.21a1.47 1.47 0 0 0-.579.614q-.205.397-.211.96m14.618-1.193-2.215.136a1.15 1.15 0 0 0-.245-.511 1.3 1.3 0 0 0-.494-.369 1.7 1.7 0 0 0-.722-.142q-.562 0-.949.238-.386.234-.386.625 0 .313.25.529t.858.346l1.58.319q1.272.261 1.897.84.625.58.625 1.523 0 .858-.505 1.506-.5.648-1.375 1.011-.87.358-2.006.358-1.733 0-2.761-.721a2.8 2.8 0 0 1-1.199-1.978l2.38-.125q.108.53.523.807.415.273 1.063.273.636 0 1.022-.244.392-.25.398-.642a.67.67 0 0 0-.278-.54q-.273-.216-.841-.33l-1.512-.301q-1.278-.255-1.903-.886-.62-.632-.619-1.608 0-.842.454-1.449.46-.608 1.29-.938.835-.329 1.955-.329 1.653 0 2.602.699.954.699 1.113 1.903"/><path stroke="#FFCD29" stroke-linecap="round" stroke-linejoin="bevel" stroke-width="4" d="M683 30.157h-48m-10 0h-22"/><rect width="109" height="23.132" x="590" y="19.2" stroke="#1E1E1E" stroke-linecap="round" stroke-width="4" rx="3"/><rect width="137" height="86" x="576" y="2" stroke="#1E1E1E" stroke-linecap="round" stroke-width="4" rx="6"/><path fill="#1E1E1E" d="M601.67 53.727V61h-1.538v-7.273zm2.639 4.12V61h-1.513v-5.455h1.442v.963h.064q.181-.475.607-.753.426-.28 1.034-.28.568 0 .991.248.422.25.656.71t.235 1.094V61h-1.513v-3.203q.003-.5-.256-.781-.258-.285-.713-.285-.306 0-.54.132a.9.9 0 0 0-.362.383 1.3 1.3 0 0 0-.132.6m4.598 5.198v-7.5h1.492v.917h.067q.099-.22.288-.448.192-.231.497-.383.31-.157.767-.157.597 0 1.101.313.504.309.806.934.302.621.302 1.559 0 .912-.295 1.541-.291.625-.795.948-.5.32-1.123.32a1.75 1.75 0 0 1-.749-.146 1.6 1.6 0 0 1-.501-.366q-.195-.224-.298-.45h-.046v2.918zm1.481-4.772q0 .486.135.848.135.363.391.565.255.2.621.199a.98.98 0 0 0 .625-.203q.255-.205.387-.568.135-.365.135-.841 0-.472-.131-.831a1.24 1.24 0 0 0-.387-.561.98.98 0 0 0-.629-.203 1 1 0 0 0-.625.196q-.252.194-.387.554-.135.358-.135.845m8.235.405v-3.133h1.513V61h-1.453v-.99h-.056q-.185.479-.615.77-.426.291-1.04.291-.548 0-.963-.249a1.7 1.7 0 0 1-.649-.706q-.23-.458-.235-1.097v-3.474h1.513v3.204q.004.483.259.763.256.28.686.28.273.001.511-.124a1 1 0 0 0 .384-.376 1.16 1.16 0 0 0 .145-.614m5.514-3.133v1.137h-3.285v-1.137zm-2.539-1.306h1.513v5.085q0 .21.064.327a.35.35 0 0 0 .177.16q.118.045.27.045.106 0 .213-.017l.164-.032.238 1.125q-.114.036-.32.082a2.6 2.6 0 0 1-.501.06 2.3 2.3 0 0 1-.958-.145 1.33 1.33 0 0 1-.636-.519q-.228-.351-.224-.887zM599.132 76v-7.273h4.901v1.268h-3.363v1.733h3.111v1.268h-3.111v1.736h3.377V76zm7.249-5.454 1.001 1.906 1.027-1.906h1.551l-1.58 2.727L610.003 76h-1.545l-1.076-1.886L606.324 76h-1.562l1.619-2.727-1.563-2.727zm4.368 7.5v-7.5h1.491v.916h.068q.099-.22.288-.448.19-.23.497-.383.308-.157.767-.157.596 0 1.101.313.504.309.806.934.302.621.302 1.559 0 .912-.295 1.541-.29.626-.796.948a2.04 2.04 0 0 1-1.122.32 1.75 1.75 0 0 1-.749-.146 1.6 1.6 0 0 1-.501-.366q-.195-.224-.298-.45h-.046v2.919zm1.481-4.773q0 .486.135.848.135.363.39.565a1 1 0 0 0 .622.199.98.98 0 0 0 .625-.203q.255-.205.387-.568.135-.365.135-.841a2.4 2.4 0 0 0-.132-.831 1.23 1.23 0 0 0-.387-.561.98.98 0 0 0-.628-.203 1 1 0 0 0-.625.196q-.252.194-.387.554-.135.358-.135.845m7.223 2.834q-.841 0-1.449-.341a2.33 2.33 0 0 1-.93-.973q-.327-.633-.327-1.495 0-.842.327-1.478a2.4 2.4 0 0 1 .919-.99q.597-.356 1.399-.356.54 0 1.005.174.47.171.817.515.352.345.547.867.195.519.195 1.214v.416h-4.605v-.938h3.181q0-.326-.142-.578a1 1 0 0 0-.394-.395 1.1 1.1 0 0 0-.579-.145q-.344 0-.61.16a1.1 1.1 0 0 0-.412.422q-.15.262-.153.586v.891q0 .405.149.7.153.294.43.454.276.16.657.16.252 0 .461-.07a.95.95 0 0 0 .359-.214.9.9 0 0 0 .227-.348l1.399.093a1.9 1.9 0 0 1-.436.88q-.327.373-.846.583a3.2 3.2 0 0 1-1.189.206m5.845 0q-.838 0-1.442-.356-.6-.358-.923-.994-.32-.636-.32-1.463 0-.839.324-1.47.326-.636.926-.99.6-.36 1.428-.36.714 0 1.25.26.535.258.849.728.312.469.344 1.1h-1.427a1.1 1.1 0 0 0-.32-.656q-.255-.253-.671-.253-.352 0-.614.192a1.2 1.2 0 0 0-.405.55 2.4 2.4 0 0 0-.146.878q0 .522.142.888.145.365.409.557.262.192.614.192a1 1 0 0 0 .465-.107.9.9 0 0 0 .345-.309q.138-.206.181-.493h1.427a2.2 2.2 0 0 1-.341 1.1 2.06 2.06 0 0 1-.834.74q-.533.266-1.261.266m6.196-5.561v1.136h-3.285v-1.136zm-2.539-1.307h1.513v5.085q0 .21.064.327a.35.35 0 0 0 .177.16q.117.045.27.045.107 0 .213-.017l.164-.032.237 1.126q-.113.034-.319.081a2.6 2.6 0 0 1-.501.06 2.3 2.3 0 0 1-.959-.145 1.34 1.34 0 0 1-.635-.519q-.228-.351-.224-.887zm5.842 6.867q-.841 0-1.449-.34a2.33 2.33 0 0 1-.931-.973q-.326-.633-.326-1.495 0-.842.326-1.478a2.4 2.4 0 0 1 .92-.99q.597-.356 1.399-.356.54 0 1.005.174.47.171.817.515.352.345.547.867.195.519.195 1.214v.416h-4.606v-.938h3.182q0-.326-.142-.578a1 1 0 0 0-.394-.395 1.1 1.1 0 0 0-.579-.145q-.344 0-.611.16a1.1 1.1 0 0 0-.412.422q-.149.262-.152.586v.891q0 .405.149.7.153.294.43.454.276.16.657.16.252 0 .461-.07a1 1 0 0 0 .359-.214.9.9 0 0 0 .227-.348l1.399.093q-.106.504-.437.88a2.2 2.2 0 0 1-.845.583q-.515.206-1.189.206m5.39-.017q-.621 0-1.125-.32-.5-.323-.796-.948-.291-.629-.291-1.541 0-.937.302-1.56.302-.624.802-.933a2.06 2.06 0 0 1 1.105-.313q.458 0 .763.157.31.153.497.383.192.227.292.448h.046v-2.735h1.509V76H641.8v-.874h-.064a2 2 0 0 1-.302.451 1.5 1.5 0 0 1-.501.366 1.7 1.7 0 0 1-.746.146m.48-1.204q.366 0 .618-.199.255-.202.39-.565.14-.362.139-.848 0-.487-.135-.845a1.2 1.2 0 0 0-.391-.554 1 1 0 0 0-.621-.196.98.98 0 0 0-.629.203q-.255.203-.387.56-.13.36-.131.832 0 .476.131.841.135.362.387.569.256.201.629.202m12.674-2.521q0 1.189-.451 2.024a3.13 3.13 0 0 1-1.222 1.275 3.45 3.45 0 0 1-1.733.436 3.45 3.45 0 0 1-1.74-.44 3.14 3.14 0 0 1-1.218-1.275q-.447-.835-.447-2.02 0-1.19.447-2.025a3.1 3.1 0 0 1 1.218-1.27 3.45 3.45 0 0 1 1.74-.441q.963 0 1.733.44.774.437 1.222 1.272.451.834.451 2.024m-1.559 0q0-.77-.231-1.3a1.76 1.76 0 0 0-.643-.803 1.73 1.73 0 0 0-.973-.273 1.73 1.73 0 0 0-.973.273q-.415.274-.646.803-.227.53-.227 1.3t.227 1.3q.23.529.646.802t.973.273.973-.273.643-.803q.231-.529.231-1.3m6.057 1.314v-3.132h1.513V76H657.9v-.99h-.057q-.185.479-.614.77-.426.291-1.041.291-.546 0-.962-.249a1.7 1.7 0 0 1-.65-.706q-.231-.459-.234-1.097v-3.474h1.512v3.204q.004.483.26.763.255.28.685.28.274.001.511-.124a.97.97 0 0 0 .384-.376 1.15 1.15 0 0 0 .145-.614m5.515-3.132v1.136h-3.285v-1.136zm-2.539-1.307h1.512v5.085q0 .21.064.327a.35.35 0 0 0 .178.16q.117.045.27.045.106 0 .213-.017l.163-.032.238 1.126q-.114.034-.32.081a2.6 2.6 0 0 1-.5.06 2.3 2.3 0 0 1-.959-.145 1.34 1.34 0 0 1-.636-.519q-.227-.351-.223-.887zm3.414 8.807v-7.5h1.491v.916h.068q.099-.22.288-.448.19-.23.497-.383.308-.157.767-.157.596 0 1.101.313.504.309.806.934.302.621.302 1.559 0 .912-.295 1.541-.29.626-.796.948-.5.32-1.122.32a1.75 1.75 0 0 1-.749-.146 1.6 1.6 0 0 1-.501-.366q-.195-.224-.298-.45h-.046v2.919zm1.481-4.773q0 .486.135.848.135.363.39.565a1 1 0 0 0 .622.199.98.98 0 0 0 .625-.203q.255-.205.387-.568.135-.365.135-.841a2.4 2.4 0 0 0-.132-.831 1.23 1.23 0 0 0-.387-.561.98.98 0 0 0-.628-.203 1 1 0 0 0-.625.196q-.252.194-.387.554-.135.358-.135.845m8.235.405v-3.132h1.513V76h-1.453v-.99h-.056q-.185.479-.615.77-.426.291-1.04.291-.548 0-.963-.249a1.7 1.7 0 0 1-.649-.706q-.231-.459-.235-1.097v-3.474h1.513v3.204q.004.483.259.763.256.28.686.28.273.001.511-.124a1 1 0 0 0 .383-.376q.15-.249.146-.614m5.514-3.132v1.136h-3.285v-1.136zm-2.539-1.307h1.513v5.085q0 .21.064.327a.35.35 0 0 0 .177.16q.117.045.27.045.107 0 .213-.017l.164-.032.238 1.126q-.114.034-.32.081a2.6 2.6 0 0 1-.501.06 2.3 2.3 0 0 1-.959-.145 1.34 1.34 0 0 1-.635-.519q-.228-.351-.224-.887z"/><path stroke="#FFCD29" stroke-linecap="round" stroke-linejoin="bevel" stroke-width="4" d="M845 30.157h-48m-10 0h-22"/><rect width="109" height="23.132" x="752" y="19.2" stroke="#1E1E1E" stroke-linecap="round" stroke-width="4" rx="3"/><rect width="137" height="86" x="738" y="2" stroke="#1E1E1E" stroke-linecap="round" stroke-width="4" rx="6"/><path fill="#1E1E1E" d="M763.67 53.727V61h-1.538v-7.273zm2.639 4.12V61h-1.513v-5.455h1.442v.963h.064q.181-.475.607-.753.426-.28 1.034-.28.568 0 .991.248.422.25.656.71t.235 1.094V61h-1.513v-3.203q.003-.5-.256-.781-.258-.285-.713-.285-.306 0-.54.132a.9.9 0 0 0-.362.383 1.3 1.3 0 0 0-.132.6m4.598 5.198v-7.5h1.492v.917h.067q.099-.22.288-.448.192-.231.497-.383.31-.157.767-.157.597 0 1.101.313.504.309.806.934.302.621.302 1.559 0 .912-.295 1.541-.291.625-.795.948-.5.32-1.123.32a1.75 1.75 0 0 1-.749-.146 1.6 1.6 0 0 1-.501-.366q-.195-.224-.298-.45h-.046v2.918zm1.481-4.772q0 .486.135.848.135.363.391.565.255.2.621.199a.98.98 0 0 0 .625-.203q.255-.205.387-.568.135-.365.135-.841 0-.472-.131-.831a1.24 1.24 0 0 0-.387-.561.98.98 0 0 0-.629-.203 1 1 0 0 0-.625.196q-.252.194-.387.554-.135.358-.135.845m8.235.405v-3.133h1.513V61h-1.453v-.99h-.056q-.185.479-.615.77-.426.291-1.04.291-.548 0-.963-.249a1.7 1.7 0 0 1-.649-.706q-.23-.458-.235-1.097v-3.474h1.513v3.204q.004.483.259.763.256.28.686.28.273.001.511-.124a1 1 0 0 0 .384-.376 1.16 1.16 0 0 0 .145-.614m5.514-3.133v1.137h-3.285v-1.137zm-2.539-1.306h1.513v5.085q0 .21.064.327a.35.35 0 0 0 .177.16q.119.045.27.045.106 0 .213-.017l.164-.032.238 1.125q-.114.036-.32.082a2.6 2.6 0 0 1-.501.06 2.3 2.3 0 0 1-.958-.145 1.33 1.33 0 0 1-.636-.519q-.228-.351-.224-.887zM761.132 76v-7.273h4.901v1.268h-3.363v1.733h3.111v1.268h-3.111v1.736h3.377V76zm7.249-5.454 1.001 1.906 1.027-1.906h1.551l-1.58 2.727L772.003 76h-1.545l-1.076-1.886L768.324 76h-1.562l1.619-2.727-1.563-2.727zm4.368 7.5v-7.5h1.491v.916h.068q.099-.22.288-.448.19-.23.497-.383.308-.157.767-.157.596 0 1.101.313.504.309.806.934.302.621.302 1.559 0 .912-.295 1.541-.29.626-.796.948a2.04 2.04 0 0 1-1.122.32 1.75 1.75 0 0 1-.749-.146 1.6 1.6 0 0 1-.501-.366q-.195-.224-.298-.45h-.046v2.919zm1.481-4.773q0 .486.135.848.135.363.39.565a1 1 0 0 0 .622.199.98.98 0 0 0 .625-.203q.255-.205.387-.568.135-.365.135-.841a2.4 2.4 0 0 0-.132-.831 1.23 1.23 0 0 0-.387-.561.98.98 0 0 0-.628-.203 1 1 0 0 0-.625.196q-.252.194-.387.554-.135.358-.135.845m7.223 2.834q-.841 0-1.449-.341a2.33 2.33 0 0 1-.93-.973q-.327-.633-.327-1.495 0-.842.327-1.478a2.4 2.4 0 0 1 .919-.99q.597-.356 1.399-.356.54 0 1.005.174.47.171.817.515.352.345.547.867.195.519.195 1.214v.416h-4.605v-.938h3.181q0-.326-.142-.578a1 1 0 0 0-.394-.395 1.1 1.1 0 0 0-.579-.145q-.344 0-.61.16a1.1 1.1 0 0 0-.412.422q-.15.262-.153.586v.891q0 .405.149.7.153.294.43.454.276.16.657.16.252 0 .461-.07a.95.95 0 0 0 .359-.214.9.9 0 0 0 .227-.348l1.399.093a1.9 1.9 0 0 1-.436.88q-.327.373-.846.583a3.2 3.2 0 0 1-1.189.206m5.845 0q-.838 0-1.442-.356-.6-.358-.923-.994-.32-.636-.32-1.463 0-.839.324-1.47.326-.636.926-.99.6-.36 1.428-.36.714 0 1.25.26.535.258.849.728.312.469.344 1.1h-1.427a1.1 1.1 0 0 0-.32-.656q-.255-.253-.671-.253-.352 0-.614.192a1.2 1.2 0 0 0-.405.55 2.4 2.4 0 0 0-.146.878q0 .522.142.888.145.365.409.557.262.192.614.192a1 1 0 0 0 .465-.107.9.9 0 0 0 .345-.309q.138-.206.181-.493h1.427a2.2 2.2 0 0 1-.341 1.1 2.06 2.06 0 0 1-.834.74q-.533.266-1.261.266m6.196-5.561v1.136h-3.285v-1.136zm-2.539-1.307h1.513v5.085q0 .21.064.327a.35.35 0 0 0 .177.16q.117.045.27.045.107 0 .213-.017l.164-.032.237 1.126q-.113.034-.319.081a2.6 2.6 0 0 1-.501.06 2.3 2.3 0 0 1-.959-.145 1.34 1.34 0 0 1-.635-.519q-.228-.351-.224-.887zm5.842 6.867q-.841 0-1.449-.34a2.33 2.33 0 0 1-.931-.973q-.326-.633-.326-1.495 0-.842.326-1.478a2.4 2.4 0 0 1 .92-.99q.597-.356 1.399-.356.54 0 1.005.174.47.171.817.515.352.345.547.867.195.519.195 1.214v.416h-4.606v-.938h3.182q0-.326-.142-.578a1 1 0 0 0-.394-.395 1.1 1.1 0 0 0-.579-.145q-.344 0-.611.16a1.1 1.1 0 0 0-.412.422q-.149.262-.152.586v.891q0 .405.149.7.153.294.43.454.276.16.657.16.252 0 .461-.07a1 1 0 0 0 .359-.214.9.9 0 0 0 .227-.348l1.399.093q-.106.504-.437.88a2.2 2.2 0 0 1-.845.583q-.515.206-1.189.206m5.39-.017q-.621 0-1.125-.32-.5-.323-.796-.948-.291-.629-.291-1.541 0-.937.302-1.56.302-.624.802-.933a2.06 2.06 0 0 1 1.105-.313q.458 0 .763.157.31.153.497.383.192.227.292.448h.046v-2.735h1.509V76H803.8v-.874h-.064a2 2 0 0 1-.302.451 1.5 1.5 0 0 1-.501.366 1.7 1.7 0 0 1-.746.146m.48-1.204q.366 0 .618-.199.255-.202.39-.565.14-.362.139-.848 0-.487-.135-.845a1.2 1.2 0 0 0-.391-.554 1 1 0 0 0-.621-.196.98.98 0 0 0-.629.203q-.255.203-.387.56-.13.36-.131.832 0 .476.131.841.135.362.387.569.256.201.629.202m12.674-2.521q0 1.189-.451 2.024a3.13 3.13 0 0 1-1.222 1.275 3.45 3.45 0 0 1-1.733.436 3.45 3.45 0 0 1-1.74-.44 3.14 3.14 0 0 1-1.218-1.275q-.447-.835-.447-2.02 0-1.19.447-2.025a3.1 3.1 0 0 1 1.218-1.27 3.45 3.45 0 0 1 1.74-.441q.963 0 1.733.44.774.437 1.222 1.272.451.834.451 2.024m-1.559 0q0-.77-.231-1.3a1.76 1.76 0 0 0-.643-.803 1.73 1.73 0 0 0-.973-.273 1.73 1.73 0 0 0-.973.273q-.415.274-.646.803-.227.53-.227 1.3t.227 1.3q.23.529.646.802t.973.273.973-.273.643-.803q.231-.529.231-1.3m6.057 1.314v-3.132h1.513V76H819.9v-.99h-.057q-.185.479-.614.77-.426.291-1.041.291-.546 0-.962-.249a1.7 1.7 0 0 1-.65-.706q-.231-.459-.234-1.097v-3.474h1.512v3.204q.004.483.26.763.255.28.685.28.274.001.511-.124a.97.97 0 0 0 .384-.376 1.15 1.15 0 0 0 .145-.614m5.515-3.132v1.136h-3.285v-1.136zm-2.539-1.307h1.512v5.085q0 .21.064.327a.35.35 0 0 0 .178.16q.117.045.27.045.107 0 .213-.017l.163-.032.238 1.126q-.113.034-.32.081a2.6 2.6 0 0 1-.5.06 2.3 2.3 0 0 1-.959-.145 1.34 1.34 0 0 1-.636-.519q-.227-.351-.223-.887zm3.414 8.807v-7.5h1.491v.916h.068q.099-.22.288-.448.19-.23.497-.383.308-.157.767-.157.596 0 1.101.313.504.309.806.934.302.621.302 1.559 0 .912-.295 1.541-.29.626-.796.948-.5.32-1.122.32a1.75 1.75 0 0 1-.749-.146 1.6 1.6 0 0 1-.501-.366q-.195-.224-.298-.45h-.046v2.919zm1.481-4.773q0 .486.135.848.135.363.39.565a1 1 0 0 0 .622.199.98.98 0 0 0 .625-.203q.255-.205.387-.568.135-.365.135-.841a2.4 2.4 0 0 0-.132-.831 1.23 1.23 0 0 0-.387-.561.98.98 0 0 0-.628-.203 1 1 0 0 0-.625.196q-.252.194-.387.554-.135.358-.135.845m8.235.405v-3.132h1.513V76h-1.453v-.99h-.056q-.185.479-.615.77-.426.291-1.04.291-.548 0-.963-.249a1.7 1.7 0 0 1-.649-.706q-.232-.459-.235-1.097v-3.474h1.513v3.204q.004.483.259.763.256.28.686.28.273.001.511-.124a1 1 0 0 0 .383-.376q.15-.249.146-.614m5.514-3.132v1.136h-3.285v-1.136zm-2.539-1.307h1.513v5.085q0 .21.064.327a.35.35 0 0 0 .177.16q.117.045.27.045.107 0 .213-.017l.164-.032.238 1.126q-.114.034-.32.081a2.6 2.6 0 0 1-.501.06 2.3 2.3 0 0 1-.959-.145 1.34 1.34 0 0 1-.635-.519q-.228-.351-.224-.887z"/></svg>