<svg xmlns="http://www.w3.org/2000/svg" width="1012" height="151" fill="none"><path fill="#1E1E1E" d="M151.5 61a2 2 0 1 0 0 4v-4Zm64.903 10.88c0 1.105 1.352 1.886 2.309 1.334l15.381-8.88c.957-.553.957-2.115 0-2.667l-15.381-8.88c-.957-.553-2.309.228-2.309 1.333v17.76ZM151.5 65h66.903v-4H151.5v4Z"/><path stroke="#9747FF" stroke-linecap="round" stroke-linejoin="bevel" stroke-width="4" d="M293.5 26.193h48m10 0h22"/><path stroke="#1E1E1E" stroke-linecap="round" stroke-linejoin="bevel" stroke-width="4" d="M293.5 62.434h22m9 0h22m9 0h18"/><path stroke="#FFCD29" stroke-linecap="round" stroke-linejoin="bevel" stroke-width="4" d="M373.5 98.675h-48m-10 0h-22"/><rect width="109" height="21.518" x="280.5" y="16" stroke="#1E1E1E" stroke-linecap="round" stroke-width="4" rx="3"/><rect width="109" height="21.518" x="280.5" y="52.241" stroke="#1E1E1E" stroke-linecap="round" stroke-width="4" rx="3"/><rect width="109" height="21.518" x="280.5" y="88.482" stroke="#1E1E1E" stroke-linecap="round" stroke-width="4" rx="3"/><path stroke="#1E1E1E" stroke-linecap="round" stroke-linejoin="bevel" stroke-width="4" d="M38.3 26.54h50.39"/><rect width="88.073" height="98.159" x="19.427" y="2" fill="#fff" rx="6"/><path stroke="#1E1E1E" stroke-linecap="round" stroke-linejoin="bevel" stroke-width="4" d="M41.445 41.604h44.037M41.445 26.156h44.037"/><rect width="88.073" height="98.159" x="19.427" y="2" stroke="#1E1E1E" stroke-linecap="round" stroke-width="4" rx="6"/><path stroke="#1E1E1E" stroke-linecap="round" stroke-linejoin="bevel" stroke-width="4" d="M41.445 59.26h44.037M26.373 36.381h50.391"/><rect width="88.073" height="98.159" x="7.5" y="11.841" fill="#fff" rx="6"/><path stroke="#FFCD29" stroke-linecap="round" stroke-linejoin="bevel" stroke-width="4" d="M29.518 51.446h44.037"/><path stroke="#9747FF" stroke-linecap="round" stroke-linejoin="bevel" stroke-width="4" d="M29.518 35.998h44.037"/><rect width="88.073" height="98.159" x="7.5" y="11.841" stroke="#1E1E1E" stroke-linecap="round" stroke-width="4" rx="6"/><path stroke="#1E1E1E" stroke-linecap="round" stroke-linejoin="bevel" stroke-width="4" d="M29.518 69.1h44.037"/><path stroke="#9747FF" stroke-linecap="round" stroke-linejoin="bevel" stroke-width="4" d="M29.518 83.415h44.037"/><path fill="#1E1E1E" d="M427 64a2 2 0 1 0 0 4v-4Zm64.903 10.88c0 1.105 1.352 1.886 2.309 1.334l15.381-8.88c.957-.553.957-2.115 0-2.667l-15.381-8.88c-.957-.553-2.309.228-2.309 1.333v17.76ZM427 68h66.903v-4H427v4ZM12.34 144.182H8.215v-11.637h4.16c1.17 0 2.178.233 3.022.699a4.712 4.712 0 0 1 1.949 1.995c.458.867.688 1.905.688 3.113 0 1.212-.23 2.254-.688 3.125a4.726 4.726 0 0 1-1.96 2.006c-.849.466-1.864.699-3.046.699Zm-1.664-2.108h1.562c.727 0 1.34-.129 1.835-.386a2.49 2.49 0 0 0 1.125-1.211c.254-.549.381-1.257.381-2.125 0-.86-.127-1.562-.38-2.108-.25-.545-.624-.947-1.12-1.204-.496-.258-1.108-.387-1.835-.387h-1.568v7.421Zm12.902 2.278c-.883 0-1.646-.187-2.29-.562a3.854 3.854 0 0 1-1.483-1.58c-.349-.678-.523-1.464-.523-2.358 0-.901.174-1.689.523-2.363a3.805 3.805 0 0 1 1.483-1.58c.644-.379 1.407-.568 2.29-.568.882 0 1.644.189 2.284.568a3.79 3.79 0 0 1 1.488 1.58c.349.674.523 1.462.523 2.363 0 .894-.174 1.68-.523 2.358a3.842 3.842 0 0 1-1.488 1.58c-.64.375-1.402.562-2.284.562Zm.011-1.875c.402 0 .737-.113 1.006-.341.269-.231.471-.545.608-.943.14-.398.21-.85.21-1.358 0-.507-.07-.96-.21-1.358-.137-.397-.34-.712-.608-.943-.27-.231-.604-.346-1.006-.346-.405 0-.746.115-1.023.346-.272.231-.479.546-.619.943a4.182 4.182 0 0 0-.204 1.358c0 .508.068.96.204 1.358.14.398.347.712.62.943.276.228.617.341 1.022.341Zm9.625 1.875c-.894 0-1.663-.189-2.307-.568a3.838 3.838 0 0 1-1.477-1.591c-.34-.678-.511-1.458-.511-2.341 0-.894.172-1.678.517-2.352a3.842 3.842 0 0 1 1.483-1.585c.64-.383 1.401-.574 2.284-.574.761 0 1.428.138 2 .415a3.338 3.338 0 0 1 1.358 1.164c.333.5.517 1.088.55 1.762h-2.283c-.065-.436-.235-.786-.512-1.051-.272-.269-.63-.404-1.073-.404-.375 0-.703.103-.983.307-.277.201-.493.494-.648.881-.155.386-.233.854-.233 1.403 0 .557.076 1.03.227 1.421.156.39.373.687.654.892.28.204.608.307.983.307.276 0 .524-.057.744-.171a1.44 1.44 0 0 0 .551-.494c.148-.22.244-.483.29-.79h2.284c-.038.667-.22 1.254-.546 1.761a3.294 3.294 0 0 1-1.335 1.182c-.568.284-1.24.426-2.017.426Zm10.868-3.886v-5.011h2.42v8.727H44.18v-1.585h-.091a2.58 2.58 0 0 1-.983 1.233c-.455.31-1.01.465-1.665.465-.583 0-1.096-.132-1.54-.397a2.732 2.732 0 0 1-1.04-1.131c-.246-.489-.37-1.074-.374-1.756v-5.556h2.42v5.125c.004.515.142.922.415 1.221.273.299.638.449 1.096.449.292 0 .565-.066.819-.199a1.56 1.56 0 0 0 .613-.602c.16-.265.237-.593.233-.983Zm4.18 3.716v-8.727h2.308v1.539h.102c.182-.511.485-.914.909-1.21.424-.295.932-.443 1.523-.443.598 0 1.108.15 1.528.449.42.295.7.697.841 1.204h.09c.179-.5.5-.899.967-1.199.47-.303 1.024-.454 1.665-.454.814 0 1.475.259 1.983.778.51.515.767 1.247.767 2.194v5.869H58.53v-5.392c0-.485-.129-.849-.386-1.091-.258-.243-.58-.364-.966-.364-.44 0-.783.14-1.029.421-.246.276-.37.642-.37 1.096v5.33h-2.346v-5.443c0-.428-.123-.769-.37-1.023-.242-.254-.562-.381-.96-.381-.268 0-.51.068-.727.205-.212.132-.38.32-.505.562a1.79 1.79 0 0 0-.188.841v5.239h-2.42Zm18.396.17c-.898 0-1.67-.182-2.318-.545a3.742 3.742 0 0 1-1.489-1.557c-.349-.674-.523-1.472-.523-2.392 0-.898.174-1.686.523-2.364a3.865 3.865 0 0 1 1.472-1.585c.636-.379 1.382-.568 2.238-.568.576 0 1.112.093 1.608.278.5.182.936.457 1.307.824.375.368.667.83.875 1.387.208.553.313 1.2.313 1.943v.665h-7.37v-1.5h5.091c0-.349-.076-.658-.227-.927a1.622 1.622 0 0 0-.63-.63 1.792 1.792 0 0 0-.927-.233c-.367 0-.693.085-.977.255-.28.167-.5.392-.66.677-.159.28-.24.592-.244.937v1.426c0 .432.08.805.239 1.12.163.314.392.556.687.727.296.17.646.255 1.052.255.269 0 .515-.037.738-.113.224-.076.415-.19.574-.341.16-.152.28-.337.364-.557l2.238.148a3.059 3.059 0 0 1-.698 1.409c-.349.398-.8.708-1.353.932-.549.219-1.184.329-1.903.329Zm7.83-5.216v5.046h-2.421v-8.727h2.307v1.539h.102c.193-.507.517-.909.972-1.204.454-.299 1.005-.449 1.653-.449.606 0 1.135.132 1.585.398.451.265.801.644 1.051 1.136.25.489.376 1.072.376 1.75v5.557h-2.421v-5.125c.004-.534-.132-.951-.41-1.25-.276-.303-.656-.455-1.141-.455-.326 0-.614.07-.864.211-.246.14-.44.344-.58.613-.136.265-.206.585-.21.96Zm11.998-3.681v1.818h-5.255v-1.818h5.255Zm-4.062-2.091h2.42v8.136c0 .223.034.398.102.523a.562.562 0 0 0 .285.255c.125.05.269.074.431.074.114 0 .228-.009.341-.028l.262-.051.38 1.801a7.108 7.108 0 0 1-.511.131c-.22.053-.487.085-.801.096-.584.023-1.095-.055-1.534-.233a2.14 2.14 0 0 1-1.017-.829c-.243-.375-.362-.849-.358-1.421v-8.454Zm12.615 4.579-2.216.137c-.038-.19-.12-.36-.244-.512a1.3 1.3 0 0 0-.495-.369 1.675 1.675 0 0 0-.721-.142c-.375 0-.692.079-.95.238-.257.156-.385.364-.385.625 0 .209.083.385.25.529.166.144.452.259.857.346l1.58.319c.849.174 1.481.454 1.898.841.416.386.625.893.625 1.522a2.38 2.38 0 0 1-.506 1.506c-.333.432-.792.769-1.375 1.011-.58.239-1.248.358-2.006.358-1.155 0-2.075-.24-2.761-.721a2.812 2.812 0 0 1-1.199-1.978l2.38-.125c.073.353.247.622.524.807.276.182.63.273 1.062.273.424 0 .765-.081 1.023-.244.261-.167.394-.381.398-.642a.668.668 0 0 0-.279-.54c-.182-.144-.462-.254-.84-.33l-1.512-.301c-.852-.17-1.487-.466-1.904-.886-.412-.421-.619-.957-.619-1.608 0-.561.152-1.044.455-1.449.306-.405.736-.718 1.29-.938.556-.219 1.208-.329 1.954-.329 1.102 0 1.97.233 2.602.699.637.466 1.008 1.1 1.114 1.903Zm217.051-1.324h-2.489a2.427 2.427 0 0 0-.278-.858 2.183 2.183 0 0 0-.54-.647 2.373 2.373 0 0 0-.761-.409 2.91 2.91 0 0 0-.927-.142c-.602 0-1.126.149-1.573.448-.447.296-.794.728-1.04 1.296-.246.564-.37 1.25-.37 2.057 0 .829.124 1.526.37 2.091.25.564.598.99 1.045 1.278.447.288.964.432 1.551.432.33 0 .635-.044.915-.131.284-.087.536-.214.756-.381.22-.17.401-.376.545-.619a2.41 2.41 0 0 0 .307-.829l2.489.011a4.638 4.638 0 0 1-1.512 2.869 4.84 4.84 0 0 1-1.534.921c-.591.223-1.259.335-2.005.335-1.038 0-1.966-.235-2.785-.705-.814-.469-1.458-1.149-1.931-2.039-.47-.891-.705-1.968-.705-3.233 0-1.269.239-2.349.716-3.239.477-.89 1.125-1.568 1.943-2.034.818-.47 1.739-.705 2.762-.705.674 0 1.299.095 1.875.284.579.19 1.092.466 1.539.83.447.36.811.801 1.091 1.324.284.523.466 1.121.546 1.795Zm5.486 7.733c-.883 0-1.646-.187-2.29-.562a3.851 3.851 0 0 1-1.483-1.58c-.349-.678-.523-1.464-.523-2.358 0-.901.174-1.689.523-2.363a3.803 3.803 0 0 1 1.483-1.58c.644-.379 1.407-.568 2.29-.568.882 0 1.644.189 2.284.568a3.79 3.79 0 0 1 1.488 1.58c.349.674.523 1.462.523 2.363 0 .894-.174 1.68-.523 2.358a3.837 3.837 0 0 1-1.488 1.58c-.64.375-1.402.562-2.284.562Zm.011-1.875c.402 0 .737-.113 1.006-.341.269-.231.471-.545.608-.943.14-.398.21-.85.21-1.358 0-.507-.07-.96-.21-1.358-.137-.397-.339-.712-.608-.943-.269-.231-.604-.346-1.006-.346-.405 0-.746.115-1.023.346-.272.231-.479.546-.619.943a4.19 4.19 0 0 0-.205 1.358c0 .508.069.96.205 1.358.14.398.347.712.619.943.277.228.618.341 1.023.341Zm8.102-3.341v5.046h-2.42v-8.727h2.307v1.539h.102c.193-.507.517-.909.972-1.204.454-.299 1.005-.449 1.653-.449.606 0 1.135.132 1.585.398.451.265.801.644 1.051 1.136.25.489.375 1.072.375 1.75v5.557h-2.42v-5.125c.004-.534-.133-.951-.409-1.25-.277-.303-.657-.455-1.142-.455-.326 0-.614.07-.864.211-.246.14-.439.344-.579.613-.137.265-.207.585-.211.96Zm11.999-3.681v1.818h-5.256v-1.818h5.256Zm-4.062-2.091h2.42v8.136c0 .223.034.398.102.523a.566.566 0 0 0 .284.255c.125.05.269.074.432.074.114 0 .228-.009.341-.028l.262-.051.38 1.801a7.018 7.018 0 0 1-.511.131c-.22.053-.487.085-.801.096-.584.023-1.095-.055-1.534-.233a2.136 2.136 0 0 1-1.017-.829c-.243-.375-.362-.849-.358-1.421v-8.454Zm9.346 10.988c-.897 0-1.67-.182-2.318-.545a3.737 3.737 0 0 1-1.488-1.557c-.349-.674-.523-1.472-.523-2.392 0-.898.174-1.686.523-2.364a3.864 3.864 0 0 1 1.471-1.585c.637-.379 1.383-.568 2.239-.568.576 0 1.112.093 1.608.278.5.182.935.457 1.307.824.375.368.666.83.875 1.387.208.553.312 1.2.312 1.943v.665h-7.369v-1.5h5.091c0-.349-.076-.658-.228-.927a1.617 1.617 0 0 0-.63-.63 1.792 1.792 0 0 0-.926-.233c-.368 0-.694.085-.978.255-.28.167-.5.392-.659.677-.159.28-.24.592-.244.937v1.426c0 .432.079.805.239 1.12.162.314.392.556.687.727.295.17.646.255 1.051.255.269 0 .515-.037.739-.113.223-.076.415-.19.574-.341a1.48 1.48 0 0 0 .363-.557l2.239.148a3.065 3.065 0 0 1-.699 1.409c-.348.398-.799.708-1.352.932-.549.219-1.184.329-1.904.329Zm7.276-8.897 1.602 3.051 1.642-3.051h2.483l-2.528 4.363 2.597 4.364h-2.472l-1.722-3.017-1.693 3.017h-2.5l2.591-4.364-2.5-4.363h2.5Zm11.631 0v1.818h-5.256v-1.818h5.256Zm-4.063-2.091h2.421v8.136c0 .223.034.398.102.523a.562.562 0 0 0 .284.255c.125.05.269.074.432.074.114 0 .227-.009.341-.028l.261-.051.381 1.801a7.158 7.158 0 0 1-.511.131c-.22.053-.487.085-.802.096-.583.023-1.094-.055-1.534-.233a2.145 2.145 0 0 1-1.017-.829c-.242-.375-.361-.849-.358-1.421v-8.454Zm12.616 4.579-2.216.137a1.15 1.15 0 0 0-.245-.512 1.296 1.296 0 0 0-.494-.369 1.675 1.675 0 0 0-.722-.142c-.375 0-.691.079-.948.238-.258.156-.387.364-.387.625 0 .209.084.385.25.529.167.144.453.259.858.346l1.58.319c.848.174 1.481.454 1.897.841.417.386.625.893.625 1.522 0 .572-.168 1.074-.505 1.506-.334.432-.792.769-1.375 1.011-.58.239-1.248.358-2.006.358-1.155 0-2.076-.24-2.761-.721a2.81 2.81 0 0 1-1.199-1.978l2.381-.125c.072.353.246.622.522.807.277.182.631.273 1.063.273.424 0 .765-.081 1.022-.244.262-.167.394-.381.398-.642a.667.667 0 0 0-.278-.54c-.182-.144-.462-.254-.841-.33l-1.511-.301c-.853-.17-1.487-.466-1.904-.886-.413-.421-.619-.957-.619-1.608 0-.561.151-1.044.454-1.449.307-.405.737-.718 1.29-.938.557-.219 1.208-.329 1.955-.329 1.102 0 1.969.233 2.602.699.636.466 1.008 1.1 1.114 1.903Z"/><path stroke="#9747FF" stroke-linecap="round" stroke-linejoin="bevel" stroke-width="4" d="M575.5 49.157h48m10 0h22"/><rect width="109" height="23.132" x="562.5" y="38.2" stroke="#1E1E1E" stroke-linecap="round" stroke-width="4" rx="3"/><rect width="137" height="86" x="548.5" y="21" stroke="#1E1E1E" stroke-linecap="round" stroke-width="4" rx="6"/><path fill="#1E1E1E" d="M715.505 135.892c-.045-.458-.24-.814-.585-1.068-.345-.254-.812-.381-1.403-.381-.402 0-.741.057-1.017.171a1.425 1.425 0 0 0-.637.46c-.144.197-.216.42-.216.67a.962.962 0 0 0 .131.546c.099.155.233.29.403.403.171.11.368.207.591.29.224.08.462.148.716.205l1.046.25c.507.113.973.265 1.397.454.425.189.792.422 1.103.699.31.276.551.602.721.977.175.375.264.805.267 1.29-.003.712-.185 1.33-.545 1.852-.356.519-.871.923-1.546 1.21-.67.285-1.479.427-2.426.427-.939 0-1.757-.144-2.454-.432-.693-.288-1.235-.714-1.625-1.279-.387-.568-.589-1.27-.608-2.108h2.38c.027.391.139.716.336.978.2.257.468.452.801.585.337.129.718.193 1.142.193.417 0 .778-.061 1.085-.182.311-.121.551-.289.722-.505a1.17 1.17 0 0 0 .255-.745.964.964 0 0 0-.233-.659c-.151-.178-.375-.329-.67-.454a6.81 6.81 0 0 0-1.074-.341l-1.267-.318c-.981-.239-1.756-.612-2.324-1.12-.568-.507-.85-1.191-.846-2.051-.004-.704.183-1.32.562-1.846.383-.527.907-.938 1.574-1.233.667-.296 1.424-.444 2.273-.444.863 0 1.617.148 2.261.444.648.295 1.152.706 1.511 1.233.36.526.546 1.136.557 1.829h-2.358Zm5.445 11.563a4.82 4.82 0 0 1-.864-.074 3.192 3.192 0 0 1-.659-.176l.546-1.807c.284.087.54.134.767.142a.98.98 0 0 0 .596-.159c.171-.114.309-.307.415-.58l.142-.369-3.13-8.977h2.545l1.807 6.409h.091l1.824-6.409h2.562l-3.392 9.67c-.163.47-.384.879-.665 1.227a2.722 2.722 0 0 1-1.051.813c-.424.193-.935.29-1.534.29Zm10.125-8.319v5.046h-2.42v-8.727h2.307v1.539h.102c.193-.507.517-.909.971-1.204.455-.299 1.006-.449 1.654-.449.606 0 1.134.132 1.585.398.451.265.801.644 1.051 1.136.25.489.375 1.072.375 1.75v5.557h-2.42v-5.125c.004-.534-.133-.951-.409-1.25-.277-.303-.658-.455-1.142-.455-.326 0-.614.07-.864.211a1.47 1.47 0 0 0-.58.613c-.136.265-.206.585-.21.96Zm11.999-3.681v1.818h-5.256v-1.818h5.256Zm-4.063-2.091h2.421v8.136c0 .223.034.398.102.523a.562.562 0 0 0 .284.255c.125.05.269.074.432.074.114 0 .227-.009.341-.028l.261-.051.381 1.801a7.158 7.158 0 0 1-.511.131c-.22.053-.487.085-.802.096-.583.023-1.094-.055-1.534-.233a2.145 2.145 0 0 1-1.017-.829c-.242-.375-.361-.849-.358-1.421v-8.454Zm8.072 5.772v5.046h-2.421v-11.637h2.352v4.449h.103c.197-.515.515-.918.954-1.21.44-.295.991-.443 1.654-.443.606 0 1.134.132 1.585.398.454.261.807.638 1.057 1.13.253.489.378 1.074.375 1.756v5.557h-2.421v-5.125c.004-.538-.132-.957-.409-1.256-.273-.299-.655-.449-1.148-.449-.329 0-.621.07-.875.211-.25.14-.447.344-.591.613-.14.265-.212.585-.215.96Zm11.365 5.216c-.898 0-1.671-.182-2.318-.545a3.74 3.74 0 0 1-1.489-1.557c-.349-.674-.523-1.472-.523-2.392 0-.898.174-1.686.523-2.364a3.86 3.86 0 0 1 1.472-1.585c.636-.379 1.382-.568 2.238-.568.576 0 1.112.093 1.608.278.5.182.936.457 1.307.824.375.368.667.83.875 1.387.208.553.312 1.2.312 1.943v.665h-7.369v-1.5h5.091c0-.349-.076-.658-.227-.927a1.626 1.626 0 0 0-.631-.63 1.792 1.792 0 0 0-.926-.233c-.368 0-.693.085-.977.255-.281.167-.5.392-.659.677-.16.28-.241.592-.245.937v1.426c0 .432.08.805.239 1.12.163.314.392.556.687.727.296.17.646.255 1.052.255.268 0 .515-.037.738-.113.224-.076.415-.19.574-.341.159-.152.28-.337.364-.557l2.238.148a3.045 3.045 0 0 1-.699 1.409c-.348.398-.799.708-1.352.932-.549.219-1.184.329-1.903.329Zm10.051-8.897v1.818h-5.256v-1.818h5.256Zm-4.062-2.091h2.42v8.136c0 .223.034.398.102.523a.562.562 0 0 0 .284.255c.125.05.269.074.432.074.114 0 .227-.009.341-.028l.261-.051.381 1.801a7.158 7.158 0 0 1-.511.131c-.22.053-.487.085-.801.096-.584.023-1.095-.055-1.534-.233a2.143 2.143 0 0 1-1.018-.829c-.242-.375-.361-.849-.357-1.421v-8.454Zm5.463 10.818v-8.727h2.42v8.727h-2.42Zm1.216-9.852c-.36 0-.669-.12-.927-.358a1.165 1.165 0 0 1-.38-.87c0-.333.127-.619.38-.858.258-.242.567-.363.927-.363.359 0 .666.121.92.363.258.239.386.525.386.858 0 .337-.128.627-.386.87a1.299 1.299 0 0 1-.92.358Zm6.91 10.022c-.894 0-1.663-.189-2.307-.568a3.84 3.84 0 0 1-1.477-1.591c-.341-.678-.511-1.458-.511-2.341 0-.894.172-1.678.517-2.352a3.84 3.84 0 0 1 1.483-1.585c.64-.383 1.401-.574 2.284-.574.761 0 1.428.138 2 .415a3.335 3.335 0 0 1 1.358 1.164c.333.5.517 1.088.551 1.762h-2.284c-.064-.436-.235-.786-.511-1.051-.273-.269-.631-.404-1.074-.404-.375 0-.703.103-.983.307-.277.201-.493.494-.648.881-.155.386-.233.854-.233 1.403 0 .557.076 1.03.227 1.421.156.39.373.687.654.892.28.204.608.307.983.307.276 0 .524-.057.744-.171.223-.114.407-.278.551-.494.148-.22.244-.483.29-.79h2.284c-.038.667-.22 1.254-.545 1.761a3.29 3.29 0 0 1-1.336 1.182c-.568.284-1.24.426-2.017.426Zm16.56-8.045a2.527 2.527 0 0 0-.335-.733 2.079 2.079 0 0 0-.528-.546 2.273 2.273 0 0 0-.705-.346 2.96 2.96 0 0 0-.869-.119c-.595 0-1.118.147-1.568.443-.447.295-.796.725-1.046 1.289-.25.561-.375 1.247-.375 2.057 0 .811.123 1.5.369 2.068.247.569.595 1.002 1.046 1.302.451.295.983.443 1.596.443.557 0 1.033-.099 1.427-.296.397-.2.7-.483.909-.846.212-.364.318-.794.318-1.29l.5.074h-3v-1.852h4.869v1.465c0 1.023-.216 1.902-.648 2.637a4.408 4.408 0 0 1-1.784 1.693c-.757.394-1.625.591-2.602.591-1.091 0-2.049-.241-2.875-.722-.826-.485-1.47-1.172-1.932-2.062-.458-.894-.687-1.955-.687-3.182 0-.943.136-1.784.409-2.523a5.387 5.387 0 0 1 1.159-1.886 5.01 5.01 0 0 1 1.733-1.176 5.614 5.614 0 0 1 2.142-.404c.659 0 1.273.097 1.841.29.568.19 1.072.458 1.511.807.443.348.805.763 1.085 1.244.281.478.461 1.004.54 1.58h-2.5Zm8.178 8.045c-.883 0-1.646-.187-2.29-.562a3.858 3.858 0 0 1-1.483-1.58c-.348-.678-.523-1.464-.523-2.358 0-.901.175-1.689.523-2.363a3.81 3.81 0 0 1 1.483-1.58c.644-.379 1.407-.568 2.29-.568.882 0 1.644.189 2.284.568.644.375 1.14.902 1.489 1.58.348.674.522 1.462.522 2.363 0 .894-.174 1.68-.522 2.358a3.846 3.846 0 0 1-1.489 1.58c-.64.375-1.402.562-2.284.562Zm.011-1.875c.402 0 .737-.113 1.006-.341.269-.231.472-.545.608-.943.14-.398.21-.85.21-1.358 0-.507-.07-.96-.21-1.358-.136-.397-.339-.712-.608-.943-.269-.231-.604-.346-1.006-.346-.405 0-.746.115-1.022.346-.273.231-.48.546-.62.943a4.19 4.19 0 0 0-.204 1.358c0 .508.068.96.204 1.358.14.398.347.712.62.943.276.228.617.341 1.022.341Zm8.103-9.932v11.637h-2.421v-11.637h2.421Zm4.979 11.779a3.305 3.305 0 0 1-1.802-.511c-.534-.345-.958-.851-1.272-1.518-.311-.67-.466-1.492-.466-2.465 0-1 .161-1.832.483-2.495.322-.666.75-1.165 1.284-1.494a3.294 3.294 0 0 1 1.767-.5c.488 0 .896.083 1.221.25.33.163.595.367.796.614.204.242.36.481.466.715h.074v-4.375h2.414v11.637h-2.386v-1.398h-.102a3.14 3.14 0 0 1-.483.722c-.205.235-.472.43-.801.585-.326.155-.724.233-1.193.233Zm.767-1.926c.39 0 .719-.106.988-.318.273-.216.481-.517.625-.904.148-.386.222-.839.222-1.358 0-.519-.072-.97-.216-1.352-.144-.383-.352-.678-.625-.886-.273-.209-.604-.313-.994-.313-.398 0-.733.108-1.006.324-.273.216-.479.515-.619.898-.141.382-.211.825-.211 1.329 0 .508.07.957.211 1.347.143.386.35.689.619.909.273.216.608.324 1.006.324Zm9.99 1.954c-.898 0-1.671-.182-2.318-.545a3.74 3.74 0 0 1-1.489-1.557c-.349-.674-.523-1.472-.523-2.392 0-.898.174-1.686.523-2.364a3.86 3.86 0 0 1 1.472-1.585c.636-.379 1.382-.568 2.238-.568.576 0 1.112.093 1.608.278.5.182.936.457 1.307.824.375.368.667.83.875 1.387.208.553.312 1.2.312 1.943v.665h-7.369v-1.5h5.091c0-.349-.076-.658-.227-.927a1.626 1.626 0 0 0-.631-.63 1.792 1.792 0 0 0-.926-.233c-.367 0-.693.085-.977.255-.281.167-.5.392-.659.677-.16.28-.241.592-.245.937v1.426c0 .432.08.805.239 1.12.163.314.392.556.687.727.296.17.646.255 1.052.255.268 0 .515-.037.738-.113.224-.076.415-.19.574-.341.159-.152.28-.337.364-.557l2.238.148a3.045 3.045 0 0 1-.699 1.409c-.348.398-.799.708-1.352.932-.549.219-1.184.329-1.903.329Zm7.829-5.216v5.046h-2.42v-8.727h2.307v1.539h.102c.193-.507.517-.909.972-1.204.454-.299 1.005-.449 1.653-.449.606 0 1.135.132 1.585.398.451.265.801.644 1.051 1.136.25.489.375 1.072.375 1.75v5.557h-2.42v-5.125c.004-.534-.133-.951-.409-1.25-.277-.303-.657-.455-1.142-.455-.326 0-.614.07-.864.211-.246.14-.439.344-.579.613-.137.265-.207.585-.211.96Zm14.618-1.193-2.215.137a1.15 1.15 0 0 0-.245-.512 1.303 1.303 0 0 0-.494-.369 1.675 1.675 0 0 0-.722-.142c-.375 0-.691.079-.949.238-.257.156-.386.364-.386.625 0 .209.083.385.25.529.167.144.453.259.858.346l1.58.319c.848.174 1.481.454 1.897.841.417.386.625.893.625 1.522 0 .572-.168 1.074-.505 1.506-.334.432-.792.769-1.375 1.011-.58.239-1.248.358-2.006.358-1.155 0-2.076-.24-2.761-.721a2.81 2.81 0 0 1-1.199-1.978l2.38-.125c.072.353.247.622.523.807.277.182.631.273 1.063.273.424 0 .765-.081 1.022-.244.262-.167.394-.381.398-.642a.667.667 0 0 0-.278-.54c-.182-.144-.462-.254-.841-.33l-1.512-.301c-.852-.17-1.486-.466-1.903-.886-.413-.421-.619-.957-.619-1.608 0-.561.151-1.044.454-1.449.307-.405.737-.718 1.29-.938.557-.219 1.208-.329 1.955-.329 1.102 0 1.969.233 2.602.699.636.466 1.007 1.1 1.113 1.903Z"/><path stroke="#FFCD29" stroke-linecap="round" stroke-linejoin="bevel" stroke-width="4" d="M817.5 49.157h-48m-10 0h-22"/><rect width="109" height="23.132" x="724.5" y="38.2" stroke="#1E1E1E" stroke-linecap="round" stroke-width="4" rx="3"/><rect width="137" height="86" x="710.5" y="21" stroke="#1E1E1E" stroke-linecap="round" stroke-width="4" rx="6"/><rect width="109" height="23.132" x="887" y="38.2" stroke="#1E1E1E" stroke-linecap="round" stroke-width="4" rx="3"/><rect width="137" height="86" x="873" y="21" stroke="#1E1E1E" stroke-linecap="round" stroke-width="4" rx="6"/><path stroke="#1E1E1E" stroke-linecap="round" stroke-linejoin="bevel" stroke-width="4" d="M902 50h22m9 0h22m9 0h18"/><path fill="#1E1E1E" d="M574.17 71.727V79h-1.538v-7.273h1.538Zm2.639 4.12V79h-1.513v-5.454h1.442v.962h.064c.121-.317.323-.568.607-.753.284-.187.629-.28 1.034-.28.379 0 .709.082.991.248.281.166.5.403.656.71.157.306.235.67.235 1.094V79h-1.513v-3.203c.002-.334-.083-.594-.256-.781-.172-.19-.41-.285-.713-.285a1.08 1.08 0 0 0-.54.132.911.911 0 0 0-.362.383 1.327 1.327 0 0 0-.132.6Zm4.598 5.199v-7.5h1.492v.916h.067c.066-.147.162-.296.288-.448.128-.154.293-.281.497-.383.206-.105.462-.157.767-.157.398 0 .765.105 1.101.313.336.206.605.517.806.934.201.414.302.934.302 1.559 0 .608-.099 1.122-.295 1.541-.194.417-.459.733-.795.948-.334.213-.708.32-1.123.32a1.75 1.75 0 0 1-.749-.146 1.556 1.556 0 0 1-.501-.366c-.13-.149-.229-.3-.298-.45h-.046v2.919h-1.513Zm1.481-4.773c0 .324.045.607.135.848.09.242.22.43.391.565.17.133.377.199.621.199a.975.975 0 0 0 .625-.203c.17-.137.299-.326.387-.568.09-.243.135-.524.135-.841 0-.315-.044-.592-.131-.831a1.244 1.244 0 0 0-.387-.561.982.982 0 0 0-.629-.203.999.999 0 0 0-.625.196 1.22 1.22 0 0 0-.387.554c-.09.239-.135.52-.135.845Zm8.235.405v-3.132h1.513V79h-1.453v-.99h-.056a1.609 1.609 0 0 1-.615.77c-.284.194-.631.291-1.04.291-.365 0-.686-.083-.963-.249a1.712 1.712 0 0 1-.649-.706c-.154-.306-.232-.671-.235-1.097v-3.474h1.513v3.204c.002.322.089.576.259.763.171.187.399.28.686.28.182 0 .352-.04.511-.124a.98.98 0 0 0 .384-.376 1.16 1.16 0 0 0 .145-.614Zm5.514-3.132v1.136h-3.285v-1.136h3.285Zm-2.539-1.307h1.513v5.085c0 .14.021.248.064.327a.352.352 0 0 0 .177.16c.079.03.169.045.27.045.071 0 .142-.005.213-.017l.164-.032.238 1.126a4.94 4.94 0 0 1-.32.081 2.56 2.56 0 0 1-.501.06 2.296 2.296 0 0 1-.958-.145 1.333 1.333 0 0 1-.636-.519c-.152-.234-.226-.53-.224-.887v-5.284ZM571.632 94v-7.273h4.901v1.268h-3.363v1.733h3.111v1.268h-3.111v1.736h3.377V94h-4.915Zm7.249-5.454 1.001 1.906 1.027-1.906h1.551l-1.58 2.727L582.503 94h-1.545l-1.076-1.886L578.824 94h-1.562l1.619-2.727-1.563-2.727h1.563Zm4.368 7.5v-7.5h1.491v.916h.068c.066-.147.162-.296.288-.448.127-.154.293-.281.497-.383.206-.105.461-.157.767-.157.397 0 .764.105 1.101.313.336.206.604.517.806.934.201.414.302.934.302 1.559 0 .608-.099 1.122-.295 1.541-.194.417-.459.733-.796.948a2.04 2.04 0 0 1-1.122.32 1.75 1.75 0 0 1-.749-.146 1.545 1.545 0 0 1-.501-.366c-.13-.149-.229-.3-.298-.45h-.046v2.919h-1.513Zm1.481-4.773c0 .324.045.607.135.848.09.242.22.43.39.565a.984.984 0 0 0 .622.199.977.977 0 0 0 .625-.203c.17-.137.299-.326.387-.568.09-.243.135-.524.135-.841a2.4 2.4 0 0 0-.132-.831 1.229 1.229 0 0 0-.387-.561.98.98 0 0 0-.628-.203.999.999 0 0 0-.625.196 1.22 1.22 0 0 0-.387.554c-.09.239-.135.52-.135.845Zm7.223 2.834c-.561 0-1.044-.114-1.449-.341a2.332 2.332 0 0 1-.93-.973c-.218-.422-.327-.92-.327-1.495 0-.561.109-1.054.327-1.478a2.41 2.41 0 0 1 .919-.99c.398-.237.864-.356 1.399-.356.36 0 .695.058 1.005.174.313.114.585.286.817.515.235.23.417.519.547.867.13.346.195.75.195 1.214v.416h-4.605v-.938h3.181c0-.218-.047-.41-.142-.578a1.013 1.013 0 0 0-.394-.395 1.123 1.123 0 0 0-.579-.145c-.229 0-.433.053-.61.16a1.111 1.111 0 0 0-.412.422c-.1.175-.151.37-.153.586v.891c0 .27.05.503.149.7.102.196.245.348.43.454.184.107.403.16.657.16.168 0 .322-.023.461-.07a.953.953 0 0 0 .359-.214.93.93 0 0 0 .227-.348l1.399.093a1.91 1.91 0 0 1-.436.88c-.218.249-.5.443-.846.583a3.182 3.182 0 0 1-1.189.206Zm5.845 0c-.559 0-1.039-.119-1.442-.356-.4-.239-.708-.57-.923-.994-.213-.424-.32-.911-.32-1.463 0-.559.108-1.049.324-1.47.217-.424.526-.754.926-.99.401-.24.876-.36 1.428-.36.476 0 .893.087 1.25.26.357.172.64.415.849.728.208.312.323.68.344 1.1h-1.427a1.106 1.106 0 0 0-.32-.656c-.17-.169-.394-.253-.671-.253a1.01 1.01 0 0 0-.614.192 1.218 1.218 0 0 0-.405.55 2.354 2.354 0 0 0-.146.878c0 .348.047.644.142.888.097.243.233.43.409.557.175.128.379.192.614.192a.996.996 0 0 0 .465-.107.898.898 0 0 0 .345-.309c.092-.137.152-.302.181-.493h1.427a2.225 2.225 0 0 1-.341 1.1 2.058 2.058 0 0 1-.834.74c-.355.177-.776.266-1.261.266Zm6.196-5.561v1.136h-3.285v-1.136h3.285Zm-2.539-1.307h1.513v5.085c0 .14.021.248.064.327a.348.348 0 0 0 .177.16c.078.03.168.045.27.045.071 0 .142-.005.213-.017l.164-.032.237 1.126c-.075.023-.182.05-.319.081a2.56 2.56 0 0 1-.501.06 2.303 2.303 0 0 1-.959-.145 1.335 1.335 0 0 1-.635-.519c-.152-.234-.226-.53-.224-.887v-5.284Zm5.842 6.867c-.561 0-1.044-.113-1.449-.34a2.334 2.334 0 0 1-.931-.973c-.217-.422-.326-.92-.326-1.495 0-.561.109-1.054.326-1.478a2.42 2.42 0 0 1 .92-.99c.398-.237.864-.356 1.399-.356.36 0 .695.058 1.005.174.313.114.585.286.817.515.234.23.417.519.547.867.13.346.195.75.195 1.214v.416h-4.606v-.938h3.182c0-.218-.047-.41-.142-.578a1.02 1.02 0 0 0-.394-.395 1.126 1.126 0 0 0-.579-.145c-.229 0-.433.053-.611.16a1.126 1.126 0 0 0-.412.422c-.099.175-.15.37-.152.586v.891c0 .27.049.503.149.7.102.196.245.348.43.454.184.107.403.16.657.16.168 0 .322-.023.461-.07a.96.96 0 0 0 .359-.214.93.93 0 0 0 .227-.348l1.399.093c-.071.336-.216.63-.437.88a2.184 2.184 0 0 1-.845.583c-.343.137-.74.206-1.189.206Zm5.39-.017c-.414 0-.789-.107-1.125-.32-.334-.215-.599-.531-.796-.948-.194-.419-.291-.933-.291-1.541 0-.625.101-1.145.302-1.56.201-.416.469-.727.802-.933a2.061 2.061 0 0 1 1.105-.313c.305 0 .56.052.763.157.206.102.372.23.497.383.128.152.225.3.292.448h.046v-2.735h1.509V94H614.3v-.874h-.064a1.956 1.956 0 0 1-.302.451 1.503 1.503 0 0 1-.501.366 1.723 1.723 0 0 1-.746.146Zm.48-1.204c.244 0 .45-.066.618-.199.17-.135.3-.323.39-.565.093-.241.139-.524.139-.848 0-.325-.045-.606-.135-.845a1.21 1.21 0 0 0-.391-.554.991.991 0 0 0-.621-.196.982.982 0 0 0-.629.203c-.17.135-.299.322-.387.56-.087.24-.131.517-.131.832 0 .317.044.598.131.841.09.242.219.431.387.569.171.134.38.202.629.202Zm12.674-2.521c0 .793-.15 1.467-.451 2.024a3.127 3.127 0 0 1-1.222 1.275 3.449 3.449 0 0 1-1.733.436 3.445 3.445 0 0 1-1.74-.44 3.144 3.144 0 0 1-1.218-1.275c-.298-.556-.447-1.23-.447-2.02 0-.794.149-1.468.447-2.025a3.12 3.12 0 0 1 1.218-1.27 3.445 3.445 0 0 1 1.74-.441c.642 0 1.22.147 1.733.44a3.1 3.1 0 0 1 1.222 1.272c.301.556.451 1.23.451 2.024Zm-1.559 0c0-.514-.077-.947-.231-1.3a1.756 1.756 0 0 0-.643-.803 1.728 1.728 0 0 0-.973-.273 1.73 1.73 0 0 0-.973.273c-.277.183-.492.45-.646.803-.151.353-.227.786-.227 1.3 0 .513.076.947.227 1.3.154.352.369.62.646.802.277.182.602.273.973.273.372 0 .696-.09.973-.273.277-.182.492-.45.643-.803.154-.352.231-.786.231-1.3Zm6.057 1.314v-3.132h1.513V94H630.4v-.99h-.057a1.613 1.613 0 0 1-.614.77c-.284.194-.631.291-1.041.291-.364 0-.685-.083-.962-.249a1.707 1.707 0 0 1-.65-.706c-.154-.306-.232-.671-.234-1.097v-3.474h1.512v3.204c.003.322.089.576.26.763.17.187.399.28.685.28.182 0 .353-.04.511-.124a.974.974 0 0 0 .384-.376 1.15 1.15 0 0 0 .145-.614Zm5.515-3.132v1.136h-3.285v-1.136h3.285Zm-2.539-1.307h1.512v5.085a.7.7 0 0 0 .064.327.354.354 0 0 0 .178.16c.078.03.168.045.27.045.071 0 .142-.005.213-.017l.163-.032.238 1.126c-.076.023-.182.05-.32.081a2.56 2.56 0 0 1-.5.06 2.3 2.3 0 0 1-.959-.145 1.343 1.343 0 0 1-.636-.519c-.151-.234-.226-.53-.223-.887v-5.284Zm3.414 8.806v-7.5h1.491v.917h.068c.066-.147.162-.296.288-.448.127-.154.293-.281.497-.383.206-.105.461-.157.767-.157.398 0 .764.105 1.101.313.336.206.605.517.806.934.201.414.302.934.302 1.559 0 .608-.099 1.122-.295 1.541-.194.417-.459.733-.796.948-.333.213-.707.32-1.122.32a1.75 1.75 0 0 1-.749-.146 1.545 1.545 0 0 1-.501-.366c-.13-.149-.229-.3-.298-.45h-.046v2.919h-1.513Zm1.481-4.772c0 .324.045.607.135.848.09.242.22.43.39.565a.984.984 0 0 0 .622.199.977.977 0 0 0 .625-.203c.17-.137.299-.326.387-.568.09-.243.135-.524.135-.841a2.4 2.4 0 0 0-.132-.831 1.229 1.229 0 0 0-.387-.561.98.98 0 0 0-.628-.203.999.999 0 0 0-.625.196 1.22 1.22 0 0 0-.387.554c-.09.239-.135.52-.135.845Zm8.235.405v-3.132h1.513V94h-1.453v-.99h-.056a1.615 1.615 0 0 1-.615.77c-.284.194-.631.291-1.04.291-.365 0-.686-.083-.963-.249a1.705 1.705 0 0 1-.649-.706c-.154-.306-.233-.671-.235-1.097v-3.474h1.513v3.204c.002.322.089.576.259.763.171.187.399.28.686.28.182 0 .352-.04.511-.124a.978.978 0 0 0 .383-.376c.1-.166.148-.37.146-.614Zm5.514-3.132v1.136h-3.285v-1.136h3.285Zm-2.539-1.307h1.513v5.085c0 .14.021.248.064.327a.352.352 0 0 0 .177.16c.078.03.168.045.27.045.071 0 .142-.005.213-.017l.164-.032.238 1.126a4.94 4.94 0 0 1-.32.081 2.56 2.56 0 0 1-.501.06 2.303 2.303 0 0 1-.959-.145 1.335 1.335 0 0 1-.635-.519c-.152-.234-.226-.53-.224-.887v-5.284Zm86.75-14.512V80h-1.538v-7.273h1.538Zm2.639 4.12V80h-1.513v-5.454h1.442v.962h.064c.121-.317.323-.568.607-.753.284-.187.629-.28 1.034-.28.379 0 .709.082.991.248.281.166.5.403.656.71.157.306.235.67.235 1.094V80h-1.513v-3.203c.002-.334-.083-.594-.256-.781-.172-.19-.41-.285-.713-.285a1.08 1.08 0 0 0-.54.132.911.911 0 0 0-.362.383 1.327 1.327 0 0 0-.132.6Zm4.598 5.199v-7.5h1.492v.916h.067c.066-.147.162-.296.288-.448.128-.154.293-.281.497-.383.206-.105.462-.157.767-.157.398 0 .765.105 1.101.313.336.206.605.517.806.934.201.414.302.934.302 1.559 0 .608-.099 1.122-.295 1.541-.194.417-.459.733-.795.948-.334.213-.708.32-1.123.32a1.75 1.75 0 0 1-.749-.146 1.556 1.556 0 0 1-.501-.366c-.13-.149-.229-.3-.298-.45h-.046v2.919h-1.513Zm1.481-4.773c0 .324.045.607.135.848.09.242.22.43.391.565.17.133.377.199.621.199a.975.975 0 0 0 .625-.203c.17-.137.299-.326.387-.568.09-.243.135-.524.135-.841 0-.315-.044-.592-.131-.831a1.244 1.244 0 0 0-.387-.561.982.982 0 0 0-.629-.203.999.999 0 0 0-.625.196 1.22 1.22 0 0 0-.387.554c-.09.239-.135.52-.135.845Zm8.235.405v-3.132h1.513V80h-1.453v-.99h-.056a1.609 1.609 0 0 1-.615.77c-.284.194-.631.291-1.04.291-.365 0-.686-.083-.963-.249a1.712 1.712 0 0 1-.649-.706c-.154-.306-.232-.671-.235-1.097v-3.474h1.513v3.204c.002.322.089.576.259.763.171.187.399.28.686.28.182 0 .352-.04.511-.124a.98.98 0 0 0 .384-.376 1.16 1.16 0 0 0 .145-.614Zm5.514-3.132v1.136h-3.285v-1.136h3.285Zm-2.539-1.307h1.513v5.085c0 .14.021.248.064.327a.352.352 0 0 0 .177.16c.079.03.169.045.27.045.071 0 .142-.005.213-.017l.164-.032.238 1.126a4.94 4.94 0 0 1-.32.081 2.56 2.56 0 0 1-.501.06 2.296 2.296 0 0 1-.958-.145 1.333 1.333 0 0 1-.636-.519c-.152-.234-.226-.53-.224-.887v-5.284ZM733.632 95v-7.273h4.901v1.268h-3.363v1.733h3.111v1.268h-3.111v1.736h3.377V95h-4.915Zm7.249-5.454 1.001 1.906 1.027-1.906h1.551l-1.58 2.727L744.503 95h-1.545l-1.076-1.886L740.824 95h-1.562l1.619-2.727-1.563-2.727h1.563Zm4.368 7.5v-7.5h1.491v.916h.068c.066-.147.162-.296.288-.448.127-.154.293-.281.497-.383.206-.105.461-.157.767-.157.397 0 .764.105 1.101.313.336.206.604.517.806.934.201.414.302.934.302 1.559 0 .608-.099 1.122-.295 1.541-.194.417-.459.733-.796.948a2.04 2.04 0 0 1-1.122.32 1.75 1.75 0 0 1-.749-.146 1.545 1.545 0 0 1-.501-.366c-.13-.149-.229-.3-.298-.45h-.046v2.919h-1.513Zm1.481-4.773c0 .324.045.607.135.848.09.242.22.43.39.565a.984.984 0 0 0 .622.199.977.977 0 0 0 .625-.203c.17-.137.299-.326.387-.568.09-.243.135-.524.135-.841a2.4 2.4 0 0 0-.132-.831 1.229 1.229 0 0 0-.387-.561.98.98 0 0 0-.628-.203.999.999 0 0 0-.625.196 1.22 1.22 0 0 0-.387.554c-.09.239-.135.52-.135.845Zm7.223 2.834c-.561 0-1.044-.114-1.449-.341a2.332 2.332 0 0 1-.93-.973c-.218-.422-.327-.92-.327-1.495 0-.561.109-1.054.327-1.478a2.41 2.41 0 0 1 .919-.99c.398-.237.864-.356 1.399-.356.36 0 .695.058 1.005.174.313.114.585.286.817.515.235.23.417.519.547.867.13.346.195.75.195 1.214v.416h-4.605v-.938h3.181c0-.218-.047-.41-.142-.578a1.013 1.013 0 0 0-.394-.395 1.123 1.123 0 0 0-.579-.145c-.229 0-.433.053-.61.16a1.111 1.111 0 0 0-.412.422c-.1.175-.151.37-.153.586v.891c0 .27.05.503.149.7.102.196.245.348.43.454.184.107.403.16.657.16.168 0 .322-.023.461-.07a.953.953 0 0 0 .359-.214.93.93 0 0 0 .227-.348l1.399.093a1.91 1.91 0 0 1-.436.88c-.218.249-.5.443-.846.583a3.182 3.182 0 0 1-1.189.206Zm5.845 0c-.559 0-1.039-.119-1.442-.356-.4-.239-.708-.57-.923-.994-.213-.424-.32-.911-.32-1.463 0-.559.108-1.049.324-1.47.217-.424.526-.754.926-.99.401-.24.876-.36 1.428-.36.476 0 .893.087 1.25.26.357.172.64.415.849.728.208.312.323.68.344 1.1h-1.427a1.106 1.106 0 0 0-.32-.656c-.17-.169-.394-.253-.671-.253a1.01 1.01 0 0 0-.614.192 1.218 1.218 0 0 0-.405.55 2.354 2.354 0 0 0-.146.878c0 .348.047.644.142.888.097.243.233.43.409.557.175.128.379.192.614.192a.996.996 0 0 0 .465-.107.898.898 0 0 0 .345-.309c.092-.137.152-.302.181-.493h1.427a2.225 2.225 0 0 1-.341 1.1 2.058 2.058 0 0 1-.834.74c-.355.177-.776.266-1.261.266Zm6.196-5.561v1.136h-3.285v-1.136h3.285Zm-2.539-1.307h1.513v5.085c0 .14.021.248.064.327a.348.348 0 0 0 .177.16c.078.03.168.045.27.045.071 0 .142-.005.213-.017l.164-.032.237 1.126c-.075.023-.182.05-.319.081a2.56 2.56 0 0 1-.501.06 2.303 2.303 0 0 1-.959-.145 1.335 1.335 0 0 1-.635-.519c-.152-.234-.226-.53-.224-.887v-5.284Zm5.842 6.867c-.561 0-1.044-.113-1.449-.34a2.334 2.334 0 0 1-.931-.973c-.217-.422-.326-.92-.326-1.495 0-.561.109-1.054.326-1.478a2.42 2.42 0 0 1 .92-.99c.398-.237.864-.356 1.399-.356.36 0 .695.058 1.005.174.313.114.585.286.817.515.234.23.417.519.547.867.13.346.195.75.195 1.214v.416h-4.606v-.938h3.182c0-.218-.047-.41-.142-.578a1.02 1.02 0 0 0-.394-.395 1.126 1.126 0 0 0-.579-.145c-.229 0-.433.053-.611.16a1.126 1.126 0 0 0-.412.422c-.099.175-.15.37-.152.586v.891c0 .27.049.503.149.7.102.196.245.348.43.454.184.107.403.16.657.16.168 0 .322-.023.461-.07a.96.96 0 0 0 .359-.214.93.93 0 0 0 .227-.348l1.399.093c-.071.336-.216.63-.437.88a2.184 2.184 0 0 1-.845.583c-.343.137-.74.206-1.189.206Zm5.39-.017c-.414 0-.789-.107-1.125-.32-.334-.215-.599-.531-.796-.948-.194-.419-.291-.933-.291-1.541 0-.625.101-1.145.302-1.56.201-.416.469-.727.802-.933a2.061 2.061 0 0 1 1.105-.313c.305 0 .56.052.763.157.206.102.372.23.497.383.128.152.225.3.292.448h.046v-2.735h1.509V95H776.3v-.874h-.064a1.956 1.956 0 0 1-.302.451 1.503 1.503 0 0 1-.501.366 1.723 1.723 0 0 1-.746.146Zm.48-1.204c.244 0 .45-.066.618-.199.17-.135.3-.323.39-.565.093-.241.139-.524.139-.848 0-.325-.045-.606-.135-.845a1.21 1.21 0 0 0-.391-.554.991.991 0 0 0-.621-.196.982.982 0 0 0-.629.203c-.17.135-.299.322-.387.56-.087.24-.131.517-.131.832 0 .317.044.598.131.841.09.242.219.431.387.569.171.134.38.202.629.202Zm12.674-2.521c0 .793-.15 1.467-.451 2.024a3.127 3.127 0 0 1-1.222 1.275 3.449 3.449 0 0 1-1.733.436 3.445 3.445 0 0 1-1.74-.44 3.144 3.144 0 0 1-1.218-1.275c-.298-.556-.447-1.23-.447-2.02 0-.794.149-1.468.447-2.025a3.12 3.12 0 0 1 1.218-1.27 3.445 3.445 0 0 1 1.74-.441c.642 0 1.22.147 1.733.44a3.1 3.1 0 0 1 1.222 1.272c.301.556.451 1.23.451 2.024Zm-1.559 0c0-.514-.077-.947-.231-1.3a1.756 1.756 0 0 0-.643-.803 1.728 1.728 0 0 0-.973-.273 1.73 1.73 0 0 0-.973.273c-.277.183-.492.45-.646.803-.151.353-.227.786-.227 1.3 0 .513.076.947.227 1.3.154.352.369.62.646.802.277.182.602.273.973.273.372 0 .696-.09.973-.273.277-.182.492-.45.643-.803.154-.352.231-.786.231-1.3Zm6.057 1.314v-3.132h1.513V95H792.4v-.99h-.057a1.613 1.613 0 0 1-.614.77c-.284.194-.631.291-1.041.291-.364 0-.685-.083-.962-.249a1.707 1.707 0 0 1-.65-.706c-.154-.306-.232-.671-.234-1.097v-3.474h1.512v3.204c.003.322.089.576.26.763.17.187.399.28.685.28.182 0 .353-.04.511-.124a.974.974 0 0 0 .384-.376 1.15 1.15 0 0 0 .145-.614Zm5.515-3.132v1.136h-3.285v-1.136h3.285Zm-2.539-1.307h1.512v5.085a.7.7 0 0 0 .064.327.354.354 0 0 0 .178.16c.078.03.168.045.27.045.071 0 .142-.005.213-.017l.163-.032.238 1.126c-.076.023-.182.05-.32.081a2.56 2.56 0 0 1-.5.06 2.3 2.3 0 0 1-.959-.145 1.343 1.343 0 0 1-.636-.519c-.151-.234-.226-.53-.223-.887v-5.284Zm3.414 8.806v-7.5h1.491v.917h.068c.066-.147.162-.296.288-.448.127-.154.293-.281.497-.383.206-.105.461-.157.767-.157.398 0 .764.105 1.101.313.336.206.605.517.806.934.201.414.302.934.302 1.559 0 .608-.099 1.122-.295 1.541-.194.417-.459.733-.796.948-.333.213-.707.32-1.122.32a1.75 1.75 0 0 1-.749-.146 1.545 1.545 0 0 1-.501-.366c-.13-.149-.229-.3-.298-.45h-.046v2.919h-1.513Zm1.481-4.772c0 .324.045.607.135.848.09.242.22.43.39.565a.984.984 0 0 0 .622.199.977.977 0 0 0 .625-.203c.17-.137.299-.326.387-.568.09-.243.135-.524.135-.841a2.4 2.4 0 0 0-.132-.831 1.229 1.229 0 0 0-.387-.561.98.98 0 0 0-.628-.203.999.999 0 0 0-.625.196 1.22 1.22 0 0 0-.387.554c-.09.239-.135.52-.135.845Zm8.235.405v-3.132h1.513V95h-1.453v-.99h-.056a1.615 1.615 0 0 1-.615.77c-.284.194-.631.291-1.04.291-.365 0-.686-.083-.963-.249a1.705 1.705 0 0 1-.649-.706c-.154-.306-.233-.671-.235-1.097v-3.474h1.513v3.204c.002.322.089.576.259.763.171.187.399.28.686.28.182 0 .352-.04.511-.124a.978.978 0 0 0 .383-.376c.1-.166.148-.37.146-.614Zm5.514-3.132v1.136h-3.285v-1.136h3.285Zm-2.539-1.307h1.513v5.085c0 .14.021.248.064.327a.352.352 0 0 0 .177.16c.078.03.168.045.27.045.071 0 .142-.005.213-.017l.164-.032.238 1.126a4.94 4.94 0 0 1-.32.081 2.56 2.56 0 0 1-.501.06 2.303 2.303 0 0 1-.959-.145 1.335 1.335 0 0 1-.635-.519c-.152-.234-.226-.53-.224-.887v-5.284Zm86.75-14.512V81h-1.538v-7.273h1.538Zm2.639 4.12V81h-1.513v-5.454h1.442v.962h.064c.121-.317.323-.568.607-.753.284-.187.629-.28 1.034-.28.379 0 .709.082.991.248.281.166.5.403.656.71.157.306.235.67.235 1.094V81h-1.513v-3.203c.002-.334-.083-.594-.256-.781-.172-.19-.41-.285-.713-.285a1.08 1.08 0 0 0-.54.132.911.911 0 0 0-.362.383 1.327 1.327 0 0 0-.132.6Zm4.598 5.199v-7.5h1.492v.916h.067c.066-.147.162-.296.288-.448.128-.154.293-.281.497-.383.206-.105.462-.157.767-.157.398 0 .765.105 1.101.313.336.206.605.517.806.934.201.414.302.934.302 1.559 0 .608-.099 1.122-.295 1.541-.194.417-.459.733-.795.948-.334.213-.708.32-1.123.32a1.75 1.75 0 0 1-.749-.146 1.556 1.556 0 0 1-.501-.366c-.13-.149-.229-.3-.298-.45h-.046v2.919h-1.513Zm1.481-4.773c0 .324.045.607.135.848.09.242.22.43.391.565.17.133.377.199.621.199a.975.975 0 0 0 .625-.203c.17-.137.299-.326.387-.568.09-.243.135-.524.135-.841 0-.315-.044-.592-.131-.831a1.244 1.244 0 0 0-.387-.561.982.982 0 0 0-.629-.203.999.999 0 0 0-.625.196 1.22 1.22 0 0 0-.387.554c-.09.239-.135.52-.135.845Zm8.235.405v-3.132h1.513V81h-1.453v-.99h-.056a1.609 1.609 0 0 1-.615.77c-.284.194-.631.291-1.04.291-.365 0-.686-.083-.963-.249a1.712 1.712 0 0 1-.649-.706c-.154-.306-.232-.671-.235-1.097v-3.474h1.513v3.204c.002.322.089.576.259.763.171.187.399.28.686.28.182 0 .352-.04.511-.124a.98.98 0 0 0 .384-.376 1.16 1.16 0 0 0 .145-.614Zm5.514-3.132v1.136h-3.285v-1.136h3.285Zm-2.539-1.307h1.513v5.085c0 .14.021.248.064.327a.352.352 0 0 0 .177.16c.079.03.169.045.27.045.071 0 .142-.005.213-.017l.164-.032.238 1.126a4.94 4.94 0 0 1-.32.081 2.56 2.56 0 0 1-.501.06 2.296 2.296 0 0 1-.958-.145 1.333 1.333 0 0 1-.636-.519c-.152-.234-.226-.53-.224-.887v-5.284ZM895.632 96v-7.273h4.901v1.268h-3.363v1.733h3.111v1.268h-3.111v1.736h3.377V96h-4.915Zm7.249-5.454 1.001 1.906 1.027-1.906h1.551l-1.58 2.727L906.503 96h-1.545l-1.076-1.886L902.824 96h-1.562l1.619-2.727-1.563-2.727h1.563Zm4.368 7.5v-7.5h1.491v.916h.068c.066-.147.162-.296.288-.448.127-.154.293-.281.497-.383.206-.105.461-.157.767-.157.397 0 .764.105 1.101.313.336.206.604.517.806.934.201.414.302.934.302 1.559 0 .608-.099 1.122-.295 1.541-.194.417-.459.733-.796.948a2.04 2.04 0 0 1-1.122.32 1.75 1.75 0 0 1-.749-.146 1.545 1.545 0 0 1-.501-.366c-.13-.149-.229-.3-.298-.45h-.046v2.919h-1.513Zm1.481-4.773c0 .324.045.607.135.848.09.242.22.43.39.565a.984.984 0 0 0 .622.199.977.977 0 0 0 .625-.203c.17-.137.299-.326.387-.568.09-.243.135-.524.135-.841a2.4 2.4 0 0 0-.132-.831 1.229 1.229 0 0 0-.387-.561.98.98 0 0 0-.628-.203.999.999 0 0 0-.625.196 1.22 1.22 0 0 0-.387.554c-.09.239-.135.52-.135.845Zm7.223 2.834c-.561 0-1.044-.114-1.449-.341a2.332 2.332 0 0 1-.93-.973c-.218-.422-.327-.92-.327-1.495 0-.561.109-1.054.327-1.478a2.41 2.41 0 0 1 .919-.99c.398-.237.864-.356 1.399-.356.36 0 .695.058 1.005.174.313.114.585.286.817.515.235.23.417.519.547.867.13.346.195.75.195 1.214v.416h-4.605v-.938h3.181c0-.218-.047-.41-.142-.578a1.013 1.013 0 0 0-.394-.395 1.123 1.123 0 0 0-.579-.145c-.229 0-.433.053-.61.16a1.111 1.111 0 0 0-.412.422c-.1.175-.151.37-.153.586v.891c0 .27.05.503.149.7.102.196.245.348.43.454.184.107.403.16.657.16.168 0 .322-.023.461-.07a.953.953 0 0 0 .359-.214.93.93 0 0 0 .227-.348l1.399.093a1.91 1.91 0 0 1-.436.88c-.218.249-.5.443-.846.583a3.182 3.182 0 0 1-1.189.206Zm5.845 0c-.559 0-1.039-.119-1.442-.356-.4-.239-.708-.57-.923-.994-.213-.424-.32-.911-.32-1.463 0-.559.108-1.049.324-1.47.217-.424.526-.754.926-.99.401-.24.876-.36 1.428-.36.476 0 .893.087 1.25.26.357.172.64.415.849.728.208.312.323.68.344 1.1h-1.427a1.106 1.106 0 0 0-.32-.656c-.17-.169-.394-.253-.671-.253a1.01 1.01 0 0 0-.614.192 1.218 1.218 0 0 0-.405.55 2.354 2.354 0 0 0-.146.878c0 .348.047.644.142.888.097.243.233.43.409.557.175.128.379.192.614.192a.996.996 0 0 0 .465-.107.898.898 0 0 0 .345-.309c.092-.137.152-.302.181-.493h1.427a2.225 2.225 0 0 1-.341 1.1 2.058 2.058 0 0 1-.834.74c-.355.177-.776.266-1.261.266Zm6.196-5.561v1.136h-3.285v-1.136h3.285Zm-2.539-1.307h1.513v5.085c0 .14.021.248.064.327a.348.348 0 0 0 .177.16c.078.03.168.045.27.045.071 0 .142-.005.213-.017l.164-.032.237 1.126c-.075.023-.182.05-.319.081a2.56 2.56 0 0 1-.501.06 2.303 2.303 0 0 1-.959-.145 1.335 1.335 0 0 1-.635-.519c-.152-.234-.226-.53-.224-.887v-5.284Zm5.842 6.867c-.561 0-1.044-.113-1.449-.34a2.334 2.334 0 0 1-.931-.973c-.217-.422-.326-.92-.326-1.495 0-.561.109-1.054.326-1.478a2.42 2.42 0 0 1 .92-.99c.398-.237.864-.356 1.399-.356.36 0 .695.058 1.005.174.313.114.585.286.817.515.234.23.417.519.547.867.13.346.195.75.195 1.214v.416h-4.606v-.938h3.182c0-.218-.047-.41-.142-.578a1.02 1.02 0 0 0-.394-.395 1.126 1.126 0 0 0-.579-.145c-.229 0-.433.053-.611.16a1.126 1.126 0 0 0-.412.422c-.099.175-.15.37-.152.586v.891c0 .27.049.503.149.7.102.196.245.348.43.454.184.107.403.16.657.16.168 0 .322-.023.461-.07a.96.96 0 0 0 .359-.214.93.93 0 0 0 .227-.348l1.399.093c-.071.336-.216.63-.437.88a2.184 2.184 0 0 1-.845.583c-.343.137-.74.206-1.189.206Zm5.39-.017c-.414 0-.789-.107-1.125-.32-.334-.215-.599-.531-.796-.948-.194-.419-.291-.933-.291-1.541 0-.625.101-1.145.302-1.56.201-.416.469-.727.802-.933a2.061 2.061 0 0 1 1.105-.313c.305 0 .56.052.763.157.206.102.372.23.497.383.128.152.225.3.292.448h.046v-2.735h1.509V96H938.3v-.874h-.064a1.956 1.956 0 0 1-.302.451 1.503 1.503 0 0 1-.501.366 1.723 1.723 0 0 1-.746.146Zm.48-1.204c.244 0 .45-.066.618-.199.17-.135.3-.323.39-.565.093-.241.139-.524.139-.848 0-.325-.045-.606-.135-.845a1.21 1.21 0 0 0-.391-.554.991.991 0 0 0-.621-.196.982.982 0 0 0-.629.203c-.17.135-.299.322-.387.56-.087.24-.131.517-.131.832 0 .317.044.598.131.841.09.242.219.431.387.569.171.134.38.202.629.202Zm12.674-2.521c0 .793-.15 1.467-.451 2.024a3.127 3.127 0 0 1-1.222 1.275 3.449 3.449 0 0 1-1.733.436 3.445 3.445 0 0 1-1.74-.44 3.144 3.144 0 0 1-1.218-1.275c-.298-.556-.447-1.23-.447-2.02 0-.794.149-1.468.447-2.025a3.12 3.12 0 0 1 1.218-1.27 3.445 3.445 0 0 1 1.74-.441c.642 0 1.22.147 1.733.44a3.1 3.1 0 0 1 1.222 1.272c.301.556.451 1.23.451 2.024Zm-1.559 0c0-.514-.077-.947-.231-1.3a1.756 1.756 0 0 0-.643-.803 1.728 1.728 0 0 0-.973-.273 1.73 1.73 0 0 0-.973.273c-.277.183-.492.45-.646.803-.151.353-.227.786-.227 1.3 0 .513.076.947.227 1.3.154.352.369.62.646.802.277.182.602.273.973.273.372 0 .696-.09.973-.273.277-.182.492-.45.643-.803.154-.352.231-.786.231-1.3Zm6.057 1.314v-3.132h1.513V96H954.4v-.99h-.057a1.613 1.613 0 0 1-.614.77c-.284.194-.631.291-1.041.291-.364 0-.685-.083-.962-.249a1.707 1.707 0 0 1-.65-.706c-.154-.306-.232-.671-.234-1.097v-3.474h1.512v3.204c.003.322.089.576.26.763.17.187.399.28.685.28.182 0 .353-.04.511-.124a.974.974 0 0 0 .384-.376 1.15 1.15 0 0 0 .145-.614Zm5.515-3.132v1.136h-3.285v-1.136h3.285Zm-2.539-1.307h1.512v5.085a.7.7 0 0 0 .064.327.354.354 0 0 0 .178.16c.078.03.168.045.27.045.071 0 .142-.005.213-.017l.163-.032.238 1.126c-.076.023-.182.05-.32.081a2.56 2.56 0 0 1-.5.06 2.3 2.3 0 0 1-.959-.145 1.343 1.343 0 0 1-.636-.519c-.151-.234-.226-.53-.223-.887v-5.284Zm3.414 8.806v-7.5h1.491v.917h.068c.066-.147.162-.296.288-.448.127-.154.293-.281.497-.383.206-.105.461-.157.767-.157.398 0 .764.105 1.101.313.336.206.605.517.806.934.201.414.302.934.302 1.559 0 .608-.099 1.122-.295 1.541-.194.417-.459.733-.796.948-.333.213-.707.32-1.122.32a1.75 1.75 0 0 1-.749-.146 1.545 1.545 0 0 1-.501-.366c-.13-.149-.229-.3-.298-.45h-.046v2.919h-1.513Zm1.481-4.772c0 .324.045.607.135.848.09.242.22.43.39.565a.984.984 0 0 0 .622.199.977.977 0 0 0 .625-.203c.17-.137.299-.326.387-.568.09-.243.135-.524.135-.841a2.4 2.4 0 0 0-.132-.831 1.229 1.229 0 0 0-.387-.561.98.98 0 0 0-.628-.203.999.999 0 0 0-.625.196 1.22 1.22 0 0 0-.387.554c-.09.239-.135.52-.135.845Zm8.235.405v-3.132h1.513V96h-1.453v-.99h-.056a1.615 1.615 0 0 1-.615.77c-.284.194-.631.291-1.04.291-.365 0-.686-.083-.963-.249a1.705 1.705 0 0 1-.649-.706c-.154-.306-.233-.671-.235-1.097v-3.474h1.513v3.204c.002.322.089.576.259.763.171.187.399.28.686.28.182 0 .352-.04.511-.124a.978.978 0 0 0 .383-.376c.1-.166.148-.37.146-.614Zm5.514-3.132v1.136h-3.285v-1.136h3.285Zm-2.539-1.307h1.513v5.085c0 .14.021.248.064.327a.352.352 0 0 0 .177.16c.078.03.168.045.27.045.071 0 .142-.005.213-.017l.164-.032.238 1.126a4.94 4.94 0 0 1-.32.081 2.56 2.56 0 0 1-.501.06 2.303 2.303 0 0 1-.959-.145 1.335 1.335 0 0 1-.635-.519c-.152-.234-.226-.53-.224-.887v-5.284Z"/></svg>