<svg xmlns="http://www.w3.org/2000/svg" width="572" height="310" fill="none"><path fill="#1E1E1E" d="M208 54a2 2 0 1 0-4 0h4Zm-10.88 43.333c-1.105 0-1.886 1.353-1.334 2.31l8.881 15.381c.552.956 2.114.956 2.666 0l8.881-15.381c.552-.957-.229-2.31-1.334-2.31h-17.76ZM204 54v45.333h4V54h-4Z"/><rect width="124" height="51.333" x="144" y="115" stroke="#1E1E1E" stroke-linecap="round" stroke-width="4" rx="3"/><path fill="#000" fill-opacity=".8" d="M167.83 139.438h-2.488a2.448 2.448 0 0 0-.279-.858c-.14-.254-.32-.47-.54-.648a2.352 2.352 0 0 0-.761-.409 2.904 2.904 0 0 0-.926-.142c-.602 0-1.127.149-1.574.449-.447.295-.793.727-1.04 1.295-.246.564-.369 1.25-.369 2.057 0 .829.123 1.526.369 2.091.25.564.599.99 1.046 1.278.447.288.964.432 1.551.432.329 0 .634-.044.915-.131.284-.087.536-.214.755-.38.22-.171.402-.377.546-.62a2.41 2.41 0 0 0 .307-.829l2.488.011a4.626 4.626 0 0 1-1.511 2.869 4.821 4.821 0 0 1-1.534.921c-.591.223-1.26.335-2.006.335-1.038 0-1.966-.235-2.784-.704-.814-.47-1.458-1.15-1.932-2.04-.469-.89-.704-1.968-.704-3.233 0-1.269.238-2.349.716-3.239.477-.89 1.125-1.568 1.943-2.034.818-.47 1.738-.704 2.761-.704.674 0 1.299.094 1.875.284.58.189 1.093.466 1.54.829.447.36.811.801 1.091 1.324.284.523.466 1.121.545 1.796Zm5.486 7.732c-.882 0-1.646-.187-2.29-.562a3.852 3.852 0 0 1-1.483-1.58c-.348-.678-.522-1.464-.522-2.358 0-.901.174-1.689.522-2.363a3.81 3.81 0 0 1 1.483-1.58c.644-.379 1.408-.568 2.29-.568.883 0 1.644.189 2.284.568.644.375 1.14.902 1.489 1.58.348.674.523 1.462.523 2.363 0 .894-.175 1.68-.523 2.358a3.84 3.84 0 0 1-1.489 1.58c-.64.375-1.401.562-2.284.562Zm.012-1.875c.401 0 .736-.113 1.005-.34.269-.232.472-.546.608-.944.14-.397.21-.85.21-1.358 0-.507-.07-.96-.21-1.358-.136-.397-.339-.712-.608-.943-.269-.231-.604-.346-1.005-.346-.406 0-.747.115-1.023.346-.273.231-.479.546-.619.943a4.163 4.163 0 0 0-.205 1.358c0 .508.068.961.205 1.358.14.398.346.712.619.944.276.227.617.34 1.023.34ZM179.01 147v-8.727h2.306v1.539h.103c.181-.511.484-.914.909-1.21.424-.295.932-.443 1.522-.443.599 0 1.108.15 1.529.449.42.295.701.697.841 1.204h.091c.178-.5.5-.899.966-1.198.469-.303 1.024-.455 1.664-.455.815 0 1.476.26 1.983.779.512.515.767 1.246.767 2.193V147h-2.414v-5.392c0-.485-.129-.849-.387-1.091-.257-.242-.579-.364-.966-.364-.439 0-.782.141-1.028.421-.246.276-.369.642-.369 1.096V147h-2.347v-5.443c0-.428-.123-.769-.369-1.023-.243-.254-.563-.381-.961-.381-.268 0-.511.069-.727.205a1.41 1.41 0 0 0-.506.562 1.79 1.79 0 0 0-.187.841V147h-2.42Zm14.417 3.273v-12h2.387v1.466h.108c.106-.235.259-.474.46-.716.204-.246.47-.451.795-.614.33-.167.739-.25 1.228-.25.636 0 1.223.167 1.761.5.538.33.968.828 1.29 1.494.322.663.483 1.495.483 2.495 0 .973-.158 1.795-.472 2.466-.311.666-.735 1.172-1.273 1.517a3.264 3.264 0 0 1-1.795.511c-.47 0-.869-.078-1.199-.233a2.466 2.466 0 0 1-.801-.585 2.953 2.953 0 0 1-.477-.722h-.074v4.671h-2.421Zm2.37-7.637c0 .519.072.972.216 1.358.143.387.352.688.625.904.272.212.604.318.994.318.394 0 .727-.108 1-.324.273-.22.479-.523.619-.909.144-.39.216-.839.216-1.347 0-.503-.07-.947-.21-1.329-.14-.383-.347-.682-.619-.898-.273-.216-.608-.324-1.006-.324-.394 0-.727.104-1 .313-.269.208-.476.504-.619.886-.144.383-.216.833-.216 1.352Zm10.068 4.529c-.557 0-1.053-.097-1.489-.29a2.404 2.404 0 0 1-1.034-.869c-.25-.387-.375-.868-.375-1.444 0-.484.089-.892.267-1.221.178-.33.421-.595.728-.796.306-.2.655-.352 1.045-.454a8.043 8.043 0 0 1 1.239-.216c.507-.053.916-.102 1.227-.148.31-.049.536-.121.676-.216a.473.473 0 0 0 .21-.42v-.034c0-.36-.113-.638-.341-.835-.223-.197-.541-.296-.954-.296-.436 0-.782.097-1.04.29a1.327 1.327 0 0 0-.511.716l-2.239-.182c.114-.53.337-.989.67-1.375.334-.39.764-.689 1.29-.898.531-.212 1.144-.318 1.841-.318.485 0 .949.057 1.392.171.447.113.843.289 1.188.528.348.239.623.545.824.92.2.372.301.817.301 1.336V147h-2.296v-1.21h-.068c-.14.272-.328.513-.562.721a2.587 2.587 0 0 1-.847.483 3.49 3.49 0 0 1-1.142.171Zm.693-1.671c.356 0 .671-.07.943-.21a1.67 1.67 0 0 0 .642-.579c.156-.243.233-.518.233-.824v-.926c-.075.049-.18.094-.312.136a5.628 5.628 0 0 1-.438.108c-.163.03-.325.059-.488.085l-.444.063a3.003 3.003 0 0 0-.744.198 1.183 1.183 0 0 0-.494.37.895.895 0 0 0-.176.568c0 .329.119.581.358.756.242.17.549.255.92.255Zm5.924 1.506v-8.727h2.346v1.522h.091c.159-.541.426-.95.801-1.227.375-.28.807-.42 1.296-.42.121 0 .252.007.392.022.14.016.263.036.369.063v2.148a3.117 3.117 0 0 0-.472-.091c-.2-.027-.384-.04-.551-.04-.356 0-.674.078-.954.233a1.713 1.713 0 0 0-.659.636 1.839 1.839 0 0 0-.239.943V147h-2.42Zm8.609.165c-.557 0-1.053-.097-1.489-.29a2.404 2.404 0 0 1-1.034-.869c-.25-.387-.375-.868-.375-1.444 0-.484.089-.892.267-1.221.178-.33.421-.595.728-.796.306-.2.655-.352 1.045-.454a8.043 8.043 0 0 1 1.239-.216c.507-.053.916-.102 1.227-.148.311-.049.536-.121.676-.216a.473.473 0 0 0 .21-.42v-.034c0-.36-.113-.638-.341-.835-.223-.197-.541-.296-.954-.296-.436 0-.782.097-1.04.29a1.332 1.332 0 0 0-.511.716l-2.239-.182a3.04 3.04 0 0 1 .671-1.375c.333-.39.763-.689 1.289-.898.531-.212 1.144-.318 1.841-.318.485 0 .949.057 1.392.171.447.113.843.289 1.188.528.348.239.623.545.824.92.2.372.301.817.301 1.336V147h-2.296v-1.21h-.068c-.14.272-.327.513-.562.721a2.587 2.587 0 0 1-.847.483c-.329.114-.71.171-1.142.171Zm.693-1.671c.356 0 .671-.07.943-.21a1.67 1.67 0 0 0 .642-.579c.156-.243.233-.518.233-.824v-.926c-.075.049-.18.094-.312.136a5.628 5.628 0 0 1-.438.108c-.162.03-.325.059-.488.085l-.443.063a3.011 3.011 0 0 0-.745.198 1.183 1.183 0 0 0-.494.37.901.901 0 0 0-.176.568c0 .329.119.581.358.756.242.17.549.255.92.255Zm10.566-7.221v1.818h-5.256v-1.818h5.256Zm-4.063-2.091h2.421v8.136c0 .224.034.398.102.523a.569.569 0 0 0 .284.256c.125.049.269.073.432.073.113 0 .227-.009.341-.028l.261-.051.381 1.801a7.07 7.07 0 0 1-.512.131 4.065 4.065 0 0 1-.801.096c-.583.023-1.094-.055-1.534-.233a2.145 2.145 0 0 1-1.017-.829c-.242-.375-.362-.849-.358-1.421v-8.454ZM233.75 147v-8.727h2.421V147h-2.421Zm1.216-9.852c-.36 0-.668-.12-.926-.358a1.16 1.16 0 0 1-.38-.87c0-.333.126-.619.38-.858.258-.242.566-.363.926-.363.36 0 .667.121.921.363.257.239.386.525.386.858 0 .338-.129.627-.386.87a1.3 1.3 0 0 1-.921.358Zm11.104 1.125L243.019 147h-2.727l-3.051-8.727h2.556l1.813 6.244h.091l1.807-6.244h2.562Zm4.759 8.897c-.898 0-1.671-.181-2.318-.545a3.728 3.728 0 0 1-1.489-1.557c-.349-.674-.523-1.471-.523-2.392 0-.898.174-1.685.523-2.364a3.86 3.86 0 0 1 1.472-1.585c.636-.379 1.382-.568 2.238-.568.576 0 1.112.093 1.608.279.5.181.936.456 1.307.823.375.368.667.83.875 1.387.208.553.312 1.2.312 1.943v.665h-7.369v-1.5h5.091c0-.349-.076-.658-.227-.926a1.629 1.629 0 0 0-.631-.631 1.802 1.802 0 0 0-.926-.233c-.367 0-.693.085-.977.256-.281.166-.5.392-.659.676-.159.28-.241.593-.245.937v1.426c0 .432.08.805.239 1.12.163.314.392.557.687.727.296.17.646.256 1.052.256.269 0 .515-.038.738-.114.224-.076.415-.189.574-.341.159-.151.28-.337.364-.557l2.238.148a3.04 3.04 0 0 1-.699 1.409c-.348.398-.799.708-1.352.932-.549.22-1.184.329-1.903.329Z"/><rect width="112" height="51.333" x="2" y="117" stroke="#1E1E1E" stroke-linecap="round" stroke-width="4" rx="3"/><path fill="#000" fill-opacity=".8" d="M22.13 137.364V149h-2.46v-11.636h2.46Zm4.224 6.591V149h-2.42v-8.727h2.306v1.539h.103c.193-.507.517-.909.971-1.204.455-.299 1.006-.449 1.654-.449.606 0 1.134.133 1.585.398.45.265.8.644 1.05 1.136.25.489.376 1.072.376 1.75V149h-2.42v-5.125c.003-.534-.133-.951-.41-1.25-.276-.303-.657-.455-1.142-.455-.325 0-.613.071-.863.211-.246.14-.44.344-.58.613-.136.265-.206.586-.21.961ZM37.284 149v-11.636h4.658c.856 0 1.57.127 2.142.38.572.254 1.002.606 1.29 1.057.288.447.432.962.432 1.546 0 .454-.091.854-.273 1.198a2.347 2.347 0 0 1-.75.841 3.07 3.07 0 0 1-1.08.461v.113a2.66 2.66 0 0 1 2.194 1.347c.242.413.363.905.363 1.477 0 .618-.153 1.169-.46 1.654-.303.481-.752.861-1.346 1.142-.595.28-1.328.42-2.2.42h-4.97Zm2.46-2.011h2.005c.686 0 1.186-.131 1.5-.392.314-.266.472-.618.472-1.057 0-.322-.078-.606-.233-.852a1.577 1.577 0 0 0-.665-.58c-.284-.14-.623-.21-1.017-.21h-2.063v3.091Zm0-4.756h1.823c.337 0 .637-.059.898-.176.265-.121.473-.292.625-.512a1.33 1.33 0 0 0 .233-.789c0-.421-.15-.76-.449-1.017-.295-.258-.716-.387-1.261-.387h-1.87v2.881ZM47.64 149v-8.727h2.346v1.522h.091c.16-.541.427-.95.802-1.227.375-.28.806-.42 1.295-.42.121 0 .252.007.392.022.14.016.263.036.37.063v2.148a3.105 3.105 0 0 0-.472-.091 4.164 4.164 0 0 0-.551-.04 1.94 1.94 0 0 0-.955.233 1.716 1.716 0 0 0-.66.636 1.848 1.848 0 0 0-.238.943V149h-2.42Zm9.942.17c-.898 0-1.67-.181-2.318-.545a3.73 3.73 0 0 1-1.49-1.557c-.348-.674-.522-1.471-.522-2.392 0-.898.174-1.685.523-2.364a3.865 3.865 0 0 1 1.471-1.585c.637-.379 1.383-.568 2.24-.568.575 0 1.11.093 1.607.279.5.181.936.456 1.307.823.375.368.667.83.875 1.387.208.553.312 1.2.312 1.943v.665h-7.369v-1.5h5.091c0-.349-.076-.658-.227-.926a1.625 1.625 0 0 0-.63-.631 1.802 1.802 0 0 0-.927-.233c-.367 0-.693.085-.977.256a1.8 1.8 0 0 0-.66.676c-.158.28-.24.593-.244.937v1.426c0 .432.08.805.239 1.12.163.314.392.557.687.727.296.17.646.256 1.051.256.27 0 .516-.038.74-.114a1.477 1.477 0 0 0 .938-.898l2.237.148a3.053 3.053 0 0 1-.699 1.409c-.348.398-.799.708-1.352.932-.55.22-1.184.329-1.903.329Zm7.898-.005c-.557 0-1.053-.097-1.489-.29a2.4 2.4 0 0 1-1.034-.869c-.25-.387-.375-.868-.375-1.444 0-.484.089-.892.267-1.221.178-.33.42-.595.727-.796.307-.2.655-.352 1.046-.454a8.04 8.04 0 0 1 1.238-.216c.508-.053.917-.102 1.228-.148.31-.049.536-.121.676-.216a.472.472 0 0 0 .21-.42v-.034c0-.36-.114-.638-.341-.835-.224-.197-.542-.296-.954-.296-.436 0-.783.097-1.04.29a1.332 1.332 0 0 0-.512.716l-2.238-.182a3.04 3.04 0 0 1 .67-1.375c.334-.39.763-.689 1.29-.898.53-.212 1.144-.318 1.84-.318.486 0 .95.057 1.393.171a3.62 3.62 0 0 1 1.187.528c.349.239.623.545.824.92.201.372.301.817.301 1.336V149H68.1v-1.21h-.068c-.14.272-.328.513-.563.721a2.587 2.587 0 0 1-.846.483 3.49 3.49 0 0 1-1.142.171Zm.693-1.671c.356 0 .67-.07.943-.21a1.67 1.67 0 0 0 .642-.579 1.5 1.5 0 0 0 .233-.824v-.926c-.076.049-.18.094-.313.136a5.6 5.6 0 0 1-.437.108c-.163.03-.326.059-.489.085l-.443.063a3.007 3.007 0 0 0-.744.198 1.186 1.186 0 0 0-.495.37.899.899 0 0 0-.176.568c0 .329.12.581.358.756.243.17.55.255.92.255Zm9.14 1.648c-.664 0-1.264-.17-1.802-.511-.534-.345-.958-.851-1.273-1.517-.31-.671-.466-1.493-.466-2.466 0-1 .161-1.832.483-2.495.322-.666.75-1.164 1.284-1.494a3.293 3.293 0 0 1 1.767-.5c.49 0 .896.083 1.222.25.33.163.595.368.795.614.205.242.36.481.466.716h.074v-4.375h2.415V149h-2.386v-1.398h-.103a3.117 3.117 0 0 1-.483.722c-.204.235-.471.43-.8.585-.326.155-.724.233-1.194.233Zm.766-1.926c.39 0 .72-.106.989-.318.273-.216.48-.517.625-.904.148-.386.221-.839.221-1.358 0-.519-.072-.969-.216-1.352-.143-.382-.352-.678-.624-.886-.273-.209-.605-.313-.995-.313-.397 0-.733.108-1.005.324-.273.216-.48.515-.62.898-.14.382-.21.826-.21 1.329 0 .508.07.957.21 1.347.144.386.35.689.62.909.272.216.608.324 1.005.324Zm10.655-6.943v1.818H81.48v-1.818h5.255Zm-4.062-2.091h2.42v8.136c0 .224.034.398.102.523a.569.569 0 0 0 .284.256c.126.049.27.073.432.073.114 0 .228-.009.341-.028.114-.023.2-.04.262-.051l.38 1.801a7.103 7.103 0 0 1-.511.131 4.08 4.08 0 0 1-.801.096c-.584.023-1.095-.055-1.534-.233a2.14 2.14 0 0 1-1.017-.829c-.243-.375-.362-.849-.358-1.421v-8.454Zm8.07 5.773V149h-2.42v-11.636h2.353v4.448h.102c.197-.515.515-.918.954-1.21.44-.295.991-.443 1.654-.443.606 0 1.134.133 1.585.398a2.65 2.65 0 0 1 1.057 1.131c.254.488.379 1.073.375 1.755V149h-2.42v-5.125c.003-.538-.133-.956-.41-1.256-.272-.299-.655-.449-1.147-.449-.33 0-.622.071-.875.211-.25.14-.447.344-.591.613-.14.265-.212.586-.216.961Z"/><path fill="#1E1E1E" d="M163.036 55.71a2 2 0 1 0-2.072-3.42l2.072 3.42Zm-87.99 40.581c-.572-.945-2.133-.912-2.665.056l-8.555 15.565c-.532.968.277 2.304 1.382 2.281l17.757-.374c1.104-.023 1.856-1.392 1.284-2.337l-9.202-15.191Zm85.918-44.002-84.063 50.923 2.073 3.421 84.062-50.922-2.072-3.422ZM360 169a2 2 0 1 0-4 0h4Zm-10.88 55.772c-1.105 0-1.886 1.353-1.334 2.31l8.881 15.381c.552.956 2.114.956 2.666 0l8.881-15.381c.552-.957-.229-2.31-1.334-2.31h-17.76ZM356 169v57.772h4V169h-4Z"/><rect width="124" height="61.415" x="296" y="246" stroke="#1E1E1E" stroke-linecap="round" stroke-width="4" rx="6"/><path fill="#000" fill-opacity=".8" d="M319.83 275.438h-2.488a2.448 2.448 0 0 0-.279-.858c-.14-.254-.32-.47-.54-.648a2.352 2.352 0 0 0-.761-.409 2.904 2.904 0 0 0-.926-.142c-.602 0-1.127.149-1.574.449-.447.295-.793.727-1.04 1.295-.246.564-.369 1.25-.369 2.057 0 .829.123 1.526.369 2.091.25.564.599.99 1.046 1.278.447.288.964.432 1.551.432.329 0 .634-.044.915-.131.284-.087.536-.214.755-.38.22-.171.402-.377.546-.62a2.41 2.41 0 0 0 .307-.829l2.488.011a4.626 4.626 0 0 1-1.511 2.869 4.821 4.821 0 0 1-1.534.921c-.591.223-1.26.335-2.006.335-1.038 0-1.966-.235-2.784-.704-.814-.47-1.458-1.15-1.932-2.04-.469-.89-.704-1.968-.704-3.233 0-1.269.238-2.349.716-3.239.477-.89 1.125-1.568 1.943-2.034.818-.47 1.738-.704 2.761-.704.674 0 1.299.094 1.875.284.58.189 1.093.466 1.54.829.447.36.811.801 1.091 1.324.284.523.466 1.121.545 1.796Zm5.486 7.732c-.882 0-1.646-.187-2.29-.562a3.852 3.852 0 0 1-1.483-1.58c-.348-.678-.522-1.464-.522-2.358 0-.901.174-1.689.522-2.363a3.81 3.81 0 0 1 1.483-1.58c.644-.379 1.408-.568 2.29-.568.883 0 1.644.189 2.284.568.644.375 1.14.902 1.489 1.58.348.674.523 1.462.523 2.363 0 .894-.175 1.68-.523 2.358a3.84 3.84 0 0 1-1.489 1.58c-.64.375-1.401.562-2.284.562Zm.012-1.875c.401 0 .736-.113 1.005-.34.269-.232.472-.546.608-.944.14-.397.21-.85.21-1.358 0-.507-.07-.96-.21-1.358-.136-.397-.339-.712-.608-.943-.269-.231-.604-.346-1.005-.346-.406 0-.747.115-1.023.346-.273.231-.479.546-.619.943a4.163 4.163 0 0 0-.205 1.358c0 .508.068.961.205 1.358.14.398.346.712.619.944.276.227.617.34 1.023.34ZM331.01 283v-8.727h2.306v1.539h.103c.181-.511.484-.914.909-1.21.424-.295.932-.443 1.522-.443.599 0 1.108.15 1.529.449.42.295.701.697.841 1.204h.091c.178-.5.5-.899.966-1.198.469-.303 1.024-.455 1.664-.455.815 0 1.476.26 1.983.779.512.515.767 1.246.767 2.193V283h-2.414v-5.392c0-.485-.129-.849-.387-1.091-.257-.242-.579-.364-.966-.364-.439 0-.782.141-1.028.421-.246.276-.369.642-.369 1.096V283h-2.347v-5.443c0-.428-.123-.769-.369-1.023-.243-.254-.563-.381-.961-.381-.268 0-.511.069-.727.205a1.41 1.41 0 0 0-.506.562 1.79 1.79 0 0 0-.187.841V283h-2.42Zm14.417 3.273v-12h2.387v1.466h.108c.106-.235.259-.474.46-.716.204-.246.47-.451.795-.614.33-.167.739-.25 1.228-.25.636 0 1.223.167 1.761.5.538.33.968.828 1.29 1.494.322.663.483 1.495.483 2.495 0 .973-.158 1.795-.472 2.466-.311.666-.735 1.172-1.273 1.517a3.264 3.264 0 0 1-1.795.511c-.47 0-.869-.078-1.199-.233a2.466 2.466 0 0 1-.801-.585 2.953 2.953 0 0 1-.477-.722h-.074v4.671h-2.421Zm2.37-7.637c0 .519.072.972.216 1.358.143.387.352.688.625.904.272.212.604.318.994.318.394 0 .727-.108 1-.324.273-.22.479-.523.619-.909.144-.39.216-.839.216-1.347 0-.503-.07-.947-.21-1.329-.14-.383-.347-.682-.619-.898-.273-.216-.608-.324-1.006-.324-.394 0-.727.104-1 .313-.269.208-.476.504-.619.886-.144.383-.216.833-.216 1.352Zm10.068 4.529c-.557 0-1.053-.097-1.489-.29a2.404 2.404 0 0 1-1.034-.869c-.25-.387-.375-.868-.375-1.444 0-.484.089-.892.267-1.221.178-.33.421-.595.728-.796.306-.2.655-.352 1.045-.454a8.043 8.043 0 0 1 1.239-.216c.507-.053.916-.102 1.227-.148.31-.049.536-.121.676-.216a.473.473 0 0 0 .21-.42v-.034c0-.36-.113-.638-.341-.835-.223-.197-.541-.296-.954-.296-.436 0-.782.097-1.04.29a1.327 1.327 0 0 0-.511.716l-2.239-.182c.114-.53.337-.989.67-1.375.334-.39.764-.689 1.29-.898.531-.212 1.144-.318 1.841-.318.485 0 .949.057 1.392.171.447.113.843.289 1.188.528.348.239.623.545.824.92.2.372.301.817.301 1.336V283h-2.296v-1.21h-.068c-.14.272-.328.513-.562.721a2.587 2.587 0 0 1-.847.483 3.49 3.49 0 0 1-1.142.171Zm.693-1.671c.356 0 .671-.07.943-.21a1.67 1.67 0 0 0 .642-.579c.156-.243.233-.518.233-.824v-.926c-.075.049-.18.094-.312.136a5.628 5.628 0 0 1-.438.108c-.163.03-.325.059-.488.085l-.444.063a3.003 3.003 0 0 0-.744.198 1.183 1.183 0 0 0-.494.37.895.895 0 0 0-.176.568c0 .329.119.581.358.756.242.17.549.255.92.255Zm5.924 1.506v-8.727h2.346v1.522h.091c.159-.541.426-.95.801-1.227.375-.28.807-.42 1.296-.42.121 0 .252.007.392.022.14.016.263.036.369.063v2.148a3.117 3.117 0 0 0-.472-.091c-.2-.027-.384-.04-.551-.04-.356 0-.674.078-.954.233a1.713 1.713 0 0 0-.659.636 1.839 1.839 0 0 0-.239.943V283h-2.42Zm8.609.165c-.557 0-1.053-.097-1.489-.29a2.404 2.404 0 0 1-1.034-.869c-.25-.387-.375-.868-.375-1.444 0-.484.089-.892.267-1.221.178-.33.421-.595.728-.796.306-.2.655-.352 1.045-.454a8.043 8.043 0 0 1 1.239-.216c.507-.053.916-.102 1.227-.148.311-.049.536-.121.676-.216a.473.473 0 0 0 .21-.42v-.034c0-.36-.113-.638-.341-.835-.223-.197-.541-.296-.954-.296-.436 0-.782.097-1.04.29a1.332 1.332 0 0 0-.511.716l-2.239-.182a3.04 3.04 0 0 1 .671-1.375c.333-.39.763-.689 1.289-.898.531-.212 1.144-.318 1.841-.318.485 0 .949.057 1.392.171.447.113.843.289 1.188.528.348.239.623.545.824.92.2.372.301.817.301 1.336V283h-2.296v-1.21h-.068c-.14.272-.327.513-.562.721a2.587 2.587 0 0 1-.847.483c-.329.114-.71.171-1.142.171Zm.693-1.671c.356 0 .671-.07.943-.21a1.67 1.67 0 0 0 .642-.579c.156-.243.233-.518.233-.824v-.926c-.075.049-.18.094-.312.136a5.628 5.628 0 0 1-.438.108c-.162.03-.325.059-.488.085l-.443.063a3.011 3.011 0 0 0-.745.198 1.183 1.183 0 0 0-.494.37.901.901 0 0 0-.176.568c0 .329.119.581.358.756.242.17.549.255.92.255Zm10.566-7.221v1.818h-5.256v-1.818h5.256Zm-4.063-2.091h2.421v8.136c0 .224.034.398.102.523a.569.569 0 0 0 .284.256c.125.049.269.073.432.073.113 0 .227-.009.341-.028l.261-.051.381 1.801a7.07 7.07 0 0 1-.512.131 4.065 4.065 0 0 1-.801.096c-.583.023-1.094-.055-1.534-.233a2.145 2.145 0 0 1-1.017-.829c-.242-.375-.362-.849-.358-1.421v-8.454ZM385.75 283v-8.727h2.421V283h-2.421Zm1.216-9.852c-.36 0-.668-.12-.926-.358a1.16 1.16 0 0 1-.38-.87c0-.333.126-.619.38-.858.258-.242.566-.363.926-.363.36 0 .667.121.921.363.257.239.386.525.386.858 0 .338-.129.627-.386.87a1.3 1.3 0 0 1-.921.358Zm11.104 1.125L395.019 283h-2.727l-3.051-8.727h2.556l1.813 6.244h.091l1.807-6.244h2.562Zm4.759 8.897c-.898 0-1.671-.181-2.318-.545a3.728 3.728 0 0 1-1.489-1.557c-.349-.674-.523-1.471-.523-2.392 0-.898.174-1.685.523-2.364a3.86 3.86 0 0 1 1.472-1.585c.636-.379 1.382-.568 2.238-.568.576 0 1.112.093 1.608.279.5.181.936.456 1.307.823.375.368.667.83.875 1.387.208.553.312 1.2.312 1.943v.665h-7.369v-1.5h5.091c0-.349-.076-.658-.227-.926a1.629 1.629 0 0 0-.631-.631 1.802 1.802 0 0 0-.926-.233c-.367 0-.693.085-.977.256-.281.166-.5.392-.659.676-.159.28-.241.593-.245.937v1.426c0 .432.08.805.239 1.12.163.314.392.557.687.727.296.17.646.256 1.052.256.269 0 .515-.038.738-.114.224-.076.415-.189.574-.341.159-.151.28-.337.364-.557l2.238.148a3.04 3.04 0 0 1-.699 1.409c-.348.398-.799.708-1.352.932-.549.22-1.184.329-1.903.329Z"/><rect width="112" height="61.415" x="154" y="245.57" stroke="#1E1E1E" stroke-linecap="round" stroke-width="4" rx="6"/><path fill="#000" fill-opacity=".8" d="M174.131 270.933v11.637h-2.46v-11.637h2.46Zm4.223 6.591v5.046h-2.421v-8.727h2.307v1.539h.103c.193-.507.517-.909.971-1.204.455-.299 1.006-.449 1.654-.449.606 0 1.134.132 1.585.398.451.265.801.644 1.051 1.136.25.489.375 1.072.375 1.75v5.557h-2.421v-5.125c.004-.534-.132-.951-.409-1.25-.276-.303-.657-.455-1.142-.455-.325 0-.613.07-.863.211-.247.14-.44.344-.58.613-.136.265-.206.585-.21.96Zm10.929 5.046v-11.637h4.659c.856 0 1.57.127 2.142.381.572.254 1.002.606 1.29 1.057.288.447.432.962.432 1.545 0 .455-.091.855-.273 1.199a2.36 2.36 0 0 1-.75.841c-.314.216-.674.37-1.079.46v.114a2.66 2.66 0 0 1 2.193 1.347c.242.413.363.905.363 1.477 0 .617-.153 1.168-.46 1.653-.303.481-.752.862-1.346 1.142-.595.281-1.328.421-2.199.421h-4.972Zm2.46-2.012h2.006c.686 0 1.186-.13 1.5-.392.314-.265.472-.617.472-1.056a1.57 1.57 0 0 0-.233-.853 1.586 1.586 0 0 0-.665-.579c-.284-.14-.623-.21-1.017-.21h-2.063v3.09Zm0-4.755h1.824c.337 0 .637-.059.898-.176.265-.122.473-.292.625-.512.155-.219.233-.483.233-.789 0-.421-.15-.76-.449-1.018-.295-.257-.716-.386-1.261-.386h-1.87v2.881Zm7.897 6.767v-8.727h2.346v1.522h.091c.159-.541.426-.95.801-1.227.375-.28.807-.42 1.296-.42.121 0 .252.007.392.022s.263.036.369.063v2.148a2.98 2.98 0 0 0-.471-.091 4.164 4.164 0 0 0-.551-.04 1.93 1.93 0 0 0-.955.233 1.713 1.713 0 0 0-.659.636 1.839 1.839 0 0 0-.239.943v4.938h-2.42Zm9.942.17c-.898 0-1.671-.182-2.318-.545a3.74 3.74 0 0 1-1.489-1.557c-.349-.674-.523-1.472-.523-2.392 0-.898.174-1.686.523-2.364a3.86 3.86 0 0 1 1.472-1.585c.636-.379 1.382-.568 2.238-.568.576 0 1.112.093 1.608.278.5.182.936.457 1.307.824.375.368.667.83.875 1.387.208.553.312 1.2.312 1.943v.665h-7.369v-1.5h5.091c0-.349-.076-.658-.227-.927a1.626 1.626 0 0 0-.631-.63 1.792 1.792 0 0 0-.926-.233c-.367 0-.693.085-.977.255-.281.167-.5.392-.659.677-.16.28-.241.592-.245.937v1.426c0 .432.08.805.239 1.12.163.314.392.556.687.727.296.17.646.255 1.052.255.268 0 .515-.037.738-.113.224-.076.415-.19.574-.341.159-.152.28-.337.364-.557l2.238.148a3.045 3.045 0 0 1-.699 1.409c-.348.398-.799.708-1.352.932-.549.219-1.184.329-1.903.329Zm7.898-.005c-.557 0-1.053-.097-1.489-.29a2.399 2.399 0 0 1-1.034-.869c-.25-.387-.375-.868-.375-1.444 0-.485.089-.892.267-1.221.178-.33.42-.595.727-.796.307-.2.656-.352 1.046-.454a7.797 7.797 0 0 1 1.238-.216c.508-.053.917-.102 1.228-.148.31-.049.536-.121.676-.216a.475.475 0 0 0 .21-.42v-.034c0-.36-.114-.639-.341-.836-.223-.197-.542-.295-.955-.295-.435 0-.782.097-1.039.29a1.334 1.334 0 0 0-.512.716l-2.238-.182c.113-.53.337-.989.67-1.375.333-.39.763-.69 1.29-.898.53-.212 1.144-.318 1.841-.318.485 0 .949.057 1.392.17.447.114.843.29 1.187.529.349.238.623.545.824.92.201.371.301.817.301 1.335v5.887h-2.295v-1.21h-.068c-.14.272-.328.513-.563.721a2.592 2.592 0 0 1-.846.483c-.33.114-.711.171-1.142.171Zm.693-1.671c.356 0 .67-.07.943-.21.273-.144.487-.337.642-.58.155-.242.233-.517.233-.823v-.927a1.28 1.28 0 0 1-.313.137 5.486 5.486 0 0 1-.437.108c-.163.03-.326.058-.489.085l-.443.062a3.002 3.002 0 0 0-.744.199 1.183 1.183 0 0 0-.494.37.896.896 0 0 0-.177.568c0 .329.12.581.358.755.243.171.55.256.921.256Zm9.139 1.648a3.302 3.302 0 0 1-1.801-.511c-.534-.345-.958-.851-1.273-1.518-.31-.67-.466-1.492-.466-2.465 0-1 .161-1.832.483-2.495.322-.666.75-1.165 1.284-1.494a3.294 3.294 0 0 1 1.767-.5c.489 0 .896.083 1.222.25.33.163.595.367.795.614.205.242.36.481.466.715h.074v-4.375h2.415v11.637h-2.386v-1.398h-.103a3.076 3.076 0 0 1-.483.722c-.204.235-.471.43-.801.585-.325.155-.723.233-1.193.233Zm.767-1.926c.39 0 .72-.106.989-.318.273-.216.481-.517.625-.904.148-.386.221-.839.221-1.358 0-.519-.072-.97-.216-1.352-.143-.383-.352-.678-.625-.886-.272-.209-.604-.313-.994-.313-.398 0-.733.108-1.006.324-.272.216-.479.515-.619.898-.14.382-.21.825-.21 1.329 0 .508.07.957.21 1.347.144.386.351.689.619.909.273.216.608.324 1.006.324Zm10.655-6.943v1.818h-5.256v-1.818h5.256Zm-4.062-2.091h2.42v8.136c0 .223.034.398.102.523a.566.566 0 0 0 .284.255c.125.05.269.074.432.074.114 0 .228-.009.341-.028l.262-.051.38 1.801a7.018 7.018 0 0 1-.511.131c-.22.053-.487.085-.801.096-.584.023-1.095-.055-1.534-.233a2.136 2.136 0 0 1-1.017-.829c-.243-.375-.362-.849-.358-1.421v-8.454Zm8.071 5.772v5.046h-2.421v-11.637h2.353v4.449h.102c.197-.515.515-.918.954-1.21.44-.295.991-.443 1.654-.443.606 0 1.134.132 1.585.398.455.261.807.638 1.057 1.13.254.489.379 1.074.375 1.756v5.557h-2.421v-5.125c.004-.538-.132-.957-.409-1.256-.272-.299-.655-.449-1.147-.449-.33 0-.622.07-.875.211-.25.14-.447.344-.591.613-.14.265-.212.585-.216.96Z"/><path fill="#F24822" d="M315.186 170.611a2.001 2.001 0 0 0-2.372-3.222l2.372 3.222Zm-90.069 52.802c-.655-.89-2.208-.717-2.65.295l-7.122 16.271c-.443 1.012.484 2.269 1.581 2.147l17.652-1.968c1.097-.122 1.724-1.554 1.069-2.443l-10.53-14.302Zm87.697-56.024-85.229 62.75 2.372 3.221 85.229-62.749-2.372-3.222Z"/><rect width="112" height="61.415" x="458" y="245.584" stroke="#1E1E1E" stroke-linecap="round" stroke-width="4" rx="6"/><path fill="#000" fill-opacity=".8" d="M474.52 282.584v-11.636h4.591c.879 0 1.629.157 2.25.472.625.31 1.1.752 1.426 1.324.33.568.494 1.236.494 2.005 0 .773-.166 1.438-.5 1.995-.333.553-.816.977-1.448 1.272-.629.296-1.391.443-2.285.443h-3.073v-1.977h2.676c.469 0 .86-.064 1.17-.193.311-.129.542-.322.693-.58.156-.257.233-.577.233-.96 0-.386-.077-.712-.233-.977a1.424 1.424 0 0 0-.698-.602c-.311-.14-.703-.211-1.177-.211h-1.659v9.625h-2.46Zm6.284-5.295 2.892 5.295h-2.716l-2.829-5.295h2.653Zm7.831 5.466c-.897 0-1.67-.182-2.318-.546a3.737 3.737 0 0 1-1.489-1.556c-.348-.675-.522-1.472-.522-2.392 0-.898.174-1.686.522-2.364a3.866 3.866 0 0 1 1.472-1.585c.636-.379 1.383-.568 2.239-.568a4.55 4.55 0 0 1 1.608.278c.5.182.935.456 1.306.824.375.367.667.829.875 1.386.209.553.313 1.201.313 1.943v.665h-7.369v-1.5h5.091a1.85 1.85 0 0 0-.228-.926 1.626 1.626 0 0 0-.63-.631 1.805 1.805 0 0 0-.927-.233c-.367 0-.693.086-.977.256-.28.167-.5.392-.659.676-.159.281-.24.593-.244.938v1.426c0 .432.079.805.238 1.119.163.315.392.557.688.727.295.171.646.256 1.051.256.269 0 .515-.038.739-.114a1.54 1.54 0 0 0 .574-.34c.159-.152.28-.338.363-.557l2.239.147a3.068 3.068 0 0 1-.699 1.41 3.513 3.513 0 0 1-1.352.931c-.55.22-1.184.33-1.904.33Zm7.898-.006c-.557 0-1.053-.096-1.489-.29a2.39 2.39 0 0 1-1.034-.869c-.25-.386-.375-.867-.375-1.443 0-.485.089-.892.267-1.222.178-.329.421-.594.728-.795a3.542 3.542 0 0 1 1.045-.455 8.043 8.043 0 0 1 1.239-.216c.507-.053.916-.102 1.227-.147.311-.049.536-.121.676-.216a.475.475 0 0 0 .21-.421v-.034c0-.36-.113-.638-.34-.835-.224-.197-.542-.295-.955-.295-.436 0-.782.096-1.04.289-.257.19-.428.428-.511.716l-2.239-.182c.114-.53.337-.988.671-1.375.333-.39.763-.689 1.289-.897.531-.212 1.144-.318 1.841-.318.485 0 .949.056 1.392.17.447.114.843.29 1.188.528.348.239.623.546.824.921.201.371.301.816.301 1.335v5.886h-2.296v-1.21h-.068a2.45 2.45 0 0 1-.562.722 2.623 2.623 0 0 1-.847.483c-.329.113-.71.17-1.142.17Zm.693-1.67c.356 0 .671-.07.943-.21.273-.144.487-.338.643-.58.155-.242.232-.517.232-.824v-.926a1.256 1.256 0 0 1-.312.136 5.628 5.628 0 0 1-.438.108c-.162.031-.325.059-.488.086l-.443.062a3.01 3.01 0 0 0-.745.199 1.19 1.19 0 0 0-.494.369.903.903 0 0 0-.176.568c0 .33.119.582.358.756.242.171.549.256.92.256Zm13.185-4.733-2.216.136a1.144 1.144 0 0 0-.244-.511 1.293 1.293 0 0 0-.494-.369 1.678 1.678 0 0 0-.722-.143c-.375 0-.691.08-.949.239-.257.155-.386.364-.386.625 0 .208.083.385.25.529.166.143.452.259.858.346l1.579.318c.849.175 1.481.455 1.898.841.417.387.625.894.625 1.523a2.38 2.38 0 0 1-.506 1.506c-.333.431-.791.769-1.375 1.011-.579.239-1.248.358-2.005.358-1.156 0-2.076-.241-2.762-.722a2.813 2.813 0 0 1-1.199-1.977l2.381-.125c.072.352.246.621.523.807.276.182.63.273 1.062.273.425 0 .765-.082 1.023-.245.261-.166.394-.38.398-.642a.671.671 0 0 0-.279-.54c-.182-.143-.462-.253-.841-.329l-1.511-.301c-.852-.171-1.487-.466-1.903-.887-.413-.42-.62-.956-.62-1.608 0-.56.152-1.043.455-1.448.307-.406.737-.718 1.29-.938.556-.22 1.208-.329 1.954-.329 1.102 0 1.97.233 2.602.698.637.466 1.008 1.101 1.114 1.904Zm5.49 6.409c-.882 0-1.646-.188-2.289-.563a3.836 3.836 0 0 1-1.483-1.579c-.349-.678-.523-1.464-.523-2.358 0-.902.174-1.689.523-2.364a3.794 3.794 0 0 1 1.483-1.579c.643-.379 1.407-.568 2.289-.568.883 0 1.644.189 2.284.568a3.79 3.79 0 0 1 1.489 1.579c.348.675.523 1.462.523 2.364 0 .894-.175 1.68-.523 2.358a3.83 3.83 0 0 1-1.489 1.579c-.64.375-1.401.563-2.284.563Zm.012-1.875c.401 0 .736-.114 1.005-.341.269-.231.472-.545.608-.943a4.08 4.08 0 0 0 .211-1.358c0-.508-.071-.96-.211-1.358-.136-.398-.339-.712-.608-.943-.269-.231-.604-.347-1.005-.347-.406 0-.747.116-1.023.347-.273.231-.479.545-.619.943-.137.398-.205.85-.205 1.358 0 .507.068.96.205 1.358.14.398.346.712.619.943.276.227.617.341 1.023.341Zm8.102-3.341v5.045h-2.42v-8.727h2.306v1.54h.103c.193-.508.517-.909.971-1.205.455-.299 1.006-.448 1.654-.448.606 0 1.134.132 1.585.397.451.265.801.644 1.051 1.137.25.488.375 1.072.375 1.75v5.556h-2.42v-5.125c.003-.534-.133-.95-.409-1.25-.277-.303-.658-.454-1.143-.454-.325 0-.613.07-.863.21-.246.14-.44.345-.58.614-.136.265-.206.585-.21.96Zm7.357 5.045v-8.727h2.42v8.727h-2.42Zm1.216-9.852c-.36 0-.669-.119-.927-.358a1.162 1.162 0 0 1-.38-.869c0-.333.127-.619.38-.858.258-.242.567-.364.927-.364.359 0 .666.122.92.364.258.239.386.525.386.858 0 .337-.128.627-.386.869a1.294 1.294 0 0 1-.92.358Zm5.388 4.807v5.045h-2.421v-8.727h2.307v1.54h.102c.193-.508.517-.909.972-1.205.454-.299 1.005-.448 1.653-.448.606 0 1.135.132 1.585.397.451.265.802.644 1.052 1.137.25.488.375 1.072.375 1.75v5.556h-2.421v-5.125c.004-.534-.132-.95-.409-1.25-.277-.303-.657-.454-1.142-.454-.326 0-.614.07-.864.21-.246.14-.439.345-.579.614-.137.265-.207.585-.21.96Zm11.288 8.5c-.784 0-1.456-.108-2.017-.324-.557-.212-1-.502-1.33-.869a2.683 2.683 0 0 1-.642-1.239l2.239-.301c.068.174.176.337.324.489.148.151.343.272.585.363.246.095.546.142.898.142.526 0 .96-.128 1.301-.386.345-.254.517-.68.517-1.278v-1.597h-.102a2.294 2.294 0 0 1-.478.688 2.404 2.404 0 0 1-.818.528c-.333.136-.731.204-1.193.204a3.585 3.585 0 0 1-1.79-.454c-.534-.307-.96-.775-1.278-1.403-.314-.633-.472-1.432-.472-2.398 0-.989.161-1.815.483-2.477.322-.663.75-1.16 1.284-1.489a3.315 3.315 0 0 1 1.767-.494c.489 0 .898.083 1.228.25.329.162.594.367.795.613.205.243.362.481.472.716h.091v-1.466h2.403v8.813c0 .742-.182 1.363-.545 1.863-.364.5-.868.875-1.512 1.125-.64.254-1.377.381-2.21.381Zm.051-5.398c.39 0 .72-.096.989-.289.273-.197.481-.478.625-.841.148-.368.221-.807.221-1.319 0-.511-.072-.954-.216-1.329-.143-.379-.352-.672-.625-.881-.272-.208-.604-.312-.994-.312-.398 0-.733.108-1.006.324-.272.212-.479.507-.619.886s-.21.816-.21 1.312c0 .504.07.94.21 1.307.144.364.351.646.619.847.273.197.608.295 1.006.295Z"/><path fill="#1E1E1E" d="M411.186 167.39a2 2 0 0 0-2.372 3.22l2.372-3.22Zm77.168 70.337c-.655.89-.029 2.321 1.069 2.443l17.651 1.97c1.098.123 2.024-1.135 1.581-2.147l-7.119-16.271c-.443-1.012-1.996-1.185-2.651-.296l-10.531 14.301Zm-79.54-67.117 85.23 62.763 2.372-3.221-85.23-62.762-2.372 3.22Zm-89.308-98.172c-.978-.004-1.818-.245-2.523-.722-.701-.477-1.241-1.169-1.619-2.074-.375-.905-.561-1.994-.557-3.267 0-1.269.187-2.35.562-3.244.379-.894.919-1.574 1.62-2.04.704-.47 1.543-.705 2.517-.705.973 0 1.81.235 2.511.705.705.47 1.246 1.151 1.625 2.045.379.89.566 1.97.563 3.24 0 1.276-.19 2.367-.569 3.272-.375.905-.913 1.596-1.613 2.074-.701.477-1.54.716-2.517.716Zm0-2.04c.666 0 1.199-.335 1.596-1.006.398-.67.595-1.676.591-3.017 0-.882-.091-1.617-.273-2.204-.178-.588-.431-1.029-.761-1.324a1.66 1.66 0 0 0-1.153-.444c-.663 0-1.193.332-1.591.995-.398.663-.599 1.655-.603 2.977 0 .894.09 1.64.268 2.239.181.594.437 1.041.767 1.34.329.296.715.444 1.159.444Zm7.246 1.932c-.375 0-.697-.133-.966-.398a1.324 1.324 0 0 1-.398-.966c0-.371.132-.69.398-.955.269-.265.591-.397.966-.397.363 0 .681.132.954.397.273.266.409.584.409.955 0 .25-.064.48-.193.688-.125.204-.29.369-.494.494-.205.121-.43.182-.676.182Zm2.976-2.194V68.2l4.857-7.654h1.671v2.682h-.989l-3.062 4.847v.09h6.903v1.972h-9.38Zm5.585 2.046v-2.636l.045-.858v-8.143h2.307v11.637h-2.352ZM220.506 91.438c-.978-.004-1.818-.245-2.523-.722-.701-.477-1.241-1.169-1.619-2.074-.375-.905-.561-1.994-.557-3.267 0-1.269.187-2.35.562-3.244.379-.894.919-1.574 1.62-2.04.704-.47 1.543-.705 2.517-.705.973 0 1.81.235 2.511.705.705.47 1.246 1.152 1.625 2.045.379.89.566 1.97.563 3.24 0 1.276-.19 2.367-.569 3.272-.375.905-.913 1.596-1.613 2.074-.701.477-1.54.716-2.517.716Zm0-2.04c.666 0 1.199-.335 1.596-1.006.398-.67.595-1.676.591-3.017 0-.882-.091-1.617-.273-2.204-.178-.588-.431-1.029-.761-1.324a1.66 1.66 0 0 0-1.153-.444c-.663 0-1.193.332-1.591.995-.398.663-.599 1.655-.603 2.977 0 .894.09 1.64.268 2.239.181.594.437 1.041.767 1.34.329.296.715.444 1.159.444Zm7.246 1.932c-.375 0-.697-.133-.966-.398a1.324 1.324 0 0 1-.398-.966c0-.371.132-.69.398-.955.269-.265.591-.397.966-.397.363 0 .681.132.954.397.273.266.409.584.409.955 0 .25-.064.48-.193.688-.125.204-.29.369-.494.494-.205.121-.43.182-.676.182Zm3.152-.148v-1.773l4.142-3.835c.352-.341.647-.648.886-.92.243-.273.426-.54.551-.802.125-.265.188-.55.188-.858 0-.34-.078-.634-.233-.88a1.535 1.535 0 0 0-.637-.574 1.992 1.992 0 0 0-.914-.205c-.356 0-.667.072-.932.216a1.49 1.49 0 0 0-.614.62c-.144.268-.216.588-.216.96h-2.335c0-.762.172-1.423.517-1.983.345-.56.828-.995 1.449-1.301.621-.307 1.337-.46 2.148-.46.833 0 1.558.147 2.176.443.621.291 1.104.697 1.449 1.216.344.518.517 1.113.517 1.784 0 .439-.087.873-.262 1.3-.17.429-.475.904-.914 1.427-.44.519-1.059 1.142-1.858 1.87l-1.699 1.664v.08h4.886v2.01h-8.295ZM85.506 72.438c-.978-.004-1.819-.245-2.523-.722-.7-.477-1.24-1.169-1.62-2.074-.374-.905-.56-1.994-.556-3.267 0-1.269.187-2.35.562-3.244.38-.894.919-1.574 1.62-2.04.704-.47 1.543-.705 2.517-.705.973 0 1.81.235 2.511.705.705.47 1.246 1.151 1.625 2.045.379.89.566 1.97.563 3.24 0 1.276-.19 2.367-.569 3.272-.375.905-.912 1.596-1.613 2.074-.701.477-1.54.716-2.517.716Zm0-2.04c.666 0 1.198-.335 1.596-1.006.398-.67.595-1.676.591-3.017 0-.882-.09-1.617-.272-2.204-.179-.588-.432-1.029-.762-1.324a1.66 1.66 0 0 0-1.153-.444c-.663 0-1.194.332-1.591.995-.398.663-.599 1.655-.603 2.977 0 .894.09 1.64.267 2.239.182.594.438 1.041.768 1.34.33.296.716.444 1.159.444Zm7.246 1.932c-.375 0-.697-.133-.966-.398a1.327 1.327 0 0 1-.398-.966c0-.371.132-.69.398-.955.269-.265.59-.397.966-.397.363 0 .681.132.954.397.273.266.41.584.41.955 0 .25-.065.48-.194.688a1.47 1.47 0 0 1-.494.494c-.205.121-.43.182-.676.182Zm2.976-2.194V68.2l4.857-7.654h1.671v2.682h-.989l-3.062 4.847v.09h6.903v1.972h-9.38Zm5.585 2.046v-2.636l.045-.858v-8.143h2.307v11.637h-2.352Zm387.193 128.452c-.978-.004-1.818-.245-2.523-.722-.701-.477-1.241-1.168-1.619-2.074-.375-.905-.561-1.994-.557-3.267 0-1.269.187-2.35.562-3.244.379-.894.919-1.574 1.62-2.04.704-.47 1.543-.704 2.517-.704.973 0 1.81.234 2.511.704.705.47 1.246 1.152 1.625 2.046.379.89.566 1.969.563 3.238 0 1.277-.19 2.368-.569 3.273-.375.905-.913 1.597-1.613 2.074-.701.477-1.54.716-2.517.716Zm0-2.04c.666 0 1.199-.335 1.596-1.006.398-.67.595-1.676.591-3.017 0-.882-.091-1.617-.273-2.204-.178-.587-.431-1.029-.761-1.324a1.658 1.658 0 0 0-1.153-.443c-.663 0-1.193.331-1.591.994-.398.663-.599 1.655-.603 2.977 0 .894.09 1.64.268 2.239.181.595.437 1.042.767 1.341a1.68 1.68 0 0 0 1.159.443Zm7.246 1.932c-.375 0-.697-.133-.966-.398a1.324 1.324 0 0 1-.398-.966c0-.371.132-.689.398-.954.269-.266.591-.398.966-.398.363 0 .681.132.954.398.273.265.409.583.409.954 0 .25-.064.479-.193.688-.125.204-.29.369-.494.494-.205.121-.43.182-.676.182Zm2.976-2.193v-1.938l4.857-7.653h1.671v2.682h-.989l-3.062 4.846v.091h6.903v1.972h-9.38Zm5.585 2.045v-2.636l.045-.858v-8.142h2.307v11.636h-2.352Zm-133.807.256c-.978-.004-1.818-.245-2.523-.722-.701-.477-1.241-1.168-1.619-2.074-.375-.905-.561-1.994-.557-3.267 0-1.269.187-2.35.562-3.244.379-.894.919-1.574 1.62-2.04.704-.47 1.543-.704 2.517-.704.973 0 1.81.234 2.511.704.705.47 1.246 1.152 1.625 2.046.379.89.566 1.969.563 3.238 0 1.277-.19 2.368-.569 3.273-.375.905-.913 1.597-1.613 2.074-.701.477-1.54.716-2.517.716Zm0-2.04c.666 0 1.199-.335 1.596-1.006.398-.67.595-1.676.591-3.017 0-.882-.091-1.617-.273-2.204-.178-.587-.431-1.029-.761-1.324a1.658 1.658 0 0 0-1.153-.443c-.663 0-1.193.331-1.591.994-.398.663-.599 1.655-.603 2.977 0 .894.09 1.64.268 2.239.181.595.437 1.042.767 1.341a1.68 1.68 0 0 0 1.159.443Zm7.246 1.932c-.375 0-.697-.133-.966-.398a1.324 1.324 0 0 1-.398-.966c0-.371.132-.689.398-.954.269-.266.591-.398.966-.398.363 0 .681.132.954.398.273.265.409.583.409.954 0 .25-.064.479-.193.688-.125.204-.29.369-.494.494-.205.121-.43.182-.676.182Zm3.152-.148v-1.773l4.142-3.835c.352-.341.647-.648.886-.92a3.49 3.49 0 0 0 .551-.801c.125-.266.188-.552.188-.858a1.62 1.62 0 0 0-.233-.881 1.538 1.538 0 0 0-.637-.574 1.996 1.996 0 0 0-.914-.205c-.356 0-.667.072-.932.216-.265.144-.47.351-.614.62-.144.269-.216.589-.216.96h-2.335c0-.761.172-1.422.517-1.983a3.455 3.455 0 0 1 1.449-1.301c.621-.307 1.337-.46 2.148-.46.833 0 1.558.147 2.176.443.621.291 1.104.697 1.449 1.216.344.519.517 1.113.517 1.784 0 .439-.087.873-.262 1.301-.17.428-.475.903-.914 1.426-.44.519-1.059 1.142-1.858 1.869l-1.699 1.665v.08h4.886v2.011h-8.295Zm-169.398.256c-.978-.004-1.818-.245-2.523-.722-.701-.477-1.241-1.168-1.619-2.074-.375-.905-.561-1.994-.557-3.267 0-1.269.187-2.35.562-3.244.379-.894.919-1.574 1.62-2.04.704-.47 1.543-.704 2.517-.704.973 0 1.81.234 2.511.704.705.47 1.246 1.152 1.625 2.046.379.89.566 1.969.563 3.238 0 1.277-.19 2.368-.569 3.273-.375.905-.913 1.597-1.613 2.074-.701.477-1.54.716-2.517.716Zm0-2.04c.666 0 1.199-.335 1.596-1.006.398-.67.595-1.676.591-3.017 0-.882-.091-1.617-.273-2.204-.178-.587-.431-1.029-.761-1.324a1.658 1.658 0 0 0-1.153-.443c-.663 0-1.193.331-1.591.994-.398.663-.599 1.655-.603 2.977 0 .894.09 1.64.268 2.239.181.595.437 1.042.767 1.341a1.68 1.68 0 0 0 1.159.443Zm7.246 1.932c-.375 0-.697-.133-.966-.398a1.324 1.324 0 0 1-.398-.966c0-.371.132-.689.398-.954.269-.266.591-.398.966-.398.363 0 .681.132.954.398.273.265.409.583.409.954 0 .25-.064.479-.193.688-.125.204-.29.369-.494.494-.205.121-.43.182-.676.182Zm2.976-2.193v-1.938l4.857-7.653h1.671v2.682h-.989l-3.062 4.846v.091h6.903v1.972h-9.38Zm5.585 2.045v-2.636l.045-.858v-8.142h2.307v11.636h-2.352Z"/><rect width="112" height="51.333" x="154" y="2" stroke="#1E1E1E" stroke-linecap="round" stroke-width="4" rx="3"/><path fill="#000" fill-opacity=".8" d="M193.456 22.364V34h-2.46V22.364h2.46Zm4.224 6.59V34h-2.421v-8.727h2.307v1.54h.102a2.43 2.43 0 0 1 .972-1.205c.454-.3 1.005-.449 1.653-.449.606 0 1.135.133 1.585.398.451.265.802.644 1.052 1.136.25.489.375 1.072.375 1.75V34h-2.421v-5.125c.004-.534-.132-.95-.409-1.25-.277-.303-.657-.454-1.142-.454-.326 0-.614.07-.864.21-.246.14-.439.344-.579.613-.137.265-.207.585-.21.96Zm7.356 8.319v-12h2.387v1.466h.108c.106-.235.259-.474.46-.716.204-.247.469-.451.795-.614.33-.167.739-.25 1.227-.25.637 0 1.224.167 1.762.5.538.33.968.828 1.29 1.494.322.663.483 1.495.483 2.495 0 .973-.158 1.795-.472 2.466-.311.666-.735 1.172-1.273 1.517a3.265 3.265 0 0 1-1.795.511c-.47 0-.87-.078-1.199-.233a2.473 2.473 0 0 1-.801-.585 2.929 2.929 0 0 1-.477-.722h-.074v4.67h-2.421Zm2.37-7.637c0 .52.072.972.215 1.358.144.387.353.688.625.904.273.212.605.318.995.318.394 0 .727-.108 1-.324.272-.22.479-.523.619-.909.144-.39.216-.84.216-1.347 0-.503-.07-.947-.21-1.33-.14-.382-.347-.681-.62-.897-.272-.216-.608-.324-1.005-.324-.394 0-.728.104-1 .313-.269.208-.476.503-.62.886-.143.383-.215.833-.215 1.352Zm13.176.648v-5.011h2.42V34h-2.324v-1.585h-.091a2.571 2.571 0 0 1-.982 1.233c-.455.31-1.01.466-1.665.466-.584 0-1.097-.133-1.54-.398a2.735 2.735 0 0 1-1.04-1.13c-.246-.49-.371-1.075-.375-1.756v-5.557h2.421v5.125c.003.515.142.922.414 1.221.273.3.639.45 1.097.45.292 0 .564-.067.818-.2.254-.136.459-.337.614-.602.159-.265.237-.593.233-.983Zm8.822-5.011v1.818h-5.255v-1.818h5.255Zm-4.062-2.091h2.42v8.136c0 .224.034.398.103.523a.564.564 0 0 0 .284.256c.125.049.269.073.432.073.113 0 .227-.009.34-.028l.262-.051.38 1.801a6.695 6.695 0 0 1-.511.13c-.22.054-.487.086-.801.097-.583.023-1.095-.055-1.534-.233a2.138 2.138 0 0 1-1.017-.83c-.243-.374-.362-.848-.358-1.42v-8.454Z"/><rect width="112" height="51.333" x="306" y="117" stroke="#1E1E1E" stroke-linecap="round" stroke-width="4" rx="3"/><path fill="#000" fill-opacity=".8" d="M322.52 149v-11.636h4.591c.879 0 1.629.157 2.25.471a3.27 3.27 0 0 1 1.426 1.324c.33.568.494 1.237.494 2.006 0 .772-.166 1.437-.5 1.994-.333.553-.816.977-1.448 1.273-.629.295-1.391.443-2.285.443h-3.073v-1.977h2.676c.469 0 .86-.065 1.17-.193.311-.129.542-.322.693-.58.156-.258.233-.578.233-.96 0-.387-.077-.712-.233-.977a1.426 1.426 0 0 0-.698-.603c-.311-.14-.703-.21-1.177-.21h-1.659V149h-2.46Zm6.284-5.295 2.892 5.295h-2.716l-2.829-5.295h2.653Zm7.831 5.465c-.897 0-1.67-.181-2.318-.545a3.734 3.734 0 0 1-1.489-1.557c-.348-.674-.522-1.471-.522-2.392 0-.898.174-1.685.522-2.364a3.866 3.866 0 0 1 1.472-1.585c.636-.379 1.383-.568 2.239-.568.575 0 1.111.093 1.608.279.5.181.935.456 1.306.823.375.368.667.83.875 1.387.209.553.313 1.2.313 1.943v.665h-7.369v-1.5h5.091c0-.349-.076-.658-.228-.926a1.62 1.62 0 0 0-.63-.631 1.805 1.805 0 0 0-.927-.233c-.367 0-.693.085-.977.256-.28.166-.5.392-.659.676-.159.28-.24.593-.244.937v1.426c0 .432.079.805.238 1.12.163.314.392.557.688.727.295.17.646.256 1.051.256.269 0 .515-.038.739-.114a1.472 1.472 0 0 0 .937-.898l2.239.148a3.06 3.06 0 0 1-.699 1.409c-.349.398-.799.708-1.352.932-.55.22-1.184.329-1.904.329Zm7.898-.005c-.557 0-1.053-.097-1.489-.29a2.404 2.404 0 0 1-1.034-.869c-.25-.387-.375-.868-.375-1.444 0-.484.089-.892.267-1.221.178-.33.421-.595.728-.796a3.54 3.54 0 0 1 1.045-.454 8.043 8.043 0 0 1 1.239-.216c.507-.053.916-.102 1.227-.148.311-.049.536-.121.676-.216a.473.473 0 0 0 .21-.42v-.034c0-.36-.113-.638-.34-.835-.224-.197-.542-.296-.955-.296-.436 0-.782.097-1.04.29a1.332 1.332 0 0 0-.511.716l-2.239-.182a3.04 3.04 0 0 1 .671-1.375c.333-.39.763-.689 1.289-.898.531-.212 1.144-.318 1.841-.318.485 0 .949.057 1.392.171.447.113.843.289 1.188.528.348.239.623.545.824.92.201.372.301.817.301 1.336V149h-2.296v-1.21h-.068c-.14.272-.327.513-.562.721a2.587 2.587 0 0 1-.847.483c-.329.114-.71.171-1.142.171Zm.693-1.671c.356 0 .671-.07.943-.21a1.68 1.68 0 0 0 .643-.579 1.5 1.5 0 0 0 .232-.824v-.926a1.294 1.294 0 0 1-.312.136 5.628 5.628 0 0 1-.438.108c-.162.03-.325.059-.488.085l-.443.063a3.011 3.011 0 0 0-.745.198 1.183 1.183 0 0 0-.494.37.901.901 0 0 0-.176.568c0 .329.119.581.358.756.242.17.549.255.92.255Zm13.185-4.733-2.216.137a1.148 1.148 0 0 0-.244-.512 1.303 1.303 0 0 0-.494-.369 1.678 1.678 0 0 0-.722-.142c-.375 0-.691.08-.949.239-.257.155-.386.363-.386.625 0 .208.083.384.25.528.166.144.452.26.858.347l1.579.318c.849.174 1.481.454 1.898.841.417.386.625.894.625 1.522a2.38 2.38 0 0 1-.506 1.506c-.333.432-.791.769-1.375 1.011-.579.239-1.248.358-2.005.358-1.156 0-2.076-.24-2.762-.721a2.813 2.813 0 0 1-1.199-1.977l2.381-.125c.072.352.246.621.523.806.276.182.63.273 1.062.273.425 0 .765-.081 1.023-.244.261-.167.394-.381.398-.642a.668.668 0 0 0-.279-.54c-.182-.144-.462-.254-.841-.33l-1.511-.301c-.852-.17-1.487-.466-1.903-.886-.413-.421-.62-.956-.62-1.608 0-.561.152-1.044.455-1.449.307-.405.737-.718 1.29-.937.556-.22 1.208-.33 1.954-.33 1.102 0 1.97.233 2.602.699.637.466 1.008 1.1 1.114 1.903Zm5.49 6.409c-.882 0-1.646-.187-2.289-.562a3.839 3.839 0 0 1-1.483-1.58c-.349-.678-.523-1.464-.523-2.358 0-.901.174-1.689.523-2.363a3.797 3.797 0 0 1 1.483-1.58c.643-.379 1.407-.568 2.289-.568.883 0 1.644.189 2.284.568a3.792 3.792 0 0 1 1.489 1.58c.348.674.523 1.462.523 2.363 0 .894-.175 1.68-.523 2.358a3.833 3.833 0 0 1-1.489 1.58c-.64.375-1.401.562-2.284.562Zm.012-1.875c.401 0 .736-.113 1.005-.34.269-.232.472-.546.608-.944.14-.397.211-.85.211-1.358 0-.507-.071-.96-.211-1.358-.136-.397-.339-.712-.608-.943-.269-.231-.604-.346-1.005-.346-.406 0-.747.115-1.023.346-.273.231-.479.546-.619.943a4.163 4.163 0 0 0-.205 1.358c0 .508.068.961.205 1.358.14.398.346.712.619.944.276.227.617.34 1.023.34Zm8.102-3.34V149h-2.42v-8.727h2.306v1.539h.103c.193-.507.517-.909.971-1.204.455-.299 1.006-.449 1.654-.449.606 0 1.134.133 1.585.398.451.265.801.644 1.051 1.136.25.489.375 1.072.375 1.75V149h-2.42v-5.125c.003-.534-.133-.951-.409-1.25-.277-.303-.658-.455-1.143-.455-.325 0-.613.071-.863.211-.246.14-.44.344-.58.613-.136.265-.206.586-.21.961Zm7.357 5.045v-8.727h2.42V149h-2.42Zm1.216-9.852c-.36 0-.669-.12-.927-.358a1.164 1.164 0 0 1-.38-.87c0-.333.127-.619.38-.858.258-.242.567-.363.927-.363.359 0 .666.121.92.363.258.239.386.525.386.858 0 .338-.128.627-.386.87a1.299 1.299 0 0 1-.92.358Zm5.388 4.807V149h-2.421v-8.727h2.307v1.539h.102c.193-.507.517-.909.972-1.204.454-.299 1.005-.449 1.653-.449.606 0 1.135.133 1.585.398.451.265.802.644 1.052 1.136.25.489.375 1.072.375 1.75V149h-2.421v-5.125c.004-.534-.132-.951-.409-1.25-.277-.303-.657-.455-1.142-.455-.326 0-.614.071-.864.211-.246.14-.439.344-.579.613-.137.265-.207.586-.21.961Zm11.288 8.5c-.784 0-1.456-.108-2.017-.324-.557-.212-1-.502-1.33-.87a2.68 2.68 0 0 1-.642-1.238l2.239-.301c.068.174.176.337.324.488.148.152.343.273.585.364.246.095.546.142.898.142.526 0 .96-.129 1.301-.386.345-.254.517-.68.517-1.279v-1.596h-.102a2.29 2.29 0 0 1-.478.687 2.39 2.39 0 0 1-.818.528c-.333.137-.731.205-1.193.205a3.585 3.585 0 0 1-1.79-.455c-.534-.306-.96-.774-1.278-1.403-.314-.633-.472-1.432-.472-2.398 0-.988.161-1.814.483-2.477.322-.663.75-1.159 1.284-1.489a3.323 3.323 0 0 1 1.767-.494c.489 0 .898.083 1.228.25.329.163.594.368.795.614.205.242.362.481.472.716h.091v-1.466h2.403v8.812c0 .743-.182 1.364-.545 1.864-.364.5-.868.875-1.512 1.125-.64.254-1.377.381-2.21.381Zm.051-5.398c.39 0 .72-.097.989-.29.273-.197.481-.477.625-.841.148-.367.221-.807.221-1.318s-.072-.955-.216-1.33c-.143-.378-.352-.672-.625-.88-.272-.209-.604-.313-.994-.313-.398 0-.733.108-1.006.324-.272.212-.479.508-.619.886a3.78 3.78 0 0 0-.21 1.313c0 .504.07.939.21 1.307.144.363.351.646.619.846.273.197.608.296 1.006.296Z"/><path fill="#F24822" d="M259.036 52.29a2 2 0 1 0-2.072 3.42l2.072-3.42Zm76.715 59.192c-.572.945.18 2.314 1.284 2.337l17.757.374c1.105.023 1.914-1.313 1.382-2.281l-8.555-15.565c-.532-.968-2.093-1-2.666-.056l-9.202 15.191Zm-78.787-55.771 84.063 50.922 2.072-3.421-84.063-50.923-2.072 3.422Z"/></svg>