<svg xmlns="http://www.w3.org/2000/svg" width="621" height="143" fill="none"><rect width="137" height="30" x="242" y="112" fill="#FFC7C2" rx="3"/><rect width="137" height="30" x="242" y="58" fill="#FFC7C2" rx="3"/><rect width="137" height="30" x="242" y="4" fill="#FFC7C2" rx="3"/><rect width="137" height="30" x="482" y="111" fill="#FFC7C2" rx="3"/><rect width="137" height="30" x="482" y="57" fill="#FFC7C2" rx="3"/><rect width="137" height="30" x="482" y="3" fill="#FFC7C2" rx="3"/><rect width="137" height="86" x="2" y="32" stroke="#1E1E1E" stroke-linecap="round" stroke-width="4" rx="6"/><path fill="#1E1E1E" d="M51.829 69.636H49.85l3.013-8.727h2.378l3.009 8.727h-1.978l-2.186-6.733h-.068l-2.19 6.733Zm-.124-3.43h4.67v1.44h-4.67v-1.44Zm10.501-3.115v1.363h-3.942v-1.363h3.942Zm-3.047-1.568h1.816v6.102a.83.83 0 0 0 .076.392c.052.09.123.155.213.192a.88.88 0 0 0 .324.055c.086 0 .17-.007.256-.021l.196-.038.286 1.35c-.091.029-.22.061-.384.098-.165.04-.365.064-.6.073-.438.017-.822-.041-1.151-.175a1.606 1.606 0 0 1-.763-.622c-.182-.281-.271-.636-.269-1.065v-6.341Zm7.58 1.568v1.363h-3.942v-1.363h3.941Zm-3.048-1.568h1.816v6.102a.83.83 0 0 0 .076.392c.052.09.123.155.214.192a.88.88 0 0 0 .324.055c.085 0 .17-.007.255-.021l.196-.038.286 1.35c-.091.029-.22.061-.384.098-.165.04-.365.064-.6.073-.438.017-.822-.041-1.151-.175a1.606 1.606 0 0 1-.763-.622c-.182-.281-.271-.636-.269-1.065v-6.341Zm5.964 8.237a2.74 2.74 0 0 1-1.116-.217 1.798 1.798 0 0 1-.776-.652c-.187-.29-.28-.651-.28-1.083 0-.363.066-.669.2-.916.133-.247.315-.446.545-.597.23-.15.491-.264.784-.34.295-.077.605-.131.929-.162.38-.04.687-.077.92-.111.233-.037.402-.091.507-.162a.356.356 0 0 0 .158-.316v-.025c0-.27-.085-.479-.256-.627-.167-.147-.406-.221-.715-.221-.327 0-.587.072-.78.217a1 1 0 0 0-.384.537l-1.679-.136c.085-.398.253-.742.503-1.031.25-.293.572-.517.967-.674.398-.159.858-.238 1.381-.238.364 0 .712.042 1.044.127.335.086.632.218.89.397.262.179.468.409.619.69.15.279.225.612.225 1.002v4.414H71.62v-.907h-.051a1.847 1.847 0 0 1-.422.54 1.952 1.952 0 0 1-.635.363 2.626 2.626 0 0 1-.857.128Zm.52-1.253c.267 0 .503-.053.708-.158a1.25 1.25 0 0 0 .481-.434c.117-.182.175-.388.175-.618v-.695a.972.972 0 0 1-.234.102 4.3 4.3 0 0 1-.329.082l-.366.063-.332.047c-.214.031-.4.081-.559.15a.894.894 0 0 0-.37.276.675.675 0 0 0-.133.427c0 .247.09.436.269.566.182.128.412.192.69.192Zm7.4 1.257c-.67 0-1.247-.142-1.73-.426a2.882 2.882 0 0 1-1.108-1.193c-.255-.509-.383-1.094-.383-1.756 0-.67.129-1.258.387-1.764a2.881 2.881 0 0 1 1.113-1.189c.48-.287 1.05-.43 1.713-.43.57 0 1.07.103 1.5.31.429.208.768.5 1.018.874.25.375.388.816.414 1.321h-1.714c-.048-.326-.176-.59-.383-.788-.205-.202-.473-.303-.805-.303-.282 0-.527.077-.738.23a1.465 1.465 0 0 0-.485.661c-.117.29-.175.64-.175 1.053 0 .417.057.772.17 1.065.117.293.28.516.49.669.21.153.456.23.738.23a1.2 1.2 0 0 0 .558-.128c.167-.085.305-.209.413-.37.11-.165.183-.363.217-.593H80.5c-.029.5-.165.94-.41 1.321a2.471 2.471 0 0 1-1.001.887c-.426.213-.93.32-1.513.32Zm5.599-2.011.004-2.178h.264l2.097-2.484h2.084l-2.817 3.29h-.43l-1.202 1.372Zm-1.645 1.883V60.91h1.815v8.727H81.53Zm4.09 0-1.925-2.85 1.21-1.283 2.842 4.133H85.62ZM40.863 81.42a1.078 1.078 0 0 0-.439-.801c-.259-.19-.61-.286-1.053-.286-.3 0-.555.043-.762.128a1.074 1.074 0 0 0-.478.345.83.83 0 0 0-.162.503.718.718 0 0 0 .098.41c.074.116.175.217.303.302.128.082.276.155.443.217.168.06.347.111.537.154l.784.187c.38.085.73.199 1.048.341.319.142.594.317.827.524.233.208.413.452.541.733.131.281.198.604.2.968-.002.533-.139.997-.408 1.389-.267.389-.654.691-1.16.907-.502.213-1.109.32-1.82.32-.704 0-1.317-.108-1.84-.324-.52-.216-.926-.535-1.219-.959-.29-.426-.441-.953-.456-1.58h1.786c.02.292.104.536.251.732.15.193.351.34.601.44a2.4 2.4 0 0 0 .857.144c.312 0 .583-.045.813-.136.233-.091.414-.218.542-.38a.876.876 0 0 0 .192-.558.725.725 0 0 0-.175-.494 1.324 1.324 0 0 0-.503-.341 5.109 5.109 0 0 0-.806-.256l-.95-.238c-.736-.18-1.316-.46-1.743-.84-.426-.38-.637-.893-.635-1.538-.002-.529.138-.99.422-1.385.287-.395.68-.703 1.18-.925.5-.221 1.069-.332 1.705-.332.648 0 1.213.11 1.696.332.486.222.864.53 1.134.925.27.395.409.852.417 1.372h-1.768Zm4.083 8.672a3.67 3.67 0 0 1-.647-.055 2.357 2.357 0 0 1-.495-.133l.41-1.355c.212.066.404.101.575.107a.73.73 0 0 0 .447-.12c.128-.085.232-.23.311-.434l.107-.277-2.348-6.733h1.909l1.355 4.807h.068l1.368-4.807h1.922l-2.544 7.253a3.023 3.023 0 0 1-.499.92c-.207.264-.47.468-.788.61-.318.145-.702.217-1.15.217Zm7.594-6.239v3.784h-1.815v-6.545h1.73v1.155h.077c.145-.381.388-.682.729-.904.34-.224.754-.336 1.24-.336.454 0 .85.1 1.188.298.338.199.601.483.789.852.187.367.281.804.281 1.313v4.167h-1.815v-3.843c.003-.401-.1-.714-.307-.938-.208-.227-.493-.34-.857-.34a1.3 1.3 0 0 0-.647.157c-.185.105-.33.258-.435.46a1.594 1.594 0 0 0-.158.72Zm9-2.761v1.364h-3.942V81.09h3.941Zm-3.047-1.568h1.815v6.102a.83.83 0 0 0 .076.392c.052.09.123.155.214.192a.88.88 0 0 0 .323.055c.086 0 .17-.007.256-.021l.196-.038.286 1.35c-.091.029-.22.061-.384.098-.165.04-.365.064-.6.073-.438.017-.822-.041-1.151-.175a1.606 1.606 0 0 1-.763-.622c-.182-.281-.271-.636-.268-1.065v-6.341Zm6.053 4.33v3.783H62.73V78.91h1.765v3.337h.076c.148-.387.387-.69.716-.908.33-.221.743-.332 1.24-.332.455 0 .851.1 1.19.298a2 2 0 0 1 .792.848c.19.367.284.805.281 1.317v4.167h-1.815v-3.843c.003-.404-.1-.718-.307-.942-.205-.225-.492-.337-.86-.337-.248 0-.467.053-.657.158a1.117 1.117 0 0 0-.443.46 1.55 1.55 0 0 0-.162.72Zm8.524 3.911c-.674 0-1.253-.136-1.739-.409a2.802 2.802 0 0 1-1.116-1.168c-.262-.505-.392-1.103-.392-1.793 0-.674.13-1.265.392-1.773a2.902 2.902 0 0 1 1.103-1.19c.478-.283 1.037-.425 1.68-.425.431 0 .833.07 1.205.209.375.136.702.342.98.617.282.276.5.623.657 1.04.156.415.234.9.234 1.457v.5h-5.527v-1.126h3.818a1.39 1.39 0 0 0-.17-.695 1.22 1.22 0 0 0-.473-.472 1.349 1.349 0 0 0-.695-.175c-.275 0-.52.064-.733.191-.21.125-.375.295-.494.508-.12.21-.18.444-.183.703v1.07c0 .323.06.603.179.839.122.236.294.418.515.545.222.128.485.192.788.192.202 0 .387-.028.555-.085a1.113 1.113 0 0 0 .703-.673l1.679.11a2.29 2.29 0 0 1-.525 1.057c-.26.299-.599.531-1.014.699-.412.165-.887.247-1.427.247Zm9.503-4.807-1.662.103a.86.86 0 0 0-.183-.384.973.973 0 0 0-.371-.277 1.26 1.26 0 0 0-.541-.106c-.282 0-.519.06-.712.179-.193.116-.29.272-.29.468 0 .157.063.289.188.397.125.108.34.194.643.26l1.185.238c.636.13 1.11.341 1.423.63.313.29.469.671.469 1.143 0 .429-.127.805-.38 1.13-.25.323-.593.576-1.03.758-.435.179-.937.268-1.505.268-.866 0-1.557-.18-2.071-.541a2.108 2.108 0 0 1-.9-1.483l1.786-.094a.917.917 0 0 0 .392.605c.208.137.473.205.797.205.319 0 .574-.061.767-.183.196-.125.296-.286.299-.482a.5.5 0 0 0-.21-.405c-.135-.108-.346-.19-.63-.247l-1.133-.226c-.64-.127-1.115-.35-1.428-.664-.31-.316-.464-.718-.464-1.206 0-.42.113-.783.34-1.087.23-.304.553-.538.968-.703.417-.165.906-.247 1.466-.247.826 0 1.477.174 1.951.524.478.35.756.825.836 1.427Zm1.16 4.68V81.09h1.815v6.545h-1.815Zm.912-7.39a.986.986 0 0 1-.695-.268.87.87 0 0 1-.285-.652c0-.25.095-.465.285-.644a.978.978 0 0 1 .695-.273c.27 0 .5.091.69.273a.867.867 0 0 1 0 1.296.971.971 0 0 1-.69.268Zm2.191 7.39v-1.083l3.205-3.967v-.047h-3.094v-1.45h5.28v1.181l-3.008 3.87v.046h3.119v1.45h-5.502Zm9.553.127c-.673 0-1.253-.136-1.738-.409a2.802 2.802 0 0 1-1.117-1.168c-.261-.505-.392-1.103-.392-1.793 0-.674.13-1.265.392-1.773.262-.509.63-.905 1.104-1.19.477-.283 1.037-.425 1.679-.425.432 0 .834.07 1.206.209.375.136.702.342.98.617.281.276.5.623.656 1.04.156.415.235.9.235 1.457v.5h-5.527v-1.126h3.818a1.4 1.4 0 0 0-.17-.695 1.221 1.221 0 0 0-.474-.472 1.349 1.349 0 0 0-.694-.175c-.276 0-.52.064-.733.191-.21.125-.375.295-.495.508-.119.21-.18.444-.183.703v1.07c0 .323.06.603.18.839.121.236.293.418.515.545.221.128.484.192.788.192.202 0 .387-.028.554-.085a1.113 1.113 0 0 0 .703-.673l1.68.11a2.29 2.29 0 0 1-.525 1.057 2.63 2.63 0 0 1-1.014.699c-.412.165-.888.247-1.428.247Zm4.057-.128v-6.545h1.76v1.142h.068c.12-.406.32-.713.601-.92.282-.21.605-.316.972-.316a2.734 2.734 0 0 1 .571.064v1.61a2.357 2.357 0 0 0-.354-.067c-.15-.02-.288-.03-.413-.03-.267 0-.506.058-.716.175a1.287 1.287 0 0 0-.494.477c-.12.204-.179.44-.179.707v3.703h-1.816ZM162 72a2 2 0 1 0 0 4v-4Zm44 10.88c0 1.105 1.353 1.886 2.309 1.334l15.382-8.88c.956-.553.956-2.115 0-2.667l-15.382-8.88c-.956-.553-2.309.228-2.309 1.333v17.76ZM162 76h46v-4h-46v4Zm.88 12.84a2 2 0 1 0-1.76 3.592l1.76-3.592Zm41.253 32.333c-.486.992.385 2.289 1.487 2.214l17.719-1.206c1.103-.075 1.79-1.478 1.174-2.395l-9.904-14.742c-.616-.917-2.174-.811-2.661.181l-7.815 15.948Zm-43.013-28.74 47.836 23.442 1.761-3.592L162.88 88.84l-1.76 3.592Zm0-35.865a2 2 0 0 0 1.76 3.592l-1.76-3.592Zm50.828-12.793c.487.992 2.045 1.098 2.661.181l9.904-14.742c.616-.917-.071-2.32-1.174-2.395l-17.719-1.206c-1.102-.075-1.973 1.222-1.487 2.214l7.815 15.948ZM162.88 60.16l47.837-23.443-1.761-3.592-47.836 23.443 1.76 3.592Z"/><rect width="137" height="30" x="242" y="5" stroke="#1E1E1E" stroke-linecap="round" stroke-width="4" rx="3"/><path fill="#000" fill-opacity=".8" d="M266.362 24v-8.727h3.495c.642 0 1.177.095 1.606.285.429.19.751.455.967.793.216.335.324.721.324 1.159 0 .34-.068.64-.204.9a1.77 1.77 0 0 1-.563.63 2.303 2.303 0 0 1-.809.345v.085a1.988 1.988 0 0 1 1.644 1.01c.182.31.273.68.273 1.108 0 .463-.115.877-.345 1.24-.227.36-.564.646-1.01.857-.446.21-.996.315-1.649.315h-3.729Zm1.845-1.509h1.505c.514 0 .889-.098 1.125-.294a.987.987 0 0 0 .353-.792c0-.242-.058-.455-.174-.64a1.19 1.19 0 0 0-.499-.434 1.707 1.707 0 0 0-.763-.158h-1.547v2.319Zm0-3.566h1.368c.253 0 .478-.044.674-.132a1.12 1.12 0 0 0 .468-.384.996.996 0 0 0 .175-.592.956.956 0 0 0-.337-.763c-.221-.193-.537-.29-.946-.29h-1.402v2.16Zm7.789 5.199c-.417 0-.79-.073-1.116-.218a1.795 1.795 0 0 1-.776-.652c-.187-.29-.281-.65-.281-1.082 0-.364.067-.67.2-.916.134-.247.316-.446.546-.597.23-.15.491-.264.784-.34a5.9 5.9 0 0 1 .929-.163c.38-.04.687-.076.92-.11.233-.037.402-.091.507-.162a.356.356 0 0 0 .158-.316v-.025c0-.27-.085-.48-.256-.627-.167-.148-.406-.221-.716-.221-.326 0-.586.072-.779.217a.994.994 0 0 0-.384.537l-1.679-.137a2.28 2.28 0 0 1 .503-1.03 2.41 2.41 0 0 1 .967-.674c.398-.16.858-.239 1.381-.239a4.2 4.2 0 0 1 1.044.128c.335.085.632.218.891.396.261.18.467.41.617.69.151.28.226.613.226 1.002V24h-1.721v-.908h-.051a1.864 1.864 0 0 1-.422.542 1.952 1.952 0 0 1-.635.362 2.624 2.624 0 0 1-.857.128Zm.52-1.253c.267 0 .503-.053.707-.158.205-.108.366-.253.482-.435a1.12 1.12 0 0 0 .175-.617v-.695a.975.975 0 0 1-.235.102 4.197 4.197 0 0 1-.328.081 16.11 16.11 0 0 1-.366.064l-.333.047a2.245 2.245 0 0 0-.558.15.894.894 0 0 0-.371.276.675.675 0 0 0-.132.426c0 .247.09.436.269.567.182.128.412.192.69.192Zm9.889-3.55-1.662.102a.873.873 0 0 0-.183-.383.979.979 0 0 0-.371-.277 1.261 1.261 0 0 0-.541-.107c-.282 0-.519.06-.712.18-.193.116-.29.272-.29.468 0 .156.063.288.188.396.125.108.339.195.643.26l1.185.239c.636.13 1.111.34 1.423.63.313.29.469.671.469 1.143 0 .429-.127.805-.379 1.129-.25.324-.594.577-1.032.758-.434.18-.936.269-1.504.269-.866 0-1.557-.18-2.071-.541a2.11 2.11 0 0 1-.899-1.483l1.785-.094a.919.919 0 0 0 .392.605c.208.136.473.205.797.205.318 0 .574-.061.767-.184.196-.125.296-.285.299-.481a.503.503 0 0 0-.209-.405c-.137-.108-.347-.19-.631-.247l-1.133-.226c-.64-.128-1.115-.35-1.428-.665-.31-.315-.464-.717-.464-1.206 0-.42.113-.782.341-1.086.23-.304.552-.539.967-.704.417-.164.906-.247 1.466-.247.826 0 1.477.175 1.951.524.478.35.756.826.836 1.428Zm4.143 4.807c-.673 0-1.253-.137-1.739-.41a2.798 2.798 0 0 1-1.116-1.167c-.262-.505-.392-1.104-.392-1.794 0-.673.13-1.264.392-1.773a2.896 2.896 0 0 1 1.103-1.189c.478-.284 1.037-.426 1.679-.426.432 0 .834.07 1.206.21.375.136.702.341.981.617.281.276.5.622.656 1.04.156.415.234.9.234 1.457v.499h-5.527v-1.125h3.818c0-.262-.056-.493-.17-.695a1.222 1.222 0 0 0-.473-.473 1.352 1.352 0 0 0-.695-.175c-.275 0-.52.064-.733.192-.21.125-.375.294-.494.507-.119.21-.18.445-.183.703v1.07c0 .324.059.604.179.84.122.235.294.417.515.545.222.128.485.192.789.192.201 0 .386-.029.554-.085a1.15 1.15 0 0 0 .43-.256c.119-.114.21-.253.273-.418l1.679.111c-.085.403-.26.756-.524 1.057-.262.298-.6.531-1.015.699-.411.165-.887.247-1.427.247Zm5.872-8.855V24h-1.815v-8.727h1.815ZM297.742 24v-6.546h1.816V24h-1.816Zm.912-7.39a.984.984 0 0 1-.694-.268.868.868 0 0 1-.286-.652.85.85 0 0 1 .286-.643.976.976 0 0 1 .694-.273c.27 0 .5.091.691.273a.847.847 0 0 1 .289.643c0 .253-.096.47-.289.652a.974.974 0 0 1-.691.269Zm4.041 3.606V24h-1.815v-6.546h1.73v1.155h.077c.145-.38.387-.681.728-.903.341-.224.755-.337 1.24-.337.455 0 .851.1 1.189.299.338.198.601.483.789.852.187.366.281.804.281 1.312V24h-1.815v-3.844c.002-.4-.1-.713-.307-.937-.208-.228-.493-.341-.857-.341a1.3 1.3 0 0 0-.647.157c-.185.106-.33.259-.435.46a1.6 1.6 0 0 0-.158.72Zm8.501 3.912c-.674 0-1.253-.137-1.739-.41a2.798 2.798 0 0 1-1.116-1.167c-.262-.505-.392-1.104-.392-1.794 0-.673.13-1.264.392-1.773a2.896 2.896 0 0 1 1.103-1.189c.478-.284 1.037-.426 1.679-.426.432 0 .834.07 1.206.21.375.136.702.341.98.617.282.276.5.622.657 1.04.156.415.234.9.234 1.457v.499h-5.527v-1.125h3.818c0-.262-.057-.493-.17-.695a1.229 1.229 0 0 0-.473-.473 1.352 1.352 0 0 0-.695-.175c-.276 0-.52.064-.733.192-.21.125-.375.294-.494.507-.12.21-.181.445-.183.703v1.07c0 .324.059.604.179.84.122.235.294.417.515.545.222.128.485.192.788.192.202 0 .387-.029.554-.085.168-.057.312-.142.431-.256.119-.114.21-.253.273-.418l1.679.111c-.086.403-.26.756-.525 1.057a2.626 2.626 0 0 1-1.014.699c-.412.165-.888.247-1.427.247Zm8.24-.128h-1.977l3.013-8.727h2.378L325.858 24h-1.977l-2.186-6.733h-.068L319.436 24Zm-.123-3.43h4.67v1.44h-4.67v-1.44Zm10.501-3.116v1.364h-3.942v-1.364h3.942Zm-3.047-1.568h1.815v6.103a.83.83 0 0 0 .077.392c.051.09.122.154.213.191a.88.88 0 0 0 .324.056c.085 0 .17-.007.256-.021l.196-.039.285 1.351a5.184 5.184 0 0 1-.383.098c-.165.04-.365.064-.601.073-.438.017-.821-.042-1.151-.175a1.61 1.61 0 0 1-.763-.622c-.181-.282-.271-.637-.268-1.066v-6.34Zm7.579 1.569v1.363h-3.942v-1.364h3.942Zm-3.047-1.569h1.815v6.103a.83.83 0 0 0 .077.392c.051.09.122.154.213.191a.88.88 0 0 0 .324.056c.085 0 .17-.007.256-.021l.196-.039.285 1.351a5.055 5.055 0 0 1-.383.098c-.165.04-.365.064-.601.073-.438.017-.821-.042-1.151-.175a1.603 1.603 0 0 1-.762-.622c-.182-.282-.272-.637-.269-1.066v-6.34Zm5.964 8.238a2.73 2.73 0 0 1-1.117-.218 1.798 1.798 0 0 1-.775-.652c-.188-.29-.281-.65-.281-1.082 0-.364.066-.67.2-.916.133-.247.315-.446.545-.597.23-.15.492-.264.784-.34.296-.078.606-.131.929-.163.381-.04.688-.076.921-.11.233-.037.402-.091.507-.162a.356.356 0 0 0 .158-.316v-.025c0-.27-.086-.48-.256-.627-.168-.148-.406-.221-.716-.221-.327 0-.587.072-.78.217a.998.998 0 0 0-.383.537l-1.679-.137a2.28 2.28 0 0 1 .503-1.03 2.41 2.41 0 0 1 .967-.674c.398-.16.858-.239 1.381-.239.363 0 .711.043 1.044.128.335.085.632.218.89.396.262.18.468.41.618.69.151.28.226.613.226 1.002V24h-1.722v-.908h-.051a1.83 1.83 0 0 1-.422.542 1.942 1.942 0 0 1-.635.362 2.618 2.618 0 0 1-.856.128Zm.52-1.253c.267 0 .503-.053.707-.158.205-.108.365-.253.482-.435a1.12 1.12 0 0 0 .174-.617v-.695a.948.948 0 0 1-.234.102 4.312 4.312 0 0 1-.328.081c-.122.023-.244.044-.367.064l-.332.047a2.245 2.245 0 0 0-.558.15.894.894 0 0 0-.371.276.675.675 0 0 0-.132.426c0 .247.09.436.268.567.182.128.412.192.691.192Zm7.4 1.257c-.671 0-1.247-.142-1.73-.426a2.878 2.878 0 0 1-1.108-1.194c-.256-.508-.384-1.093-.384-1.755 0-.67.129-1.259.388-1.764a2.879 2.879 0 0 1 1.112-1.19c.48-.286 1.051-.43 1.713-.43.571 0 1.071.104 1.5.311.429.208.769.499 1.019.874.25.375.388.815.413 1.321h-1.713c-.048-.327-.176-.59-.384-.788-.204-.202-.473-.303-.805-.303a1.22 1.22 0 0 0-.737.23c-.208.15-.369.37-.486.66-.116.29-.175.641-.175 1.053 0 .418.057.773.171 1.066.116.292.28.515.49.669.21.153.456.23.737.23.207 0 .394-.043.558-.128.168-.085.306-.209.414-.37.11-.166.183-.363.217-.593h1.713c-.028.5-.165.94-.409 1.32a2.467 2.467 0 0 1-1.001.887c-.427.213-.931.32-1.513.32Zm5.598-2.012.005-2.177h.264l2.096-2.485h2.084l-2.817 3.29h-.43l-1.202 1.372ZM349.136 24v-8.727h1.816V24h-1.816Zm4.091 0-1.926-2.85 1.21-1.284L355.354 24h-2.127Z"/><rect width="137" height="30" x="242" y="58" stroke="#1E1E1E" stroke-linecap="round" stroke-width="4" rx="3"/><path fill="#000" fill-opacity=".8" d="M266.362 77v-8.727h3.495c.642 0 1.177.095 1.606.285.429.19.751.455.967.793.216.335.324.721.324 1.159 0 .34-.068.64-.204.9a1.77 1.77 0 0 1-.563.63 2.303 2.303 0 0 1-.809.345v.085a1.988 1.988 0 0 1 1.644 1.01c.182.31.273.68.273 1.108 0 .463-.115.877-.345 1.24-.227.36-.564.646-1.01.857-.446.21-.996.315-1.649.315h-3.729Zm1.845-1.508h1.505c.514 0 .889-.099 1.125-.295a.987.987 0 0 0 .353-.792c0-.242-.058-.455-.174-.64a1.19 1.19 0 0 0-.499-.434 1.707 1.707 0 0 0-.763-.158h-1.547v2.319Zm0-3.567h1.368c.253 0 .478-.044.674-.132a1.12 1.12 0 0 0 .468-.384.996.996 0 0 0 .175-.592.956.956 0 0 0-.337-.763c-.221-.193-.537-.29-.946-.29h-1.402v2.16Zm7.789 5.199c-.417 0-.79-.073-1.116-.218a1.795 1.795 0 0 1-.776-.652c-.187-.29-.281-.65-.281-1.082 0-.364.067-.67.2-.916.134-.248.316-.446.546-.597.23-.15.491-.264.784-.34.295-.078.605-.132.929-.163.38-.04.687-.077.92-.11.233-.038.402-.092.507-.163a.356.356 0 0 0 .158-.315v-.025c0-.27-.085-.48-.256-.627-.167-.147-.406-.221-.716-.221-.326 0-.586.072-.779.217a.994.994 0 0 0-.384.537l-1.679-.136a2.28 2.28 0 0 1 .503-1.032 2.41 2.41 0 0 1 .967-.673c.398-.16.858-.239 1.381-.239a4.2 4.2 0 0 1 1.044.128c.335.085.632.218.891.397.261.178.467.409.617.69.151.278.226.612.226 1.001V77h-1.721v-.908h-.051a1.864 1.864 0 0 1-.422.541 1.952 1.952 0 0 1-.635.363 2.624 2.624 0 0 1-.857.128Zm.52-1.253c.267 0 .503-.053.707-.158.205-.108.366-.253.482-.435.116-.181.175-.387.175-.618v-.694a.975.975 0 0 1-.235.102 4.197 4.197 0 0 1-.328.081 16.11 16.11 0 0 1-.366.064l-.333.047a2.245 2.245 0 0 0-.558.15.894.894 0 0 0-.371.276.675.675 0 0 0-.132.426c0 .247.09.436.269.567.182.128.412.192.69.192Zm9.889-3.55-1.662.102a.873.873 0 0 0-.183-.383.979.979 0 0 0-.371-.277 1.261 1.261 0 0 0-.541-.107c-.282 0-.519.06-.712.18-.193.116-.29.272-.29.468 0 .156.063.288.188.396.125.108.339.195.643.26l1.185.239c.636.13 1.111.34 1.423.63.313.29.469.671.469 1.143 0 .429-.127.805-.379 1.129-.25.324-.594.577-1.032.758-.434.18-.936.269-1.504.269-.866 0-1.557-.18-2.071-.541a2.11 2.11 0 0 1-.899-1.483l1.785-.094a.919.919 0 0 0 .392.605c.208.136.473.205.797.205.318 0 .574-.061.767-.184.196-.125.296-.285.299-.481a.503.503 0 0 0-.209-.405c-.137-.108-.347-.19-.631-.247l-1.133-.226c-.64-.128-1.115-.35-1.428-.665-.31-.315-.464-.717-.464-1.206 0-.42.113-.782.341-1.086.23-.304.552-.539.967-.703.417-.165.906-.248 1.466-.248.826 0 1.477.175 1.951.525.478.349.756.825.836 1.427Zm4.143 4.807c-.673 0-1.253-.136-1.739-.41a2.798 2.798 0 0 1-1.116-1.167c-.262-.505-.392-1.104-.392-1.794 0-.673.13-1.264.392-1.773a2.896 2.896 0 0 1 1.103-1.188c.478-.285 1.037-.427 1.679-.427.432 0 .834.07 1.206.21a2.684 2.684 0 0 1 1.637 1.657c.156.415.234.9.234 1.457v.499h-5.527v-1.125h3.818c0-.262-.056-.493-.17-.695a1.222 1.222 0 0 0-.473-.473 1.352 1.352 0 0 0-.695-.175c-.275 0-.52.064-.733.192-.21.125-.375.294-.494.507-.119.21-.18.445-.183.703v1.07c0 .324.059.604.179.84.122.235.294.417.515.545.222.128.485.192.789.192.201 0 .386-.029.554-.085a1.15 1.15 0 0 0 .43-.256c.119-.114.21-.253.273-.418l1.679.111c-.085.403-.26.756-.524 1.057-.262.298-.6.531-1.015.699-.411.165-.887.247-1.427.247Zm5.872-8.855V77h-1.815v-8.727h1.815ZM297.742 77v-6.546h1.816V77h-1.816Zm.912-7.39a.984.984 0 0 1-.694-.268.868.868 0 0 1-.286-.652.85.85 0 0 1 .286-.643.976.976 0 0 1 .694-.273c.27 0 .5.091.691.273a.847.847 0 0 1 .289.643c0 .253-.096.47-.289.652a.974.974 0 0 1-.691.269Zm4.041 3.606V77h-1.815v-6.546h1.73v1.155h.077c.145-.38.387-.681.728-.903.341-.225.755-.337 1.24-.337.455 0 .851.1 1.189.299.338.198.601.483.789.852.187.366.281.804.281 1.312V77h-1.815v-3.844c.002-.4-.1-.713-.307-.937-.208-.227-.493-.341-.857-.341a1.3 1.3 0 0 0-.647.157c-.185.106-.33.259-.435.46a1.6 1.6 0 0 0-.158.72Zm8.501 3.912c-.674 0-1.253-.136-1.739-.41a2.798 2.798 0 0 1-1.116-1.167c-.262-.505-.392-1.104-.392-1.794 0-.673.13-1.264.392-1.773a2.896 2.896 0 0 1 1.103-1.188c.478-.285 1.037-.427 1.679-.427.432 0 .834.07 1.206.21.375.136.702.342.98.617.282.276.5.622.657 1.04.156.415.234.9.234 1.457v.499h-5.527v-1.125h3.818c0-.262-.057-.493-.17-.695a1.229 1.229 0 0 0-.473-.473 1.352 1.352 0 0 0-.695-.175c-.276 0-.52.064-.733.192-.21.125-.375.294-.494.507-.12.21-.181.445-.183.703v1.07c0 .324.059.604.179.84.122.235.294.417.515.545.222.128.485.192.788.192.202 0 .387-.029.554-.085.168-.057.312-.142.431-.256.119-.114.21-.253.273-.418l1.679.111c-.086.403-.26.756-.525 1.057a2.626 2.626 0 0 1-1.014.699c-.412.165-.888.247-1.427.247Zm8.24-.128h-1.977l3.013-8.727h2.378L325.858 77h-1.977l-2.186-6.733h-.068L319.436 77Zm-.123-3.43h4.67v1.44h-4.67v-1.44Zm10.501-3.115v1.363h-3.942v-1.364h3.942Zm-3.047-1.569h1.815v6.103a.83.83 0 0 0 .077.392c.051.09.122.154.213.191a.88.88 0 0 0 .324.056c.085 0 .17-.007.256-.022l.196-.038.285 1.351a5.184 5.184 0 0 1-.383.098c-.165.04-.365.064-.601.073-.438.016-.821-.042-1.151-.175a1.61 1.61 0 0 1-.763-.622c-.181-.282-.271-.637-.268-1.066v-6.34Zm7.579 1.569v1.363h-3.942v-1.364h3.942Zm-3.047-1.569h1.815v6.103a.83.83 0 0 0 .077.392c.051.09.122.154.213.191a.88.88 0 0 0 .324.056c.085 0 .17-.007.256-.022l.196-.038.285 1.351a5.055 5.055 0 0 1-.383.098c-.165.04-.365.064-.601.073-.438.016-.821-.042-1.151-.175a1.603 1.603 0 0 1-.762-.622c-.182-.282-.272-.637-.269-1.066v-6.34Zm5.964 8.238a2.73 2.73 0 0 1-1.117-.218 1.798 1.798 0 0 1-.775-.652c-.188-.29-.281-.65-.281-1.082 0-.364.066-.67.2-.916.133-.248.315-.446.545-.597.23-.15.492-.264.784-.34.296-.078.606-.132.929-.163.381-.04.688-.077.921-.11.233-.038.402-.092.507-.163a.356.356 0 0 0 .158-.315v-.025c0-.27-.086-.48-.256-.627-.168-.147-.406-.221-.716-.221-.327 0-.587.072-.78.217a.998.998 0 0 0-.383.537l-1.679-.136a2.28 2.28 0 0 1 .503-1.032 2.41 2.41 0 0 1 .967-.673c.398-.16.858-.239 1.381-.239.363 0 .711.043 1.044.128.335.085.632.218.89.397.262.178.468.409.618.69.151.278.226.612.226 1.001V77h-1.722v-.908h-.051a1.83 1.83 0 0 1-.422.541 1.942 1.942 0 0 1-.635.363 2.618 2.618 0 0 1-.856.128Zm.52-1.253c.267 0 .503-.053.707-.158.205-.108.365-.253.482-.435a1.12 1.12 0 0 0 .174-.618v-.694a.948.948 0 0 1-.234.102 4.312 4.312 0 0 1-.328.081c-.122.023-.244.044-.367.064l-.332.047a2.245 2.245 0 0 0-.558.15.894.894 0 0 0-.371.276.675.675 0 0 0-.132.426c0 .247.09.436.268.567.182.128.412.192.691.192Zm7.4 1.257c-.671 0-1.247-.142-1.73-.426a2.878 2.878 0 0 1-1.108-1.194c-.256-.508-.384-1.093-.384-1.755 0-.67.129-1.259.388-1.764a2.879 2.879 0 0 1 1.112-1.19c.48-.286 1.051-.43 1.713-.43.571 0 1.071.104 1.5.311.429.208.769.499 1.019.874.25.375.388.815.413 1.321h-1.713c-.048-.327-.176-.59-.384-.788-.204-.202-.473-.303-.805-.303a1.22 1.22 0 0 0-.737.23c-.208.15-.369.37-.486.66-.116.29-.175.641-.175 1.053 0 .418.057.773.171 1.066.116.292.28.515.49.669.21.153.456.23.737.23.207 0 .394-.043.558-.128.168-.085.306-.209.414-.37.11-.166.183-.363.217-.593h1.713c-.028.5-.165.94-.409 1.32a2.467 2.467 0 0 1-1.001.887c-.427.213-.931.32-1.513.32Zm5.598-2.011.005-2.178h.264l2.096-2.484h2.084l-2.817 3.29h-.43l-1.202 1.371ZM349.136 77v-8.727h1.816V77h-1.816Zm4.091 0-1.926-2.85 1.21-1.284L355.354 77h-2.127Z"/><rect width="137" height="30" x="242" y="111" stroke="#1E1E1E" stroke-linecap="round" stroke-width="4" rx="3"/><path fill="#000" fill-opacity=".8" d="M266.362 130v-8.727h3.495c.642 0 1.177.095 1.606.285.429.191.751.455.967.793.216.335.324.721.324 1.159 0 .341-.068.641-.204.899a1.77 1.77 0 0 1-.563.631 2.299 2.299 0 0 1-.809.345v.085a1.998 1.998 0 0 1 1.644 1.01c.182.31.273.679.273 1.108 0 .463-.115.876-.345 1.24-.227.361-.564.646-1.01.857-.446.21-.996.315-1.649.315h-3.729Zm1.845-1.509h1.505c.514 0 .889-.098 1.125-.294a.985.985 0 0 0 .353-.792c0-.242-.058-.455-.174-.639a1.188 1.188 0 0 0-.499-.435 1.708 1.708 0 0 0-.763-.158h-1.547v2.318Zm0-3.566h1.368c.253 0 .478-.044.674-.132a1.12 1.12 0 0 0 .468-.384.996.996 0 0 0 .175-.592.955.955 0 0 0-.337-.763c-.221-.193-.537-.29-.946-.29h-1.402v2.161Zm7.789 5.199c-.417 0-.79-.073-1.116-.218a1.79 1.79 0 0 1-.776-.652c-.187-.29-.281-.65-.281-1.082 0-.364.067-.669.2-.916.134-.247.316-.446.546-.597.23-.15.491-.264.784-.341.295-.077.605-.13.929-.162.38-.04.687-.076.92-.111.233-.036.402-.09.507-.161a.359.359 0 0 0 .158-.316v-.025c0-.27-.085-.479-.256-.627-.167-.148-.406-.221-.716-.221-.326 0-.586.072-.779.217a.994.994 0 0 0-.384.537l-1.679-.137c.085-.397.253-.741.503-1.031.25-.292.572-.517.967-.673.398-.159.858-.239 1.381-.239a4.2 4.2 0 0 1 1.044.128c.335.085.632.217.891.396.261.179.467.41.617.691.151.278.226.612.226 1.001V130h-1.721v-.908h-.051a1.872 1.872 0 0 1-.422.542 1.959 1.959 0 0 1-.635.362 2.632 2.632 0 0 1-.857.128Zm.52-1.253c.267 0 .503-.053.707-.158.205-.108.366-.253.482-.435a1.12 1.12 0 0 0 .175-.617v-.695a.96.96 0 0 1-.235.102 3.752 3.752 0 0 1-.328.081c-.122.023-.244.044-.366.064l-.333.047a2.24 2.24 0 0 0-.558.149.896.896 0 0 0-.371.277.676.676 0 0 0-.132.426c0 .247.09.436.269.567.182.128.412.192.69.192Zm9.889-3.55-1.662.102a.868.868 0 0 0-.183-.383.972.972 0 0 0-.371-.277 1.26 1.26 0 0 0-.541-.107c-.282 0-.519.06-.712.179-.193.117-.29.273-.29.469 0 .156.063.288.188.396.125.108.339.195.643.26l1.185.239c.636.131 1.111.341 1.423.631.313.289.469.67.469 1.142 0 .429-.127.805-.379 1.129-.25.324-.594.577-1.032.758-.434.179-.936.269-1.504.269-.866 0-1.557-.181-2.071-.541a2.11 2.11 0 0 1-.899-1.483l1.785-.094a.919.919 0 0 0 .392.605c.208.136.473.205.797.205.318 0 .574-.061.767-.184.196-.125.296-.285.299-.481a.502.502 0 0 0-.209-.405c-.137-.108-.347-.19-.631-.247l-1.133-.226c-.64-.128-1.115-.349-1.428-.665-.31-.315-.464-.717-.464-1.206 0-.42.113-.782.341-1.086.23-.304.552-.539.967-.704.417-.164.906-.247 1.466-.247.826 0 1.477.175 1.951.524.478.35.756.826.836 1.428Zm4.143 4.807c-.673 0-1.253-.137-1.739-.409a2.8 2.8 0 0 1-1.116-1.168c-.262-.506-.392-1.104-.392-1.794 0-.673.13-1.264.392-1.773a2.906 2.906 0 0 1 1.103-1.189c.478-.284 1.037-.426 1.679-.426.432 0 .834.07 1.206.209.375.136.702.342.981.618.281.276.5.622.656 1.04.156.415.234.9.234 1.457v.499h-5.527v-1.125h3.818c0-.262-.056-.493-.17-.695a1.222 1.222 0 0 0-.473-.473 1.356 1.356 0 0 0-.695-.175c-.275 0-.52.064-.733.192-.21.125-.375.294-.494.507a1.44 1.44 0 0 0-.183.703v1.07c0 .324.059.604.179.84.122.235.294.417.515.545.222.128.485.192.789.192.201 0 .386-.029.554-.085.167-.057.311-.143.43-.256.119-.114.21-.253.273-.418l1.679.111c-.085.403-.26.756-.524 1.057-.262.298-.6.531-1.015.699-.411.164-.887.247-1.427.247Zm5.872-8.855V130h-1.815v-8.727h1.815Zm1.322 8.727v-6.545h1.816V130h-1.816Zm.912-7.389a.985.985 0 0 1-.694-.269.867.867 0 0 1-.286-.652.85.85 0 0 1 .286-.643.975.975 0 0 1 .694-.273c.27 0 .5.091.691.273a.846.846 0 0 1 .289.643.863.863 0 0 1-.289.652.974.974 0 0 1-.691.269Zm4.041 3.605V130h-1.815v-6.545h1.73v1.154h.077c.145-.38.387-.681.728-.903.341-.224.755-.337 1.24-.337.455 0 .851.1 1.189.299.338.198.601.483.789.852.187.366.281.804.281 1.312V130h-1.815v-3.844c.002-.4-.1-.713-.307-.937-.208-.228-.493-.341-.857-.341-.244 0-.46.052-.647.158-.185.105-.33.258-.435.46a1.6 1.6 0 0 0-.158.72Zm8.501 3.912c-.674 0-1.253-.137-1.739-.409a2.8 2.8 0 0 1-1.116-1.168c-.262-.506-.392-1.104-.392-1.794 0-.673.13-1.264.392-1.773a2.906 2.906 0 0 1 1.103-1.189c.478-.284 1.037-.426 1.679-.426.432 0 .834.07 1.206.209.375.136.702.342.98.618.282.276.5.622.657 1.04.156.415.234.9.234 1.457v.499h-5.527v-1.125h3.818c0-.262-.057-.493-.17-.695a1.229 1.229 0 0 0-.473-.473 1.356 1.356 0 0 0-.695-.175c-.276 0-.52.064-.733.192-.21.125-.375.294-.494.507-.12.211-.181.445-.183.703v1.07c0 .324.059.604.179.84.122.235.294.417.515.545.222.128.485.192.788.192.202 0 .387-.029.554-.085.168-.057.312-.143.431-.256.119-.114.21-.253.273-.418l1.679.111c-.086.403-.26.756-.525 1.057a2.634 2.634 0 0 1-1.014.699c-.412.164-.888.247-1.427.247Zm8.24-.128h-1.977l3.013-8.727h2.378l3.008 8.727h-1.977l-2.186-6.733h-.068L319.436 130Zm-.123-3.43h4.67v1.44h-4.67v-1.44Zm10.501-3.115v1.363h-3.942v-1.363h3.942Zm-3.047-1.569h1.815v6.103a.83.83 0 0 0 .077.392.416.416 0 0 0 .213.191.88.88 0 0 0 .324.056c.085 0 .17-.007.256-.021.085-.018.15-.03.196-.039l.285 1.351a5.451 5.451 0 0 1-.383.098c-.165.04-.365.064-.601.072-.438.018-.821-.041-1.151-.174a1.614 1.614 0 0 1-.763-.622c-.181-.282-.271-.637-.268-1.066v-6.341Zm7.579 1.569v1.363h-3.942v-1.363h3.942Zm-3.047-1.569h1.815v6.103a.83.83 0 0 0 .077.392.416.416 0 0 0 .213.191.88.88 0 0 0 .324.056c.085 0 .17-.007.256-.021.085-.018.15-.03.196-.039l.285 1.351a5.308 5.308 0 0 1-.383.098c-.165.04-.365.064-.601.072-.438.018-.821-.041-1.151-.174a1.607 1.607 0 0 1-.762-.622c-.182-.282-.272-.637-.269-1.066v-6.341Zm5.964 8.238c-.418 0-.79-.073-1.117-.218a1.793 1.793 0 0 1-.775-.652c-.188-.29-.281-.65-.281-1.082 0-.364.066-.669.2-.916.133-.247.315-.446.545-.597.23-.15.492-.264.784-.341.296-.077.606-.13.929-.162.381-.04.688-.076.921-.111.233-.036.402-.09.507-.161a.359.359 0 0 0 .158-.316v-.025c0-.27-.086-.479-.256-.627-.168-.148-.406-.221-.716-.221-.327 0-.587.072-.78.217a.997.997 0 0 0-.383.537l-1.679-.137c.085-.397.253-.741.503-1.031.25-.292.572-.517.967-.673.398-.159.858-.239 1.381-.239.363 0 .711.043 1.044.128.335.085.632.217.89.396.262.179.468.41.618.691.151.278.226.612.226 1.001V130h-1.722v-.908h-.051a1.839 1.839 0 0 1-.422.542 1.949 1.949 0 0 1-.635.362 2.626 2.626 0 0 1-.856.128Zm.52-1.253c.267 0 .503-.053.707-.158.205-.108.365-.253.482-.435a1.12 1.12 0 0 0 .174-.617v-.695a.934.934 0 0 1-.234.102 3.844 3.844 0 0 1-.328.081c-.122.023-.244.044-.367.064l-.332.047a2.24 2.24 0 0 0-.558.149.896.896 0 0 0-.371.277.676.676 0 0 0-.132.426c0 .247.09.436.268.567.182.128.412.192.691.192Zm7.4 1.257c-.671 0-1.247-.142-1.73-.426a2.881 2.881 0 0 1-1.108-1.193c-.256-.509-.384-1.094-.384-1.756 0-.671.129-1.259.388-1.764a2.875 2.875 0 0 1 1.112-1.189c.48-.287 1.051-.431 1.713-.431.571 0 1.071.104 1.5.311.429.208.769.499 1.019.874.25.375.388.815.413 1.321h-1.713c-.048-.327-.176-.589-.384-.788-.204-.202-.473-.303-.805-.303a1.22 1.22 0 0 0-.737.23c-.208.151-.369.371-.486.661-.116.289-.175.64-.175 1.052 0 .418.057.773.171 1.066.116.292.28.515.49.669.21.153.456.23.737.23.207 0 .394-.043.558-.128.168-.085.306-.209.414-.371a1.43 1.43 0 0 0 .217-.592h1.713c-.028.5-.165.94-.409 1.321a2.465 2.465 0 0 1-1.001.886c-.427.213-.931.32-1.513.32Zm5.598-2.012.005-2.177h.264l2.096-2.484h2.084l-2.817 3.289h-.43l-1.202 1.372ZM349.136 130v-8.727h1.816V130h-1.816Zm4.091 0-1.926-2.851 1.21-1.283 2.843 4.134h-2.127Z"/><path fill="#1E1E1E" d="M402 16a2 2 0 1 0 0 4v-4Zm44 10.88c0 1.105 1.353 1.886 2.309 1.334l15.382-8.88c.956-.553.956-2.115 0-2.667l-15.382-8.88c-.956-.553-2.309.228-2.309 1.333v17.76ZM402 20h46v-4h-46v4Z"/><rect width="137" height="30" x="482" y="2" stroke="#1E1E1E" stroke-linecap="round" stroke-width="4" rx="3"/><path fill="#000" fill-opacity=".8" d="M502.067 21v-8.727h5.881v1.521h-4.036v2.08h3.733v1.52h-3.733v2.085h4.053V21h-5.898Zm8.997-3.784V21h-1.815v-6.546h1.73v1.155h.077c.145-.38.387-.681.728-.903.341-.224.755-.337 1.24-.337.455 0 .851.1 1.189.299.338.199.601.483.789.852.187.366.281.804.281 1.312V21h-1.815v-3.844c.002-.4-.1-.713-.307-.937-.208-.228-.493-.341-.857-.341a1.3 1.3 0 0 0-.647.157c-.185.106-.33.259-.435.46a1.6 1.6 0 0 0-.158.72Zm7.333 0V21h-1.815v-8.727h1.764v3.336h.077c.147-.386.386-.688.716-.907.329-.222.742-.333 1.24-.333.454 0 .85.1 1.188.299.341.196.606.478.793.848.19.366.284.805.281 1.316V21h-1.815v-3.844c.003-.403-.099-.717-.307-.941-.204-.225-.491-.337-.861-.337-.247 0-.466.052-.656.157a1.12 1.12 0 0 0-.443.46 1.562 1.562 0 0 0-.162.72Zm7.407 3.908c-.417 0-.789-.073-1.116-.218a1.8 1.8 0 0 1-.776-.652c-.187-.29-.281-.65-.281-1.082 0-.364.067-.67.2-.916.134-.247.316-.446.546-.597.23-.15.491-.264.784-.34a5.9 5.9 0 0 1 .929-.163c.381-.04.687-.076.92-.11.233-.037.402-.091.508-.162a.356.356 0 0 0 .157-.316v-.025c0-.27-.085-.48-.255-.627-.168-.148-.407-.221-.716-.221-.327 0-.587.072-.78.217a1.005 1.005 0 0 0-.384.537l-1.679-.137a2.29 2.29 0 0 1 .503-1.03c.25-.293.573-.518.967-.674.398-.16.858-.239 1.381-.239.364 0 .712.043 1.044.128.335.085.632.217.891.396.261.18.467.41.618.69.15.28.226.613.226 1.002V21h-1.722v-.908h-.051a1.847 1.847 0 0 1-.422.542 1.952 1.952 0 0 1-.635.362 2.624 2.624 0 0 1-.857.128Zm.52-1.253c.267 0 .503-.053.708-.158.204-.108.365-.253.481-.435.117-.181.175-.387.175-.617v-.695a.983.983 0 0 1-.234.102 4.229 4.229 0 0 1-.329.081 16.11 16.11 0 0 1-.366.064l-.332.047c-.213.031-.4.08-.559.15a.89.89 0 0 0-.37.276.675.675 0 0 0-.132.426c0 .247.089.436.268.567.182.128.412.192.69.192Zm6.258-2.655V21h-1.815v-6.546h1.73v1.155h.077a1.83 1.83 0 0 1 .728-.903c.341-.224.755-.337 1.24-.337.455 0 .851.1 1.189.299.338.199.601.483.789.852.187.366.281.804.281 1.312V21h-1.815v-3.844c.003-.4-.1-.713-.307-.937-.208-.228-.493-.341-.857-.341a1.3 1.3 0 0 0-.647.157c-.185.106-.33.259-.435.46a1.6 1.6 0 0 0-.158.72Zm8.475 3.912c-.67 0-1.247-.142-1.73-.426a2.885 2.885 0 0 1-1.108-1.194c-.256-.508-.383-1.093-.383-1.755 0-.67.129-1.259.387-1.764a2.881 2.881 0 0 1 1.113-1.19c.48-.286 1.051-.43 1.713-.43.571 0 1.071.104 1.5.311.429.208.768.499 1.018.874s.388.815.413 1.321h-1.713a1.323 1.323 0 0 0-.383-.788c-.205-.202-.473-.303-.806-.303a1.22 1.22 0 0 0-.737.23c-.207.15-.369.37-.486.66-.116.29-.174.641-.174 1.053 0 .418.057.773.17 1.066.117.292.28.515.49.669.21.153.456.23.737.23a1.2 1.2 0 0 0 .559-.128c.167-.085.305-.209.413-.37.111-.166.183-.363.217-.593h1.713c-.028.5-.164.94-.409 1.32a2.467 2.467 0 0 1-1.001.887c-.426.213-.93.32-1.513.32Zm6.937 0c-.674 0-1.253-.137-1.739-.41a2.798 2.798 0 0 1-1.116-1.167c-.262-.505-.392-1.104-.392-1.794 0-.673.13-1.264.392-1.773a2.896 2.896 0 0 1 1.103-1.188c.478-.285 1.037-.427 1.679-.427.432 0 .834.07 1.206.21.375.135.702.341.98.617.282.276.5.622.657 1.04.156.415.234.9.234 1.457v.499h-5.527v-1.125h3.818c0-.262-.057-.493-.17-.695a1.229 1.229 0 0 0-.473-.473 1.352 1.352 0 0 0-.695-.175c-.275 0-.52.064-.733.192-.21.125-.375.294-.494.507-.12.21-.181.445-.183.703v1.07c0 .324.059.604.179.84.122.235.294.417.515.545.222.128.485.192.789.192.201 0 .386-.029.553-.085.168-.057.312-.142.431-.256.119-.114.21-.253.273-.418l1.679.111c-.086.403-.26.756-.525 1.057a2.626 2.626 0 0 1-1.014.699c-.412.165-.888.247-1.427.247Zm6.469-.021c-.498 0-.948-.128-1.351-.384-.401-.258-.719-.638-.955-1.138-.233-.503-.349-1.12-.349-1.85 0-.75.12-1.373.362-1.87.241-.5.562-.873.963-1.12.403-.25.845-.376 1.325-.376.367 0 .672.063.916.188.248.122.446.275.597.46.153.182.27.36.349.537h.056v-3.281h1.811V21h-1.79v-1.048h-.077a2.309 2.309 0 0 1-.362.54 1.789 1.789 0 0 1-.601.44c-.244.116-.542.175-.894.175Zm.575-1.445c.292 0 .54-.08.741-.239a1.51 1.51 0 0 0 .469-.677c.111-.29.166-.63.166-1.019 0-.389-.054-.727-.162-1.014a1.458 1.458 0 0 0-.468-.665 1.195 1.195 0 0 0-.746-.234c-.298 0-.55.08-.754.243-.205.162-.36.386-.465.673-.105.287-.158.62-.158.997 0 .381.053.718.158 1.01.108.29.263.517.465.682.204.162.456.243.754.243ZM563.731 21h-1.977l3.013-8.727h2.378L570.153 21h-1.977l-2.186-6.733h-.068L563.731 21Zm-.123-3.43h4.67v1.44h-4.67v-1.44Zm10.501-3.116v1.364h-3.942v-1.364h3.942Zm-3.047-1.568h1.815v6.103a.83.83 0 0 0 .077.392c.051.09.122.154.213.191a.88.88 0 0 0 .324.056c.085 0 .17-.007.256-.021l.196-.039.285 1.351a5.184 5.184 0 0 1-.383.098c-.165.04-.365.064-.601.073-.438.017-.821-.042-1.151-.175a1.606 1.606 0 0 1-.763-.622c-.181-.282-.271-.637-.268-1.066v-6.34Zm7.579 1.569v1.363h-3.942v-1.364h3.942Zm-3.047-1.569h1.815v6.103a.83.83 0 0 0 .077.392c.051.09.122.154.213.191a.88.88 0 0 0 .324.056c.085 0 .17-.007.256-.021l.196-.039.285 1.351a5.184 5.184 0 0 1-.383.098c-.165.04-.365.064-.601.073-.438.017-.821-.042-1.151-.175a1.61 1.61 0 0 1-.763-.622c-.181-.282-.271-.637-.268-1.066v-6.34Zm5.964 8.238a2.73 2.73 0 0 1-1.117-.218 1.798 1.798 0 0 1-.775-.652c-.188-.29-.281-.65-.281-1.082 0-.364.066-.67.2-.916.133-.247.315-.446.545-.597.23-.15.492-.264.784-.34.296-.078.606-.131.929-.163.381-.04.688-.076.921-.11.233-.037.402-.091.507-.162a.356.356 0 0 0 .158-.316v-.025c0-.27-.086-.48-.256-.627-.168-.148-.406-.221-.716-.221-.327 0-.587.072-.78.217a.998.998 0 0 0-.383.537l-1.679-.137a2.28 2.28 0 0 1 .503-1.03 2.41 2.41 0 0 1 .967-.674c.398-.16.858-.239 1.381-.239.363 0 .711.043 1.044.128.335.085.632.217.89.396.262.18.468.41.618.69.151.28.226.613.226 1.002V21h-1.722v-.908h-.051a1.847 1.847 0 0 1-.422.542 1.942 1.942 0 0 1-.635.362 2.618 2.618 0 0 1-.856.128Zm.52-1.253c.267 0 .503-.053.707-.158.205-.108.365-.253.482-.435a1.12 1.12 0 0 0 .174-.617v-.695a.965.965 0 0 1-.234.102 4.312 4.312 0 0 1-.328.081c-.122.023-.244.044-.367.064l-.332.047a2.245 2.245 0 0 0-.558.15.894.894 0 0 0-.371.276.675.675 0 0 0-.132.426c0 .247.089.436.268.567.182.128.412.192.691.192Zm7.4 1.257c-.671 0-1.247-.142-1.73-.426a2.872 2.872 0 0 1-1.108-1.194c-.256-.508-.384-1.093-.384-1.755 0-.67.129-1.259.388-1.764a2.879 2.879 0 0 1 1.112-1.19c.48-.286 1.051-.43 1.713-.43.571 0 1.071.104 1.5.311.429.208.769.499 1.019.874.25.375.387.815.413 1.321h-1.713c-.048-.327-.176-.59-.384-.788-.204-.202-.473-.303-.805-.303a1.22 1.22 0 0 0-.737.23c-.208.15-.37.37-.486.66-.116.29-.175.641-.175 1.053 0 .418.057.773.171 1.066.116.292.28.515.49.669.21.153.456.23.737.23a1.2 1.2 0 0 0 .558-.128c.168-.085.306-.209.414-.37.11-.166.183-.363.217-.593h1.713c-.028.5-.165.94-.409 1.32a2.47 2.47 0 0 1-1.002.887c-.426.213-.93.32-1.512.32Zm5.598-2.012.004-2.177h.265l2.096-2.485h2.084l-2.817 3.29h-.43l-1.202 1.372ZM593.431 21v-8.727h1.816V21h-1.816Zm4.091 0-1.926-2.85 1.21-1.284L599.649 21h-2.127Z"/><path fill="#1E1E1E" d="M402 71a2 2 0 1 0 0 4v-4Zm44 10.88c0 1.105 1.353 1.886 2.309 1.334l15.382-8.88c.956-.553.956-2.115 0-2.667l-15.382-8.88c-.956-.553-2.309.228-2.309 1.333v17.76ZM402 75h46v-4h-46v4Z"/><rect width="137" height="30" x="482" y="57" stroke="#1E1E1E" stroke-linecap="round" stroke-width="4" rx="3"/><path fill="#000" fill-opacity=".8" d="M502.067 76v-8.727h5.881v1.521h-4.036v2.08h3.733v1.52h-3.733v2.085h4.053V76h-5.898Zm8.997-3.784V76h-1.815v-6.546h1.73v1.155h.077c.145-.38.387-.681.728-.903.341-.225.755-.337 1.24-.337.455 0 .851.1 1.189.299.338.198.601.483.789.852.187.366.281.804.281 1.312V76h-1.815v-3.844c.002-.4-.1-.713-.307-.937-.208-.227-.493-.341-.857-.341a1.3 1.3 0 0 0-.647.157c-.185.106-.33.259-.435.46a1.6 1.6 0 0 0-.158.72Zm7.333 0V76h-1.815v-8.727h1.764v3.336h.077c.147-.386.386-.688.716-.907.329-.222.742-.333 1.24-.333.454 0 .85.1 1.188.299.341.196.606.478.793.848.19.366.284.805.281 1.316V76h-1.815v-3.844c.003-.403-.099-.717-.307-.942-.204-.224-.491-.336-.861-.336-.247 0-.466.052-.656.157a1.12 1.12 0 0 0-.443.46 1.562 1.562 0 0 0-.162.72Zm7.407 3.908c-.417 0-.789-.073-1.116-.218a1.8 1.8 0 0 1-.776-.652c-.187-.29-.281-.65-.281-1.082 0-.364.067-.67.2-.916.134-.248.316-.446.546-.597.23-.15.491-.264.784-.34.295-.078.605-.132.929-.163.381-.04.687-.077.92-.11.233-.038.402-.092.508-.163a.356.356 0 0 0 .157-.315v-.025c0-.27-.085-.48-.255-.627-.168-.147-.407-.221-.716-.221-.327 0-.587.072-.78.217a1.005 1.005 0 0 0-.384.537l-1.679-.136a2.29 2.29 0 0 1 .503-1.032c.25-.292.573-.517.967-.673.398-.16.858-.239 1.381-.239.364 0 .712.043 1.044.128.335.085.632.218.891.397.261.178.467.409.618.69.15.278.226.612.226 1.001V76h-1.722v-.908h-.051a1.847 1.847 0 0 1-.422.541 1.952 1.952 0 0 1-.635.363 2.624 2.624 0 0 1-.857.128Zm.52-1.253c.267 0 .503-.053.708-.158.204-.108.365-.253.481-.435.117-.181.175-.387.175-.618v-.694a.983.983 0 0 1-.234.102 4.229 4.229 0 0 1-.329.081 16.11 16.11 0 0 1-.366.064l-.332.047c-.213.031-.4.08-.559.15a.89.89 0 0 0-.37.276.675.675 0 0 0-.132.426c0 .247.089.436.268.567.182.128.412.192.69.192Zm6.258-2.655V76h-1.815v-6.546h1.73v1.155h.077a1.83 1.83 0 0 1 .728-.903c.341-.225.755-.337 1.24-.337.455 0 .851.1 1.189.299.338.198.601.483.789.852.187.366.281.804.281 1.312V76h-1.815v-3.844c.003-.4-.1-.713-.307-.937-.208-.227-.493-.341-.857-.341a1.3 1.3 0 0 0-.647.157c-.185.106-.33.259-.435.46a1.6 1.6 0 0 0-.158.72Zm8.475 3.912c-.67 0-1.247-.142-1.73-.426a2.885 2.885 0 0 1-1.108-1.194c-.256-.508-.383-1.093-.383-1.755 0-.67.129-1.259.387-1.764a2.881 2.881 0 0 1 1.113-1.19c.48-.286 1.051-.43 1.713-.43.571 0 1.071.104 1.5.311.429.208.768.499 1.018.874s.388.815.413 1.321h-1.713a1.323 1.323 0 0 0-.383-.788c-.205-.202-.473-.303-.806-.303a1.22 1.22 0 0 0-.737.23c-.207.15-.369.37-.486.66-.116.29-.174.641-.174 1.053 0 .418.057.773.17 1.066.117.292.28.515.49.669.21.153.456.23.737.23a1.2 1.2 0 0 0 .559-.128c.167-.085.305-.209.413-.37.111-.166.183-.363.217-.593h1.713c-.028.5-.164.94-.409 1.32a2.467 2.467 0 0 1-1.001.887c-.426.213-.93.32-1.513.32Zm6.937 0c-.674 0-1.253-.136-1.739-.41a2.798 2.798 0 0 1-1.116-1.167c-.262-.505-.392-1.104-.392-1.794 0-.673.13-1.264.392-1.773a2.896 2.896 0 0 1 1.103-1.188c.478-.285 1.037-.427 1.679-.427.432 0 .834.07 1.206.21.375.136.702.342.98.617.282.276.5.622.657 1.04.156.415.234.9.234 1.457v.499h-5.527v-1.125h3.818c0-.262-.057-.493-.17-.695a1.229 1.229 0 0 0-.473-.473 1.352 1.352 0 0 0-.695-.175c-.275 0-.52.064-.733.192-.21.125-.375.294-.494.507-.12.21-.181.445-.183.703v1.07c0 .324.059.604.179.84.122.235.294.417.515.545.222.128.485.192.789.192.201 0 .386-.029.553-.085.168-.057.312-.142.431-.256.119-.114.21-.253.273-.418l1.679.111c-.086.403-.26.756-.525 1.057a2.626 2.626 0 0 1-1.014.699c-.412.165-.888.247-1.427.247Zm6.469-.022c-.498 0-.948-.127-1.351-.383-.401-.258-.719-.638-.955-1.138-.233-.503-.349-1.12-.349-1.85 0-.75.12-1.373.362-1.87.241-.5.562-.873.963-1.12.403-.25.845-.376 1.325-.376.367 0 .672.063.916.188.248.122.446.275.597.46.153.182.27.36.349.537h.056v-3.281h1.811V76h-1.79v-1.048h-.077a2.309 2.309 0 0 1-.362.54 1.789 1.789 0 0 1-.601.44c-.244.116-.542.174-.894.174Zm.575-1.444c.292 0 .54-.08.741-.239a1.51 1.51 0 0 0 .469-.677c.111-.29.166-.63.166-1.019 0-.389-.054-.727-.162-1.014a1.458 1.458 0 0 0-.468-.665 1.195 1.195 0 0 0-.746-.234c-.298 0-.55.08-.754.243-.205.162-.36.386-.465.673-.105.287-.158.62-.158.997 0 .381.053.718.158 1.01.108.29.263.517.465.682.204.162.456.243.754.243ZM563.731 76h-1.977l3.013-8.727h2.378L570.153 76h-1.977l-2.186-6.733h-.068L563.731 76Zm-.123-3.43h4.67v1.44h-4.67v-1.44Zm10.501-3.115v1.363h-3.942v-1.364h3.942Zm-3.047-1.569h1.815v6.103a.83.83 0 0 0 .077.392c.051.09.122.154.213.191a.88.88 0 0 0 .324.056c.085 0 .17-.007.256-.022l.196-.038.285 1.351a5.184 5.184 0 0 1-.383.098c-.165.04-.365.064-.601.073-.438.016-.821-.042-1.151-.175a1.606 1.606 0 0 1-.763-.622c-.181-.282-.271-.637-.268-1.066v-6.34Zm7.579 1.569v1.363h-3.942v-1.364h3.942Zm-3.047-1.569h1.815v6.103a.83.83 0 0 0 .077.392c.051.09.122.154.213.191a.88.88 0 0 0 .324.056c.085 0 .17-.007.256-.022l.196-.038.285 1.351a5.184 5.184 0 0 1-.383.098c-.165.04-.365.064-.601.073-.438.016-.821-.042-1.151-.175a1.61 1.61 0 0 1-.763-.622c-.181-.282-.271-.637-.268-1.066v-6.34Zm5.964 8.238a2.73 2.73 0 0 1-1.117-.218 1.798 1.798 0 0 1-.775-.652c-.188-.29-.281-.65-.281-1.082 0-.364.066-.67.2-.916.133-.248.315-.446.545-.597.23-.15.492-.264.784-.34.296-.078.606-.132.929-.163.381-.04.688-.077.921-.11.233-.038.402-.092.507-.163a.356.356 0 0 0 .158-.315v-.025c0-.27-.086-.48-.256-.627-.168-.147-.406-.221-.716-.221-.327 0-.587.072-.78.217a.998.998 0 0 0-.383.537l-1.679-.136a2.28 2.28 0 0 1 .503-1.032 2.41 2.41 0 0 1 .967-.673c.398-.16.858-.239 1.381-.239.363 0 .711.043 1.044.128.335.085.632.218.89.397.262.178.468.409.618.69.151.278.226.612.226 1.001V76h-1.722v-.908h-.051a1.847 1.847 0 0 1-.422.541 1.942 1.942 0 0 1-.635.363 2.618 2.618 0 0 1-.856.128Zm.52-1.253c.267 0 .503-.053.707-.158.205-.108.365-.253.482-.435a1.12 1.12 0 0 0 .174-.618v-.694a.965.965 0 0 1-.234.102 4.312 4.312 0 0 1-.328.081c-.122.023-.244.044-.367.064l-.332.047a2.245 2.245 0 0 0-.558.15.894.894 0 0 0-.371.276.675.675 0 0 0-.132.426c0 .247.089.436.268.567.182.128.412.192.691.192Zm7.4 1.257c-.671 0-1.247-.142-1.73-.426a2.872 2.872 0 0 1-1.108-1.194c-.256-.508-.384-1.093-.384-1.755 0-.67.129-1.259.388-1.764a2.879 2.879 0 0 1 1.112-1.19c.48-.286 1.051-.43 1.713-.43.571 0 1.071.104 1.5.311.429.208.769.499 1.019.874.25.375.387.815.413 1.321h-1.713c-.048-.327-.176-.59-.384-.788-.204-.202-.473-.303-.805-.303a1.22 1.22 0 0 0-.737.23c-.208.15-.37.37-.486.66-.116.29-.175.641-.175 1.053 0 .418.057.773.171 1.066.116.292.28.515.49.669.21.153.456.23.737.23a1.2 1.2 0 0 0 .558-.128c.168-.085.306-.209.414-.37.11-.166.183-.363.217-.593h1.713c-.028.5-.165.94-.409 1.32a2.47 2.47 0 0 1-1.002.887c-.426.213-.93.32-1.512.32Zm5.598-2.011.004-2.178h.265l2.096-2.484h2.084l-2.817 3.29h-.43l-1.202 1.371ZM593.431 76v-8.727h1.816V76h-1.816Zm4.091 0-1.926-2.85 1.21-1.284L599.649 76h-2.127Z"/><path fill="#1E1E1E" d="M402 125a2 2 0 1 0 0 4v-4Zm44 10.88c0 1.105 1.353 1.886 2.309 1.334l15.382-8.881c.956-.552.956-2.114 0-2.666l-15.382-8.881c-.956-.552-2.309.229-2.309 1.334v17.76ZM402 129h46v-4h-46v4Z"/><rect width="137" height="30" x="482" y="111" stroke="#1E1E1E" stroke-linecap="round" stroke-width="4" rx="3"/><path fill="#000" fill-opacity=".8" d="M502.067 130v-8.727h5.881v1.521h-4.036v2.08h3.733v1.521h-3.733v2.084h4.053V130h-5.898Zm8.997-3.784V130h-1.815v-6.545h1.73v1.154h.077c.145-.38.387-.681.728-.903.341-.224.755-.337 1.24-.337.455 0 .851.1 1.189.299.338.198.601.483.789.852.187.366.281.804.281 1.312V130h-1.815v-3.844c.002-.4-.1-.713-.307-.937-.208-.228-.493-.341-.857-.341-.244 0-.46.052-.647.158-.185.105-.33.258-.435.46a1.6 1.6 0 0 0-.158.72Zm7.333 0V130h-1.815v-8.727h1.764v3.336h.077c.147-.386.386-.689.716-.907.329-.222.742-.333 1.24-.333.454 0 .85.1 1.188.299.341.196.606.478.793.848.19.366.284.805.281 1.316V130h-1.815v-3.844c.003-.403-.099-.717-.307-.942-.204-.224-.491-.336-.861-.336-.247 0-.466.052-.656.158a1.118 1.118 0 0 0-.443.46 1.562 1.562 0 0 0-.162.72Zm7.407 3.908c-.417 0-.789-.073-1.116-.218a1.795 1.795 0 0 1-.776-.652c-.187-.29-.281-.65-.281-1.082 0-.364.067-.669.2-.916.134-.247.316-.446.546-.597.23-.15.491-.264.784-.341.295-.077.605-.13.929-.162.381-.04.687-.076.92-.111.233-.036.402-.09.508-.161a.358.358 0 0 0 .157-.316v-.025c0-.27-.085-.479-.255-.627-.168-.148-.407-.221-.716-.221-.327 0-.587.072-.78.217a1.004 1.004 0 0 0-.384.537l-1.679-.137c.086-.397.253-.741.503-1.031.25-.292.573-.517.967-.673.398-.159.858-.239 1.381-.239.364 0 .712.043 1.044.128.335.085.632.217.891.396.261.179.467.41.618.691.15.278.226.612.226 1.001V130h-1.722v-.908h-.051a1.855 1.855 0 0 1-.422.542 1.959 1.959 0 0 1-.635.362 2.632 2.632 0 0 1-.857.128Zm.52-1.253c.267 0 .503-.053.708-.158.204-.108.365-.253.481-.435.117-.181.175-.387.175-.617v-.695a.968.968 0 0 1-.234.102 3.78 3.78 0 0 1-.329.081c-.122.023-.244.044-.366.064l-.332.047c-.213.031-.4.081-.559.149a.893.893 0 0 0-.37.277.676.676 0 0 0-.132.426c0 .247.089.436.268.567.182.128.412.192.69.192Zm6.258-2.655V130h-1.815v-6.545h1.73v1.154h.077c.145-.38.388-.681.728-.903.341-.224.755-.337 1.24-.337.455 0 .851.1 1.189.299.338.198.601.483.789.852.187.366.281.804.281 1.312V130h-1.815v-3.844c.003-.4-.1-.713-.307-.937-.208-.228-.493-.341-.857-.341-.244 0-.46.052-.647.158-.185.105-.33.258-.435.46a1.6 1.6 0 0 0-.158.72Zm8.475 3.912c-.67 0-1.247-.142-1.73-.426a2.888 2.888 0 0 1-1.108-1.193c-.256-.509-.383-1.094-.383-1.756 0-.671.129-1.259.387-1.764a2.878 2.878 0 0 1 1.113-1.189c.48-.287 1.051-.431 1.713-.431.571 0 1.071.104 1.5.311.429.208.768.499 1.018.874s.388.815.413 1.321h-1.713a1.322 1.322 0 0 0-.383-.788c-.205-.202-.473-.303-.806-.303a1.22 1.22 0 0 0-.737.23c-.207.151-.369.371-.486.661-.116.289-.174.64-.174 1.052 0 .418.057.773.17 1.066.117.292.28.515.49.669.21.153.456.23.737.23.208 0 .394-.043.559-.128a1.08 1.08 0 0 0 .413-.371c.111-.165.183-.362.217-.592h1.713c-.028.5-.164.94-.409 1.321a2.465 2.465 0 0 1-1.001.886c-.426.213-.93.32-1.513.32Zm6.937 0c-.674 0-1.253-.137-1.739-.409a2.8 2.8 0 0 1-1.116-1.168c-.262-.506-.392-1.104-.392-1.794 0-.673.13-1.264.392-1.773a2.906 2.906 0 0 1 1.103-1.189c.478-.284 1.037-.426 1.679-.426.432 0 .834.07 1.206.209.375.136.702.342.98.618.282.276.5.622.657 1.04.156.415.234.9.234 1.457v.499h-5.527v-1.125h3.818c0-.262-.057-.493-.17-.695a1.229 1.229 0 0 0-.473-.473 1.356 1.356 0 0 0-.695-.175c-.275 0-.52.064-.733.192-.21.125-.375.294-.494.507-.12.211-.181.445-.183.703v1.07c0 .324.059.604.179.84.122.235.294.417.515.545.222.128.485.192.789.192.201 0 .386-.029.553-.085.168-.057.312-.143.431-.256.119-.114.21-.253.273-.418l1.679.111c-.086.403-.26.756-.525 1.057a2.634 2.634 0 0 1-1.014.699c-.412.164-.888.247-1.427.247Zm6.469-.021c-.498 0-.948-.128-1.351-.384-.401-.259-.719-.638-.955-1.138-.233-.503-.349-1.119-.349-1.849 0-.75.12-1.374.362-1.871.241-.5.562-.874.963-1.121.403-.25.845-.375 1.325-.375.367 0 .672.063.916.188.248.122.446.275.597.46.153.182.27.361.349.537h.056v-3.281h1.811V130h-1.79v-1.048h-.077a2.304 2.304 0 0 1-.362.541 1.797 1.797 0 0 1-.601.439c-.244.116-.542.175-.894.175Zm.575-1.445c.292 0 .54-.08.741-.239.205-.162.361-.387.469-.677.111-.29.166-.63.166-1.019 0-.389-.054-.727-.162-1.014a1.463 1.463 0 0 0-.468-.665 1.197 1.197 0 0 0-.746-.234c-.298 0-.55.081-.754.243-.205.162-.36.386-.465.673a2.893 2.893 0 0 0-.158.997c0 .381.053.718.158 1.01.108.29.263.517.465.682.204.162.456.243.754.243Zm8.693 1.338h-1.977l3.013-8.727h2.378l3.008 8.727h-1.977l-2.186-6.733h-.068L563.731 130Zm-.123-3.43h4.67v1.44h-4.67v-1.44Zm10.501-3.115v1.363h-3.942v-1.363h3.942Zm-3.047-1.569h1.815v6.103a.83.83 0 0 0 .077.392.416.416 0 0 0 .213.191.88.88 0 0 0 .324.056c.085 0 .17-.007.256-.021.085-.018.15-.03.196-.039l.285 1.351a5.451 5.451 0 0 1-.383.098c-.165.04-.365.064-.601.072-.438.018-.821-.041-1.151-.174a1.61 1.61 0 0 1-.763-.622c-.181-.282-.271-.637-.268-1.066v-6.341Zm7.579 1.569v1.363h-3.942v-1.363h3.942Zm-3.047-1.569h1.815v6.103a.83.83 0 0 0 .077.392.416.416 0 0 0 .213.191.88.88 0 0 0 .324.056c.085 0 .17-.007.256-.021.085-.018.15-.03.196-.039l.285 1.351a5.451 5.451 0 0 1-.383.098c-.165.04-.365.064-.601.072-.438.018-.821-.041-1.151-.174a1.614 1.614 0 0 1-.763-.622c-.181-.282-.271-.637-.268-1.066v-6.341Zm5.964 8.238c-.418 0-.79-.073-1.117-.218a1.793 1.793 0 0 1-.775-.652c-.188-.29-.281-.65-.281-1.082 0-.364.066-.669.2-.916.133-.247.315-.446.545-.597.23-.15.492-.264.784-.341.296-.077.606-.13.929-.162.381-.04.688-.076.921-.111.233-.036.402-.09.507-.161a.359.359 0 0 0 .158-.316v-.025c0-.27-.086-.479-.256-.627-.168-.148-.406-.221-.716-.221-.327 0-.587.072-.78.217a.997.997 0 0 0-.383.537l-1.679-.137c.085-.397.253-.741.503-1.031.25-.292.572-.517.967-.673.398-.159.858-.239 1.381-.239.363 0 .711.043 1.044.128.335.085.632.217.89.396.262.179.468.41.618.691.151.278.226.612.226 1.001V130h-1.722v-.908h-.051a1.855 1.855 0 0 1-.422.542 1.949 1.949 0 0 1-.635.362 2.626 2.626 0 0 1-.856.128Zm.52-1.253c.267 0 .503-.053.707-.158.205-.108.365-.253.482-.435a1.12 1.12 0 0 0 .174-.617v-.695a.95.95 0 0 1-.234.102 3.844 3.844 0 0 1-.328.081c-.122.023-.244.044-.367.064l-.332.047a2.24 2.24 0 0 0-.558.149.896.896 0 0 0-.371.277.676.676 0 0 0-.132.426c0 .247.089.436.268.567.182.128.412.192.691.192Zm7.4 1.257c-.671 0-1.247-.142-1.73-.426a2.875 2.875 0 0 1-1.108-1.193c-.256-.509-.384-1.094-.384-1.756 0-.671.129-1.259.388-1.764a2.875 2.875 0 0 1 1.112-1.189c.48-.287 1.051-.431 1.713-.431.571 0 1.071.104 1.5.311.429.208.769.499 1.019.874.25.375.387.815.413 1.321h-1.713c-.048-.327-.176-.589-.384-.788-.204-.202-.473-.303-.805-.303a1.22 1.22 0 0 0-.737.23c-.208.151-.37.371-.486.661-.116.289-.175.64-.175 1.052 0 .418.057.773.171 1.066.116.292.28.515.49.669.21.153.456.23.737.23a1.2 1.2 0 0 0 .558-.128c.168-.085.306-.209.414-.371a1.43 1.43 0 0 0 .217-.592h1.713c-.028.5-.165.94-.409 1.321a2.468 2.468 0 0 1-1.002.886c-.426.213-.93.32-1.512.32Zm5.598-2.012.004-2.177h.265l2.096-2.484h2.084l-2.817 3.289h-.43l-1.202 1.372ZM593.431 130v-8.727h1.816V130h-1.816Zm4.091 0-1.926-2.851 1.21-1.283 2.843 4.134h-2.127Z"/></svg>