<svg xmlns="http://www.w3.org/2000/svg" width="884" height="242" fill="none"><path fill="#1E1E1E" d="M167 64a2 2 0 1 0 0 4v-4Zm12 10.88c0 1.105 1.353 1.886 2.309 1.334l15.382-8.88c.956-.553.956-2.115 0-2.667l-15.382-8.88c-.956-.553-2.309.228-2.309 1.333v17.76ZM167 68h14v-4h-14v4Z"/><rect width="129" height="79.522" x="222" y="32" fill="#FFC7C2" rx="6"/><rect width="129" height="79.522" x="222" y="32" stroke="#1E1E1E" stroke-linecap="round" stroke-width="4" rx="6"/><path fill="#1E1E1E" d="M254.073 66.182h-2.637l4.017-11.637h3.171l4.011 11.637h-2.636l-2.915-8.977h-.091l-2.92 8.977Zm-.165-4.574h6.227v1.92h-6.227v-1.92Zm14.001-4.153v1.818h-5.255v-1.818h5.255Zm-4.062-2.091h2.42V63.5c0 .224.034.398.103.523a.56.56 0 0 0 .284.255c.125.05.269.074.431.074.114 0 .228-.01.341-.028l.262-.051.38 1.8a6.695 6.695 0 0 1-.511.132 4.11 4.11 0 0 1-.801.096c-.583.023-1.095-.055-1.534-.233a2.137 2.137 0 0 1-1.017-.83c-.243-.374-.362-.848-.358-1.42v-8.454Zm10.105 2.09v1.819h-5.256v-1.818h5.256Zm-4.062-2.09h2.42V63.5c0 .224.034.398.102.523a.564.564 0 0 0 .284.255c.125.05.269.074.432.074.114 0 .227-.01.341-.028l.261-.051.381 1.8a6.822 6.822 0 0 1-.511.132 4.11 4.11 0 0 1-.801.096c-.584.023-1.095-.055-1.534-.233a2.137 2.137 0 0 1-1.017-.83c-.243-.374-.362-.848-.358-1.42v-8.454Zm7.951 10.983c-.556 0-1.053-.097-1.488-.29a2.39 2.39 0 0 1-1.034-.87c-.25-.386-.375-.867-.375-1.443 0-.484.089-.892.267-1.221.178-.33.42-.595.727-.796a3.53 3.53 0 0 1 1.045-.454 7.972 7.972 0 0 1 1.239-.216c.508-.053.917-.102 1.227-.148.311-.05.536-.121.677-.216a.474.474 0 0 0 .21-.42v-.034c0-.36-.114-.639-.341-.835-.224-.198-.542-.296-.955-.296-.435 0-.782.097-1.039.29a1.33 1.33 0 0 0-.512.716l-2.238-.182c.113-.53.337-.989.67-1.375.333-.39.763-.69 1.29-.898.53-.212 1.144-.318 1.841-.318.484 0 .949.057 1.392.17.447.114.842.29 1.187.529.349.239.623.545.824.92.201.371.301.817.301 1.335v5.887h-2.295v-1.21h-.068a2.476 2.476 0 0 1-.563.721 2.601 2.601 0 0 1-.847.483c-.329.114-.71.17-1.142.17Zm.694-1.67c.356 0 .67-.07.943-.211.273-.144.487-.337.642-.58.155-.242.233-.517.233-.823v-.927a1.28 1.28 0 0 1-.313.137 5.644 5.644 0 0 1-.437.108c-.163.03-.326.059-.489.085l-.443.063a2.989 2.989 0 0 0-.744.198 1.193 1.193 0 0 0-.495.37.902.902 0 0 0-.176.568c0 .33.12.581.358.756.243.17.549.255.921.255Zm9.866 1.675c-.894 0-1.663-.19-2.307-.568a3.843 3.843 0 0 1-1.477-1.59c-.341-.679-.511-1.46-.511-2.342 0-.894.172-1.678.517-2.352a3.839 3.839 0 0 1 1.483-1.585c.64-.383 1.401-.574 2.284-.574.761 0 1.428.138 2 .415a3.348 3.348 0 0 1 1.358 1.164c.333.5.517 1.088.551 1.762h-2.284c-.065-.436-.235-.786-.512-1.051-.272-.27-.63-.404-1.073-.404-.375 0-.703.103-.983.307-.277.2-.493.495-.648.88-.155.387-.233.855-.233 1.404 0 .557.076 1.03.227 1.42.156.39.373.688.654.893.28.204.608.307.983.307.276 0 .524-.057.744-.17.223-.115.407-.28.551-.495.148-.22.244-.483.29-.79h2.284c-.038.667-.22 1.254-.546 1.761a3.29 3.29 0 0 1-1.335 1.182c-.568.284-1.24.426-2.017.426Zm7.465-2.682.006-2.903h.352l2.795-3.312h2.779l-3.756 4.386h-.574l-1.602 1.83Zm-2.193 2.512V54.545h2.42v11.637h-2.42Zm5.454 0-2.568-3.801 1.614-1.71 3.789 5.51h-2.835Zm7.3.17c-.898 0-1.67-.181-2.318-.545a3.74 3.74 0 0 1-1.489-1.557c-.348-.674-.522-1.471-.522-2.392 0-.898.174-1.686.522-2.364a3.865 3.865 0 0 1 1.472-1.585c.636-.379 1.382-.568 2.238-.568.576 0 1.112.093 1.608.278.5.182.936.457 1.307.824.375.368.667.83.875 1.387.209.553.313 1.2.313 1.943v.665h-7.37v-1.5h5.091a1.85 1.85 0 0 0-.227-.927 1.626 1.626 0 0 0-.631-.63 1.796 1.796 0 0 0-.926-.233c-.367 0-.693.085-.977.255-.28.167-.5.392-.659.677-.159.28-.241.592-.244.937v1.426c0 .432.079.805.238 1.12.163.314.392.556.688.727.295.17.646.255 1.051.255.269 0 .515-.037.738-.113a1.48 1.48 0 0 0 .938-.898l2.239.148a3.063 3.063 0 0 1-.699 1.409c-.349.398-.8.708-1.353.932-.549.22-1.183.33-1.903.33Zm5.409-.17v-8.727h2.347v1.522h.091c.159-.541.426-.95.801-1.227.375-.28.807-.42 1.295-.42a3.66 3.66 0 0 1 .762.085v2.148a3.17 3.17 0 0 0-.472-.091 4.219 4.219 0 0 0-.551-.04 1.94 1.94 0 0 0-.955.233 1.72 1.72 0 0 0-.659.636 1.838 1.838 0 0 0-.238.943v4.938h-2.421Zm-41.047 24V78.546h2.46v9.607h4.989v2.029h-7.449Zm8.902 0V78.546h2.46v9.607h4.989v2.029h-7.449Zm8.902-11.636h3.034l3.205 7.818h.136l3.205-7.819h3.034v11.637h-2.387v-7.574h-.096l-3.012 7.517h-1.625l-3.011-7.545h-.097v7.602h-2.386V78.546Z"/><path fill="#000" fill-opacity=".8" d="M44.1 72.182V60.545h1.756v5.057h5.8v-5.057h1.762v11.637h-1.761v-5.074h-5.801v5.074H44.1Zm15.239.176c-.818 0-1.532-.188-2.142-.563a3.793 3.793 0 0 1-1.42-1.573c-.338-.675-.506-1.462-.506-2.364 0-.905.168-1.697.505-2.375a3.785 3.785 0 0 1 1.42-1.58c.61-.374 1.325-.562 2.143-.562.818 0 1.532.188 2.142.563.61.374 1.083.901 1.42 1.579.337.678.506 1.47.506 2.375 0 .901-.169 1.69-.506 2.364a3.793 3.793 0 0 1-1.42 1.574c-.61.374-1.324.562-2.142.562Zm.005-1.426c.53 0 .97-.14 1.319-.42.348-.28.606-.654.772-1.12.17-.466.256-.98.256-1.54 0-.556-.085-1.068-.256-1.534a2.5 2.5 0 0 0-.772-1.13c-.349-.285-.788-.427-1.319-.427-.534 0-.977.142-1.33.427a2.54 2.54 0 0 0-.778 1.13c-.166.466-.25.978-.25 1.534 0 .56.084 1.074.25 1.54.171.466.43.84.779 1.12.352.28.795.42 1.33.42Zm9.857-7.477v1.363h-4.767v-1.363h4.767Zm-3.488-2.091h1.698v8.255c0 .33.05.578.148.745a.77.77 0 0 0 .38.335c.16.057.332.085.518.085.136 0 .256-.01.358-.028.102-.02.182-.034.238-.046l.307 1.404a2.847 2.847 0 0 1-.42.113c-.182.042-.41.065-.682.069a2.99 2.99 0 0 1-1.25-.24 2.144 2.144 0 0 1-.938-.772c-.238-.348-.357-.786-.357-1.312v-8.608Zm7.084 10.818-2.569-8.727h1.756l1.71 6.409h.085l1.716-6.41h1.756l1.705 6.381h.085l1.699-6.38h1.755l-2.562 8.727H78.2l-1.773-6.301h-.13l-1.773 6.3h-1.728Zm11.135 0v-8.727h1.698v8.727h-1.698Zm.858-10.074a1.08 1.08 0 0 1-.762-.295.96.96 0 0 1-.312-.716.95.95 0 0 1 .312-.716c.212-.201.466-.301.761-.301.296 0 .548.1.756.3a.942.942 0 0 1 .318.717.953.953 0 0 1-.318.716 1.06 1.06 0 0 1-.755.295Zm2.95 10.074v-8.727h1.642v1.386h.09c.16-.47.44-.839.842-1.108.405-.273.863-.41 1.375-.41a7.242 7.242 0 0 1 .721.04v1.626a3.048 3.048 0 0 0-.363-.063 3.472 3.472 0 0 0-.523-.04c-.401 0-.76.086-1.074.256a1.9 1.9 0 0 0-1.011 1.71v5.33h-1.7Zm9.413.176c-.86 0-1.6-.184-2.221-.551a3.739 3.739 0 0 1-1.432-1.563c-.333-.674-.5-1.464-.5-2.369 0-.894.167-1.682.5-2.364a3.883 3.883 0 0 1 1.41-1.596c.605-.383 1.314-.574 2.124-.574.492 0 .97.081 1.432.244a3.47 3.47 0 0 1 1.244.767c.368.349.657.801.87 1.358.212.553.318 1.226.318 2.017v.603H93.96v-1.273h5.273c0-.447-.091-.843-.273-1.188a2.062 2.062 0 0 0-.767-.823c-.326-.201-.708-.302-1.147-.302-.478 0-.895.118-1.25.353a2.364 2.364 0 0 0-.819.909c-.19.371-.284.774-.284 1.21v.994c0 .584.103 1.08.307 1.489.208.409.498.722.87.937.37.213.804.319 1.3.319a2.7 2.7 0 0 0 .881-.137 1.9 1.9 0 0 0 .688-.42 1.84 1.84 0 0 0 .443-.688l1.608.29c-.129.474-.36.888-.693 1.244-.33.353-.745.627-1.245.824-.496.193-1.062.29-1.699.29Zm12.052.017a3.563 3.563 0 0 1-1.5-.307 2.531 2.531 0 0 1-1.063-.903c-.257-.394-.386-.877-.386-1.449 0-.492.095-.898.284-1.216.189-.318.445-.57.767-.756a4.006 4.006 0 0 1 1.08-.42c.397-.095.803-.167 1.216-.216l1.272-.148c.326-.041.563-.108.71-.199.148-.09.222-.238.222-.443v-.04c0-.496-.14-.88-.42-1.153-.277-.273-.69-.409-1.239-.409-.572 0-1.023.127-1.352.38-.326.25-.551.53-.676.836l-1.597-.364c.189-.53.466-.958.83-1.284.367-.33.789-.568 1.267-.716a4.944 4.944 0 0 1 1.505-.227c.349 0 .718.042 1.108.125.394.08.762.227 1.102.443.345.216.627.525.847.926.22.398.33.915.33 1.551v5.796h-1.659v-1.193h-.069c-.109.22-.274.435-.494.647-.22.213-.502.389-.847.529-.344.14-.757.21-1.238.21Zm.369-1.364c.47 0 .871-.092 1.205-.278a1.96 1.96 0 0 0 .767-.727c.178-.303.267-.627.267-.972V67.91c-.061.06-.178.118-.353.17-.17.05-.365.093-.585.131-.219.034-.433.067-.642.097-.208.026-.382.05-.523.068a4.27 4.27 0 0 0-.903.21c-.269.099-.485.24-.648.426-.159.182-.238.425-.238.728 0 .42.155.738.466.954.31.212.706.318 1.187.318Zm19.884-6.681h-1.773a2.717 2.717 0 0 0-.38-1 2.803 2.803 0 0 0-.682-.733 2.924 2.924 0 0 0-.904-.455 3.524 3.524 0 0 0-1.051-.153c-.67 0-1.271.168-1.801.505-.526.337-.943.832-1.25 1.483-.303.652-.455 1.447-.455 2.387 0 .947.152 1.746.455 2.397.307.652.725 1.144 1.256 1.478.53.333 1.127.5 1.789.5.368 0 .716-.05 1.046-.148.333-.102.634-.252.903-.449s.497-.437.682-.721c.19-.288.32-.618.392-.99l1.773.007a4.747 4.747 0 0 1-.551 1.58c-.269.476-.616.89-1.04 1.238-.42.344-.901.612-1.443.8a5.34 5.34 0 0 1-1.773.285c-1.007 0-1.905-.239-2.693-.716-.788-.481-1.409-1.168-1.864-2.062-.45-.894-.676-1.96-.676-3.2 0-1.242.227-2.308.682-3.198.455-.894 1.076-1.58 1.864-2.057.787-.481 1.683-.722 2.687-.722.618 0 1.193.09 1.727.267a4.557 4.557 0 0 1 1.449.773c.428.337.782.75 1.063 1.239a4.8 4.8 0 0 1 .568 1.665Zm4.328 8.045a3.563 3.563 0 0 1-1.5-.307 2.522 2.522 0 0 1-1.062-.903c-.258-.394-.387-.877-.387-1.449 0-.492.095-.898.284-1.216a2.1 2.1 0 0 1 .767-.756 4.006 4.006 0 0 1 1.08-.42 10.62 10.62 0 0 1 1.216-.216l1.273-.148c.325-.041.562-.108.71-.199.148-.09.221-.238.221-.443v-.04c0-.496-.14-.88-.42-1.153-.277-.273-.689-.409-1.239-.409-.572 0-1.022.127-1.352.38-.326.25-.551.53-.676.836l-1.597-.364c.19-.53.466-.958.83-1.284.367-.33.79-.568 1.267-.716a4.945 4.945 0 0 1 1.506-.227c.348 0 .717.042 1.108.125.394.08.761.227 1.102.443.345.216.627.525.846.926.22.398.33.915.33 1.551v5.796h-1.659v-1.193h-.068c-.11.22-.275.435-.495.647a2.61 2.61 0 0 1-.846.529c-.345.14-.758.21-1.239.21Zm.37-1.364c.469 0 .871-.092 1.204-.278.337-.186.593-.428.767-.727.178-.303.267-.627.267-.972V67.91c-.06.06-.178.118-.352.17-.171.05-.366.093-.585.131-.22.034-.434.067-.642.097-.209.026-.383.05-.523.068a4.21 4.21 0 0 0-.904.21c-.268.099-.484.24-.647.426-.159.182-.239.425-.239.728 0 .42.155.738.466.954.311.212.706.318 1.188.318Zm6.024 1.17v-8.726h1.642v1.386h.091c.159-.47.439-.839.841-1.108.405-.273.863-.41 1.375-.41a7.242 7.242 0 0 1 .721.04v1.626a3.033 3.033 0 0 0-.363-.063 3.485 3.485 0 0 0-.523-.04c-.402 0-.76.086-1.074.256a1.899 1.899 0 0 0-1.011 1.71v5.33h-1.699Z"/><path fill="#1E1E1E" d="M419.565 200.867a2 2 0 1 0 0-4v4ZM95.88 116.182c1.105 0 1.886-1.353 1.334-2.31l-8.88-15.38c-.553-.957-2.115-.957-2.667 0l-8.88 15.38c-.553.957.228 2.31 1.333 2.31h17.76Zm323.685 80.685H111v4h308.565v-4ZM89 174.867v-60.685h-4v60.685h4Zm22 22c-12.15 0-22-9.849-22-22h-4c0 14.36 11.64 26 26 26v-4Z"/><path fill="#000" fill-opacity=".8" d="M438.157 51.602a1.662 1.662 0 0 0-.75-1.25c-.44-.299-.993-.448-1.659-.448-.478 0-.89.075-1.239.227a1.907 1.907 0 0 0-.812.613c-.19.258-.285.551-.285.881 0 .277.065.515.194.716.132.2.305.37.517.506.216.132.447.244.693.335.246.087.483.159.71.216l1.136.295c.372.091.752.214 1.143.37.39.155.751.36 1.085.613.333.254.602.568.807.943.208.375.312.824.312 1.347 0 .66-.17 1.244-.511 1.756-.337.511-.828.914-1.472 1.21-.64.295-1.415.443-2.324.443-.871 0-1.625-.138-2.261-.415-.636-.276-1.135-.668-1.494-1.176-.36-.511-.559-1.117-.597-1.818h1.761c.034.42.171.77.409 1.051.243.277.552.483.927.62.378.132.793.198 1.244.198.496 0 .937-.077 1.324-.233.39-.159.697-.378.92-.659.224-.284.335-.615.335-.994 0-.345-.098-.627-.295-.847a2.176 2.176 0 0 0-.79-.545 7.677 7.677 0 0 0-1.119-.38l-1.375-.376c-.932-.254-1.671-.627-2.216-1.12-.542-.491-.813-1.143-.813-1.954 0-.67.182-1.255.546-1.755.364-.5.856-.889 1.477-1.165.621-.28 1.322-.42 2.102-.42.788 0 1.483.138 2.086.414.606.277 1.083.657 1.432 1.142.348.481.53 1.034.545 1.66h-1.693Zm7.314 8.756c-.818 0-1.532-.188-2.142-.563a3.792 3.792 0 0 1-1.421-1.573c-.337-.675-.505-1.462-.505-2.364 0-.905.168-1.697.505-2.375a3.785 3.785 0 0 1 1.421-1.58c.61-.374 1.324-.562 2.142-.562.818 0 1.532.188 2.142.563.61.374 1.083.901 1.42 1.579.337.678.506 1.47.506 2.375 0 .902-.169 1.69-.506 2.364a3.79 3.79 0 0 1-1.42 1.573c-.61.375-1.324.563-2.142.563Zm.006-1.426c.53 0 .969-.14 1.318-.42.348-.28.606-.654.772-1.12a4.44 4.44 0 0 0 .256-1.54c0-.556-.085-1.068-.256-1.534a2.497 2.497 0 0 0-.772-1.13c-.349-.285-.788-.427-1.318-.427-.535 0-.978.142-1.33.427a2.539 2.539 0 0 0-.778 1.13c-.167.466-.25.977-.25 1.534 0 .56.083 1.074.25 1.54.17.466.43.84.778 1.12.352.28.795.42 1.33.42Zm5.782 1.25v-8.727h1.642v1.386h.091c.159-.47.44-.839.841-1.108a2.41 2.41 0 0 1 1.375-.41 7.242 7.242 0 0 1 .722.04v1.626a3.06 3.06 0 0 0-.364-.063 3.466 3.466 0 0 0-.523-.04c-.401 0-.759.086-1.073.256a1.899 1.899 0 0 0-1.012 1.71v5.33h-1.699Zm5.965 0v-8.727h1.642v1.386h.091c.159-.47.439-.839.841-1.108.405-.273.863-.41 1.375-.41a7.242 7.242 0 0 1 .721.04v1.626a3.033 3.033 0 0 0-.363-.063 3.475 3.475 0 0 0-.523-.04 2.22 2.22 0 0 0-1.074.256 1.896 1.896 0 0 0-1.011 1.71v5.33h-1.699Zm7.304 3.273a3.51 3.51 0 0 1-.693-.063 2.182 2.182 0 0 1-.466-.125l.409-1.392c.311.083.587.12.83.108a.995.995 0 0 0 .642-.273c.189-.17.356-.449.5-.835l.21-.58-3.193-8.84h1.818l2.21 6.772h.091l2.21-6.772h1.824l-3.596 9.892a3.946 3.946 0 0 1-.637 1.153 2.466 2.466 0 0 1-.92.716c-.356.16-.769.239-1.239.239Zm9.476-4.864-.085.62c-.057.454-.154.927-.29 1.42a21.46 21.46 0 0 1-.415 1.38 36.6 36.6 0 0 1-.346 1.012h-1.205c.049-.235.118-.553.205-.955.087-.398.172-.843.255-1.335.084-.492.146-.994.188-1.506l.057-.636h1.636Zm7.986-10.046v11.637h-1.756V48.545h1.756Zm9.979 11.813c-.845 0-1.572-.191-2.182-.574a3.793 3.793 0 0 1-1.397-1.596c-.326-.678-.489-1.455-.489-2.33 0-.886.167-1.668.5-2.347a3.828 3.828 0 0 1 1.409-1.596c.606-.383 1.32-.574 2.142-.574.663 0 1.254.123 1.773.37.519.242.937.583 1.255 1.022.322.44.514.953.574 1.54h-1.653a1.98 1.98 0 0 0-.625-1.057c-.322-.296-.754-.443-1.296-.443a2.11 2.11 0 0 0-1.244.375c-.352.246-.627.598-.824 1.057-.197.454-.295.992-.295 1.613 0 .637.096 1.186.29 1.648.193.462.466.82.818 1.074.356.254.774.38 1.255.38.322 0 .614-.058.875-.176a1.78 1.78 0 0 0 .665-.517 1.94 1.94 0 0 0 .381-.806h1.653a3.204 3.204 0 0 1-.551 1.51 3.173 3.173 0 0 1-1.233 1.046c-.511.254-1.111.381-1.801.381Zm7.766.017a3.563 3.563 0 0 1-1.5-.307 2.531 2.531 0 0 1-1.063-.903c-.257-.394-.386-.877-.386-1.449 0-.492.095-.898.284-1.216a2.1 2.1 0 0 1 .767-.756 4.006 4.006 0 0 1 1.08-.42c.397-.095.803-.167 1.216-.216l1.272-.148c.326-.041.563-.108.711-.199.147-.09.221-.238.221-.443v-.04c0-.496-.14-.88-.42-1.153-.277-.273-.69-.409-1.239-.409-.572 0-1.023.127-1.352.38-.326.25-.551.53-.676.836l-1.597-.364c.189-.53.466-.958.83-1.284.367-.33.789-.568 1.267-.716a4.944 4.944 0 0 1 1.505-.227c.349 0 .718.042 1.108.125.394.08.762.227 1.103.443.344.216.626.525.846.926.22.398.33.915.33 1.551v5.796h-1.659v-1.193h-.069c-.109.22-.274.435-.494.647-.22.213-.502.389-.846.529-.345.14-.758.21-1.239.21Zm.369-1.364c.47 0 .871-.092 1.205-.278.337-.186.593-.428.767-.727.178-.303.267-.627.267-.972V55.91c-.061.06-.178.118-.352.17a5.5 5.5 0 0 1-.586.131c-.219.034-.433.067-.642.097-.208.026-.382.05-.522.068a4.21 4.21 0 0 0-.904.21c-.269.099-.485.24-.648.426-.159.182-.238.425-.238.728 0 .42.155.738.466.954.31.212.706.318 1.187.318Zm7.723-4.01v5.18h-1.699v-8.726h1.631v1.42h.108c.201-.462.515-.833.943-1.114.432-.28.976-.42 1.631-.42.595 0 1.116.125 1.562.375.447.246.794.614 1.04 1.102.246.489.37 1.093.37 1.813v5.55h-1.699v-5.346c0-.632-.165-1.127-.495-1.483-.329-.36-.782-.54-1.358-.54a2.13 2.13 0 0 0-1.051.256c-.303.17-.543.42-.721.75-.175.326-.262.72-.262 1.182Zm9.387 0v5.18h-1.699v-8.726h1.631v1.42h.108c.2-.462.515-.833.943-1.114.432-.28.975-.42 1.63-.42.595 0 1.116.125 1.563.375.447.246.794.614 1.04 1.102.246.489.369 1.093.369 1.813v5.55H521.1v-5.346c0-.632-.165-1.127-.494-1.483-.33-.36-.782-.54-1.358-.54-.394 0-.744.086-1.051.256a1.84 1.84 0 0 0-.722.75c-.174.326-.261.72-.261 1.182Zm11.364 5.357c-.819 0-1.533-.188-2.142-.563a3.792 3.792 0 0 1-1.421-1.573c-.337-.675-.506-1.462-.506-2.364 0-.905.169-1.697.506-2.375a3.785 3.785 0 0 1 1.421-1.58c.609-.374 1.323-.562 2.142-.562.818 0 1.532.188 2.142.563.61.374 1.083.901 1.42 1.579.337.678.506 1.47.506 2.375 0 .902-.169 1.69-.506 2.364a3.79 3.79 0 0 1-1.42 1.573c-.61.375-1.324.563-2.142.563Zm.005-1.426c.531 0 .97-.14 1.318-.42.349-.28.607-.654.773-1.12a4.44 4.44 0 0 0 .256-1.54c0-.556-.085-1.068-.256-1.534a2.49 2.49 0 0 0-.773-1.13c-.348-.285-.787-.427-1.318-.427-.534 0-.977.142-1.329.427a2.54 2.54 0 0 0-.779 1.13c-.166.466-.25.977-.25 1.534 0 .56.084 1.074.25 1.54.171.466.43.84.779 1.12.352.28.795.42 1.329.42Zm9.857-7.477v1.363h-4.767v-1.363h4.767Zm-3.489-2.091h1.699v8.255c0 .33.049.578.148.745a.766.766 0 0 0 .381.335c.159.057.331.085.517.085.136 0 .255-.01.358-.028l.238-.046.307 1.404a2.848 2.848 0 0 1-.42.113 3.327 3.327 0 0 1-.682.069 2.989 2.989 0 0 1-1.25-.24 2.145 2.145 0 0 1-.938-.772c-.238-.348-.358-.786-.358-1.312v-8.608Zm9.251 14.09v-12h1.659v1.415h.142a4.66 4.66 0 0 1 .426-.63 2.4 2.4 0 0 1 .773-.625c.329-.182.765-.273 1.306-.273.705 0 1.334.178 1.887.534.553.356.987.87 1.301 1.54.318.67.477 1.477.477 2.42 0 .944-.157 1.752-.471 2.426-.315.67-.747 1.188-1.296 1.552-.549.36-1.176.54-1.881.54-.53 0-.964-.09-1.301-.268a2.473 2.473 0 0 1-.784-.625 4.731 4.731 0 0 1-.437-.636h-.103v4.63h-1.698Zm1.664-7.636c0 .614.089 1.152.267 1.614.178.462.436.824.773 1.085.337.258.75.386 1.239.386.507 0 .932-.134 1.273-.403.34-.273.598-.642.772-1.108.178-.466.267-.99.267-1.574 0-.575-.087-1.093-.261-1.55-.171-.46-.428-.821-.773-1.086-.341-.265-.767-.398-1.278-.398-.493 0-.909.127-1.25.38-.337.255-.593.609-.767 1.063-.174.455-.262.985-.262 1.591Zm11.796 4.54c-.86 0-1.6-.184-2.222-.551a3.739 3.739 0 0 1-1.431-1.563c-.334-.674-.5-1.464-.5-2.369 0-.894.166-1.682.5-2.364a3.877 3.877 0 0 1 1.409-1.596c.606-.383 1.314-.574 2.125-.574.492 0 .969.081 1.431.244a3.47 3.47 0 0 1 1.245.767c.367.349.657.802.869 1.358.212.553.318 1.226.318 2.017v.603h-6.937v-1.273h5.273c0-.447-.091-.843-.273-1.188a2.067 2.067 0 0 0-.767-.824c-.326-.2-.709-.3-1.148-.3-.477 0-.894.117-1.25.352a2.364 2.364 0 0 0-.818.909c-.19.371-.284.774-.284 1.21v.994c0 .584.102 1.08.307 1.489.208.409.498.721.869.937.371.213.805.319 1.301.319a2.7 2.7 0 0 0 .881-.137 1.825 1.825 0 0 0 1.13-1.108l1.608.29c-.128.474-.36.888-.693 1.244a3.352 3.352 0 0 1-1.244.824c-.496.193-1.063.29-1.699.29Zm5.453-.176v-8.727h1.642v1.386h.091c.159-.47.44-.839.841-1.108.405-.273.864-.41 1.375-.41a7.242 7.242 0 0 1 .722.04v1.626a3.06 3.06 0 0 0-.364-.063 3.466 3.466 0 0 0-.523-.04 2.22 2.22 0 0 0-1.074.256 1.903 1.903 0 0 0-1.011 1.71v5.33h-1.699Zm10.634-8.727v1.363h-4.932v-1.363h4.932Zm-3.58 8.727v-9.739c0-.545.12-.998.358-1.358a2.2 2.2 0 0 1 .949-.812A3.027 3.027 0 0 1 572.76 48c.341 0 .633.029.875.085.243.053.423.103.54.148l-.398 1.375a7.935 7.935 0 0 0-.307-.08 1.743 1.743 0 0 0-.454-.05c-.413 0-.708.102-.886.306-.175.205-.262.5-.262.886v9.512h-1.699Zm8.489.176c-.818 0-1.532-.188-2.142-.563a3.79 3.79 0 0 1-1.42-1.573c-.338-.675-.506-1.462-.506-2.364 0-.905.168-1.697.506-2.375a3.783 3.783 0 0 1 1.42-1.58c.61-.374 1.324-.562 2.142-.562.818 0 1.532.188 2.142.563.61.374 1.083.901 1.421 1.579.337.678.505 1.47.505 2.375 0 .902-.168 1.69-.505 2.364a3.8 3.8 0 0 1-1.421 1.573c-.61.375-1.324.563-2.142.563Zm.006-1.426c.53 0 .969-.14 1.318-.42a2.47 2.47 0 0 0 .773-1.12c.17-.466.255-.98.255-1.54 0-.556-.085-1.068-.255-1.534a2.506 2.506 0 0 0-.773-1.13c-.349-.285-.788-.427-1.318-.427-.534 0-.977.142-1.33.427a2.539 2.539 0 0 0-.778 1.13c-.167.466-.25.977-.25 1.534 0 .56.083 1.074.25 1.54.17.466.43.84.778 1.12.353.28.796.42 1.33.42Zm5.783 1.25v-8.727h1.642v1.386h.091a2.11 2.11 0 0 1 .84-1.108 2.41 2.41 0 0 1 1.375-.41 7.179 7.179 0 0 1 .722.04v1.626a3.022 3.022 0 0 0-.364-.063 3.462 3.462 0 0 0-.522-.04c-.402 0-.76.086-1.074.256a1.899 1.899 0 0 0-1.012 1.71v5.33h-1.698Zm5.964 0v-8.727h1.631v1.42h.108c.182-.481.479-.856.892-1.125.413-.273.907-.409 1.483-.409.583 0 1.072.136 1.466.41.398.272.691.647.88 1.124h.091c.209-.466.54-.837.995-1.114.454-.28.996-.42 1.625-.42.791 0 1.437.248 1.937.744.504.496.756 1.245.756 2.245v5.852h-1.699v-5.693c0-.591-.161-1.02-.483-1.284a1.756 1.756 0 0 0-1.153-.398c-.553 0-.983.17-1.29.511-.307.337-.46.771-.46 1.301v5.563h-1.694V54.38c0-.474-.147-.854-.443-1.142-.295-.288-.68-.432-1.153-.432-.322 0-.619.085-.892.256a1.88 1.88 0 0 0-.654.698 2.15 2.15 0 0 0-.244 1.04v5.38h-1.699ZM478.387 75.455v1.363h-4.767v-1.363h4.767Zm-3.489-2.091h1.699v8.255c0 .33.05.578.148.745a.766.766 0 0 0 .381.335c.159.057.331.085.517.085.136 0 .255-.01.358-.028l.238-.046.307 1.404a2.848 2.848 0 0 1-.42.113 3.327 3.327 0 0 1-.682.069 2.989 2.989 0 0 1-1.25-.24 2.145 2.145 0 0 1-.938-.772c-.238-.348-.358-.786-.358-1.312v-8.608ZM481.977 79v5.182h-1.699V72.546h1.676v4.33h.108c.204-.47.517-.844.937-1.12.421-.277.97-.415 1.648-.415.599 0 1.121.123 1.568.37.451.246.8.613 1.046 1.102.25.484.375 1.09.375 1.818v5.55h-1.699v-5.346c0-.64-.165-1.136-.494-1.488-.33-.356-.788-.534-1.375-.534a2.25 2.25 0 0 0-1.08.255 1.84 1.84 0 0 0-.744.75c-.178.326-.267.72-.267 1.182Zm10.29 5.375a3.563 3.563 0 0 1-1.5-.307 2.525 2.525 0 0 1-1.063-.903c-.258-.394-.386-.877-.386-1.449 0-.492.094-.898.284-1.216.189-.318.445-.57.767-.756a4.013 4.013 0 0 1 1.079-.42 10.62 10.62 0 0 1 1.216-.216l1.273-.148c.326-.041.563-.108.71-.199.148-.09.222-.238.222-.443v-.04c0-.496-.14-.88-.421-1.153-.276-.273-.689-.409-1.238-.409-.572 0-1.023.127-1.353.38-.325.25-.551.53-.676.836l-1.596-.364c.189-.53.466-.958.829-1.284.368-.33.79-.568 1.267-.716a4.97 4.97 0 0 1 1.506-.227c.349 0 .718.042 1.108.125.394.08.761.227 1.102.443.345.216.627.525.847.926.22.398.329.915.329 1.551v5.796h-1.659v-1.193h-.068c-.11.22-.275.435-.494.647-.22.213-.502.389-.847.529-.344.14-.757.21-1.238.21Zm.369-1.364c.47 0 .871-.092 1.204-.278.338-.186.593-.428.767-.727.179-.303.268-.627.268-.972V79.91c-.061.06-.179.118-.353.17-.17.05-.365.093-.585.131-.22.034-.434.067-.642.097-.208.026-.383.05-.523.068a4.27 4.27 0 0 0-.903.21c-.269.099-.485.24-.648.426-.159.182-.239.425-.239.728 0 .42.156.738.466.954.311.212.707.318 1.188.318Zm10.098-7.556v1.363h-4.767v-1.363h4.767Zm-3.489-2.091h1.699v8.255c0 .33.05.578.148.745a.766.766 0 0 0 .381.335c.159.057.331.085.517.085.136 0 .255-.01.358-.028l.238-.046.307 1.404a2.848 2.848 0 0 1-.42.113 3.327 3.327 0 0 1-.682.069 2.989 2.989 0 0 1-1.25-.24 2.145 2.145 0 0 1-.938-.772c-.238-.348-.358-.786-.358-1.312v-8.608Zm9.251 10.818v-8.727h1.642v1.386h.091c.159-.47.439-.839.841-1.108.405-.273.863-.41 1.375-.41a7.242 7.242 0 0 1 .721.04v1.626a3.022 3.022 0 0 0-.364-.063 3.462 3.462 0 0 0-.522-.04c-.402 0-.76.086-1.074.256a1.899 1.899 0 0 0-1.011 1.71v5.33h-1.699Zm9.413.176c-.86 0-1.6-.184-2.221-.551a3.735 3.735 0 0 1-1.432-1.563c-.334-.674-.5-1.464-.5-2.369 0-.894.166-1.682.5-2.364a3.884 3.884 0 0 1 1.409-1.596c.606-.383 1.314-.574 2.125-.574.492 0 .97.081 1.432.244.462.163.877.419 1.244.767.367.349.657.801.869 1.358.212.553.318 1.226.318 2.017v.603h-6.937v-1.273h5.273c0-.447-.091-.843-.273-1.188a2.067 2.067 0 0 0-.767-.823c-.326-.201-.708-.302-1.148-.302-.477 0-.894.118-1.25.353a2.364 2.364 0 0 0-.818.909 2.63 2.63 0 0 0-.284 1.21v.994c0 .584.102 1.08.307 1.489.208.409.498.722.869.937.371.213.805.319 1.301.319a2.7 2.7 0 0 0 .881-.137 1.827 1.827 0 0 0 1.131-1.108l1.608.29c-.129.474-.36.888-.694 1.244a3.352 3.352 0 0 1-1.244.824c-.496.193-1.062.29-1.699.29Zm11.345 3.097v-4.631h-.102c-.102.186-.25.398-.443.636a2.462 2.462 0 0 1-.784.625c-.333.178-.765.267-1.296.267-.704 0-1.333-.18-1.886-.54-.549-.363-.981-.88-1.295-1.55-.311-.675-.466-1.484-.466-2.427 0-.943.157-1.75.471-2.42.319-.67.754-1.184 1.307-1.54a3.399 3.399 0 0 1 1.881-.534c.541 0 .977.09 1.307.273.333.178.591.386.772.625.186.238.33.449.432.63h.142v-1.414h1.659v12h-1.699Zm-2.25-4.552c.489 0 .902-.128 1.239-.386.341-.261.599-.623.773-1.085.178-.462.267-1 .267-1.614 0-.606-.087-1.136-.261-1.59-.175-.455-.43-.81-.768-1.063-.337-.254-.753-.38-1.25-.38-.511 0-.937.132-1.278.397-.341.265-.598.627-.773 1.085-.17.458-.255.976-.255 1.551 0 .584.087 1.108.261 1.574.174.466.432.835.773 1.108.344.269.769.403 1.272.403Zm11.586-2.34v-5.108h1.704v8.727h-1.67V82.67h-.091a2.727 2.727 0 0 1-.966 1.164c-.439.307-.987.46-1.642.46-.561 0-1.057-.123-1.489-.369-.428-.25-.765-.62-1.011-1.108-.242-.488-.364-1.093-.364-1.812v-5.551h1.699V80.8c0 .595.165 1.068.495 1.42.329.353.757.53 1.284.53.318 0 .634-.08.949-.24a2 2 0 0 0 .789-.721c.212-.322.317-.731.313-1.227Zm7.572 3.795c-.859 0-1.6-.184-2.221-.551a3.735 3.735 0 0 1-1.432-1.563c-.333-.674-.5-1.464-.5-2.369 0-.894.167-1.682.5-2.364a3.884 3.884 0 0 1 1.409-1.596c.606-.383 1.314-.574 2.125-.574.493 0 .97.081 1.432.244.462.163.877.419 1.244.767.368.349.657.801.87 1.358.212.553.318 1.226.318 2.017v.603h-6.938v-1.273h5.273c0-.447-.091-.843-.273-1.188a2.06 2.06 0 0 0-.767-.823c-.326-.201-.708-.302-1.148-.302a2.22 2.22 0 0 0-1.25.353 2.364 2.364 0 0 0-.818.909 2.63 2.63 0 0 0-.284 1.21v.994c0 .584.102 1.08.307 1.489.208.409.498.722.869.937.372.213.805.319 1.301.319a2.7 2.7 0 0 0 .881-.137 1.91 1.91 0 0 0 .688-.42c.193-.186.341-.415.443-.688l1.608.29c-.129.474-.36.888-.693 1.244-.33.353-.745.627-1.245.824-.496.193-1.062.29-1.699.29Zm11.993-6.773-1.539.273a1.842 1.842 0 0 0-.307-.563 1.524 1.524 0 0 0-.557-.437c-.235-.114-.528-.17-.881-.17-.481 0-.882.108-1.204.323-.322.213-.483.487-.483.824 0 .292.108.527.324.705.216.178.564.324 1.045.437l1.387.319c.803.185 1.401.471 1.795.857.394.387.591.889.591 1.506 0 .523-.152.989-.455 1.398-.299.405-.717.723-1.255.954-.534.232-1.154.347-1.858.347-.978 0-1.775-.208-2.392-.625-.618-.42-.997-1.017-1.137-1.79l1.642-.25c.103.428.313.752.631.972.318.216.733.324 1.244.324.557 0 1.002-.116 1.336-.347.333-.235.5-.52.5-.858a.893.893 0 0 0-.307-.687c-.201-.186-.51-.326-.926-.42l-1.478-.325c-.814-.185-1.416-.48-1.806-.886-.387-.405-.58-.919-.58-1.54a2.2 2.2 0 0 1 .432-1.352c.288-.386.685-.688 1.193-.903.508-.22 1.089-.33 1.744-.33.943 0 1.686.205 2.228.614.541.405.899.948 1.073 1.63Zm5.937-2.13v1.363h-4.767v-1.363h4.767Zm-3.489-2.091h1.699v8.255c0 .33.049.578.148.745a.768.768 0 0 0 .38.335c.159.057.332.085.517.085.137 0 .256-.01.358-.028.103-.02.182-.034.239-.046l.307 1.404a2.867 2.867 0 0 1-.421.113 3.327 3.327 0 0 1-.682.069 2.995 2.995 0 0 1-1.25-.24 2.148 2.148 0 0 1-.937-.772c-.239-.348-.358-.786-.358-1.312v-8.608Z"/><rect width="129" height="79.522" x="455" y="160" fill="#FFE8A3" rx="6"/><rect width="129" height="79.522" x="455" y="160" stroke="#1E1E1E" stroke-linecap="round" stroke-width="4" rx="6"/><path fill="#1E1E1E" d="M489.44 194.182v-11.636h4.591c.878 0 1.628.157 2.25.471a3.27 3.27 0 0 1 1.426 1.324c.329.568.494 1.237.494 2.006 0 .772-.167 1.437-.5 1.994-.333.553-.816.977-1.449 1.273-.628.295-1.39.443-2.284.443h-3.074v-1.977h2.676c.47 0 .86-.065 1.171-.194.311-.128.542-.322.693-.579.155-.258.233-.578.233-.96 0-.387-.078-.712-.233-.978a1.422 1.422 0 0 0-.699-.602c-.31-.14-.702-.21-1.176-.21H491.9v9.625h-2.46Zm6.284-5.296 2.892 5.296H495.9l-2.83-5.296h2.654Zm7.831 5.466c-.898 0-1.67-.181-2.318-.545a3.74 3.74 0 0 1-1.489-1.557c-.348-.674-.523-1.472-.523-2.392 0-.898.175-1.686.523-2.364a3.866 3.866 0 0 1 1.472-1.585c.636-.379 1.382-.568 2.238-.568.576 0 1.112.093 1.608.278.5.182.936.457 1.307.824.375.368.667.83.875 1.387.208.553.313 1.2.313 1.943v.665h-7.37v-1.5h5.091c0-.349-.076-.658-.227-.927a1.626 1.626 0 0 0-.631-.63 1.792 1.792 0 0 0-.926-.233c-.367 0-.693.085-.977.255a1.8 1.8 0 0 0-.659.677 1.91 1.91 0 0 0-.245.937v1.426c0 .432.08.805.239 1.12.163.314.392.556.688.727.295.17.645.256 1.051.256.269 0 .515-.038.738-.114.224-.076.415-.19.574-.341.159-.152.281-.337.364-.557l2.239.148a3.065 3.065 0 0 1-.699 1.409c-.349.398-.8.708-1.353.932-.549.219-1.183.329-1.903.329Zm10.102-8.897v1.818h-5.386v-1.818h5.386Zm-4.153 8.727v-9.358c0-.633.123-1.157.369-1.574.25-.417.591-.729 1.023-.937.432-.209.922-.313 1.472-.313.371 0 .71.028 1.017.085.31.057.541.108.693.154l-.432 1.818a3.004 3.004 0 0 0-.352-.085 2.17 2.17 0 0 0-.421-.04c-.356 0-.604.083-.744.25-.14.163-.21.392-.21.687v9.313h-2.415Zm11.053-3.716v-5.011h2.42v8.727h-2.324v-1.585h-.091a2.577 2.577 0 0 1-.983 1.233c-.454.31-1.009.466-1.664.466-.584 0-1.097-.133-1.54-.398a2.734 2.734 0 0 1-1.04-1.131c-.246-.489-.371-1.074-.375-1.756v-5.556h2.421v5.125c.003.515.142.922.414 1.221.273.299.639.449 1.097.449.292 0 .564-.066.818-.199.254-.136.458-.337.614-.602.159-.265.236-.593.233-.983Zm11.442-2.523-2.216.137a1.15 1.15 0 0 0-.245-.512 1.296 1.296 0 0 0-.494-.369 1.675 1.675 0 0 0-.722-.142c-.375 0-.691.079-.948.239-.258.155-.387.363-.387.625 0 .208.084.384.25.528.167.144.453.259.858.347l1.58.318c.848.174 1.481.454 1.897.841.417.386.625.894.625 1.522 0 .572-.168 1.074-.505 1.506-.334.432-.792.769-1.375 1.011-.58.239-1.248.358-2.006.358-1.155 0-2.076-.24-2.761-.721a2.81 2.81 0 0 1-1.199-1.978l2.381-.125c.071.353.246.622.522.807.277.182.631.273 1.063.273.424 0 .765-.081 1.022-.244.262-.167.394-.381.398-.642a.667.667 0 0 0-.278-.54c-.182-.144-.462-.254-.841-.33l-1.511-.301c-.853-.17-1.487-.466-1.904-.886-.413-.421-.619-.957-.619-1.608 0-.561.151-1.044.454-1.449.307-.405.737-.718 1.29-.937.557-.22 1.208-.33 1.955-.33 1.102 0 1.969.233 2.602.699.636.466 1.008 1.1 1.114 1.903Zm4.035 6.404c-.557 0-1.053-.097-1.488-.29a2.401 2.401 0 0 1-1.035-.869c-.25-.387-.375-.868-.375-1.444 0-.484.09-.892.268-1.221.178-.33.42-.595.727-.796a3.54 3.54 0 0 1 1.045-.454 8.043 8.043 0 0 1 1.239-.216c.507-.053.917-.102 1.227-.148.311-.049.536-.121.676-.216a.475.475 0 0 0 .211-.42v-.034c0-.36-.114-.639-.341-.836-.224-.196-.542-.295-.955-.295-.436 0-.782.097-1.04.29a1.332 1.332 0 0 0-.511.716l-2.239-.182a3.04 3.04 0 0 1 .671-1.375c.333-.39.763-.69 1.29-.898.53-.212 1.143-.318 1.84-.318.485 0 .949.057 1.392.17.447.114.843.29 1.188.529.348.238.623.545.824.92.201.372.301.817.301 1.336v5.886h-2.295v-1.21h-.069c-.14.272-.327.513-.562.721a2.587 2.587 0 0 1-.847.483c-.329.114-.71.171-1.142.171Zm.693-1.671c.356 0 .671-.07.944-.21.272-.144.486-.337.642-.58.155-.242.233-.517.233-.823v-.927a1.28 1.28 0 0 1-.313.137 5.71 5.71 0 0 1-.437.108c-.163.03-.326.058-.489.085l-.443.062a3.022 3.022 0 0 0-.745.199 1.19 1.19 0 0 0-.494.37.901.901 0 0 0-.176.568c0 .329.119.581.358.756.242.17.549.255.92.255Zm8.344-10.13v11.636h-2.42v-11.636h2.42Zm-39.581 28.073h-2.489a2.427 2.427 0 0 0-.278-.858 2.183 2.183 0 0 0-.54-.647 2.373 2.373 0 0 0-.761-.409 2.91 2.91 0 0 0-.927-.142c-.602 0-1.127.149-1.573.448-.447.296-.794.728-1.04 1.296-.246.564-.37 1.25-.37 2.057 0 .829.124 1.526.37 2.091.25.564.598.99 1.045 1.278.447.288.964.432 1.551.432.33 0 .635-.044.915-.131.284-.087.536-.214.756-.381.219-.17.401-.376.545-.619a2.41 2.41 0 0 0 .307-.829l2.489.011a4.638 4.638 0 0 1-1.512 2.869 4.84 4.84 0 0 1-1.534.921c-.591.223-1.259.335-2.005.335-1.038 0-1.966-.235-2.785-.705-.814-.469-1.458-1.149-1.931-2.039-.47-.89-.705-1.968-.705-3.233 0-1.269.239-2.349.716-3.239.477-.89 1.125-1.568 1.943-2.034.818-.47 1.739-.705 2.762-.705.674 0 1.299.095 1.875.285a4.74 4.74 0 0 1 1.539.829c.447.36.811.801 1.091 1.324.284.523.466 1.121.546 1.795Zm3.963 2.517v5.046h-2.421v-11.636h2.353v4.448h.102a2.47 2.47 0 0 1 .955-1.21c.439-.295.99-.443 1.653-.443.606 0 1.134.133 1.585.398.455.261.807.638 1.057 1.13.254.489.379 1.074.375 1.756v5.557h-2.42v-5.125c.003-.538-.133-.957-.41-1.256-.272-.299-.655-.449-1.147-.449-.33 0-.621.07-.875.211-.25.14-.447.344-.591.613-.14.265-.212.585-.216.96Zm11.365 5.216c-.898 0-1.67-.181-2.318-.545a3.74 3.74 0 0 1-1.489-1.557c-.348-.674-.522-1.472-.522-2.392 0-.898.174-1.686.522-2.364a3.866 3.866 0 0 1 1.472-1.585c.636-.379 1.382-.568 2.239-.568.575 0 1.111.093 1.607.278.5.182.936.457 1.307.824.375.368.667.83.875 1.387.209.553.313 1.2.313 1.943v.665h-7.37v-1.5h5.091c0-.349-.075-.658-.227-.927a1.62 1.62 0 0 0-.631-.63 1.79 1.79 0 0 0-.926-.233c-.367 0-.693.085-.977.255a1.8 1.8 0 0 0-.659.677c-.159.28-.241.592-.244.937v1.426c0 .432.079.805.238 1.12.163.314.392.556.688.727.295.17.646.256 1.051.256.269 0 .515-.038.739-.114.223-.076.414-.19.573-.341.159-.152.281-.337.364-.557l2.239.148a3.065 3.065 0 0 1-.699 1.409c-.349.398-.799.708-1.352.932-.55.219-1.184.329-1.904.329Zm9.353 0c-.894 0-1.663-.189-2.307-.568a3.842 3.842 0 0 1-1.478-1.591c-.34-.678-.511-1.458-.511-2.341 0-.894.172-1.678.517-2.352a3.846 3.846 0 0 1 1.483-1.585c.64-.383 1.402-.574 2.284-.574.762 0 1.428.138 2 .415a3.338 3.338 0 0 1 1.358 1.165c.333.5.517 1.087.551 1.761h-2.284c-.064-.436-.235-.786-.511-1.051-.273-.269-.631-.404-1.074-.404-.375 0-.703.103-.983.307-.277.201-.492.494-.648.881-.155.386-.233.854-.233 1.403 0 .557.076 1.031.228 1.421.155.39.373.687.653.892.28.204.608.307.983.307.276 0 .525-.057.744-.171.224-.114.407-.278.551-.494.148-.22.245-.483.29-.79h2.284c-.038.667-.219 1.254-.545 1.761a3.294 3.294 0 0 1-1.335 1.182c-.569.284-1.241.426-2.017.426Zm7.464-2.681.006-2.904h.352l2.796-3.312h2.778l-3.756 4.386h-.574l-1.602 1.83Zm-2.193 2.511v-11.636h2.42v11.636h-2.42Zm5.455 0-2.569-3.801 1.614-1.71 3.79 5.511h-2.835ZM375 62a2 2 0 1 0 0 4v-4Zm12 10.88c0 1.105 1.353 1.886 2.309 1.334l15.382-8.88c.956-.553.956-2.115 0-2.667l-15.382-8.88c-.956-.553-2.309.228-2.309 1.333v17.76ZM375 66h14v-4h-14v4Zm146 44a2 2 0 1 0-4 0h4Zm-10.88 10.155c-1.105 0-1.886 1.352-1.334 2.309l8.881 15.381c.552.957 2.114.957 2.666 0l8.881-15.381c.552-.957-.229-2.309-1.334-2.309h-17.76ZM517 110v12.155h4V110h-4Z"/><path fill="#000" fill-opacity=".8" d="M647.285 64.364c0 1.269-.241 2.348-.722 3.238-.477.89-1.129 1.57-1.954 2.04-.822.466-1.747.699-2.773.699-1.034 0-1.962-.235-2.784-.705-.822-.47-1.472-1.15-1.949-2.04-.477-.89-.716-1.967-.716-3.232 0-1.27.239-2.349.716-3.239.477-.89 1.127-1.568 1.949-2.034.822-.47 1.75-.705 2.784-.705 1.026 0 1.951.235 2.773.705.825.466 1.477 1.144 1.954 2.034.481.89.722 1.97.722 3.239Zm-2.495 0c0-.822-.123-1.515-.369-2.08-.242-.564-.585-.992-1.028-1.284-.443-.292-.962-.437-1.557-.437s-1.114.145-1.557.437c-.443.292-.788.72-1.034 1.284-.242.565-.364 1.258-.364 2.08 0 .822.122 1.515.364 2.08.246.564.591.992 1.034 1.283.443.292.962.438 1.557.438s1.114-.146 1.557-.438c.443-.291.786-.72 1.028-1.284.246-.564.369-1.257.369-2.08Zm4.141 5.818V58.545h4.591c.879 0 1.629.158 2.25.472.625.31 1.1.752 1.426 1.324.33.568.495 1.237.495 2.006 0 .772-.167 1.437-.5 1.994-.334.553-.817.977-1.449 1.273-.629.295-1.39.443-2.284.443h-3.074V64.08h2.676c.47 0 .86-.065 1.17-.194.311-.128.542-.322.693-.58.156-.257.233-.577.233-.96 0-.386-.077-.711-.233-.977a1.426 1.426 0 0 0-.698-.602c-.311-.14-.703-.21-1.177-.21h-1.659v9.625h-2.46Zm6.284-5.296 2.892 5.296h-2.716l-2.829-5.296h2.653Zm63.345-18.341h1.995l3.04 5.29h.125l3.039-5.29h1.995l-4.222 7.069v4.568h-1.75v-4.568l-4.222-7.069Zm13.778 11.813c-.819 0-1.533-.188-2.142-.563a3.792 3.792 0 0 1-1.421-1.573c-.337-.675-.506-1.462-.506-2.364 0-.905.169-1.697.506-2.375a3.785 3.785 0 0 1 1.421-1.58c.609-.374 1.323-.562 2.142-.562.818 0 1.532.188 2.142.563.61.374 1.083.901 1.42 1.579.337.678.506 1.47.506 2.375 0 .902-.169 1.69-.506 2.364a3.79 3.79 0 0 1-1.42 1.573c-.61.375-1.324.563-2.142.563Zm.005-1.426c.531 0 .97-.14 1.318-.42.349-.28.607-.654.773-1.12a4.44 4.44 0 0 0 .256-1.54c0-.556-.085-1.068-.256-1.534a2.49 2.49 0 0 0-.773-1.13c-.348-.285-.787-.427-1.318-.427-.534 0-.977.142-1.329.427a2.54 2.54 0 0 0-.779 1.13c-.166.466-.25.977-.25 1.534 0 .56.084 1.074.25 1.54.171.466.43.84.779 1.12.352.28.795.42 1.329.42Zm11.312-2.37v-5.107h1.704v8.727h-1.67V56.67h-.091a2.727 2.727 0 0 1-.966 1.165c-.44.307-.987.46-1.642.46-.561 0-1.057-.123-1.489-.369-.428-.25-.765-.62-1.011-1.108-.243-.488-.364-1.093-.364-1.812v-5.551h1.699V54.8c0 .595.165 1.068.494 1.42.33.353.758.53 1.284.53.319 0 .635-.08.949-.24.318-.159.582-.4.79-.721.212-.322.316-.731.313-1.227Zm5.505-8.017v1.091c0 .322-.06.661-.181 1.017a4.353 4.353 0 0 1-.5 1.017c-.216.326-.47.607-.762.841l-.841-.602a6.44 6.44 0 0 0 .58-1.04 2.92 2.92 0 0 0 .25-1.215v-1.109h1.454Zm1.208 11.637v-8.727h1.642v1.386h.091c.159-.47.439-.839.841-1.108.405-.273.863-.41 1.375-.41a7.242 7.242 0 0 1 .721.04v1.626a3.033 3.033 0 0 0-.363-.063 3.485 3.485 0 0 0-.523-.04c-.402 0-.76.086-1.074.256a1.899 1.899 0 0 0-1.011 1.71v5.33h-1.699Zm9.413.176c-.86 0-1.6-.184-2.221-.551a3.735 3.735 0 0 1-1.432-1.563c-.333-.674-.5-1.464-.5-2.369 0-.894.167-1.682.5-2.364a3.884 3.884 0 0 1 1.409-1.596c.606-.383 1.314-.574 2.125-.574.492 0 .97.081 1.432.244.462.163.877.419 1.244.767.368.349.657.802.869 1.358.213.553.319 1.226.319 2.017v.603h-6.938v-1.273h5.273c0-.447-.091-.843-.273-1.188a2.06 2.06 0 0 0-.767-.824c-.326-.2-.708-.3-1.148-.3-.477 0-.894.117-1.25.352a2.364 2.364 0 0 0-.818.909 2.63 2.63 0 0 0-.284 1.21v.994c0 .584.102 1.08.307 1.489.208.409.498.721.869.937.371.213.805.319 1.301.319a2.7 2.7 0 0 0 .881-.137 1.91 1.91 0 0 0 .688-.42 1.84 1.84 0 0 0 .443-.688l1.608.29c-.129.474-.36.888-.693 1.244-.33.353-.745.627-1.245.824-.496.193-1.062.29-1.699.29Zm12.052.017a3.563 3.563 0 0 1-1.5-.307 2.531 2.531 0 0 1-1.063-.903c-.257-.394-.386-.877-.386-1.449 0-.492.095-.898.284-1.216.189-.318.445-.57.767-.756a4.006 4.006 0 0 1 1.08-.42c.397-.095.803-.167 1.215-.216l1.273-.148c.326-.041.563-.108.71-.199.148-.09.222-.238.222-.443v-.04c0-.496-.14-.88-.42-1.153-.277-.273-.69-.409-1.239-.409-.572 0-1.023.127-1.352.38-.326.25-.551.53-.676.836l-1.597-.364c.189-.53.466-.958.829-1.284.368-.33.79-.568 1.268-.716a4.944 4.944 0 0 1 1.505-.227c.349 0 .718.042 1.108.125.394.08.762.227 1.102.443.345.216.627.525.847.926.22.398.33.915.33 1.551v5.796h-1.66v-1.193h-.068c-.11.22-.274.435-.494.647-.22.213-.502.389-.847.529-.344.14-.757.21-1.238.21Zm.369-1.364c.47 0 .871-.092 1.205-.278a1.96 1.96 0 0 0 .767-.727c.178-.303.267-.627.267-.972V53.91c-.061.06-.178.118-.353.17-.17.05-.365.093-.585.131-.219.034-.433.067-.642.097-.208.026-.382.05-.523.068a4.27 4.27 0 0 0-.903.21c-.269.099-.485.24-.648.426-.159.182-.238.425-.238.728 0 .42.155.738.466.954.31.212.706.318 1.187.318Zm7.723-4.01v5.18h-1.699v-8.726h1.631v1.42h.108c.201-.462.515-.833.943-1.114.432-.28.976-.42 1.631-.42.595 0 1.115.125 1.562.375.447.246.794.614 1.04 1.102.246.489.369 1.093.369 1.813v5.55h-1.698v-5.346c0-.632-.165-1.127-.495-1.483-.329-.36-.782-.54-1.358-.54-.394 0-.744.086-1.051.256-.303.17-.543.42-.721.75-.175.326-.262.72-.262 1.182Zm15.508 5.357c-.86 0-1.601-.184-2.222-.551a3.741 3.741 0 0 1-1.432-1.563c-.333-.674-.5-1.464-.5-2.369 0-.894.167-1.682.5-2.364a3.884 3.884 0 0 1 1.409-1.596c.606-.383 1.315-.574 2.125-.574.493 0 .97.081 1.432.244.462.163.877.419 1.244.767.368.349.658.802.87 1.358.212.553.318 1.226.318 2.017v.603h-6.938v-1.273h5.273c0-.447-.091-.843-.273-1.188a2.053 2.053 0 0 0-.767-.824c-.325-.2-.708-.3-1.147-.3-.478 0-.894.117-1.25.352a2.366 2.366 0 0 0-.819.909 2.63 2.63 0 0 0-.284 1.21v.994c0 .584.103 1.08.307 1.489.209.409.498.721.87.937.371.213.804.319 1.301.319.322 0 .615-.046.88-.137.265-.094.495-.235.688-.42.193-.186.341-.415.443-.688l1.608.29c-.129.474-.36.888-.693 1.244-.33.353-.745.627-1.245.824-.496.193-1.062.29-1.698.29ZM802.585 53v5.182h-1.699v-8.727h1.631v1.42h.107c.201-.462.516-.833.944-1.114.431-.28.975-.42 1.63-.42.595 0 1.116.125 1.563.375.447.246.793.614 1.04 1.102.246.489.369 1.093.369 1.813v5.55h-1.699v-5.346c0-.632-.165-1.127-.494-1.483-.33-.36-.782-.54-1.358-.54a2.13 2.13 0 0 0-1.051.256 1.84 1.84 0 0 0-.722.75c-.174.326-.261.72-.261 1.182Zm11.346 8.636c-.693 0-1.289-.09-1.789-.272-.497-.182-.902-.423-1.216-.722a3.033 3.033 0 0 1-.705-.983l1.46-.602c.103.167.239.343.41.528.174.19.409.35.704.483.299.133.684.2 1.153.2.644 0 1.177-.158 1.597-.473.421-.31.631-.806.631-1.488V56.59h-.108c-.102.186-.25.392-.443.62a2.4 2.4 0 0 1-.784.59c-.334.167-.768.25-1.302.25-.689 0-1.31-.16-1.863-.483-.549-.325-.985-.805-1.307-1.437-.318-.637-.477-1.419-.477-2.347 0-.928.157-1.723.471-2.386.318-.663.754-1.17 1.307-1.523a3.399 3.399 0 0 1 1.881-.534c.541 0 .979.09 1.312.273.334.178.593.386.779.625.189.238.335.449.437.63h.125v-1.414h1.665v8.92c0 .75-.174 1.366-.523 1.847-.348.48-.82.837-1.415 1.068-.59.23-1.257.346-2 .346Zm-.017-4.994c.489 0 .902-.114 1.239-.34.341-.232.599-.561.773-.99.178-.431.267-.948.267-1.55 0-.588-.087-1.105-.262-1.552-.174-.447-.429-.795-.767-1.045-.337-.254-.753-.38-1.25-.38-.511 0-.937.132-1.278.397-.341.261-.598.617-.773 1.068-.17.45-.255.955-.255 1.511 0 .572.087 1.074.261 1.506.174.432.432.77.773 1.011.344.243.769.364 1.272.364Zm6.057 1.54v-8.727h1.699v8.727h-1.699Zm.858-10.074a1.08 1.08 0 0 1-.761-.295.962.962 0 0 1-.313-.716.95.95 0 0 1 .313-.716c.212-.201.466-.301.761-.301.296 0 .548.1.756.3a.942.942 0 0 1 .318.717.953.953 0 0 1-.318.716 1.06 1.06 0 0 1-.756.295Zm4.65 4.892v5.182h-1.699v-8.727h1.63v1.42h.108c.201-.462.516-.833.944-1.114.431-.28.975-.42 1.63-.42.595 0 1.116.125 1.563.375.447.246.793.614 1.04 1.102.246.489.369 1.093.369 1.813v5.55h-1.699v-5.346c0-.632-.165-1.127-.494-1.483-.33-.36-.783-.54-1.358-.54a2.13 2.13 0 0 0-1.051.256 1.84 1.84 0 0 0-.722.75c-.174.326-.261.72-.261 1.182Zm11.449 5.358c-.86 0-1.601-.184-2.222-.551a3.741 3.741 0 0 1-1.432-1.563c-.333-.674-.5-1.464-.5-2.369 0-.894.167-1.682.5-2.364a3.884 3.884 0 0 1 1.409-1.596c.606-.383 1.315-.574 2.125-.574.493 0 .97.081 1.432.244.462.163.877.419 1.244.767.368.349.658.802.87 1.358.212.553.318 1.226.318 2.017v.603h-6.938v-1.273h5.273c0-.447-.091-.843-.273-1.188a2.053 2.053 0 0 0-.767-.824c-.325-.2-.708-.3-1.147-.3-.478 0-.894.117-1.25.352a2.366 2.366 0 0 0-.819.909 2.63 2.63 0 0 0-.284 1.21v.994c0 .584.103 1.08.307 1.489.209.409.498.721.87.937.371.213.804.319 1.301.319.322 0 .615-.046.88-.137.265-.094.495-.235.688-.42.193-.186.341-.415.443-.688l1.608.29c-.129.474-.36.888-.693 1.244-.33.353-.745.627-1.245.824-.496.193-1.062.29-1.698.29Zm9.214 0c-.86 0-1.6-.184-2.221-.551a3.735 3.735 0 0 1-1.432-1.563c-.334-.674-.5-1.464-.5-2.369 0-.894.166-1.682.5-2.364a3.884 3.884 0 0 1 1.409-1.596c.606-.383 1.314-.574 2.125-.574.492 0 .97.081 1.432.244.462.163.877.419 1.244.767.367.349.657.802.869 1.358.212.553.319 1.226.319 2.017v.603h-6.938v-1.273h5.273c0-.447-.091-.843-.273-1.188a2.06 2.06 0 0 0-.767-.824c-.326-.2-.708-.3-1.148-.3-.477 0-.894.117-1.25.352a2.364 2.364 0 0 0-.818.909 2.63 2.63 0 0 0-.284 1.21v.994c0 .584.102 1.08.307 1.489.208.409.498.721.869.937.371.213.805.319 1.301.319a2.7 2.7 0 0 0 .881-.137 1.827 1.827 0 0 0 1.131-1.108l1.608.29c-.129.474-.36.888-.694 1.244a3.352 3.352 0 0 1-1.244.824c-.496.193-1.062.29-1.699.29Zm5.453-.176v-8.727h1.643v1.386h.09c.16-.47.44-.839.841-1.108a2.41 2.41 0 0 1 1.375-.41 7.242 7.242 0 0 1 .722.04v1.626a3.022 3.022 0 0 0-.364-.063 3.462 3.462 0 0 0-.522-.04c-.402 0-.76.086-1.074.256a1.899 1.899 0 0 0-1.012 1.71v5.33h-1.699Zm6.084.108c-.31 0-.577-.11-.801-.33a1.102 1.102 0 0 1-.335-.806c0-.311.112-.576.335-.796.224-.223.491-.335.801-.335.311 0 .578.111.802.335.223.22.335.485.335.796 0 .208-.053.4-.159.573-.103.17-.239.307-.409.41-.171.102-.36.153-.569.153Zm-152.72 23.892V70.546h1.755v5.056h5.801v-5.056h1.762v11.636h-1.762v-5.074h-5.801v5.074h-1.755Zm15.324.176c-.86 0-1.601-.184-2.222-.551a3.741 3.741 0 0 1-1.432-1.563c-.333-.674-.5-1.464-.5-2.369 0-.894.167-1.682.5-2.364a3.884 3.884 0 0 1 1.409-1.596c.606-.383 1.315-.574 2.125-.574.493 0 .97.081 1.432.244.462.163.877.419 1.244.767.368.349.658.801.87 1.358.212.553.318 1.226.318 2.017v.603h-6.938v-1.273h5.273c0-.447-.091-.843-.273-1.188a2.053 2.053 0 0 0-.767-.823c-.325-.201-.708-.302-1.147-.302-.478 0-.894.118-1.25.353a2.356 2.356 0 0 0-.818.909c-.19.371-.285.774-.285 1.21v.994c0 .584.103 1.08.307 1.489.209.409.498.722.87.937.371.213.804.319 1.301.319.322 0 .615-.046.88-.137.266-.094.495-.235.688-.42.193-.186.341-.415.443-.688l1.608.29c-.129.474-.36.888-.693 1.244a3.36 3.36 0 0 1-1.244.824c-.497.193-1.063.29-1.699.29Zm5.453-.176v-8.727h1.642v1.386h.091c.159-.47.439-.839.841-1.108.405-.273.863-.41 1.375-.41a7.242 7.242 0 0 1 .721.04v1.626a3.033 3.033 0 0 0-.363-.063 3.485 3.485 0 0 0-.523-.04c-.402 0-.759.086-1.074.256a1.896 1.896 0 0 0-1.011 1.71v5.33h-1.699Zm9.413.176c-.859 0-1.6-.184-2.221-.551a3.735 3.735 0 0 1-1.432-1.563c-.333-.674-.5-1.464-.5-2.369 0-.894.167-1.682.5-2.364a3.884 3.884 0 0 1 1.409-1.596c.606-.383 1.314-.574 2.125-.574.493 0 .97.081 1.432.244.462.163.877.419 1.244.767.368.349.657.801.87 1.358.212.553.318 1.226.318 2.017v.603h-6.938v-1.273h5.273c0-.447-.091-.843-.273-1.188a2.06 2.06 0 0 0-.767-.823c-.326-.201-.708-.302-1.148-.302a2.22 2.22 0 0 0-1.25.353 2.364 2.364 0 0 0-.818.909 2.63 2.63 0 0 0-.284 1.21v.994c0 .584.102 1.08.307 1.489.208.409.498.722.869.937.372.213.805.319 1.301.319a2.7 2.7 0 0 0 .881-.137 1.91 1.91 0 0 0 .688-.42c.193-.186.341-.415.443-.688l1.608.29c-.129.474-.36.888-.693 1.244-.33.353-.745.627-1.245.824-.496.193-1.062.29-1.699.29Zm6.914-11.813v1.091c0 .322-.061.661-.182 1.017a4.276 4.276 0 0 1-.5 1.017c-.216.326-.47.607-.761.841l-.841-.602c.223-.326.416-.672.579-1.04a2.9 2.9 0 0 0 .25-1.216v-1.108h1.455Zm6.903 5.04-1.539.273a1.842 1.842 0 0 0-.307-.563 1.524 1.524 0 0 0-.557-.437c-.235-.114-.528-.17-.881-.17-.481 0-.882.108-1.204.323-.322.213-.483.487-.483.824 0 .292.108.527.324.705.216.178.564.324 1.045.437l1.387.319c.803.185 1.401.471 1.795.857.394.387.591.889.591 1.506 0 .523-.152.989-.455 1.398-.299.405-.717.723-1.255.954-.534.232-1.154.347-1.858.347-.978 0-1.775-.208-2.392-.625-.618-.42-.997-1.017-1.137-1.79l1.642-.25c.103.428.313.752.631.972.318.216.733.324 1.244.324.557 0 1.002-.116 1.336-.347.333-.235.5-.52.5-.858a.893.893 0 0 0-.307-.687c-.201-.186-.51-.326-.926-.42l-1.478-.325c-.814-.185-1.416-.48-1.806-.886-.387-.405-.58-.919-.58-1.54a2.2 2.2 0 0 1 .432-1.352c.288-.386.685-.688 1.193-.903.508-.22 1.089-.33 1.744-.33.943 0 1.686.205 2.228.614.541.405.899.948 1.073 1.63Zm7.62 1.415v5.182h-1.699V70.546h1.676v4.33h.108a2.51 2.51 0 0 1 .938-1.12c.42-.277.969-.415 1.647-.415.599 0 1.122.123 1.569.37a2.5 2.5 0 0 1 1.045 1.102c.25.484.375 1.09.375 1.818v5.55h-1.699v-5.346c0-.64-.165-1.136-.494-1.488-.33-.356-.788-.534-1.375-.534-.402 0-.761.085-1.08.255a1.84 1.84 0 0 0-.744.75c-.178.326-.267.72-.267 1.182Zm11.426 5.358c-.818 0-1.532-.188-2.142-.563a3.79 3.79 0 0 1-1.42-1.573c-.337-.675-.506-1.462-.506-2.364 0-.905.169-1.697.506-2.375a3.783 3.783 0 0 1 1.42-1.58c.61-.375 1.324-.562 2.142-.562.818 0 1.533.188 2.142.563.61.374 1.084.901 1.421 1.579.337.678.505 1.47.505 2.375 0 .901-.168 1.69-.505 2.364a3.792 3.792 0 0 1-1.421 1.574c-.609.374-1.324.562-2.142.562Zm.006-1.426c.53 0 .97-.14 1.318-.42.349-.28.606-.654.773-1.12.17-.466.256-.98.256-1.54 0-.556-.086-1.068-.256-1.534a2.499 2.499 0 0 0-.773-1.13c-.348-.285-.788-.427-1.318-.427-.534 0-.977.142-1.33.427a2.539 2.539 0 0 0-.778 1.13 4.52 4.52 0 0 0-.25 1.534c0 .56.083 1.074.25 1.54.17.466.43.84.778 1.12.353.28.796.42 1.33.42Zm7.409 1.25-2.568-8.727h1.756l1.71 6.409h.085l1.716-6.41h1.756l1.704 6.381h.086l1.698-6.38h1.756l-2.562 8.727h-1.733l-1.773-6.301h-.131l-1.773 6.3h-1.727Zm19.268-8.727v1.363h-4.768v-1.363h4.768Zm-3.489-2.091h1.699v8.255c0 .33.049.578.147.745a.775.775 0 0 0 .381.335c.159.057.332.085.517.085.137 0 .256-.01.358-.028.102-.02.182-.034.239-.046l.307 1.404a2.867 2.867 0 0 1-.421.113 3.327 3.327 0 0 1-.682.069 2.992 2.992 0 0 1-1.25-.24 2.142 2.142 0 0 1-.937-.772c-.239-.348-.358-.786-.358-1.312v-8.608Zm8.774 10.994c-.818 0-1.532-.188-2.142-.563a3.79 3.79 0 0 1-1.42-1.573c-.337-.675-.506-1.462-.506-2.364 0-.905.169-1.697.506-2.375a3.783 3.783 0 0 1 1.42-1.58c.61-.375 1.324-.562 2.142-.562.818 0 1.532.188 2.142.563.61.374 1.084.901 1.421 1.579.337.678.505 1.47.505 2.375 0 .901-.168 1.69-.505 2.364a3.792 3.792 0 0 1-1.421 1.574c-.61.374-1.324.562-2.142.562Zm.006-1.426c.53 0 .97-.14 1.318-.42.349-.28.606-.654.773-1.12.17-.466.255-.98.255-1.54 0-.556-.085-1.068-.255-1.534a2.499 2.499 0 0 0-.773-1.13c-.348-.285-.788-.427-1.318-.427-.534 0-.977.142-1.33.427a2.539 2.539 0 0 0-.778 1.13 4.52 4.52 0 0 0-.25 1.534c0 .56.083 1.074.25 1.54.17.466.43.84.778 1.12.353.28.796.42 1.33.42ZM811.526 77v5.182h-1.699V70.546h1.676v4.33h.108a2.51 2.51 0 0 1 .938-1.12c.42-.277.969-.415 1.647-.415.599 0 1.122.123 1.569.37a2.5 2.5 0 0 1 1.045 1.102c.25.484.375 1.09.375 1.818v5.55h-1.699v-5.346c0-.64-.165-1.136-.494-1.488-.33-.356-.788-.534-1.375-.534a2.25 2.25 0 0 0-1.08.255 1.84 1.84 0 0 0-.744.75c-.178.326-.267.72-.267 1.182Zm11.426 5.358c-.818 0-1.532-.188-2.142-.563a3.79 3.79 0 0 1-1.42-1.573c-.337-.675-.506-1.462-.506-2.364 0-.905.169-1.697.506-2.375a3.783 3.783 0 0 1 1.42-1.58c.61-.375 1.324-.562 2.142-.562.818 0 1.532.188 2.142.563.61.374 1.084.901 1.421 1.579.337.678.505 1.47.505 2.375 0 .901-.168 1.69-.505 2.364a3.792 3.792 0 0 1-1.421 1.574c-.61.374-1.324.562-2.142.562Zm.006-1.426c.53 0 .97-.14 1.318-.42.349-.28.606-.654.773-1.12.17-.466.255-.98.255-1.54 0-.556-.085-1.068-.255-1.534a2.499 2.499 0 0 0-.773-1.13c-.348-.285-.788-.427-1.318-.427-.534 0-.977.142-1.33.427a2.539 2.539 0 0 0-.778 1.13 4.52 4.52 0 0 0-.25 1.534c0 .56.083 1.074.25 1.54.17.466.43.84.778 1.12.353.28.796.42 1.33.42Zm9.857-7.477v1.363h-4.768v-1.363h4.768Zm-3.489-2.091h1.699v8.255c0 .33.049.578.147.745a.775.775 0 0 0 .381.335c.159.057.332.085.517.085.137 0 .256-.01.358-.028.102-.02.182-.034.239-.046l.307 1.404a2.867 2.867 0 0 1-.421.113 3.327 3.327 0 0 1-.682.069 2.992 2.992 0 0 1-1.25-.24 2.142 2.142 0 0 1-.937-.772c-.239-.348-.358-.786-.358-1.312v-8.608Zm7.084 10.818-2.568-8.727h1.755l1.711 6.409h.085l1.716-6.41h1.755l1.705 6.381h.085l1.699-6.38h1.756l-2.563 8.727h-1.733l-1.772-6.301h-.131l-1.773 6.3h-1.727Zm11.135 0v-8.727h1.699v8.727h-1.699Zm.858-10.074c-.296 0-.549-.099-.761-.295a.959.959 0 0 1-.313-.716c0-.28.104-.52.313-.716.212-.201.465-.301.761-.301.295 0 .547.1.756.3a.942.942 0 0 1 .318.717.953.953 0 0 1-.318.716 1.063 1.063 0 0 1-.756.295Zm2.95 10.074v-8.727h1.642v1.386h.091c.159-.47.44-.839.841-1.108.405-.273.864-.41 1.375-.41a7.242 7.242 0 0 1 .722.04v1.626a3.06 3.06 0 0 0-.364-.063 3.466 3.466 0 0 0-.523-.04c-.401 0-.759.086-1.073.256a1.899 1.899 0 0 0-1.012 1.71v5.33h-1.699Zm9.414.176c-.86 0-1.601-.184-2.222-.551a3.741 3.741 0 0 1-1.432-1.563c-.333-.674-.5-1.464-.5-2.369 0-.894.167-1.682.5-2.364a3.884 3.884 0 0 1 1.409-1.596c.607-.383 1.315-.574 2.125-.574.493 0 .97.081 1.432.244.462.163.877.419 1.245.767.367.349.657.801.869 1.358.212.553.318 1.226.318 2.017v.603h-6.937v-1.273h5.272a2.52 2.52 0 0 0-.272-1.188 2.067 2.067 0 0 0-.767-.823c-.326-.201-.709-.302-1.148-.302-.477 0-.894.118-1.25.353a2.364 2.364 0 0 0-.818.909c-.19.371-.284.774-.284 1.21v.994c0 .584.102 1.08.306 1.489.209.409.498.722.87.937.371.213.805.319 1.301.319.322 0 .615-.046.881-.137a1.825 1.825 0 0 0 1.13-1.108l1.608.29c-.129.474-.36.888-.693 1.244a3.36 3.36 0 0 1-1.244.824c-.497.193-1.063.29-1.699.29Zm6.572-.068c-.31 0-.577-.11-.801-.33a1.102 1.102 0 0 1-.335-.806c0-.311.112-.576.335-.796.224-.224.491-.335.801-.335.311 0 .578.112.802.335.223.22.335.485.335.795 0 .209-.053.4-.159.574-.103.17-.239.307-.409.41-.171.102-.36.153-.569.153Zm4.356 0c-.311 0-.578-.11-.802-.33a1.102 1.102 0 0 1-.335-.806c0-.311.112-.576.335-.796.224-.224.491-.335.802-.335.31 0 .577.112.801.335.223.22.335.485.335.795 0 .209-.053.4-.159.574-.102.17-.239.307-.409.41-.171.102-.36.153-.568.153Zm4.355 0a1.1 1.1 0 0 1-.801-.33 1.099 1.099 0 0 1-.336-.806c0-.311.112-.576.336-.796a1.09 1.09 0 0 1 .801-.335c.31 0 .578.112.801.335.223.22.335.485.335.795 0 .209-.053.4-.159.574-.102.17-.239.307-.409.41-.17.102-.36.153-.568.153Z"/><path fill="#1E1E1E" d="M746.55 18.182V6.545h7.704v2.029h-5.244v2.773h4.733v2.028h-4.733v4.807h-2.46Zm9.138 0V9.454h2.42v8.728h-2.42Zm1.216-9.853a1.32 1.32 0 0 1-.927-.357 1.163 1.163 0 0 1-.38-.87c0-.333.127-.62.38-.858.258-.242.567-.363.927-.363.359 0 .666.12.92.363.258.239.386.525.386.858 0 .337-.128.627-.386.87a1.296 1.296 0 0 1-.92.357Zm5.387 4.807v5.046h-2.42V9.454h2.307v1.54h.102c.193-.507.517-.909.972-1.204.454-.3 1.005-.45 1.653-.45.606 0 1.135.133 1.585.399.451.265.801.643 1.051 1.136.25.489.375 1.072.375 1.75v5.557h-2.42v-5.125c.004-.534-.133-.951-.409-1.25-.277-.303-.657-.455-1.142-.455-.326 0-.614.07-.864.21-.246.14-.439.345-.579.614-.137.265-.207.585-.211.96Zm9.846 5.21c-.557 0-1.053-.096-1.489-.29a2.395 2.395 0 0 1-1.034-.869c-.25-.386-.375-.867-.375-1.443 0-.485.089-.892.267-1.221.178-.33.421-.595.727-.796.307-.2.656-.352 1.046-.454a7.968 7.968 0 0 1 1.238-.216c.508-.053.917-.103 1.228-.148.31-.05.536-.121.676-.216a.475.475 0 0 0 .21-.42v-.034c0-.36-.114-.639-.341-.836-.223-.197-.542-.295-.954-.295-.436 0-.783.096-1.04.29-.258.19-.428.428-.512.716l-2.238-.182c.113-.53.337-.989.67-1.375.334-.39.764-.69 1.29-.898.53-.212 1.144-.318 1.841-.318.485 0 .949.057 1.392.17.447.114.843.29 1.188.529.348.238.623.545.823.92.201.371.302.816.302 1.335v5.887h-2.296v-1.21h-.068c-.14.272-.328.513-.563.721a2.596 2.596 0 0 1-.846.483c-.33.114-.71.17-1.142.17Zm.693-1.67c.356 0 .67-.07.943-.21.273-.144.487-.337.642-.58.155-.242.233-.517.233-.824v-.926c-.076.05-.18.095-.312.137a5.723 5.723 0 0 1-.438.108c-.163.03-.326.058-.489.085l-.443.062a2.989 2.989 0 0 0-.744.2c-.212.09-.377.213-.494.369a.896.896 0 0 0-.176.568c0 .33.119.581.357.755.243.17.55.256.921.256Zm8.344-10.13v11.636h-2.421V6.545h2.421Zm7.341 11.636h-2.636l4.017-11.637h3.17l4.011 11.637h-2.636l-2.915-8.978h-.091l-2.92 8.978Zm-.165-4.574h6.227v1.92h-6.227v-1.92Zm14.002-4.154v1.819h-5.256V9.454h5.256Zm-4.063-2.09h2.421V15.5c0 .223.034.398.102.523a.564.564 0 0 0 .284.255c.125.05.269.074.432.074.114 0 .227-.01.341-.028l.261-.051.381 1.8a6.791 6.791 0 0 1-.512.131 4.09 4.09 0 0 1-.801.097c-.583.023-1.094-.055-1.534-.233a2.146 2.146 0 0 1-1.017-.83c-.242-.374-.362-.848-.358-1.42V7.364Zm10.106 2.09v1.819h-5.256V9.454h5.256Zm-4.063-2.09h2.42V15.5c0 .223.035.398.103.523a.564.564 0 0 0 .284.255c.125.05.269.074.432.074.113 0 .227-.01.341-.028l.261-.051.381 1.8a6.921 6.921 0 0 1-.512.131 4.1 4.1 0 0 1-.801.097c-.583.023-1.095-.055-1.534-.233a2.137 2.137 0 0 1-1.017-.83c-.242-.374-.362-.848-.358-1.42V7.364Zm7.952 10.982c-.557 0-1.053-.096-1.489-.29a2.401 2.401 0 0 1-1.034-.869c-.25-.386-.375-.867-.375-1.443 0-.485.089-.892.267-1.221.178-.33.421-.595.727-.796.307-.2.656-.352 1.046-.454a7.96 7.96 0 0 1 1.239-.216c.507-.053.916-.103 1.227-.148.31-.05.536-.121.676-.216a.475.475 0 0 0 .21-.42v-.034c0-.36-.113-.639-.341-.836-.223-.197-.541-.295-.954-.295-.436 0-.782.096-1.04.29a1.33 1.33 0 0 0-.511.716l-2.239-.182c.114-.53.337-.989.67-1.375.334-.39.764-.69 1.29-.898.53-.212 1.144-.318 1.841-.318.485 0 .949.057 1.392.17.447.114.843.29 1.188.529.348.238.623.545.823.92.201.371.302.816.302 1.335v5.887h-2.296v-1.21h-.068c-.14.272-.328.513-.563.721a2.596 2.596 0 0 1-.846.483c-.33.114-.71.17-1.142.17Zm.693-1.67c.356 0 .67-.07.943-.21.273-.144.487-.337.642-.58.156-.242.233-.517.233-.824v-.926c-.076.05-.18.095-.312.137a5.723 5.723 0 0 1-.438.108c-.163.03-.326.058-.488.085l-.444.062a2.989 2.989 0 0 0-.744.2c-.212.09-.377.213-.494.369a.896.896 0 0 0-.176.568c0 .33.119.581.358.755.242.17.549.256.92.256Zm9.867 1.676c-.894 0-1.663-.19-2.307-.568a3.836 3.836 0 0 1-1.477-1.59c-.341-.679-.512-1.46-.512-2.342 0-.894.173-1.678.517-2.352a3.845 3.845 0 0 1 1.483-1.585c.64-.383 1.402-.574 2.284-.574.762 0 1.428.138 2 .415a3.34 3.34 0 0 1 1.358 1.164c.334.5.517 1.088.551 1.762h-2.284c-.064-.436-.235-.786-.511-1.051-.273-.27-.631-.404-1.074-.404a1.62 1.62 0 0 0-.983.307c-.276.2-.492.494-.648.88-.155.387-.233.855-.233 1.404 0 .557.076 1.03.228 1.42.155.39.373.688.653.893.28.204.608.306.983.306.277 0 .525-.056.744-.17.224-.114.408-.278.552-.494.147-.22.244-.483.289-.79h2.284c-.038.667-.219 1.254-.545 1.761a3.295 3.295 0 0 1-1.335 1.182c-.568.284-1.241.426-2.017.426Zm7.464-2.682.006-2.903h.352l2.796-3.313h2.778l-3.756 4.387h-.573l-1.603 1.83Zm-2.193 2.512V6.545h2.421v11.637h-2.421Zm5.455 0-2.569-3.801 1.614-1.71 3.79 5.51h-2.835Z"/></svg>