<svg xmlns="http://www.w3.org/2000/svg" width="837" height="175" fill="none"><rect width="48" height="48" x="2" y="2" fill="#FFA629" rx="3"/><path fill="#000" fill-opacity=".8" d="M20.99 35h-2.796l6.282-17.454h3.042L33.8 35h-2.795L26.07 20.716h-.136L20.99 35Zm.469-6.835h9.068v2.216h-9.069v-2.216Z"/><rect width="48" height="48" x="50" y="2" stroke="#1E1E1E" stroke-linecap="round" stroke-width="4" rx="3"/><path fill="#000" fill-opacity=".8" d="M68.066 35V17.546h6.392c1.239 0 2.264.204 3.077.613.812.404 1.42.952 1.824 1.645.403.688.605 1.463.605 2.327 0 .727-.134 1.34-.4 1.84a3.298 3.298 0 0 1-1.075 1.194 4.732 4.732 0 0 1-1.466.648v.17c.58.028 1.145.216 1.697.563.556.34 1.017.826 1.38 1.457.364.63.546 1.398.546 2.301 0 .892-.21 1.693-.631 2.403-.415.705-1.057 1.265-1.926 1.68-.87.408-1.98.613-3.333.613h-6.69Zm2.634-2.258h3.8c1.262 0 2.165-.245 2.71-.733.546-.49.82-1.1.82-1.833a2.88 2.88 0 0 0-.418-1.517 2.983 2.983 0 0 0-1.194-1.1c-.511-.272-1.119-.408-1.824-.408H70.7v5.59Zm0-7.645h3.528c.59 0 1.122-.114 1.594-.341a2.79 2.79 0 0 0 1.133-.955c.284-.415.426-.903.426-1.466 0-.721-.252-1.326-.758-1.815-.506-.489-1.281-.733-2.327-.733H70.7v5.31Z"/><rect width="48" height="48" x="98" y="2" fill="#9747FF" fill-opacity=".5" rx="3"/><path fill="#000" fill-opacity=".8" d="M129.591 23.222h-2.66a4.05 4.05 0 0 0-1.593-2.6 4.41 4.41 0 0 0-1.355-.682 5.295 5.295 0 0 0-1.577-.23c-1.006 0-1.906.253-2.702.759-.79.505-1.415 1.247-1.875 2.224-.454.977-.682 2.17-.682 3.58 0 1.42.228 2.619.682 3.596.46.978 1.088 1.716 1.884 2.216.795.5 1.69.75 2.684.75a5.45 5.45 0 0 0 1.569-.221 4.52 4.52 0 0 0 1.355-.674 4.123 4.123 0 0 0 1.022-1.082c.284-.432.481-.926.588-1.483l2.66.009a7.122 7.122 0 0 1-.827 2.369 6.537 6.537 0 0 1-1.56 1.858 7.042 7.042 0 0 1-2.165 1.202c-.812.284-1.698.426-2.659.426-1.511 0-2.858-.358-4.039-1.074-1.182-.722-2.114-1.753-2.796-3.094-.676-1.34-1.014-2.94-1.014-4.798 0-1.864.341-3.463 1.023-4.799.681-1.34 1.613-2.369 2.795-3.085 1.182-.721 2.526-1.082 4.031-1.082.926 0 1.79.133 2.591.4a6.848 6.848 0 0 1 2.174 1.16 6.368 6.368 0 0 1 1.593 1.857c.421.728.705 1.56.853 2.498Z"/><rect width="48" height="48" x="146" y="2" stroke="#1E1E1E" stroke-linecap="round" stroke-width="4" rx="3"/><path fill="#000" fill-opacity=".8" d="M168.908 35h-5.651V17.546h5.83c1.71 0 3.179.349 4.406 1.048 1.228.693 2.168 1.69 2.821 2.991.659 1.296.989 2.85.989 4.662 0 1.818-.332 3.38-.997 4.688a7 7 0 0 1-2.864 3.017c-1.25.699-2.761 1.048-4.534 1.048Zm-3.017-2.301h2.872c1.33 0 2.435-.25 3.315-.75.881-.506 1.54-1.236 1.978-2.19.437-.96.656-2.131.656-3.512 0-1.37-.219-2.531-.656-3.486-.432-.954-1.077-1.679-1.935-2.173-.858-.494-1.923-.741-3.196-.741h-3.034v12.852Z"/><rect width="48" height="48" x="194" y="2" fill="#FFCD29" rx="3"/><path fill="#000" fill-opacity=".8" d="M212.687 35V17.546h10.943v2.267h-8.309v5.318h7.738v2.258h-7.738v5.344h8.412V35h-11.046Z"/><rect width="48" height="48" x="242" y="2" stroke="#1E1E1E" stroke-linecap="round" stroke-width="4" rx="3"/><path fill="#000" fill-opacity=".8" d="M260.886 35V17.546h10.824v2.267h-8.19v5.318h7.415v2.258h-7.415V35h-2.634Z"/><rect width="48" height="48" x="290" y="2" stroke="#1E1E1E" stroke-linecap="round" stroke-width="4" rx="3"/><path fill="#000" fill-opacity=".8" d="M318.742 23.06a5.346 5.346 0 0 0-.665-1.39 4.248 4.248 0 0 0-.98-1.056 4.117 4.117 0 0 0-1.304-.674 5.243 5.243 0 0 0-1.594-.23c-.983 0-1.869.253-2.659.759-.79.505-1.415 1.247-1.875 2.224-.454.972-.682 2.162-.682 3.571 0 1.415.23 2.611.691 3.588.46.977 1.091 1.719 1.892 2.225.801.505 1.713.758 2.735.758.949 0 1.776-.193 2.481-.58a4.035 4.035 0 0 0 1.644-1.636c.393-.71.589-1.545.589-2.505l.681.127h-4.994v-2.173h6.861v1.986c0 1.466-.313 2.739-.938 3.818a6.38 6.38 0 0 1-2.574 2.489c-1.09.585-2.34.878-3.75.878-1.579 0-2.965-.364-4.159-1.091-1.187-.728-2.113-1.759-2.778-3.094-.665-1.34-.997-2.932-.997-4.773 0-1.392.193-2.642.579-3.75.387-1.108.929-2.048 1.628-2.82a7.11 7.11 0 0 1 2.48-1.782c.955-.415 1.997-.622 3.128-.622a8.09 8.09 0 0 1 2.634.417 7.111 7.111 0 0 1 2.182 1.185 6.697 6.697 0 0 1 1.593 1.824c.421.699.705 1.474.853 2.327h-2.702Z"/><rect width="48" height="48" x="338" y="2" stroke="#1E1E1E" stroke-linecap="round" stroke-width="4" rx="3"/><path fill="#000" fill-opacity=".8" d="M355.011 35V17.546h2.634v7.585h8.702v-7.585h2.642V35h-2.642v-7.61h-8.702V35h-2.634Z"/><rect width="48" height="48" x="386" y="2" stroke="#1E1E1E" stroke-linecap="round" stroke-width="4" rx="3"/><path fill="#000" fill-opacity=".8" d="M411.317 17.546V35h-2.634V17.546h2.634Z"/><rect width="48" height="48" x="434" y="2" stroke="#1E1E1E" stroke-linecap="round" stroke-width="4" rx="3"/><path fill="#000" fill-opacity=".8" d="M460.081 17.546h2.625V29.92c0 1.119-.222 2.076-.665 2.872a4.437 4.437 0 0 1-1.85 1.824c-.795.414-1.727.622-2.795.622-.983 0-1.867-.18-2.651-.537a4.358 4.358 0 0 1-1.849-1.56c-.449-.688-.673-1.523-.673-2.506h2.616c0 .483.111.9.333 1.253.227.353.536.628.928.827.398.193.853.29 1.364.29.557 0 1.029-.117 1.415-.35.392-.238.69-.588.895-1.048.204-.46.307-1.023.307-1.688V17.546Z"/><rect width="48" height="48" x="482" y="2" stroke="#1E1E1E" stroke-linecap="round" stroke-width="4" rx="3"/><path fill="#000" fill-opacity=".8" d="M499.949 35V17.546h2.633v8.335h.213l7.321-8.335h3.316l-7.04 7.857L513.457 35h-3.17l-5.642-7.798-2.063 2.369V35h-2.633Z"/><rect width="48" height="48" x="530" y="2" stroke="#1E1E1E" stroke-linecap="round" stroke-width="4" rx="3"/><path fill="#000" fill-opacity=".8" d="M549.144 35V17.546h2.634v15.187h7.909V35h-10.543Z"/><rect width="48" height="48" x="578" y="2" stroke="#1E1E1E" stroke-linecap="round" stroke-width="4" rx="3"/><path fill="#000" fill-opacity=".8" d="M593.148 17.546h3.196l5.557 13.568h.204l5.557-13.569h3.196V35h-2.505V22.37h-.162l-5.148 12.604h-2.08l-5.147-12.613h-.162V35h-2.506V17.546Z"/><rect width="48" height="48" x="2" y="124.69" fill="#FFA629" rx="3"/><path fill="#000" fill-opacity=".8" d="M33.04 140.235v17.455h-2.42l-8.872-12.801h-.162v12.801h-2.633v-17.455h2.437l8.881 12.819h.162v-12.819h2.608Z"/><rect width="48" height="48" x="50" y="124.69" stroke="#1E1E1E" stroke-linecap="round" stroke-width="4" rx="3"/><path fill="#000" fill-opacity=".8" d="M81.857 148.963c0 1.863-.341 3.466-1.023 4.806-.682 1.336-1.616 2.364-2.804 3.086-1.182.716-2.525 1.074-4.031 1.074-1.511 0-2.86-.358-4.048-1.074-1.182-.722-2.114-1.753-2.796-3.094-.682-1.341-1.023-2.94-1.023-4.798 0-1.864.341-3.463 1.023-4.799.682-1.341 1.614-2.369 2.796-3.085 1.187-.721 2.537-1.082 4.048-1.082 1.506 0 2.85.361 4.031 1.082 1.188.716 2.122 1.744 2.804 3.085.682 1.336 1.023 2.935 1.023 4.799Zm-2.608 0c0-1.421-.23-2.617-.69-3.588-.455-.978-1.08-1.716-1.875-2.216-.79-.506-1.685-.759-2.685-.759-1.006 0-1.903.253-2.693.759-.79.5-1.415 1.238-1.875 2.216-.455.971-.682 2.167-.682 3.588 0 1.42.227 2.619.682 3.596.46.972 1.085 1.71 1.875 2.216.79.5 1.687.75 2.693.75 1 0 1.895-.25 2.685-.75.795-.506 1.42-1.244 1.875-2.216.46-.977.69-2.176.69-3.596Z"/><rect width="48" height="48" x="98" y="124.69" fill="#9747FF" fill-opacity=".5" rx="3"/><path fill="#000" fill-opacity=".8" d="M116.242 157.69v-17.455h6.221c1.358 0 2.483.248 3.375.742.892.494 1.56 1.17 2.003 2.028.443.853.665 1.813.665 2.881 0 1.074-.224 2.04-.673 2.898-.443.852-1.114 1.528-2.012 2.028-.892.494-2.014.742-3.366.742h-4.279v-2.233h4.04c.858 0 1.554-.148 2.088-.444.534-.301.926-.71 1.176-1.227.25-.517.375-1.105.375-1.764s-.125-1.244-.375-1.756c-.25-.511-.644-.912-1.184-1.201-.534-.29-1.239-.435-2.114-.435h-3.307v15.196h-2.633Z"/><rect width="48" height="48" x="146" y="124.69" stroke="#1E1E1E" stroke-linecap="round" stroke-width="4" rx="3"/><path fill="#000" fill-opacity=".8" d="M169.113 152.031h2.59l1.824 2.378.861 1.057 2.906 3.792h-2.693l-1.943-2.531-.665-.921-2.88-3.775Zm8.744-3.068c0 1.863-.341 3.466-1.023 4.806-.682 1.336-1.616 2.364-2.804 3.086-1.182.716-2.525 1.074-4.031 1.074-1.511 0-2.861-.358-4.048-1.074-1.182-.722-2.114-1.753-2.796-3.094-.682-1.341-1.023-2.94-1.023-4.798 0-1.864.341-3.463 1.023-4.799.682-1.341 1.614-2.369 2.796-3.085 1.187-.721 2.537-1.082 4.048-1.082 1.506 0 2.849.361 4.031 1.082 1.188.716 2.122 1.744 2.804 3.085.682 1.336 1.023 2.935 1.023 4.799Zm-2.608 0c0-1.421-.23-2.617-.69-3.588-.455-.978-1.08-1.716-1.875-2.216-.79-.506-1.685-.759-2.685-.759-1.006 0-1.903.253-2.693.759-.79.5-1.415 1.238-1.875 2.216-.455.971-.682 2.167-.682 3.588 0 1.42.227 2.619.682 3.596.46.972 1.085 1.71 1.875 2.216.79.5 1.687.75 2.693.75 1 0 1.895-.25 2.685-.75.795-.506 1.42-1.244 1.875-2.216.46-.977.69-2.176.69-3.596Z"/><rect width="48" height="48" x="194" y="124.69" fill="#FFCD29" rx="3"/><path fill="#000" fill-opacity=".8" d="M212.183 157.69v-17.455h6.222c1.352 0 2.474.233 3.366.699.898.466 1.568 1.111 2.012 1.935.443.818.664 1.764.664 2.838 0 1.068-.224 2.009-.673 2.821-.443.807-1.113 1.435-2.011 1.884-.892.448-2.014.673-3.367.673h-4.713v-2.267h4.475c.852 0 1.545-.122 2.079-.367.54-.244.935-.599 1.185-1.065.25-.466.375-1.026.375-1.679 0-.659-.128-1.23-.384-1.713-.25-.483-.645-.852-1.184-1.108-.534-.261-1.236-.392-2.105-.392h-3.307v15.196h-2.634Zm8.617-7.875 4.312 7.875h-3l-4.227-7.875h2.915Z"/><rect width="48" height="48" x="242" y="124.69" stroke="#1E1E1E" stroke-linecap="round" stroke-width="4" rx="3"/><path fill="#000" fill-opacity=".8" d="M269.715 144.821c-.091-.807-.466-1.432-1.125-1.875-.659-.449-1.489-.674-2.489-.674-.716 0-1.335.114-1.858.341-.522.222-.929.529-1.218.921a2.165 2.165 0 0 0-.427 1.321c0 .414.097.772.29 1.074a2.6 2.6 0 0 0 .776.758c.324.199.67.367 1.039.503.37.131.725.239 1.066.324l1.704.443a12.92 12.92 0 0 1 1.713.554c.586.233 1.128.54 1.628.92.5.381.904.853 1.211 1.415.312.563.468 1.236.468 2.02 0 .989-.255 1.867-.767 2.634-.505.767-1.241 1.372-2.207 1.815-.96.443-2.122.665-3.486.665-1.307 0-2.437-.208-3.392-.622-.955-.415-1.702-1.003-2.241-1.765-.54-.767-.839-1.676-.895-2.727h2.642c.051.631.255 1.156.613 1.577a3.32 3.32 0 0 0 1.39.929c.568.199 1.19.298 1.866.298.744 0 1.406-.116 1.986-.349.585-.239 1.045-.569 1.38-.989.336-.426.503-.923.503-1.491 0-.518-.147-.941-.443-1.27-.29-.33-.685-.603-1.185-.819a11.704 11.704 0 0 0-1.679-.571l-2.062-.562c-1.398-.381-2.506-.94-3.324-1.679-.812-.739-1.219-1.716-1.219-2.932 0-1.006.273-1.883.819-2.633.545-.75 1.284-1.333 2.215-1.748.932-.42 1.983-.63 3.154-.63 1.182 0 2.224.207 3.128.622.909.415 1.625.986 2.147 1.713.523.722.796 1.551.819 2.489h-2.54Z"/><rect width="48" height="48" x="290" y="124.69" stroke="#1E1E1E" stroke-linecap="round" stroke-width="4" rx="3"/><path fill="#000" fill-opacity=".8" d="M307.24 142.502v-2.267h13.509v2.267h-5.446v15.188h-2.625v-15.188h-5.438Z"/><rect width="48" height="48" x="338" y="124.69" stroke="#1E1E1E" stroke-linecap="round" stroke-width="4" rx="3"/><path fill="#000" fill-opacity=".8" d="M366.294 140.235h2.642v11.481c0 1.221-.286 2.303-.86 3.247-.574.937-1.381 1.676-2.421 2.216-1.04.534-2.258.801-3.656.801-1.392 0-2.608-.267-3.648-.801-1.04-.54-1.846-1.279-2.42-2.216-.574-.944-.861-2.026-.861-3.247v-11.481h2.633v11.267c0 .79.174 1.492.52 2.106a3.78 3.78 0 0 0 1.492 1.448c.642.347 1.403.52 2.284.52.886 0 1.651-.173 2.293-.52a3.65 3.65 0 0 0 1.483-1.448c.346-.614.519-1.316.519-2.106v-11.267Z"/><rect width="48" height="48" x="386" y="124.69" stroke="#1E1E1E" stroke-linecap="round" stroke-width="4" rx="3"/><path fill="#000" fill-opacity=".8" d="m405.041 140.235 4.858 14.216h.196l4.858-14.216h2.846l-6.281 17.455h-3.043l-6.281-17.455h2.847Z"/><rect width="48" height="48" x="434" y="124.69" stroke="#1E1E1E" stroke-linecap="round" stroke-width="4" rx="3"/><path fill="#000" fill-opacity=".8" d="m451.605 157.69-4.841-17.455h2.77l3.4 13.517h.162l3.537-13.517h2.744l3.537 13.526h.162l3.392-13.526h2.779l-4.85 17.455h-2.65l-3.673-13.074h-.137l-3.673 13.074h-2.659Z"/><rect width="48" height="48" x="482" y="124.69" stroke="#1E1E1E" stroke-linecap="round" stroke-width="4" rx="3"/><path fill="#000" fill-opacity=".8" d="M499.949 157.69v-17.455h2.633v8.336h.213l7.321-8.336h3.316l-7.04 7.858 7.065 9.597h-3.17l-5.642-7.798-2.063 2.369v5.429h-2.633Z"/><rect width="48" height="48" x="530" y="124.69" stroke="#1E1E1E" stroke-linecap="round" stroke-width="4" rx="3"/><path fill="#000" fill-opacity=".8" d="M546.356 140.235h2.992l4.559 7.935h.188l4.559-7.935h2.992l-6.332 10.603v6.852h-2.625v-6.852l-6.333-10.603Z"/><rect width="48" height="48" x="578" y="124.69" stroke="#1E1E1E" stroke-linecap="round" stroke-width="4" rx="3"/><path fill="#000" fill-opacity=".8" d="M595.802 157.69v-1.756l9.179-13.432h-9.256v-2.267h12.477v1.756l-9.179 13.432h9.256v2.267h-12.477Z"/><path fill="#1E1E1E" d="M34.88 73.31c1.105 0 1.886-1.353 1.334-2.31l-8.88-15.38c-.553-.957-2.115-.957-2.667 0L15.787 71c-.553.957.228 2.31 1.333 2.31h17.76Zm-17.76 28.07c-1.105 0-1.886 1.353-1.334 2.309l8.88 15.382c.553.956 2.115.956 2.667 0l8.88-15.382c.553-.956-.228-2.309-1.333-2.309H17.12ZM24 71.31v32.07h4V71.31h-4Z"/><path fill="#1E1E1E" d="M34.88 73.31c1.105 0 1.886-1.353 1.334-2.31l-8.88-15.38c-.553-.957-2.115-.957-2.667 0L15.787 71c-.553.957.228 2.31 1.333 2.31h17.76Zm-17.76 28.07c-1.105 0-1.886 1.353-1.334 2.309l8.88 15.382c.553.956 2.115.956 2.667 0l8.88-15.382c.553-.956-.228-2.309-1.333-2.309H17.12ZM24 71.31v32.07h4V71.31h-4Z"/><path fill="#1E1E1E" d="M34.88 73.31c1.105 0 1.886-1.353 1.334-2.31l-8.88-15.38c-.553-.957-2.115-.957-2.667 0L15.787 71c-.553.957.228 2.31 1.333 2.31h17.76Zm-17.76 28.07c-1.105 0-1.886 1.353-1.334 2.309l8.88 15.382c.553.956 2.115.956 2.667 0l8.88-15.382c.553-.956-.228-2.309-1.333-2.309H17.12ZM24 71.31v32.07h4V71.31h-4Zm58.88 4c1.105 0 1.886-1.353 1.334-2.31l-8.88-15.38c-.553-.957-2.115-.957-2.667 0L63.787 73c-.553.957.228 2.31 1.333 2.31h17.76ZM65.12 99.38c-1.105 0-1.886 1.353-1.334 2.309l8.88 15.382c.553.956 2.115.956 2.667 0l8.88-15.382c.553-.956-.228-2.309-1.333-2.309H65.12ZM72 73.31v28.07h4V73.31h-4Zm58.88 0c1.105 0 1.886-1.353 1.334-2.31l-8.881-15.38c-.552-.957-2.114-.957-2.666 0L111.786 71c-.552.957.229 2.31 1.334 2.31h17.76Zm-17.76 28.07c-1.105 0-1.886 1.353-1.334 2.309l8.881 15.382c.552.956 2.114.956 2.666 0l8.881-15.382c.552-.956-.229-2.309-1.334-2.309h-17.76ZM120 71.31v32.07h4V71.31h-4Zm58.88 4c1.105 0 1.886-1.353 1.334-2.31l-8.881-15.38c-.552-.957-2.114-.957-2.666 0L159.786 73c-.552.957.229 2.31 1.334 2.31h17.76Zm-17.76 24.07c-1.105 0-1.886 1.353-1.334 2.309l8.881 15.382c.552.956 2.114.956 2.666 0l8.881-15.382c.552-.956-.229-2.309-1.334-2.309h-17.76ZM168 73.31v28.07h4V73.31h-4Zm58.88 0c1.105 0 1.886-1.353 1.334-2.31l-8.881-15.38c-.552-.957-2.114-.957-2.666 0L207.786 71c-.552.957.229 2.31 1.334 2.31h17.76Zm-17.76 28.07c-1.105 0-1.886 1.353-1.334 2.309l8.881 15.382c.552.956 2.114.956 2.666 0l8.881-15.382c.552-.956-.229-2.309-1.334-2.309h-17.76ZM216 71.31v32.07h4V71.31h-4Zm58.88 4c1.105 0 1.886-1.353 1.334-2.31l-8.881-15.38c-.552-.957-2.114-.957-2.666 0L255.786 73c-.552.957.229 2.31 1.334 2.31h17.76Zm-17.76 24.07c-1.105 0-1.886 1.353-1.334 2.309l8.881 15.382c.552.956 2.114.956 2.666 0l8.881-15.382c.552-.956-.229-2.309-1.334-2.309h-17.76ZM264 73.31v28.07h4V73.31h-4Zm58.88 2c1.105 0 1.886-1.353 1.334-2.31l-8.881-15.38c-.552-.957-2.114-.957-2.666 0L303.786 73c-.552.957.229 2.31 1.334 2.31h17.76Zm-17.76 24.07c-1.105 0-1.886 1.353-1.334 2.309l8.881 15.382c.552.956 2.114.956 2.666 0l8.881-15.382c.552-.956-.229-2.309-1.334-2.309h-17.76ZM312 73.31v28.07h4V73.31h-4Zm58.88 2c1.105 0 1.886-1.353 1.334-2.31l-8.881-15.38c-.552-.957-2.114-.957-2.666 0L351.786 73c-.552.957.229 2.31 1.334 2.31h17.76Zm-17.76 24.07c-1.105 0-1.886 1.353-1.334 2.309l8.881 15.382c.552.956 2.114.956 2.666 0l8.881-15.382c.552-.956-.229-2.309-1.334-2.309h-17.76ZM360 73.31v28.07h4V73.31h-4Zm58.88 2c1.105 0 1.886-1.353 1.334-2.31l-8.881-15.38c-.552-.957-2.114-.957-2.666 0L399.786 73c-.552.957.229 2.31 1.334 2.31h17.76Zm-17.76 24.07c-1.105 0-1.886 1.353-1.334 2.309l8.881 15.382c.552.956 2.114.956 2.666 0l8.881-15.382c.552-.956-.229-2.309-1.334-2.309h-17.76ZM408 73.31v28.07h4V73.31h-4Zm58.88 2c1.105 0 1.886-1.353 1.334-2.31l-8.881-15.38c-.552-.957-2.114-.957-2.666 0L447.786 73c-.552.957.229 2.31 1.334 2.31h17.76Zm-17.76 24.07c-1.105 0-1.886 1.353-1.334 2.309l8.881 15.382c.552.956 2.114.956 2.666 0l8.881-15.382c.552-.956-.229-2.309-1.334-2.309h-17.76ZM456 73.31v28.07h4V73.31h-4Zm58.88 2c1.105 0 1.886-1.353 1.334-2.31l-8.881-15.38c-.552-.957-2.114-.957-2.666 0L495.786 73c-.552.957.229 2.31 1.334 2.31h17.76Zm-17.76 24.07c-1.105 0-1.886 1.353-1.334 2.309l8.881 15.382c.552.956 2.114.956 2.666 0l8.881-15.382c.552-.956-.229-2.309-1.334-2.309h-17.76ZM504 73.31v28.07h4V73.31h-4Zm58.88 2c1.105 0 1.886-1.353 1.334-2.31l-8.881-15.38c-.552-.957-2.114-.957-2.666 0L543.786 73c-.552.957.229 2.31 1.334 2.31h17.76Zm-17.76 24.07c-1.105 0-1.886 1.353-1.334 2.309l8.881 15.382c.552.956 2.114.956 2.666 0l8.881-15.382c.552-.956-.229-2.309-1.334-2.309h-17.76ZM552 73.31v28.07h4V73.31h-4Zm58.88 2c1.105 0 1.886-1.353 1.334-2.31l-8.881-15.38c-.552-.957-2.114-.957-2.666 0L591.786 73c-.552.957.229 2.31 1.334 2.31h17.76Zm-17.76 24.07c-1.105 0-1.886 1.353-1.334 2.309l8.881 15.382c.552.956 2.114.956 2.666 0l8.881-15.382c.552-.956-.229-2.309-1.334-2.309h-17.76ZM600 73.31v28.07h4V73.31h-4Z"/><rect width="48" height="48" x="194" y="125" stroke="#1E1E1E" stroke-linecap="round" stroke-width="4" rx="3"/><rect width="48" height="48" x="98" y="125" stroke="#1E1E1E" stroke-linecap="round" stroke-width="4" rx="3"/><rect width="48" height="48" x="2" y="125" stroke="#1E1E1E" stroke-linecap="round" stroke-width="4" rx="3"/><rect width="48" height="48" x="2" y="2" stroke="#1E1E1E" stroke-linecap="round" stroke-width="4" rx="3"/><rect width="48" height="48" x="98" y="2" stroke="#1E1E1E" stroke-linecap="round" stroke-width="4" rx="3"/><rect width="48" height="48" x="194" y="2" stroke="#1E1E1E" stroke-linecap="round" stroke-width="4" rx="3"/><rect width="48" height="48" x="691" y="2" fill="#9747FF" fill-opacity=".5" rx="3"/><path fill="#000" fill-opacity=".8" d="M722.591 23.222h-2.66a4.05 4.05 0 0 0-1.593-2.6 4.41 4.41 0 0 0-1.355-.682 5.295 5.295 0 0 0-1.577-.23c-1.006 0-1.906.253-2.702.759-.79.505-1.415 1.247-1.875 2.224-.454.977-.682 2.17-.682 3.58 0 1.42.228 2.619.682 3.596.46.978 1.088 1.716 1.884 2.216.795.5 1.69.75 2.684.75a5.45 5.45 0 0 0 1.569-.221 4.52 4.52 0 0 0 1.355-.674 4.123 4.123 0 0 0 1.022-1.082c.284-.432.481-.926.588-1.483l2.66.009a7.122 7.122 0 0 1-.827 2.369 6.537 6.537 0 0 1-1.56 1.858 7.042 7.042 0 0 1-2.165 1.202c-.812.284-1.698.426-2.659.426-1.511 0-2.858-.358-4.039-1.074-1.182-.722-2.114-1.753-2.796-3.094-.676-1.34-1.014-2.94-1.014-4.798 0-1.864.341-3.463 1.023-4.799.681-1.34 1.613-2.369 2.795-3.085 1.182-.721 2.526-1.082 4.031-1.082.926 0 1.79.133 2.591.4a6.848 6.848 0 0 1 2.174 1.16 6.368 6.368 0 0 1 1.593 1.857c.421.728.705 1.56.853 2.498Z"/><rect width="48" height="48" x="691" y="124.69" fill="#9747FF" fill-opacity=".5" rx="3"/><path fill="#000" fill-opacity=".8" d="M709.242 157.69v-17.455h6.221c1.358 0 2.483.248 3.375.742.892.494 1.56 1.17 2.003 2.028.443.853.665 1.813.665 2.881 0 1.074-.224 2.04-.673 2.898-.443.852-1.114 1.528-2.012 2.028-.892.494-2.014.742-3.366.742h-4.279v-2.233h4.04c.858 0 1.554-.148 2.088-.444.534-.301.926-.71 1.176-1.227.25-.517.375-1.105.375-1.764s-.125-1.244-.375-1.756c-.25-.511-.644-.912-1.184-1.201-.534-.29-1.239-.435-2.114-.435h-3.307v15.196h-2.633Z"/><path fill="#1E1E1E" d="M723.88 73.31c1.105 0 1.886-1.353 1.334-2.31l-8.881-15.38c-.552-.957-2.114-.957-2.666 0L704.786 71c-.552.957.229 2.31 1.334 2.31h17.76Zm-17.76 28.07c-1.105 0-1.886 1.353-1.334 2.309l8.881 15.382c.552.956 2.114.956 2.666 0l8.881-15.382c.552-.956-.229-2.309-1.334-2.309h-17.76ZM713 71.31v32.07h4V71.31h-4Z"/><rect width="48" height="48" x="691" y="125" stroke="#1E1E1E" stroke-linecap="round" stroke-width="4" rx="3"/><rect width="48" height="48" x="691" y="2" stroke="#1E1E1E" stroke-linecap="round" stroke-width="4" rx="3"/><rect width="48" height="48" x="739" y="2" fill="#FFA629" rx="3"/><path fill="#000" fill-opacity=".8" d="M757.99 35h-2.796l6.281-17.454h3.043L770.799 35h-2.795l-4.935-14.284h-.136L757.99 35Zm.468-6.835h9.069v2.216h-9.069v-2.216Z"/><rect width="48" height="48" x="739" y="124.69" fill="#FFA629" rx="3"/><path fill="#000" fill-opacity=".8" d="M770.041 140.235v17.455h-2.421l-8.872-12.801h-.162v12.801h-2.633v-17.455h2.437l8.881 12.819h.162v-12.819h2.608Z"/><path fill="#1E1E1E" d="M771.88 73.31c1.105 0 1.886-1.353 1.334-2.31l-8.881-15.38c-.552-.957-2.114-.957-2.666 0L752.786 71c-.552.957.229 2.31 1.334 2.31h17.76Zm-17.76 28.07c-1.105 0-1.886 1.353-1.334 2.309l8.881 15.382c.552.956 2.114.956 2.666 0l8.881-15.382c.552-.956-.229-2.309-1.334-2.309h-17.76ZM761 71.31v32.07h4V71.31h-4Z"/><path fill="#1E1E1E" d="M771.88 73.31c1.105 0 1.886-1.353 1.334-2.31l-8.881-15.38c-.552-.957-2.114-.957-2.666 0L752.786 71c-.552.957.229 2.31 1.334 2.31h17.76Zm-17.76 28.07c-1.105 0-1.886 1.353-1.334 2.309l8.881 15.382c.552.956 2.114.956 2.666 0l8.881-15.382c.552-.956-.229-2.309-1.334-2.309h-17.76ZM761 71.31v32.07h4V71.31h-4Z"/><path fill="#1E1E1E" d="M771.88 73.31c1.105 0 1.886-1.353 1.334-2.31l-8.881-15.38c-.552-.957-2.114-.957-2.666 0L752.786 71c-.552.957.229 2.31 1.334 2.31h17.76Zm-17.76 28.07c-1.105 0-1.886 1.353-1.334 2.309l8.881 15.382c.552.956 2.114.956 2.666 0l8.881-15.382c.552-.956-.229-2.309-1.334-2.309h-17.76ZM761 71.31v32.07h4V71.31h-4Z"/><rect width="48" height="48" x="739" y="125" stroke="#1E1E1E" stroke-linecap="round" stroke-width="4" rx="3"/><rect width="48" height="48" x="739" y="2" stroke="#1E1E1E" stroke-linecap="round" stroke-width="4" rx="3"/><rect width="48" height="48" x="787" y="2" fill="#FFCD29" rx="3"/><path fill="#000" fill-opacity=".8" d="M805.183 35V17.546h6.222c1.352 0 2.474.232 3.366.698.898.466 1.568 1.111 2.012 1.935.443.818.664 1.764.664 2.838 0 1.068-.224 2.009-.673 2.821-.443.807-1.113 1.435-2.011 1.884-.892.448-2.014.673-3.367.673h-4.713v-2.267h4.475c.852 0 1.545-.122 2.079-.367.54-.244.935-.6 1.185-1.065.25-.466.375-1.026.375-1.679 0-.659-.128-1.23-.384-1.713-.25-.483-.645-.852-1.184-1.108-.534-.261-1.236-.392-2.105-.392h-3.307V35h-2.634Zm8.617-7.875L818.112 35h-3l-4.227-7.875h2.915Z"/><rect width="48" height="48" x="787" y="2" stroke="#1E1E1E" stroke-linecap="round" stroke-width="4" rx="3"/><rect width="48" height="48" x="787" y="125" fill="#FFCD29" rx="3"/><path fill="#000" fill-opacity=".8" d="M805.687 158v-17.455h10.943v2.267h-8.309v5.319h7.738v2.258h-7.738v5.344h8.412V158h-11.046Z"/><rect width="48" height="48" x="787" y="125" stroke="#1E1E1E" stroke-linecap="round" stroke-width="4" rx="3"/><path fill="#1E1E1E" d="M819.88 75.31c1.105 0 1.886-1.353 1.334-2.31l-8.881-15.38c-.552-.957-2.114-.957-2.666 0L800.786 73c-.552.957.229 2.31 1.334 2.31h17.76Zm-17.76 24.38c-1.105 0-1.886 1.353-1.334 2.309l8.881 15.382c.552.956 2.114.956 2.666 0l8.881-15.382c.552-.956-.229-2.31-1.334-2.31h-17.76ZM809 73.31v28.38h4V73.31h-4Z"/></svg>