<svg xmlns="http://www.w3.org/2000/svg" width="884" height="147" fill="none"><rect width="137" height="30" x="2" y="115" fill="#FFC7C2" rx="3"/><rect width="137" height="30" x="2" y="61" fill="#FFC7C2" rx="3"/><rect width="137" height="30" x="2" y="7" fill="#FFC7C2" rx="3"/><rect width="64" height="30" x="578" y="111" fill="#FFE8A3" rx="3"/><rect width="64" height="30" x="578" y="57" fill="#FFE8A3" rx="3"/><rect width="64" height="30" x="578" y="2" fill="#FFE8A3" rx="3"/><rect width="96" height="143" x="242" y="1" fill="#BDE3FF" rx="6"/><rect width="137" height="30" x="2" y="6" stroke="#1E1E1E" stroke-linecap="round" stroke-width="4" rx="3"/><path fill="#000" fill-opacity=".8" d="M22.067 25v-8.727h5.881v1.521h-4.035v2.08h3.732v1.52h-3.732v2.085h4.052V25h-5.898Zm8.997-3.784V25H29.25v-6.546h1.73v1.155h.077c.145-.38.387-.681.728-.903.341-.224.755-.337 1.24-.337.455 0 .851.1 1.19.299.337.198.6.483.788.852.187.366.28.804.28 1.312V25h-1.814v-3.844c.002-.4-.1-.713-.307-.937-.208-.228-.493-.341-.857-.341-.244 0-.46.052-.648.157a1.11 1.11 0 0 0-.434.46 1.594 1.594 0 0 0-.158.72Zm7.333 0V25h-1.815v-8.727h1.764v3.336h.077c.147-.386.386-.689.715-.907.33-.222.743-.333 1.24-.333.455 0 .851.1 1.19.299.34.196.605.478.792.848.19.366.284.805.281 1.316V25h-1.815v-3.844c.003-.403-.1-.717-.307-.941-.204-.225-.491-.337-.86-.337-.248 0-.466.052-.657.157a1.117 1.117 0 0 0-.443.46 1.56 1.56 0 0 0-.162.72Zm7.407 3.908c-.417 0-.79-.073-1.116-.218a1.798 1.798 0 0 1-.776-.652c-.187-.29-.28-.65-.28-1.082 0-.364.066-.67.2-.916.133-.247.315-.446.545-.597.23-.15.491-.264.784-.34a5.9 5.9 0 0 1 .929-.163c.38-.04.688-.076.92-.11.233-.037.402-.091.508-.162a.356.356 0 0 0 .157-.316v-.025c0-.27-.085-.48-.255-.627-.168-.148-.407-.221-.716-.221-.327 0-.587.072-.78.217a1 1 0 0 0-.384.537l-1.679-.137c.086-.397.253-.741.503-1.03.25-.293.573-.518.967-.674.398-.16.858-.239 1.381-.239.364 0 .712.043 1.044.128.335.085.632.218.89.396.262.18.468.41.619.69.15.28.225.613.225 1.002V25h-1.72v-.908h-.051a1.845 1.845 0 0 1-.422.542 1.952 1.952 0 0 1-.635.362 2.623 2.623 0 0 1-.857.128Zm.52-1.253c.267 0 .503-.053.708-.158.204-.108.365-.253.481-.435.117-.181.175-.387.175-.617v-.695a.976.976 0 0 1-.234.102 4.257 4.257 0 0 1-.328.081 16.62 16.62 0 0 1-.367.064l-.332.047c-.213.031-.4.08-.559.15a.893.893 0 0 0-.37.276.675.675 0 0 0-.133.426c0 .247.09.436.269.567.182.128.412.192.69.192Zm6.258-2.655V25h-1.815v-6.546h1.73v1.155h.077c.145-.38.388-.681.728-.903.341-.224.755-.337 1.24-.337.455 0 .851.1 1.19.299.337.198.6.483.788.852.187.366.281.804.281 1.312V25h-1.815v-3.844c.003-.4-.1-.713-.307-.937-.208-.228-.493-.341-.857-.341a1.3 1.3 0 0 0-.647.157c-.185.106-.33.259-.435.46a1.596 1.596 0 0 0-.158.72Zm8.475 3.912c-.67 0-1.247-.142-1.73-.426a2.88 2.88 0 0 1-1.108-1.194c-.256-.508-.383-1.093-.383-1.755 0-.67.129-1.259.387-1.764a2.88 2.88 0 0 1 1.113-1.19c.48-.286 1.05-.43 1.713-.43.57 0 1.07.104 1.5.311.429.208.768.499 1.018.874s.388.815.413 1.321h-1.713c-.048-.327-.176-.59-.383-.788-.205-.202-.473-.303-.806-.303-.28 0-.527.077-.737.23-.207.15-.37.37-.486.66-.116.29-.174.641-.174 1.053 0 .418.056.773.17 1.066.117.292.28.515.49.669.21.153.456.23.737.23.208 0 .394-.043.559-.128.167-.085.305-.209.413-.37a1.42 1.42 0 0 0 .217-.593h1.713c-.028.5-.164.94-.409 1.32a2.47 2.47 0 0 1-1.001.887c-.426.213-.93.32-1.513.32Zm6.937 0c-.674 0-1.253-.137-1.739-.41a2.802 2.802 0 0 1-1.116-1.167c-.262-.505-.392-1.104-.392-1.794 0-.673.13-1.264.392-1.773.26-.508.629-.905 1.103-1.189.477-.284 1.037-.426 1.68-.426.431 0 .833.07 1.205.21.375.136.702.341.98.617.282.276.5.622.657 1.04.156.415.234.9.234 1.457v.499H65.47v-1.125h3.818a1.39 1.39 0 0 0-.17-.695 1.222 1.222 0 0 0-.473-.473 1.35 1.35 0 0 0-.695-.175c-.275 0-.52.064-.733.192-.21.125-.375.294-.494.507-.12.21-.18.445-.183.703v1.07c0 .324.06.604.178.84.123.235.295.417.516.545.222.128.484.192.788.192.202 0 .387-.029.555-.085a1.111 1.111 0 0 0 .703-.673l1.679.11c-.086.403-.26.756-.525 1.057a2.63 2.63 0 0 1-1.014.699c-.412.165-.888.247-1.427.247Zm6.469-.021a2.47 2.47 0 0 1-1.351-.384c-.4-.258-.72-.638-.955-1.138-.233-.503-.35-1.12-.35-1.85 0-.75.121-1.373.363-1.87.241-.5.562-.873.963-1.12.403-.25.845-.376 1.325-.376.367 0 .672.063.916.188.248.122.447.275.597.46.153.182.27.36.35.537h.055v-3.281h1.811V25h-1.79v-1.048h-.077a2.341 2.341 0 0 1-.362.54 1.8 1.8 0 0 1-.6.44c-.245.116-.543.175-.895.175Zm.575-1.445c.292 0 .54-.08.741-.239.205-.162.361-.387.469-.677.11-.29.166-.63.166-1.019 0-.389-.054-.727-.162-1.014a1.455 1.455 0 0 0-.468-.665 1.192 1.192 0 0 0-.746-.234c-.298 0-.55.08-.754.243-.205.162-.36.386-.465.673-.105.287-.158.62-.158.997 0 .381.053.718.158 1.01.108.29.263.517.465.682.204.162.456.243.754.243ZM83.73 25h-1.977l3.013-8.727h2.378L90.153 25h-1.977l-2.186-6.733h-.069L83.731 25Zm-.123-3.43h4.67v1.44h-4.67v-1.44Zm10.5-3.116v1.364h-3.941v-1.364h3.942Zm-3.046-1.568h1.815v6.103a.83.83 0 0 0 .077.392c.051.09.122.154.213.191a.878.878 0 0 0 .324.056c.085 0 .17-.007.256-.021l.196-.039.285 1.351c-.09.028-.219.061-.383.098-.165.04-.365.064-.601.073-.438.017-.821-.042-1.15-.175a1.606 1.606 0 0 1-.764-.622c-.181-.282-.27-.637-.268-1.066v-6.34Zm7.579 1.569v1.363h-3.942v-1.364h3.942Zm-3.047-1.569h1.815v6.103a.83.83 0 0 0 .077.392c.051.09.122.154.213.191a.878.878 0 0 0 .324.056c.085 0 .17-.007.256-.021l.196-.039.285 1.351c-.09.028-.219.061-.383.098-.165.04-.365.064-.601.073-.438.017-.821-.042-1.15-.175a1.606 1.606 0 0 1-.764-.622c-.181-.282-.27-.637-.268-1.066v-6.34Zm5.964 8.238a2.73 2.73 0 0 1-1.117-.218 1.8 1.8 0 0 1-.775-.652c-.188-.29-.281-.65-.281-1.082 0-.364.066-.67.2-.916.133-.247.315-.446.545-.597.23-.15.492-.264.784-.34.296-.078.606-.131.929-.163.381-.04.688-.076.921-.11.233-.037.402-.091.507-.162a.356.356 0 0 0 .158-.316v-.025c0-.27-.086-.48-.256-.627-.168-.148-.406-.221-.716-.221-.327 0-.587.072-.78.217a.998.998 0 0 0-.383.537l-1.68-.137c.086-.397.254-.741.504-1.03a2.41 2.41 0 0 1 .967-.674c.398-.16.858-.239 1.381-.239.363 0 .711.043 1.044.128.335.085.632.218.89.396.262.18.468.41.618.69.151.28.226.613.226 1.002V25h-1.722v-.908h-.051a1.847 1.847 0 0 1-.422.542 1.942 1.942 0 0 1-.635.362 2.618 2.618 0 0 1-.856.128Zm.52-1.253c.267 0 .503-.053.707-.158.205-.108.365-.253.482-.435a1.12 1.12 0 0 0 .174-.617v-.695a.965.965 0 0 1-.234.102 4.312 4.312 0 0 1-.328.081c-.122.023-.244.044-.367.064l-.332.047a2.245 2.245 0 0 0-.558.15.894.894 0 0 0-.371.276.675.675 0 0 0-.132.426c0 .247.089.436.268.567.182.128.412.192.691.192Zm7.4 1.257c-.671 0-1.247-.142-1.73-.426a2.872 2.872 0 0 1-1.108-1.194c-.256-.508-.384-1.093-.384-1.755 0-.67.129-1.259.388-1.764a2.879 2.879 0 0 1 1.112-1.19c.48-.286 1.051-.43 1.713-.43.571 0 1.071.104 1.5.311.429.208.769.499 1.019.874.25.375.387.815.413 1.321h-1.713c-.048-.327-.176-.59-.384-.788-.204-.202-.473-.303-.805-.303a1.22 1.22 0 0 0-.737.23c-.208.15-.37.37-.486.66-.116.29-.175.641-.175 1.053 0 .418.057.773.171 1.066.116.292.28.515.49.669.21.153.456.23.737.23a1.2 1.2 0 0 0 .558-.128c.168-.085.306-.209.414-.37.11-.166.183-.363.217-.593h1.713c-.028.5-.165.94-.409 1.32a2.47 2.47 0 0 1-1.002.887c-.426.213-.93.32-1.512.32Zm5.598-2.012.004-2.177h.265l2.096-2.485h2.084l-2.817 3.29h-.43l-1.202 1.372ZM113.431 25v-8.727h1.816V25h-1.816Zm4.091 0-1.926-2.85 1.21-1.284L119.649 25h-2.127Z"/><rect width="137" height="30" x="2" y="61" stroke="#1E1E1E" stroke-linecap="round" stroke-width="4" rx="3"/><path fill="#000" fill-opacity=".8" d="M22.067 80v-8.727h5.881v1.521h-4.035v2.08h3.732v1.52h-3.732v2.085h4.052V80h-5.898Zm8.997-3.784V80H29.25v-6.546h1.73v1.155h.077c.145-.38.387-.681.728-.903.341-.225.755-.337 1.24-.337.455 0 .851.1 1.19.299.337.198.6.483.788.852.187.366.28.804.28 1.312V80h-1.814v-3.844c.002-.4-.1-.713-.307-.937-.208-.227-.493-.341-.857-.341-.244 0-.46.052-.648.157a1.11 1.11 0 0 0-.434.46 1.594 1.594 0 0 0-.158.72Zm7.333 0V80h-1.815v-8.727h1.764v3.336h.077c.147-.386.386-.688.715-.907.33-.222.743-.333 1.24-.333.455 0 .851.1 1.19.299.34.196.605.478.792.848.19.366.284.805.281 1.316V80h-1.815v-3.844c.003-.403-.1-.717-.307-.942-.204-.224-.491-.336-.86-.336-.248 0-.466.052-.657.157a1.117 1.117 0 0 0-.443.46 1.56 1.56 0 0 0-.162.72Zm7.407 3.908c-.417 0-.79-.073-1.116-.218a1.798 1.798 0 0 1-.776-.652c-.187-.29-.28-.65-.28-1.082 0-.364.066-.67.2-.916.133-.248.315-.446.545-.597.23-.15.491-.264.784-.34.295-.078.605-.132.929-.163.38-.04.688-.077.92-.11.233-.038.402-.092.508-.163a.356.356 0 0 0 .157-.315v-.025c0-.27-.085-.48-.255-.627-.168-.147-.407-.221-.716-.221-.327 0-.587.072-.78.217a1 1 0 0 0-.384.537l-1.679-.136c.086-.398.253-.742.503-1.032.25-.292.573-.517.967-.673.398-.16.858-.239 1.381-.239.364 0 .712.043 1.044.128.335.085.632.218.89.397.262.178.468.409.619.69.15.278.225.612.225 1.001V80h-1.72v-.908h-.051a1.845 1.845 0 0 1-.422.541 1.952 1.952 0 0 1-.635.363 2.623 2.623 0 0 1-.857.128Zm.52-1.253c.267 0 .503-.053.708-.158.204-.108.365-.253.481-.435.117-.181.175-.387.175-.618v-.694a.976.976 0 0 1-.234.102 4.257 4.257 0 0 1-.328.081 16.62 16.62 0 0 1-.367.064l-.332.047c-.213.031-.4.08-.559.15a.893.893 0 0 0-.37.276.675.675 0 0 0-.133.426c0 .247.09.436.269.567.182.128.412.192.69.192Zm6.258-2.655V80h-1.815v-6.546h1.73v1.155h.077c.145-.38.388-.681.728-.903.341-.225.755-.337 1.24-.337.455 0 .851.1 1.19.299.337.198.6.483.788.852.187.366.281.804.281 1.312V80h-1.815v-3.844c.003-.4-.1-.713-.307-.937-.208-.227-.493-.341-.857-.341a1.3 1.3 0 0 0-.647.157c-.185.106-.33.259-.435.46a1.596 1.596 0 0 0-.158.72Zm8.475 3.912c-.67 0-1.247-.142-1.73-.426a2.88 2.88 0 0 1-1.108-1.194c-.256-.508-.383-1.093-.383-1.755 0-.67.129-1.259.387-1.764a2.88 2.88 0 0 1 1.113-1.19c.48-.286 1.05-.43 1.713-.43.57 0 1.07.104 1.5.311.429.208.768.499 1.018.874s.388.815.413 1.321h-1.713c-.048-.327-.176-.59-.383-.788-.205-.202-.473-.303-.806-.303-.28 0-.527.077-.737.23-.207.15-.37.37-.486.66-.116.29-.174.641-.174 1.053 0 .418.056.773.17 1.066.117.292.28.515.49.669.21.153.456.23.737.23.208 0 .394-.043.559-.128.167-.085.305-.209.413-.37a1.42 1.42 0 0 0 .217-.593h1.713c-.028.5-.164.94-.409 1.32a2.47 2.47 0 0 1-1.001.887c-.426.213-.93.32-1.513.32Zm6.937 0c-.674 0-1.253-.136-1.739-.41a2.802 2.802 0 0 1-1.116-1.167c-.262-.505-.392-1.104-.392-1.794 0-.673.13-1.264.392-1.773a2.89 2.89 0 0 1 1.103-1.188c.477-.285 1.037-.427 1.68-.427.431 0 .833.07 1.205.21.375.136.702.342.98.617.282.276.5.622.657 1.04.156.415.234.9.234 1.457v.499H65.47v-1.125h3.818a1.39 1.39 0 0 0-.17-.695 1.222 1.222 0 0 0-.473-.473 1.35 1.35 0 0 0-.695-.175c-.275 0-.52.064-.733.192-.21.125-.375.294-.494.507-.12.21-.18.445-.183.703v1.07c0 .324.06.604.178.84.123.235.295.417.516.545.222.128.484.192.788.192.202 0 .387-.029.555-.085a1.111 1.111 0 0 0 .703-.673l1.679.11c-.086.403-.26.756-.525 1.057a2.63 2.63 0 0 1-1.014.699c-.412.165-.888.247-1.427.247Zm6.469-.022a2.47 2.47 0 0 1-1.351-.383c-.4-.258-.72-.638-.955-1.138-.233-.503-.35-1.12-.35-1.85 0-.75.121-1.373.363-1.87.241-.5.562-.873.963-1.12.403-.25.845-.376 1.325-.376.367 0 .672.063.916.188.248.122.447.275.597.46.153.182.27.36.35.537h.055v-3.281h1.811V80h-1.79v-1.048h-.077a2.341 2.341 0 0 1-.362.54 1.8 1.8 0 0 1-.6.44c-.245.116-.543.174-.895.174Zm.575-1.444c.292 0 .54-.08.741-.239.205-.162.361-.388.469-.677.11-.29.166-.63.166-1.019 0-.389-.054-.727-.162-1.014a1.455 1.455 0 0 0-.468-.665 1.192 1.192 0 0 0-.746-.234c-.298 0-.55.08-.754.243-.205.162-.36.386-.465.673-.105.287-.158.62-.158.997 0 .381.053.718.158 1.01.108.29.263.517.465.682.204.162.456.243.754.243ZM83.73 80h-1.977l3.013-8.727h2.378L90.153 80h-1.977l-2.186-6.733h-.069L83.731 80Zm-.123-3.43h4.67v1.44h-4.67v-1.44Zm10.5-3.115v1.363h-3.941v-1.364h3.942Zm-3.046-1.569h1.815v6.103a.83.83 0 0 0 .077.392c.051.09.122.154.213.191a.878.878 0 0 0 .324.056c.085 0 .17-.007.256-.022l.196-.038.285 1.351c-.09.028-.219.061-.383.098-.165.04-.365.064-.601.073-.438.016-.821-.042-1.15-.175a1.606 1.606 0 0 1-.764-.622c-.181-.282-.27-.637-.268-1.066v-6.34Zm7.579 1.569v1.363h-3.942v-1.364h3.942Zm-3.047-1.569h1.815v6.103a.83.83 0 0 0 .077.392c.051.09.122.154.213.191a.878.878 0 0 0 .324.056c.085 0 .17-.007.256-.022l.196-.038.285 1.351c-.09.028-.219.061-.383.098-.165.04-.365.064-.601.073-.438.016-.821-.042-1.15-.175a1.606 1.606 0 0 1-.764-.622c-.181-.282-.27-.637-.268-1.066v-6.34Zm5.964 8.238a2.73 2.73 0 0 1-1.117-.218 1.8 1.8 0 0 1-.775-.652c-.188-.29-.281-.65-.281-1.082 0-.364.066-.67.2-.916.133-.248.315-.446.545-.597.23-.15.492-.264.784-.34.296-.078.606-.132.929-.163.381-.04.688-.077.921-.11.233-.038.402-.092.507-.163a.356.356 0 0 0 .158-.315v-.025c0-.27-.086-.48-.256-.627-.168-.147-.406-.221-.716-.221-.327 0-.587.072-.78.217a.998.998 0 0 0-.383.537l-1.68-.136c.086-.398.254-.742.504-1.032a2.41 2.41 0 0 1 .967-.673c.398-.16.858-.239 1.381-.239.363 0 .711.043 1.044.128.335.085.632.218.89.397.262.178.468.409.618.69.151.278.226.612.226 1.001V80h-1.722v-.908h-.051a1.847 1.847 0 0 1-.422.541 1.942 1.942 0 0 1-.635.363 2.618 2.618 0 0 1-.856.128Zm.52-1.253c.267 0 .503-.053.707-.158.205-.108.365-.253.482-.435a1.12 1.12 0 0 0 .174-.618v-.694a.965.965 0 0 1-.234.102 4.312 4.312 0 0 1-.328.081c-.122.023-.244.044-.367.064l-.332.047a2.245 2.245 0 0 0-.558.15.894.894 0 0 0-.371.276.675.675 0 0 0-.132.426c0 .247.089.436.268.567.182.128.412.192.691.192Zm7.4 1.257c-.671 0-1.247-.142-1.73-.426a2.872 2.872 0 0 1-1.108-1.194c-.256-.508-.384-1.093-.384-1.755 0-.67.129-1.259.388-1.764a2.879 2.879 0 0 1 1.112-1.19c.48-.286 1.051-.43 1.713-.43.571 0 1.071.104 1.5.311.429.208.769.499 1.019.874.25.375.387.815.413 1.321h-1.713c-.048-.327-.176-.59-.384-.788-.204-.202-.473-.303-.805-.303a1.22 1.22 0 0 0-.737.23c-.208.15-.37.37-.486.66-.116.29-.175.641-.175 1.053 0 .418.057.773.171 1.066.116.292.28.515.49.669.21.153.456.23.737.23a1.2 1.2 0 0 0 .558-.128c.168-.085.306-.209.414-.37.11-.166.183-.363.217-.593h1.713c-.028.5-.165.94-.409 1.32a2.47 2.47 0 0 1-1.002.887c-.426.213-.93.32-1.512.32Zm5.598-2.011.004-2.178h.265l2.096-2.484h2.084l-2.817 3.29h-.43l-1.202 1.371ZM113.431 80v-8.727h1.816V80h-1.816Zm4.091 0-1.926-2.85 1.21-1.284L119.649 80h-2.127Z"/><rect width="137" height="30" x="2" y="115" stroke="#1E1E1E" stroke-linecap="round" stroke-width="4" rx="3"/><path fill="#000" fill-opacity=".8" d="M22.067 134v-8.727h5.881v1.521h-4.035v2.08h3.732v1.521h-3.732v2.084h4.052V134h-5.898Zm8.997-3.784V134H29.25v-6.545h1.73v1.154h.077a1.83 1.83 0 0 1 .728-.903c.341-.224.755-.337 1.24-.337.455 0 .851.1 1.19.299.337.198.6.483.788.852.187.366.28.804.28 1.312V134h-1.814v-3.844c.002-.4-.1-.713-.307-.937-.208-.228-.493-.341-.857-.341-.244 0-.46.052-.648.158a1.098 1.098 0 0 0-.434.46 1.594 1.594 0 0 0-.158.72Zm7.333 0V134h-1.815v-8.727h1.764v3.336h.077a1.85 1.85 0 0 1 .715-.907c.33-.222.743-.333 1.24-.333.455 0 .851.1 1.19.299.34.196.605.478.792.848.19.366.284.805.281 1.316V134h-1.815v-3.844c.003-.403-.1-.717-.307-.942-.204-.224-.491-.336-.86-.336-.248 0-.466.052-.657.158a1.114 1.114 0 0 0-.443.46 1.56 1.56 0 0 0-.162.72Zm7.407 3.908c-.417 0-.79-.073-1.116-.218a1.792 1.792 0 0 1-.776-.652c-.187-.29-.28-.65-.28-1.082 0-.364.066-.669.2-.916.133-.247.315-.446.545-.597.23-.15.491-.264.784-.341a6.03 6.03 0 0 1 .929-.162c.38-.04.688-.076.92-.111.233-.036.402-.09.508-.161a.358.358 0 0 0 .157-.316v-.025c0-.27-.085-.479-.255-.627-.168-.148-.407-.221-.716-.221-.327 0-.587.072-.78.217a1 1 0 0 0-.384.537l-1.679-.137c.086-.397.253-.741.503-1.031.25-.292.573-.517.967-.673.398-.159.858-.239 1.381-.239.364 0 .712.043 1.044.128.335.085.632.217.89.396.262.179.468.41.619.691.15.278.225.612.225 1.001V134h-1.72v-.908h-.051a1.853 1.853 0 0 1-.422.542 1.958 1.958 0 0 1-.635.362 2.63 2.63 0 0 1-.857.128Zm.52-1.253c.267 0 .503-.053.708-.158.204-.108.365-.253.481-.435.117-.181.175-.387.175-.617v-.695a.961.961 0 0 1-.234.102 3.8 3.8 0 0 1-.328.081 16.62 16.62 0 0 1-.367.064l-.332.047c-.213.031-.4.081-.559.149a.896.896 0 0 0-.37.277.676.676 0 0 0-.133.426c0 .247.09.436.269.567.182.128.412.192.69.192Zm6.258-2.655V134h-1.815v-6.545h1.73v1.154h.077a1.83 1.83 0 0 1 .728-.903c.341-.224.755-.337 1.24-.337.455 0 .851.1 1.19.299.337.198.6.483.788.852.187.366.281.804.281 1.312V134h-1.815v-3.844c.003-.4-.1-.713-.307-.937-.208-.228-.493-.341-.857-.341-.244 0-.46.052-.647.158-.185.105-.33.258-.435.46a1.596 1.596 0 0 0-.158.72Zm8.475 3.912c-.67 0-1.247-.142-1.73-.426a2.884 2.884 0 0 1-1.108-1.193c-.256-.509-.383-1.094-.383-1.756 0-.671.129-1.259.387-1.764a2.877 2.877 0 0 1 1.113-1.189c.48-.287 1.05-.431 1.713-.431.57 0 1.07.104 1.5.311.429.208.768.499 1.018.874s.388.815.413 1.321h-1.713a1.322 1.322 0 0 0-.383-.788c-.205-.202-.473-.303-.806-.303a1.22 1.22 0 0 0-.737.23c-.207.151-.37.371-.486.661-.116.289-.174.64-.174 1.052 0 .418.056.773.17 1.066.117.292.28.515.49.669.21.153.456.23.737.23a1.2 1.2 0 0 0 .559-.128 1.08 1.08 0 0 0 .413-.371 1.42 1.42 0 0 0 .217-.592h1.713c-.028.5-.164.94-.409 1.321a2.469 2.469 0 0 1-1.001.886c-.426.213-.93.32-1.513.32Zm6.937 0c-.674 0-1.253-.137-1.739-.409a2.804 2.804 0 0 1-1.116-1.168c-.262-.506-.392-1.104-.392-1.794 0-.673.13-1.264.392-1.773a2.9 2.9 0 0 1 1.103-1.189c.477-.284 1.037-.426 1.68-.426.431 0 .833.07 1.205.209.375.136.702.342.98.618.282.276.5.622.657 1.04.156.415.234.9.234 1.457v.499H65.47v-1.125h3.818c0-.262-.057-.493-.17-.695a1.222 1.222 0 0 0-.473-.473 1.354 1.354 0 0 0-.695-.175c-.275 0-.52.064-.733.192-.21.125-.375.294-.494.507a1.43 1.43 0 0 0-.183.703v1.07c0 .324.06.604.178.84.123.235.295.417.516.545.222.128.484.192.788.192.202 0 .387-.029.555-.085a1.113 1.113 0 0 0 .703-.674l1.679.111c-.086.403-.26.756-.525 1.057-.26.298-.599.531-1.014.699-.412.164-.888.247-1.427.247Zm6.469-.021c-.498 0-.948-.128-1.351-.384-.4-.259-.72-.638-.955-1.138-.233-.503-.35-1.119-.35-1.849 0-.75.121-1.374.363-1.871.241-.5.562-.874.963-1.121.403-.25.845-.375 1.325-.375.367 0 .672.063.916.188.248.122.447.275.597.46.153.182.27.361.35.537h.055v-3.281h1.811V134h-1.79v-1.048h-.077a2.336 2.336 0 0 1-.362.541 1.809 1.809 0 0 1-.6.439c-.245.116-.543.175-.895.175Zm.575-1.445c.292 0 .54-.08.741-.239a1.51 1.51 0 0 0 .469-.677c.11-.29.166-.63.166-1.019 0-.389-.054-.727-.162-1.014a1.46 1.46 0 0 0-.468-.665 1.194 1.194 0 0 0-.746-.234c-.298 0-.55.081-.754.243-.205.162-.36.386-.465.673a2.891 2.891 0 0 0-.158.997c0 .381.053.718.158 1.01.108.29.263.517.465.682.204.162.456.243.754.243ZM83.73 134h-1.977l3.013-8.727h2.378L90.153 134h-1.977l-2.186-6.733h-.069L83.731 134Zm-.123-3.43h4.67v1.44h-4.67v-1.44Zm10.5-3.115v1.363h-3.941v-1.363h3.942Zm-3.046-1.569h1.815v6.103a.83.83 0 0 0 .077.392.417.417 0 0 0 .213.191.878.878 0 0 0 .324.056c.085 0 .17-.007.256-.021.085-.018.15-.03.196-.039l.285 1.351c-.09.028-.219.061-.383.098-.165.04-.365.064-.601.072-.438.018-.821-.041-1.15-.174a1.61 1.61 0 0 1-.764-.622c-.181-.282-.27-.637-.268-1.066v-6.341Zm7.579 1.569v1.363h-3.942v-1.363h3.942Zm-3.047-1.569h1.815v6.103a.83.83 0 0 0 .077.392.417.417 0 0 0 .213.191.877.877 0 0 0 .324.056c.085 0 .17-.007.256-.021.085-.018.15-.03.196-.039l.285 1.351c-.09.028-.219.061-.383.098-.165.04-.365.064-.601.072-.438.018-.821-.041-1.15-.174a1.61 1.61 0 0 1-.764-.622c-.181-.282-.27-.637-.268-1.066v-6.341Zm5.964 8.238c-.418 0-.79-.073-1.117-.218a1.795 1.795 0 0 1-.775-.652c-.188-.29-.281-.65-.281-1.082 0-.364.066-.669.2-.916a1.63 1.63 0 0 1 .545-.597c.23-.15.492-.264.784-.341.296-.077.606-.13.929-.162.381-.04.688-.076.921-.111.233-.036.402-.09.507-.161a.359.359 0 0 0 .158-.316v-.025c0-.27-.086-.479-.256-.627-.168-.148-.406-.221-.716-.221-.327 0-.587.072-.78.217a.997.997 0 0 0-.383.537l-1.68-.137a2.28 2.28 0 0 1 .504-1.031c.25-.292.572-.517.967-.673.398-.159.858-.239 1.381-.239.363 0 .711.043 1.044.128.335.085.632.217.89.396.262.179.468.41.618.691.151.278.226.612.226 1.001V134h-1.722v-.908h-.051a1.855 1.855 0 0 1-.422.542 1.949 1.949 0 0 1-.635.362 2.626 2.626 0 0 1-.856.128Zm.52-1.253c.267 0 .503-.053.707-.158.205-.108.365-.253.482-.435a1.12 1.12 0 0 0 .174-.617v-.695a.95.95 0 0 1-.234.102 3.844 3.844 0 0 1-.328.081c-.122.023-.244.044-.367.064l-.332.047a2.24 2.24 0 0 0-.558.149.896.896 0 0 0-.371.277.676.676 0 0 0-.132.426c0 .247.089.436.268.567.182.128.412.192.691.192Zm7.4 1.257c-.671 0-1.247-.142-1.73-.426a2.875 2.875 0 0 1-1.108-1.193c-.256-.509-.384-1.094-.384-1.756 0-.671.129-1.259.388-1.764a2.875 2.875 0 0 1 1.112-1.189c.48-.287 1.051-.431 1.713-.431.571 0 1.071.104 1.5.311.429.208.769.499 1.019.874.25.375.387.815.413 1.321h-1.713c-.048-.327-.176-.589-.384-.788-.204-.202-.473-.303-.805-.303a1.22 1.22 0 0 0-.737.23c-.208.151-.37.371-.486.661-.116.289-.175.64-.175 1.052 0 .418.057.773.171 1.066.116.292.28.515.49.669.21.153.456.23.737.23a1.2 1.2 0 0 0 .558-.128c.168-.085.306-.209.414-.371a1.43 1.43 0 0 0 .217-.592h1.713c-.028.5-.165.94-.409 1.321a2.468 2.468 0 0 1-1.002.886c-.426.213-.93.32-1.512.32Zm5.598-2.012.004-2.177h.265l2.096-2.484h2.084l-2.817 3.289h-.43l-1.202 1.372ZM113.431 134v-8.727h1.816V134h-1.816Zm4.091 0-1.926-2.851 1.21-1.283 2.843 4.134h-2.127Z"/><path fill="#1E1E1E" d="M203 84.88c0 1.105 1.353 1.886 2.309 1.334l15.382-8.88c.956-.553.956-2.115 0-2.667l-15.382-8.88c-.956-.553-2.309.228-2.309 1.333v17.76ZM159 74a2 2 0 1 0 0 4v-4Zm46 0h-46v4h46v-4Zm3.948 35.412c.487.992 2.045 1.098 2.661.181l9.904-14.743c.616-.917-.071-2.32-1.174-2.395L202.62 91.25c-1.102-.075-1.973 1.221-1.487 2.213l7.815 15.949Zm-50.828 12.792a2 2 0 1 0 1.76 3.592l-1.76-3.592Zm47.836-23.443-47.836 23.443 1.76 3.592 47.837-23.443-1.761-3.592Zm-4.823-39.224c-.486.992.385 2.288 1.487 2.213l17.719-1.205c1.103-.075 1.79-1.478 1.174-2.395l-9.904-14.743c-.616-.917-2.174-.81-2.661.181l-7.815 15.949ZM159.88 27.204a2 2 0 1 0-1.76 3.592l1.76-3.592Zm47.837 23.443L159.88 27.204l-1.76 3.592 47.836 23.443 1.761-3.592Z"/><rect width="96" height="143" x="242" y="2" stroke="#1E1E1E" stroke-linecap="round" stroke-width="4" rx="6"/><path fill="#1E1E1E" d="M258.272 69.43v-1.52h7.168v1.52h-2.672v7.206h-1.824V69.43h-2.672Zm9.158 7.33a2.73 2.73 0 0 1-1.117-.217 1.798 1.798 0 0 1-.775-.652c-.188-.29-.281-.651-.281-1.083 0-.363.066-.669.2-.916.133-.247.315-.446.545-.597.23-.15.492-.264.784-.34.296-.077.606-.131.929-.162.381-.04.688-.077.921-.111.233-.037.402-.091.507-.162a.356.356 0 0 0 .158-.316v-.025c0-.27-.086-.479-.256-.627-.168-.147-.406-.221-.716-.221-.327 0-.587.072-.78.217a.997.997 0 0 0-.383.537l-1.679-.136a2.28 2.28 0 0 1 .503-1.031c.25-.293.572-.517.967-.674.398-.159.858-.238 1.381-.238.363 0 .711.042 1.044.127.335.086.632.218.89.397.262.179.468.409.618.69.151.279.226.612.226 1.002v4.414h-1.722v-.907h-.051a1.85 1.85 0 0 1-.422.54 1.944 1.944 0 0 1-.635.363 2.62 2.62 0 0 1-.856.128Zm.52-1.253c.267 0 .503-.053.707-.158.205-.108.365-.252.482-.434.116-.182.174-.388.174-.618v-.695a.962.962 0 0 1-.234.102 4.357 4.357 0 0 1-.328.082c-.122.022-.244.043-.367.063l-.332.047a2.245 2.245 0 0 0-.558.15.895.895 0 0 0-.371.276.675.675 0 0 0-.132.427c0 .247.089.436.268.566.182.128.412.192.691.192Zm4.442 1.13V70.09h1.76v1.142h.068c.12-.406.32-.713.601-.92.282-.21.605-.316.972-.316a2.734 2.734 0 0 1 .571.064v1.61a2.357 2.357 0 0 0-.354-.067c-.15-.02-.288-.03-.413-.03-.267 0-.506.058-.716.175a1.287 1.287 0 0 0-.494.477c-.12.204-.179.44-.179.707v3.703h-1.816Zm7.423 2.59c-.588 0-1.093-.08-1.513-.243-.418-.159-.75-.376-.997-.652a2.009 2.009 0 0 1-.482-.929l1.679-.226c.051.131.132.253.243.367.111.114.257.205.439.273.185.07.409.106.673.106.395 0 .72-.096.976-.29.259-.19.388-.51.388-.958v-1.198h-.077a1.717 1.717 0 0 1-.358.516 1.8 1.8 0 0 1-.613.396 2.36 2.36 0 0 1-.895.154 2.69 2.69 0 0 1-1.343-.341c-.4-.23-.72-.581-.958-1.053-.236-.474-.354-1.074-.354-1.798 0-.742.121-1.361.362-1.858.242-.497.563-.87.963-1.117a2.49 2.49 0 0 1 1.325-.37c.367 0 .674.062.921.187.247.122.446.276.597.46.153.182.271.361.353.537h.068v-1.1h1.803v6.61c0 .557-.136 1.023-.409 1.398-.273.375-.651.656-1.134.844-.48.19-1.032.285-1.657.285Zm.038-4.048c.293 0 .54-.073.741-.217.205-.148.361-.358.469-.631.111-.276.166-.605.166-.989 0-.383-.054-.716-.162-.997a1.454 1.454 0 0 0-.468-.66 1.193 1.193 0 0 0-.746-.235c-.298 0-.55.081-.754.243-.205.16-.36.38-.465.665a2.832 2.832 0 0 0-.157.984c0 .378.052.705.157.98.108.273.263.485.465.635.204.148.456.222.754.222Zm7.457 1.585c-.673 0-1.252-.136-1.738-.409a2.807 2.807 0 0 1-1.117-1.168c-.261-.505-.392-1.103-.392-1.793 0-.674.131-1.265.392-1.773.262-.509.63-.905 1.104-1.19.477-.283 1.037-.425 1.679-.425.432 0 .834.07 1.206.209.375.136.702.342.98.617.281.276.5.623.656 1.04.157.415.235.9.235 1.457v.5h-5.527v-1.126h3.818a1.39 1.39 0 0 0-.171-.695 1.215 1.215 0 0 0-.473-.472 1.345 1.345 0 0 0-.694-.175c-.276 0-.52.064-.733.191-.21.125-.375.295-.494.508-.12.21-.181.444-.184.703v1.07c0 .323.06.603.179.839.123.236.294.418.516.545.222.128.484.192.788.192.202 0 .387-.028.554-.085a1.109 1.109 0 0 0 .703-.673l1.679.11a2.29 2.29 0 0 1-.524 1.057 2.626 2.626 0 0 1-1.014.699c-.412.165-.888.247-1.428.247Zm7.539-6.673v1.364h-3.942V70.09h3.942Zm-3.047-1.568h1.815v6.102c0 .168.026.298.077.392.051.09.122.155.213.192a.882.882 0 0 0 .324.055c.085 0 .171-.007.256-.021l.196-.038.285 1.35a5.055 5.055 0 0 1-.383.098c-.165.04-.365.064-.601.073-.438.017-.821-.041-1.151-.175a1.603 1.603 0 0 1-.762-.622c-.182-.281-.272-.636-.269-1.065v-6.341Zm6.777 8.113V67.91h1.845v7.206h3.742v1.521h-5.587Zm6.677 0V67.91h1.845v7.206h3.741v1.521h-5.586Zm6.676-8.727h2.276l2.403 5.864h.102l2.404-5.864h2.275v8.727h-1.789v-5.68h-.073l-2.258 5.638h-1.219l-2.259-5.66h-.072v5.702h-1.79V67.91ZM354 72a2 2 0 1 0 0 4v-4Zm44 10.88c0 1.105 1.353 1.886 2.309 1.334l15.382-8.88c.956-.553.956-2.115 0-2.667l-15.382-8.88c-.956-.553-2.309.228-2.309 1.333v17.76ZM354 76h46v-4h-46v4Zm.88 12.84a2 2 0 1 0-1.76 3.592l1.76-3.592Zm41.253 32.333c-.486.992.385 2.289 1.487 2.214l17.719-1.206c1.103-.075 1.79-1.478 1.174-2.395l-9.904-14.742c-.616-.917-2.174-.811-2.661.181l-7.815 15.948Zm-43.013-28.74 47.836 23.442 1.761-3.592L354.88 88.84l-1.76 3.592Zm0-35.865a2 2 0 0 0 1.76 3.592l-1.76-3.592Zm50.828-12.793c.487.992 2.045 1.098 2.661.181l9.904-14.742c.616-.917-.071-2.32-1.174-2.395l-17.719-1.206c-1.102-.075-1.973 1.222-1.487 2.214l7.815 15.948ZM354.88 60.16l47.837-23.443-1.761-3.592-47.836 23.443 1.76 3.592Z"/><rect width="80" height="30" x="434" y="5" stroke="#1E1E1E" stroke-linecap="round" stroke-width="4" rx="3"/><path fill="#000" fill-opacity=".8" d="M446.217 24v-8.727h3.443c.659 0 1.221.118 1.687.353.469.233.826.564 1.07.993.247.427.371.928.371 1.505 0 .58-.125 1.078-.375 1.495-.25.415-.613.733-1.087.955-.472.221-1.043.332-1.713.332h-2.305v-1.483h2.007c.352 0 .645-.048.877-.145.233-.096.407-.241.52-.434.117-.193.175-.434.175-.72 0-.29-.058-.534-.175-.733a1.068 1.068 0 0 0-.524-.452c-.233-.105-.527-.158-.882-.158h-1.244V24h-1.845Zm4.713-3.972L453.099 24h-2.037l-2.122-3.972h1.99Zm5.873 4.1c-.673 0-1.253-.137-1.739-.41a2.798 2.798 0 0 1-1.116-1.167c-.261-.505-.392-1.104-.392-1.794 0-.673.131-1.264.392-1.773a2.892 2.892 0 0 1 1.104-1.189c.477-.284 1.037-.426 1.679-.426.431 0 .833.07 1.206.21.375.136.701.341.98.617.281.276.5.622.656 1.04.156.415.234.9.234 1.457v.499h-5.527v-1.125h3.818c0-.262-.056-.493-.17-.695a1.222 1.222 0 0 0-.473-.473 1.35 1.35 0 0 0-.695-.175 1.4 1.4 0 0 0-.733.192c-.21.125-.375.294-.494.507-.119.21-.18.445-.183.703v1.07c0 .324.06.604.179.84.122.235.294.417.515.545.222.128.485.192.789.192.202 0 .386-.029.554-.085a1.11 1.11 0 0 0 .703-.673l1.679.11c-.085.403-.26.756-.524 1.057a2.65 2.65 0 0 1-1.014.699c-.412.165-.888.247-1.428.247Zm9.503-4.807-1.662.102a.851.851 0 0 0-.183-.383.979.979 0 0 0-.371-.277 1.261 1.261 0 0 0-.541-.107c-.281 0-.519.06-.712.18-.193.116-.29.272-.29.468 0 .156.063.288.188.396.125.108.339.195.643.26l1.185.239c.636.13 1.111.34 1.423.63.313.29.469.671.469 1.143 0 .429-.126.805-.379 1.129-.25.324-.594.577-1.031.758-.435.18-.936.269-1.505.269-.866 0-1.556-.18-2.071-.541a2.11 2.11 0 0 1-.899-1.483l1.786-.094a.915.915 0 0 0 .392.605c.207.136.473.205.797.205.318 0 .573-.061.767-.184.196-.125.295-.285.298-.481a.503.503 0 0 0-.209-.405c-.136-.108-.346-.19-.631-.247l-1.133-.226c-.639-.128-1.115-.35-1.428-.665-.309-.315-.464-.717-.464-1.206 0-.42.114-.782.341-1.086.23-.304.552-.539.967-.704.418-.164.906-.247 1.466-.247.827 0 1.477.175 1.952.524.477.35.755.826.835 1.428Zm1.16 7.133v-9h1.79v1.1h.081c.079-.176.195-.355.345-.537.154-.185.352-.338.597-.46.247-.125.554-.188.92-.188.477 0 .918.125 1.321.375.404.247.726.621.968 1.121.241.497.362 1.12.362 1.87 0 .73-.118 1.347-.354 1.85-.233.5-.551.88-.955 1.138-.4.256-.849.384-1.346.384-.352 0-.652-.059-.899-.175a1.851 1.851 0 0 1-.601-.44 2.226 2.226 0 0 1-.358-.54h-.055v3.502h-1.816Zm1.777-5.727c0 .39.054.729.162 1.019.108.29.264.515.469.677.204.16.453.239.746.239.295 0 .545-.081.75-.243.204-.165.359-.392.464-.682.108-.292.162-.629.162-1.01 0-.378-.053-.71-.158-.997a1.488 1.488 0 0 0-.464-.673 1.178 1.178 0 0 0-.754-.243c-.296 0-.546.078-.75.234a1.469 1.469 0 0 0-.465.665 2.876 2.876 0 0 0-.162 1.014Zm8.642 3.4c-.662 0-1.234-.14-1.717-.421a2.885 2.885 0 0 1-1.112-1.185c-.262-.508-.392-1.098-.392-1.768 0-.676.13-1.267.392-1.773a2.85 2.85 0 0 1 1.112-1.184c.483-.285 1.055-.427 1.717-.427.662 0 1.233.142 1.713.427.483.28.856.676 1.117 1.184.261.506.392 1.097.392 1.773 0 .67-.131 1.26-.392 1.768-.261.506-.634.9-1.117 1.185-.48.281-1.051.422-1.713.422Zm.009-1.405c.301 0 .552-.086.754-.256.202-.173.354-.41.456-.707.105-.299.158-.638.158-1.019 0-.38-.053-.72-.158-1.018a1.581 1.581 0 0 0-.456-.708 1.117 1.117 0 0 0-.754-.26c-.304 0-.56.087-.767.26-.205.174-.36.41-.465.708a3.14 3.14 0 0 0-.153 1.018c0 .38.051.72.153 1.019.105.298.26.534.465.707.207.17.463.256.767.256Zm6.077-2.506V24h-1.816v-6.546h1.73v1.155h.077a1.83 1.83 0 0 1 .729-.903c.341-.224.754-.337 1.24-.337.454 0 .851.1 1.189.299.338.198.601.483.788.852.188.366.281.804.281 1.312V24h-1.815v-3.844c.003-.4-.099-.713-.307-.937-.207-.228-.493-.341-.856-.341-.245 0-.46.052-.648.157-.185.106-.33.259-.435.46a1.6 1.6 0 0 0-.157.72Zm10.963-.895-1.662.102a.851.851 0 0 0-.183-.383.971.971 0 0 0-.371-.277 1.258 1.258 0 0 0-.541-.107c-.281 0-.518.06-.712.18-.193.116-.289.272-.289.468 0 .156.062.288.187.396.125.108.34.195.644.26l1.184.239c.637.13 1.111.34 1.424.63.312.29.468.671.468 1.143 0 .429-.126.805-.379 1.129-.25.324-.594.577-1.031.758-.435.18-.936.269-1.504.269-.867 0-1.557-.18-2.071-.541a2.107 2.107 0 0 1-.9-1.483l1.786-.094a.919.919 0 0 0 .392.605c.207.136.473.205.797.205.318 0 .574-.061.767-.184.196-.125.295-.285.298-.481a.5.5 0 0 0-.209-.405c-.136-.108-.346-.19-.63-.247l-1.134-.226c-.639-.128-1.115-.35-1.427-.665-.31-.315-.465-.717-.465-1.206 0-.42.114-.782.341-1.086.23-.304.553-.539.967-.704.418-.164.907-.247 1.466-.247.827 0 1.478.175 1.952.524.477.35.756.826.835 1.428Zm4.143 4.807c-.673 0-1.252-.137-1.738-.41a2.807 2.807 0 0 1-1.117-1.167c-.261-.505-.392-1.104-.392-1.794 0-.673.131-1.264.392-1.773.262-.508.63-.905 1.104-1.189.477-.284 1.037-.426 1.679-.426.432 0 .834.07 1.206.21.375.136.702.341.98.617.281.276.5.622.656 1.04.157.415.235.9.235 1.457v.499h-5.527v-1.125h3.818c0-.262-.057-.493-.171-.695a1.215 1.215 0 0 0-.473-.473 1.346 1.346 0 0 0-.694-.175c-.276 0-.52.064-.733.192-.21.125-.375.294-.494.507-.12.21-.181.445-.184.703v1.07c0 .324.06.604.179.84.122.235.294.417.516.545.221.128.484.192.788.192.202 0 .387-.029.554-.085a1.107 1.107 0 0 0 .703-.673l1.679.11c-.085.403-.26.756-.524 1.057a2.626 2.626 0 0 1-1.014.699c-.412.165-.888.247-1.428.247Z"/><rect width="80" height="30" x="434" y="58" stroke="#1E1E1E" stroke-linecap="round" stroke-width="4" rx="3"/><path fill="#000" fill-opacity=".8" d="M446.217 77v-8.727h3.443c.659 0 1.221.118 1.687.353.469.233.826.564 1.07.993.247.427.371.928.371 1.505 0 .58-.125 1.078-.375 1.495-.25.415-.613.733-1.087.955-.472.222-1.043.332-1.713.332h-2.305v-1.483h2.007c.352 0 .645-.048.877-.145.233-.096.407-.241.52-.434.117-.193.175-.433.175-.72 0-.29-.058-.534-.175-.733a1.068 1.068 0 0 0-.524-.452c-.233-.105-.527-.158-.882-.158h-1.244V77h-1.845Zm4.713-3.972L453.099 77h-2.037l-2.122-3.972h1.99Zm5.873 4.1c-.673 0-1.253-.136-1.739-.41a2.798 2.798 0 0 1-1.116-1.167c-.261-.505-.392-1.104-.392-1.794 0-.673.131-1.264.392-1.773a2.892 2.892 0 0 1 1.104-1.188c.477-.285 1.037-.427 1.679-.427.431 0 .833.07 1.206.21.375.136.701.342.98.617.281.276.5.622.656 1.04.156.415.234.9.234 1.457v.499h-5.527v-1.125h3.818c0-.262-.056-.493-.17-.695a1.222 1.222 0 0 0-.473-.473 1.35 1.35 0 0 0-.695-.175 1.4 1.4 0 0 0-.733.192c-.21.125-.375.294-.494.507-.119.21-.18.445-.183.703v1.07c0 .324.06.604.179.84.122.235.294.417.515.545.222.128.485.192.789.192.202 0 .386-.029.554-.085a1.11 1.11 0 0 0 .703-.673l1.679.11c-.085.403-.26.756-.524 1.057a2.65 2.65 0 0 1-1.014.699c-.412.165-.888.247-1.428.247Zm9.503-4.807-1.662.102a.851.851 0 0 0-.183-.383.979.979 0 0 0-.371-.277 1.261 1.261 0 0 0-.541-.107c-.281 0-.519.06-.712.18-.193.116-.29.272-.29.468 0 .156.063.288.188.396.125.108.339.195.643.26l1.185.239c.636.13 1.111.34 1.423.63.313.29.469.671.469 1.143 0 .429-.126.805-.379 1.129-.25.324-.594.577-1.031.758-.435.18-.936.269-1.505.269-.866 0-1.556-.18-2.071-.541a2.11 2.11 0 0 1-.899-1.483l1.786-.094a.915.915 0 0 0 .392.605c.207.136.473.205.797.205.318 0 .573-.061.767-.184.196-.125.295-.285.298-.481a.503.503 0 0 0-.209-.405c-.136-.108-.346-.19-.631-.247l-1.133-.226c-.639-.128-1.115-.35-1.428-.665-.309-.315-.464-.717-.464-1.206 0-.42.114-.782.341-1.086.23-.304.552-.539.967-.703.418-.165.906-.248 1.466-.248.827 0 1.477.175 1.952.525.477.349.755.825.835 1.427Zm1.16 7.133v-9h1.79v1.1h.081c.079-.176.195-.355.345-.537.154-.185.352-.338.597-.46.247-.125.554-.188.92-.188.477 0 .918.125 1.321.375.404.248.726.621.968 1.121.241.497.362 1.12.362 1.87 0 .73-.118 1.347-.354 1.85-.233.5-.551.88-.955 1.138-.4.256-.849.383-1.346.383-.352 0-.652-.058-.899-.174a1.851 1.851 0 0 1-.601-.44 2.226 2.226 0 0 1-.358-.54h-.055v3.502h-1.816Zm1.777-5.727c0 .39.054.729.162 1.019.108.29.264.515.469.677.204.16.453.239.746.239.295 0 .545-.081.75-.243.204-.165.359-.392.464-.682.108-.292.162-.629.162-1.01 0-.378-.053-.71-.158-.997a1.488 1.488 0 0 0-.464-.673 1.178 1.178 0 0 0-.754-.243c-.296 0-.546.078-.75.234a1.469 1.469 0 0 0-.465.665 2.876 2.876 0 0 0-.162 1.014Zm8.642 3.4c-.662 0-1.234-.14-1.717-.421a2.885 2.885 0 0 1-1.112-1.185c-.262-.508-.392-1.098-.392-1.768 0-.676.13-1.267.392-1.773a2.85 2.85 0 0 1 1.112-1.184c.483-.285 1.055-.427 1.717-.427.662 0 1.233.142 1.713.427.483.28.856.676 1.117 1.184.261.506.392 1.097.392 1.773 0 .67-.131 1.26-.392 1.768-.261.506-.634.9-1.117 1.185-.48.281-1.051.422-1.713.422Zm.009-1.405c.301 0 .552-.086.754-.256.202-.173.354-.41.456-.707.105-.299.158-.638.158-1.019 0-.38-.053-.72-.158-1.018a1.581 1.581 0 0 0-.456-.708 1.117 1.117 0 0 0-.754-.26c-.304 0-.56.087-.767.26-.205.174-.36.41-.465.708a3.14 3.14 0 0 0-.153 1.018c0 .38.051.72.153 1.019.105.298.26.534.465.707.207.17.463.256.767.256Zm6.077-2.506V77h-1.816v-6.546h1.73v1.155h.077a1.83 1.83 0 0 1 .729-.903c.341-.225.754-.337 1.24-.337.454 0 .851.1 1.189.299.338.198.601.483.788.852.188.366.281.804.281 1.312V77h-1.815v-3.844c.003-.4-.099-.713-.307-.937-.207-.227-.493-.341-.856-.341-.245 0-.46.052-.648.157-.185.106-.33.259-.435.46a1.6 1.6 0 0 0-.157.72Zm10.963-.895-1.662.102a.851.851 0 0 0-.183-.383.971.971 0 0 0-.371-.277 1.258 1.258 0 0 0-.541-.107c-.281 0-.518.06-.712.18-.193.116-.289.272-.289.468 0 .156.062.288.187.396.125.108.34.195.644.26l1.184.239c.637.13 1.111.34 1.424.63.312.29.468.671.468 1.143 0 .429-.126.805-.379 1.129-.25.324-.594.577-1.031.758-.435.18-.936.269-1.504.269-.867 0-1.557-.18-2.071-.541a2.107 2.107 0 0 1-.9-1.483l1.786-.094a.919.919 0 0 0 .392.605c.207.136.473.205.797.205.318 0 .574-.061.767-.184.196-.125.295-.285.298-.481a.5.5 0 0 0-.209-.405c-.136-.108-.346-.19-.63-.247l-1.134-.226c-.639-.128-1.115-.35-1.427-.665-.31-.315-.465-.717-.465-1.206 0-.42.114-.782.341-1.086.23-.304.553-.539.967-.703.418-.165.907-.248 1.466-.248.827 0 1.478.175 1.952.525.477.349.756.825.835 1.427Zm4.143 4.807c-.673 0-1.252-.136-1.738-.41a2.807 2.807 0 0 1-1.117-1.167c-.261-.505-.392-1.104-.392-1.794 0-.673.131-1.264.392-1.773.262-.508.63-.904 1.104-1.188.477-.285 1.037-.427 1.679-.427.432 0 .834.07 1.206.21.375.136.702.342.98.617.281.276.5.622.656 1.04.157.415.235.9.235 1.457v.499h-5.527v-1.125h3.818c0-.262-.057-.493-.171-.695a1.215 1.215 0 0 0-.473-.473 1.346 1.346 0 0 0-.694-.175c-.276 0-.52.064-.733.192-.21.125-.375.294-.494.507-.12.21-.181.445-.184.703v1.07c0 .324.06.604.179.84.122.235.294.417.516.545.221.128.484.192.788.192.202 0 .387-.029.554-.085a1.107 1.107 0 0 0 .703-.673l1.679.11c-.085.403-.26.756-.524 1.057a2.626 2.626 0 0 1-1.014.699c-.412.165-.888.247-1.428.247Z"/><rect width="80" height="30" x="434" y="111" stroke="#1E1E1E" stroke-linecap="round" stroke-width="4" rx="3"/><path fill="#000" fill-opacity=".8" d="M446.217 130v-8.727h3.443c.659 0 1.221.118 1.687.353.469.233.826.564 1.07.993.247.426.371.928.371 1.505 0 .579-.125 1.078-.375 1.495-.25.415-.613.733-1.087.955-.472.221-1.043.332-1.713.332h-2.305v-1.483h2.007c.352 0 .645-.048.877-.145.233-.096.407-.241.52-.434.117-.193.175-.433.175-.72 0-.29-.058-.535-.175-.733a1.066 1.066 0 0 0-.524-.452c-.233-.105-.527-.158-.882-.158h-1.244V130h-1.845Zm4.713-3.972 2.169 3.972h-2.037l-2.122-3.972h1.99Zm5.873 4.1c-.673 0-1.253-.137-1.739-.409a2.8 2.8 0 0 1-1.116-1.168c-.261-.506-.392-1.104-.392-1.794 0-.673.131-1.264.392-1.773a2.902 2.902 0 0 1 1.104-1.189c.477-.284 1.037-.426 1.679-.426.431 0 .833.07 1.206.209.375.136.701.342.98.618.281.276.5.622.656 1.04.156.415.234.9.234 1.457v.499h-5.527v-1.125h3.818c0-.262-.056-.493-.17-.695a1.222 1.222 0 0 0-.473-.473 1.354 1.354 0 0 0-.695-.175 1.4 1.4 0 0 0-.733.192c-.21.125-.375.294-.494.507a1.44 1.44 0 0 0-.183.703v1.07c0 .324.06.604.179.84.122.235.294.417.515.545.222.128.485.192.789.192.202 0 .386-.029.554-.085a1.113 1.113 0 0 0 .703-.674l1.679.111c-.085.403-.26.756-.524 1.057a2.65 2.65 0 0 1-1.014.699c-.412.164-.888.247-1.428.247Zm9.503-4.807-1.662.102a.847.847 0 0 0-.183-.383.972.972 0 0 0-.371-.277 1.26 1.26 0 0 0-.541-.107c-.281 0-.519.06-.712.179-.193.117-.29.273-.29.469 0 .156.063.288.188.396.125.108.339.195.643.26l1.185.239c.636.131 1.111.341 1.423.631.313.289.469.67.469 1.142 0 .429-.126.805-.379 1.129-.25.324-.594.577-1.031.758-.435.179-.936.269-1.505.269-.866 0-1.556-.181-2.071-.541a2.11 2.11 0 0 1-.899-1.483l1.786-.094a.915.915 0 0 0 .392.605c.207.136.473.205.797.205.318 0 .573-.061.767-.184.196-.125.295-.285.298-.481a.502.502 0 0 0-.209-.405c-.136-.108-.346-.19-.631-.247l-1.133-.226c-.639-.128-1.115-.349-1.428-.665-.309-.315-.464-.717-.464-1.206 0-.42.114-.782.341-1.086.23-.304.552-.539.967-.704.418-.164.906-.247 1.466-.247.827 0 1.477.175 1.952.524.477.35.755.826.835 1.428Zm1.16 7.134v-9h1.79v1.099h.081c.079-.176.195-.355.345-.537.154-.185.352-.338.597-.46.247-.125.554-.188.92-.188.477 0 .918.125 1.321.375.404.247.726.621.968 1.121.241.497.362 1.121.362 1.871 0 .73-.118 1.346-.354 1.849-.233.5-.551.879-.955 1.138-.4.256-.849.384-1.346.384-.352 0-.652-.059-.899-.175a1.86 1.86 0 0 1-.601-.439 2.221 2.221 0 0 1-.358-.541h-.055v3.503h-1.816Zm1.777-5.728c0 .389.054.729.162 1.019.108.29.264.515.469.677.204.159.453.239.746.239.295 0 .545-.081.75-.243.204-.165.359-.392.464-.682.108-.292.162-.629.162-1.01 0-.378-.053-.71-.158-.997a1.487 1.487 0 0 0-.464-.673 1.178 1.178 0 0 0-.754-.243c-.296 0-.546.078-.75.234a1.474 1.474 0 0 0-.465.665 2.876 2.876 0 0 0-.162 1.014Zm8.642 3.401c-.662 0-1.234-.141-1.717-.422a2.883 2.883 0 0 1-1.112-1.185c-.262-.508-.392-1.098-.392-1.768 0-.676.13-1.267.392-1.773a2.86 2.86 0 0 1 1.112-1.185c.483-.284 1.055-.426 1.717-.426.662 0 1.233.142 1.713.426.483.282.856.677 1.117 1.185.261.506.392 1.097.392 1.773 0 .67-.131 1.26-.392 1.768a2.876 2.876 0 0 1-1.117 1.185c-.48.281-1.051.422-1.713.422Zm.009-1.406c.301 0 .552-.086.754-.256a1.58 1.58 0 0 0 .456-.707c.105-.299.158-.638.158-1.019 0-.381-.053-.72-.158-1.018a1.578 1.578 0 0 0-.456-.708 1.118 1.118 0 0 0-.754-.26c-.304 0-.56.087-.767.26-.205.173-.36.409-.465.708a3.134 3.134 0 0 0-.153 1.018c0 .381.051.72.153 1.019.105.298.26.534.465.707.207.17.463.256.767.256Zm6.077-2.506V130h-1.816v-6.545h1.73v1.154h.077a1.83 1.83 0 0 1 .729-.903c.341-.224.754-.337 1.24-.337.454 0 .851.1 1.189.299.338.198.601.483.788.852.188.366.281.804.281 1.312V130h-1.815v-3.844c.003-.4-.099-.713-.307-.937-.207-.228-.493-.341-.856-.341-.245 0-.46.052-.648.158-.185.105-.33.258-.435.46a1.601 1.601 0 0 0-.157.72Zm10.963-.895-1.662.102a.847.847 0 0 0-.183-.383.964.964 0 0 0-.371-.277 1.258 1.258 0 0 0-.541-.107c-.281 0-.518.06-.712.179-.193.117-.289.273-.289.469 0 .156.062.288.187.396.125.108.34.195.644.26l1.184.239c.637.131 1.111.341 1.424.631.312.289.468.67.468 1.142 0 .429-.126.805-.379 1.129-.25.324-.594.577-1.031.758-.435.179-.936.269-1.504.269-.867 0-1.557-.181-2.071-.541a2.108 2.108 0 0 1-.9-1.483l1.786-.094a.919.919 0 0 0 .392.605c.207.136.473.205.797.205.318 0 .574-.061.767-.184.196-.125.295-.285.298-.481a.5.5 0 0 0-.209-.405c-.136-.108-.346-.19-.63-.247l-1.134-.226c-.639-.128-1.115-.349-1.427-.665-.31-.315-.465-.717-.465-1.206 0-.42.114-.782.341-1.086.23-.304.553-.539.967-.704.418-.164.907-.247 1.466-.247.827 0 1.478.175 1.952.524.477.35.756.826.835 1.428Zm4.143 4.807c-.673 0-1.252-.137-1.738-.409a2.81 2.81 0 0 1-1.117-1.168c-.261-.506-.392-1.104-.392-1.794 0-.673.131-1.264.392-1.773.262-.508.63-.904 1.104-1.189.477-.284 1.037-.426 1.679-.426.432 0 .834.07 1.206.209.375.136.702.342.98.618.281.276.5.622.656 1.04.157.415.235.9.235 1.457v.499h-5.527v-1.125h3.818c0-.262-.057-.493-.171-.695a1.215 1.215 0 0 0-.473-.473 1.35 1.35 0 0 0-.694-.175c-.276 0-.52.064-.733.192-.21.125-.375.294-.494.507a1.43 1.43 0 0 0-.184.703v1.07c0 .324.06.604.179.84.122.235.294.417.516.545.221.128.484.192.788.192.202 0 .387-.029.554-.085.168-.057.311-.143.431-.256a1.11 1.11 0 0 0 .272-.418l1.679.111c-.085.403-.26.756-.524 1.057a2.634 2.634 0 0 1-1.014.699c-.412.164-.888.247-1.428.247Z"/><path fill="#1E1E1E" d="M530 16a2 2 0 1 0 0 4v-4Zm18.4 10.88c0 1.105 1.353 1.886 2.309 1.334l15.382-8.88c.956-.553.956-2.115 0-2.667l-15.382-8.88c-.956-.553-2.309.228-2.309 1.333v17.76ZM530 20h20.4v-4H530v4Z"/><rect width="64" height="30" x="578" y="2" stroke="#1E1E1E" stroke-linecap="round" stroke-width="4" rx="3"/><path fill="#000" fill-opacity=".8" d="M596.346 14.783c-.034-.344-.18-.611-.439-.801-.258-.19-.609-.286-1.052-.286-.301 0-.556.043-.763.128a1.075 1.075 0 0 0-.477.345.83.83 0 0 0-.162.503.716.716 0 0 0 .098.409c.074.116.175.217.302.303a2.3 2.3 0 0 0 .444.217c.167.06.346.11.537.153l.784.188c.38.085.73.199 1.048.34.318.143.594.317.827.525.233.207.413.452.541.733.131.281.197.604.2.967-.003.534-.139.997-.409 1.39-.267.389-.653.691-1.159.907-.503.213-1.109.32-1.82.32-.704 0-1.318-.108-1.841-.324-.519-.216-.926-.536-1.218-.96-.29-.425-.442-.952-.456-1.58h1.785c.02.293.104.537.252.733.15.193.35.34.6.439.253.096.539.145.857.145.313 0 .584-.046.814-.137a1.24 1.24 0 0 0 .541-.379.875.875 0 0 0 .192-.558.723.723 0 0 0-.175-.494 1.318 1.318 0 0 0-.503-.341 5.093 5.093 0 0 0-.805-.256l-.95-.239c-.736-.179-1.317-.458-1.743-.84-.426-.38-.638-.893-.635-1.537-.003-.529.138-.99.422-1.385a2.84 2.84 0 0 1 1.18-.925c.5-.222 1.068-.333 1.705-.333.647 0 1.213.111 1.696.333.485.221.863.53 1.133.925.27.394.409.852.418 1.372h-1.769Zm5.921 6.345c-.671 0-1.248-.142-1.731-.426a2.885 2.885 0 0 1-1.108-1.194c-.255-.508-.383-1.093-.383-1.755 0-.67.129-1.259.388-1.764a2.879 2.879 0 0 1 1.112-1.19c.48-.286 1.051-.43 1.713-.43.571 0 1.071.104 1.5.311.429.208.768.499 1.018.874s.388.815.414 1.321h-1.713c-.049-.327-.176-.59-.384-.788-.204-.202-.473-.303-.805-.303a1.22 1.22 0 0 0-.737.23c-.208.15-.37.37-.486.66-.117.29-.175.641-.175 1.053 0 .418.057.773.171 1.066.116.292.279.515.49.669.21.153.456.23.737.23a1.2 1.2 0 0 0 .558-.128c.168-.085.305-.209.413-.37.111-.166.184-.363.218-.593h1.713c-.029.5-.165.94-.409 1.32a2.477 2.477 0 0 1-1.002.887c-.426.213-.93.32-1.512.32Zm6.911 0c-.662 0-1.235-.14-1.718-.422a2.885 2.885 0 0 1-1.112-1.185c-.261-.508-.392-1.098-.392-1.768 0-.676.131-1.267.392-1.773a2.85 2.85 0 0 1 1.112-1.184c.483-.285 1.056-.427 1.718-.427.661 0 1.232.142 1.713.427a2.84 2.84 0 0 1 1.116 1.184c.261.506.392 1.097.392 1.773 0 .67-.131 1.26-.392 1.768a2.88 2.88 0 0 1-1.116 1.185c-.481.281-1.052.422-1.713.422Zm.008-1.406c.301 0 .553-.086.754-.256.202-.173.354-.41.456-.707.105-.299.158-.638.158-1.019 0-.38-.053-.72-.158-1.018a1.581 1.581 0 0 0-.456-.708 1.115 1.115 0 0 0-.754-.26c-.304 0-.56.087-.767.26-.205.174-.359.41-.465.708a3.14 3.14 0 0 0-.153 1.018c0 .38.051.72.153 1.019.106.298.26.534.465.707.207.17.463.256.767.256ZM613.447 21v-6.546h1.76v1.143h.069c.119-.407.319-.713.6-.92.282-.211.606-.316.972-.316a2.758 2.758 0 0 1 .571.064v1.61a2.357 2.357 0 0 0-.354-.068c-.15-.02-.288-.03-.413-.03-.267 0-.506.059-.716.175a1.287 1.287 0 0 0-.494.478c-.12.204-.179.44-.179.707V21h-1.816Zm7.457.128c-.673 0-1.253-.137-1.739-.41a2.798 2.798 0 0 1-1.116-1.167c-.262-.505-.392-1.104-.392-1.794 0-.673.13-1.264.392-1.773a2.896 2.896 0 0 1 1.103-1.188c.478-.285 1.037-.427 1.679-.427.432 0 .834.07 1.206.21.375.135.702.341.981.617.281.276.5.622.656 1.04.156.415.234.9.234 1.457v.499h-5.527v-1.125h3.818c0-.262-.056-.493-.17-.695a1.222 1.222 0 0 0-.473-.473 1.35 1.35 0 0 0-.695-.175c-.275 0-.52.064-.733.192-.21.125-.375.294-.494.507-.119.21-.18.445-.183.703v1.07c0 .324.059.604.179.84.122.235.294.417.515.545.222.128.485.192.789.192.201 0 .386-.029.554-.085a1.15 1.15 0 0 0 .43-.256c.119-.114.21-.253.273-.418l1.679.111c-.085.403-.26.756-.524 1.057-.262.298-.6.531-1.015.699-.411.165-.887.247-1.427.247Zm4.057-.128v-6.546h1.76v1.143h.068c.119-.407.32-.713.601-.92.281-.211.605-.316.971-.316a2.758 2.758 0 0 1 .571.064v1.61a2.366 2.366 0 0 0-.353-.068 3.19 3.19 0 0 0-.414-.03 1.46 1.46 0 0 0-.716.175 1.287 1.287 0 0 0-.494.478 1.38 1.38 0 0 0-.179.707V21h-1.815Z"/><path fill="#1E1E1E" d="M530 71a2 2 0 1 0 0 4v-4Zm18.4 10.88c0 1.105 1.353 1.886 2.309 1.334l15.382-8.88c.956-.553.956-2.115 0-2.667l-15.382-8.88c-.956-.553-2.309.228-2.309 1.333v17.76ZM530 75h20.4v-4H530v4Z"/><rect width="64" height="30" x="578" y="57" stroke="#1E1E1E" stroke-linecap="round" stroke-width="4" rx="3"/><path fill="#000" fill-opacity=".8" d="M596.346 69.783a1.08 1.08 0 0 0-.439-.802c-.258-.19-.609-.285-1.052-.285-.301 0-.556.043-.763.128a1.075 1.075 0 0 0-.477.345.83.83 0 0 0-.162.503.716.716 0 0 0 .098.409c.074.116.175.217.302.302a2.3 2.3 0 0 0 .444.218c.167.06.346.11.537.153l.784.188c.38.085.73.199 1.048.34.318.143.594.317.827.525.233.207.413.451.541.733.131.281.197.603.2.967-.003.534-.139.997-.409 1.39-.267.388-.653.691-1.159.907-.503.213-1.109.32-1.82.32-.704 0-1.318-.108-1.841-.324-.519-.216-.926-.536-1.218-.96-.29-.425-.442-.952-.456-1.58h1.785c.02.293.104.537.252.733.15.193.35.34.6.439.253.096.539.145.857.145.313 0 .584-.046.814-.137a1.24 1.24 0 0 0 .541-.379.875.875 0 0 0 .192-.558.723.723 0 0 0-.175-.495 1.318 1.318 0 0 0-.503-.34 5.093 5.093 0 0 0-.805-.256l-.95-.239c-.736-.179-1.317-.459-1.743-.84-.426-.38-.638-.893-.635-1.537-.003-.529.138-.99.422-1.386.287-.394.68-.703 1.18-.924.5-.222 1.068-.333 1.705-.333.647 0 1.213.111 1.696.333.485.221.863.53 1.133.924.27.395.409.853.418 1.373h-1.769Zm5.921 6.345c-.671 0-1.248-.142-1.731-.426a2.885 2.885 0 0 1-1.108-1.194c-.255-.508-.383-1.093-.383-1.755 0-.67.129-1.259.388-1.764a2.879 2.879 0 0 1 1.112-1.19c.48-.286 1.051-.43 1.713-.43.571 0 1.071.104 1.5.311.429.208.768.499 1.018.874s.388.815.414 1.321h-1.713c-.049-.327-.176-.59-.384-.788-.204-.202-.473-.303-.805-.303a1.22 1.22 0 0 0-.737.23c-.208.15-.37.37-.486.66-.117.29-.175.641-.175 1.053 0 .418.057.773.171 1.066.116.292.279.515.49.669.21.153.456.23.737.23a1.2 1.2 0 0 0 .558-.128c.168-.085.305-.209.413-.37.111-.166.184-.363.218-.593h1.713c-.029.5-.165.94-.409 1.32a2.477 2.477 0 0 1-1.002.887c-.426.213-.93.32-1.512.32Zm6.911 0c-.662 0-1.235-.14-1.718-.422a2.885 2.885 0 0 1-1.112-1.185c-.261-.508-.392-1.098-.392-1.768 0-.676.131-1.267.392-1.773a2.85 2.85 0 0 1 1.112-1.184c.483-.285 1.056-.427 1.718-.427.661 0 1.232.142 1.713.427a2.84 2.84 0 0 1 1.116 1.184c.261.506.392 1.097.392 1.773 0 .67-.131 1.26-.392 1.768a2.88 2.88 0 0 1-1.116 1.185c-.481.281-1.052.422-1.713.422Zm.008-1.406c.301 0 .553-.086.754-.256.202-.173.354-.41.456-.707.105-.299.158-.638.158-1.019 0-.38-.053-.72-.158-1.018a1.581 1.581 0 0 0-.456-.708 1.115 1.115 0 0 0-.754-.26c-.304 0-.56.087-.767.26-.205.174-.359.41-.465.708a3.14 3.14 0 0 0-.153 1.018c0 .38.051.72.153 1.019.106.298.26.534.465.707.207.17.463.256.767.256ZM613.447 76v-6.546h1.76v1.143h.069c.119-.407.319-.713.6-.92.282-.211.606-.316.972-.316a2.758 2.758 0 0 1 .571.064v1.61a2.357 2.357 0 0 0-.354-.068c-.15-.02-.288-.03-.413-.03-.267 0-.506.059-.716.175a1.287 1.287 0 0 0-.494.478c-.12.204-.179.44-.179.707V76h-1.816Zm7.457.128c-.673 0-1.253-.136-1.739-.41a2.798 2.798 0 0 1-1.116-1.167c-.262-.505-.392-1.104-.392-1.794 0-.673.13-1.264.392-1.773a2.896 2.896 0 0 1 1.103-1.188c.478-.285 1.037-.427 1.679-.427.432 0 .834.07 1.206.21a2.684 2.684 0 0 1 1.637 1.657c.156.415.234.9.234 1.457v.499h-5.527v-1.125h3.818c0-.262-.056-.493-.17-.695a1.222 1.222 0 0 0-.473-.473 1.35 1.35 0 0 0-.695-.175c-.275 0-.52.064-.733.192-.21.125-.375.294-.494.507-.119.21-.18.445-.183.703v1.07c0 .324.059.604.179.84.122.235.294.417.515.545.222.128.485.192.789.192.201 0 .386-.029.554-.085a1.15 1.15 0 0 0 .43-.256c.119-.114.21-.253.273-.418l1.679.111c-.085.403-.26.756-.524 1.057-.262.298-.6.531-1.015.699-.411.165-.887.247-1.427.247Zm4.057-.128v-6.546h1.76v1.143h.068c.119-.407.32-.713.601-.92.281-.211.605-.316.971-.316a2.758 2.758 0 0 1 .571.064v1.61a2.366 2.366 0 0 0-.353-.068 3.19 3.19 0 0 0-.414-.03 1.46 1.46 0 0 0-.716.175 1.287 1.287 0 0 0-.494.478 1.38 1.38 0 0 0-.179.707V76h-1.815Z"/><path fill="#1E1E1E" d="M530 125a2 2 0 1 0 0 4v-4Zm18.4 10.88c0 1.105 1.353 1.886 2.309 1.334l15.382-8.881c.956-.552.956-2.114 0-2.666l-15.382-8.881c-.956-.552-2.309.229-2.309 1.334v17.76ZM530 129h20.4v-4H530v4Z"/><rect width="64" height="30" x="578" y="111" stroke="#1E1E1E" stroke-linecap="round" stroke-width="4" rx="3"/><path fill="#000" fill-opacity=".8" d="M596.346 123.783c-.034-.344-.18-.611-.439-.801-.258-.191-.609-.286-1.052-.286-.301 0-.556.043-.763.128a1.07 1.07 0 0 0-.477.345.83.83 0 0 0-.162.503.717.717 0 0 0 .098.409c.074.116.175.217.302.303.128.082.276.154.444.217.167.06.346.111.537.153l.784.188c.38.085.73.199 1.048.341.318.142.594.316.827.524.233.207.413.452.541.733.131.281.197.603.2.967-.003.534-.139.997-.409 1.389-.267.39-.653.692-1.159.908-.503.213-1.109.32-1.82.32-.704 0-1.318-.108-1.841-.324-.519-.216-.926-.536-1.218-.959-.29-.426-.442-.953-.456-1.581h1.785c.02.293.104.537.252.733.15.193.35.339.6.439.253.096.539.145.857.145.313 0 .584-.046.814-.137.233-.091.413-.217.541-.379a.875.875 0 0 0 .192-.558.721.721 0 0 0-.175-.494 1.304 1.304 0 0 0-.503-.341 5.09 5.09 0 0 0-.805-.256l-.95-.239c-.736-.179-1.317-.459-1.743-.839-.426-.381-.638-.894-.635-1.539-.003-.528.138-.99.422-1.384a2.84 2.84 0 0 1 1.18-.925c.5-.222 1.068-.333 1.705-.333.647 0 1.213.111 1.696.333.485.221.863.53 1.133.925.27.394.409.852.418 1.372h-1.769Zm5.921 6.345c-.671 0-1.248-.142-1.731-.426a2.888 2.888 0 0 1-1.108-1.193c-.255-.509-.383-1.094-.383-1.756 0-.671.129-1.259.388-1.764a2.875 2.875 0 0 1 1.112-1.189c.48-.287 1.051-.431 1.713-.431.571 0 1.071.104 1.5.311.429.208.768.499 1.018.874s.388.815.414 1.321h-1.713c-.049-.327-.176-.589-.384-.788-.204-.202-.473-.303-.805-.303a1.22 1.22 0 0 0-.737.23c-.208.151-.37.371-.486.661-.117.289-.175.64-.175 1.052 0 .418.057.773.171 1.066.116.292.279.515.49.669.21.153.456.23.737.23a1.2 1.2 0 0 0 .558-.128c.168-.085.305-.209.413-.371.111-.165.184-.362.218-.592h1.713c-.029.5-.165.94-.409 1.321a2.475 2.475 0 0 1-1.002.886c-.426.213-.93.32-1.512.32Zm6.911 0c-.662 0-1.235-.141-1.718-.422a2.883 2.883 0 0 1-1.112-1.185c-.261-.508-.392-1.098-.392-1.768 0-.676.131-1.267.392-1.773a2.86 2.86 0 0 1 1.112-1.185c.483-.284 1.056-.426 1.718-.426.661 0 1.232.142 1.713.426a2.85 2.85 0 0 1 1.116 1.185c.261.506.392 1.097.392 1.773 0 .67-.131 1.26-.392 1.768a2.873 2.873 0 0 1-1.116 1.185c-.481.281-1.052.422-1.713.422Zm.008-1.406c.301 0 .553-.086.754-.256a1.58 1.58 0 0 0 .456-.707c.105-.299.158-.638.158-1.019 0-.381-.053-.72-.158-1.018a1.578 1.578 0 0 0-.456-.708 1.116 1.116 0 0 0-.754-.26c-.304 0-.56.087-.767.26a1.6 1.6 0 0 0-.465.708 3.134 3.134 0 0 0-.153 1.018c0 .381.051.72.153 1.019.106.298.26.534.465.707.207.17.463.256.767.256Zm4.261 1.278v-6.545h1.76v1.142h.069c.119-.407.319-.713.6-.921.282-.21.606-.315.972-.315a2.586 2.586 0 0 1 .571.064v1.611a3.136 3.136 0 0 0-.767-.098c-.267 0-.506.058-.716.174a1.293 1.293 0 0 0-.494.477c-.12.205-.179.441-.179.708V130h-1.816Zm7.457.128c-.673 0-1.253-.137-1.739-.409a2.8 2.8 0 0 1-1.116-1.168c-.262-.506-.392-1.104-.392-1.794 0-.673.13-1.264.392-1.773a2.906 2.906 0 0 1 1.103-1.189c.478-.284 1.037-.426 1.679-.426.432 0 .834.07 1.206.209.375.136.702.342.981.618.281.276.5.622.656 1.04.156.415.234.9.234 1.457v.499h-5.527v-1.125h3.818c0-.262-.056-.493-.17-.695a1.222 1.222 0 0 0-.473-.473 1.354 1.354 0 0 0-.695-.175c-.275 0-.52.064-.733.192-.21.125-.375.294-.494.507a1.44 1.44 0 0 0-.183.703v1.07c0 .324.059.604.179.84.122.235.294.417.515.545.222.128.485.192.789.192.201 0 .386-.029.554-.085.167-.057.311-.143.43-.256.119-.114.21-.253.273-.418l1.679.111c-.085.403-.26.756-.524 1.057-.262.298-.6.531-1.015.699-.411.164-.887.247-1.427.247Zm4.057-.128v-6.545h1.76v1.142h.068c.119-.407.32-.713.601-.921a1.58 1.58 0 0 1 .971-.315 2.586 2.586 0 0 1 .571.064v1.611a3.162 3.162 0 0 0-.767-.098 1.46 1.46 0 0 0-.716.174 1.293 1.293 0 0 0-.494.477 1.385 1.385 0 0 0-.179.708V130h-1.815Z"/><path fill="#1E1E1E" d="M702 80.88c0 1.105 1.353 1.886 2.309 1.334l15.382-8.88c.956-.553.956-2.115 0-2.667l-15.382-8.88c-.956-.553-2.309.228-2.309 1.333v17.76ZM658 70a2 2 0 1 0 0 4v-4Zm46 0h-46v4h46v-4Zm3.948 35.412c.487.992 2.045 1.098 2.661.181l9.904-14.743c.616-.917-.071-2.32-1.174-2.395L701.62 87.25c-1.102-.075-1.973 1.221-1.487 2.213l7.815 15.949Zm-50.828 12.792a2 2 0 1 0 1.76 3.592l-1.76-3.592Zm47.836-23.443-47.836 23.443 1.76 3.592 47.837-23.443-1.761-3.592Zm-4.823-39.224c-.486.992.385 2.288 1.487 2.213l17.719-1.205c1.103-.075 1.79-1.478 1.174-2.395l-9.904-14.743c-.616-.917-2.174-.81-2.661.181l-7.815 15.949ZM658.88 23.204a2 2 0 1 0-1.76 3.592l1.76-3.592Zm47.837 23.443L658.88 23.204l-1.76 3.592 47.836 23.443 1.761-3.592Z"/><rect width="137" height="86" x="745" y="25" stroke="#1E1E1E" stroke-linecap="round" stroke-width="4" rx="6"/><path fill="#1E1E1E" d="M782.297 67.419a1.077 1.077 0 0 0-.439-.801c-.258-.19-.609-.286-1.052-.286-.302 0-.556.043-.763.128a1.074 1.074 0 0 0-.478.345.836.836 0 0 0-.161.503.716.716 0 0 0 .098.41c.073.116.174.217.302.302.128.082.276.155.443.217.168.06.347.111.537.154l.784.187c.381.085.73.199 1.049.341.318.142.593.317.826.524.233.208.414.452.542.733.13.281.197.604.2.968-.003.533-.139.997-.409 1.389-.267.389-.654.691-1.159.907-.503.213-1.11.32-1.82.32-.705 0-1.318-.108-1.841-.324a2.698 2.698 0 0 1-1.219-.959c-.289-.426-.441-.953-.456-1.58h1.786c.02.292.104.536.251.732.151.193.351.34.601.44.253.096.539.144.857.144.312 0 .584-.045.814-.136a1.25 1.25 0 0 0 .541-.38.875.875 0 0 0 .192-.558.728.728 0 0 0-.175-.494 1.325 1.325 0 0 0-.503-.341 5.116 5.116 0 0 0-.805-.256l-.951-.238c-.735-.18-1.316-.46-1.743-.84-.426-.38-.637-.893-.634-1.538-.003-.529.137-.99.421-1.385.287-.395.681-.703 1.181-.925.5-.221 1.068-.332 1.704-.332.648 0 1.213.11 1.696.332.486.222.864.53 1.134.925.27.395.409.852.417 1.372h-1.768Zm5.92 6.345c-.67 0-1.247-.142-1.73-.426a2.885 2.885 0 0 1-1.108-1.193c-.256-.509-.383-1.094-.383-1.756 0-.67.129-1.258.387-1.764a2.887 2.887 0 0 1 1.113-1.189c.48-.287 1.051-.43 1.713-.43.571 0 1.071.103 1.5.31.429.208.768.5 1.018.874.25.375.388.816.414 1.321h-1.714a1.323 1.323 0 0 0-.383-.788c-.205-.202-.473-.303-.805-.303-.282 0-.527.077-.738.23a1.465 1.465 0 0 0-.485.661c-.117.29-.175.64-.175 1.053 0 .417.057.772.17 1.065.117.293.28.516.49.669.211.153.456.23.738.23a1.2 1.2 0 0 0 .558-.128c.167-.085.305-.209.413-.37a1.42 1.42 0 0 0 .217-.593h1.714c-.029.5-.165.94-.41 1.321a2.468 2.468 0 0 1-1.001.887c-.426.213-.93.32-1.513.32Zm5.82-.004c-.417 0-.789-.073-1.116-.217a1.8 1.8 0 0 1-.776-.652c-.187-.29-.281-.651-.281-1.083 0-.363.067-.669.2-.916.134-.247.316-.446.546-.597.23-.15.491-.264.784-.34.295-.077.605-.131.929-.162.38-.04.687-.077.92-.111.233-.037.402-.091.507-.162a.356.356 0 0 0 .158-.316v-.025c0-.27-.085-.479-.256-.627-.167-.147-.406-.221-.716-.221-.326 0-.586.072-.779.217a.999.999 0 0 0-.384.537l-1.679-.136a2.28 2.28 0 0 1 .503-1.031c.25-.293.572-.517.967-.674.398-.159.858-.238 1.381-.238.364 0 .712.042 1.044.127.335.086.632.218.891.397.261.179.467.409.618.69.15.279.225.612.225 1.002v4.414h-1.721v-.907h-.051a1.85 1.85 0 0 1-.422.54 1.954 1.954 0 0 1-.635.363 2.627 2.627 0 0 1-.857.128Zm.52-1.253c.267 0 .503-.053.708-.158a1.25 1.25 0 0 0 .481-.434c.117-.182.175-.388.175-.618v-.695a.971.971 0 0 1-.235.102 4.24 4.24 0 0 1-.328.082l-.366.063-.333.047a2.245 2.245 0 0 0-.558.15.901.901 0 0 0-.371.276.675.675 0 0 0-.132.427c0 .247.09.436.269.566.182.128.412.192.69.192Zm6.258-2.655v3.784H799v-6.545h1.73v1.155h.077a1.82 1.82 0 0 1 .728-.904c.341-.224.755-.336 1.24-.336.455 0 .851.1 1.189.298.338.199.601.483.789.852.187.367.281.804.281 1.313v4.167h-1.816v-3.843c.003-.401-.099-.714-.306-.938-.208-.227-.493-.34-.857-.34-.244 0-.46.052-.648.157a1.1 1.1 0 0 0-.434.46 1.587 1.587 0 0 0-.158.72Zm8.197 3.784V64.91h3.443c.659 0 1.222.118 1.688.354.468.233.825.564 1.069.993.247.426.371.927.371 1.504 0 .58-.125 1.078-.375 1.496a2.43 2.43 0 0 1-1.087.954c-.471.222-1.042.333-1.713.333h-2.305V69.06h2.007c.352 0 .645-.049.878-.145.233-.097.406-.242.52-.435.116-.193.174-.433.174-.72 0-.29-.058-.534-.174-.733a1.075 1.075 0 0 0-.524-.452c-.233-.105-.527-.157-.882-.157h-1.245v7.218h-1.845Zm4.713-3.971 2.169 3.971h-2.037l-2.122-3.971h1.99Zm5.873 4.1c-.673 0-1.252-.137-1.738-.41a2.807 2.807 0 0 1-1.117-1.168c-.261-.505-.392-1.103-.392-1.793 0-.674.131-1.265.392-1.773.262-.509.63-.905 1.104-1.19.477-.283 1.037-.425 1.679-.425.432 0 .834.07 1.206.209.375.136.702.342.98.617.281.276.5.623.656 1.04.157.415.235.9.235 1.457v.5h-5.527v-1.126h3.818a1.39 1.39 0 0 0-.171-.695 1.215 1.215 0 0 0-.473-.472 1.345 1.345 0 0 0-.694-.175c-.276 0-.52.064-.733.191-.21.125-.375.295-.494.508-.12.21-.181.444-.184.703v1.07c0 .323.06.603.179.839a1.3 1.3 0 0 0 .516.545c.221.128.484.192.788.192.202 0 .387-.028.554-.085a1.109 1.109 0 0 0 .703-.673l1.679.11a2.29 2.29 0 0 1-.524 1.057 2.626 2.626 0 0 1-1.014.699c-.412.165-.888.247-1.428.247Zm9.503-4.808-1.662.103a.852.852 0 0 0-.183-.384.971.971 0 0 0-.371-.277 1.258 1.258 0 0 0-.541-.106c-.281 0-.518.06-.711.179-.194.116-.29.272-.29.468 0 .157.062.289.187.397.125.108.34.194.644.26l1.184.238c.637.13 1.111.341 1.424.63.312.29.469.671.469 1.143 0 .429-.127.805-.38 1.13-.25.323-.594.576-1.031.758-.435.179-.936.268-1.504.268-.867 0-1.557-.18-2.071-.541a2.106 2.106 0 0 1-.899-1.483l1.785-.094a.919.919 0 0 0 .392.605c.208.137.473.205.797.205.318 0 .574-.061.767-.183.196-.125.295-.286.298-.482a.501.501 0 0 0-.208-.405c-.137-.108-.347-.19-.631-.247l-1.134-.226c-.639-.127-1.115-.35-1.427-.664-.31-.316-.465-.718-.465-1.206 0-.42.114-.783.341-1.087.23-.304.553-.538.968-.703.417-.165.906-.247 1.465-.247.827 0 1.478.174 1.952.524.477.35.756.825.835 1.427Zm5.358 1.892v-3.758h1.815v6.545h-1.742v-1.189h-.069a1.926 1.926 0 0 1-.737.925c-.341.233-.757.35-1.248.35-.438 0-.823-.1-1.155-.299a2.044 2.044 0 0 1-.78-.848c-.185-.366-.279-.805-.281-1.317v-4.167h1.815v3.844c.003.386.106.691.311.916.205.224.479.337.822.337a1.3 1.3 0 0 0 .614-.15c.19-.102.344-.252.46-.451.12-.2.178-.445.175-.738Zm4.951-5.94v8.727h-1.816V64.91h1.816Zm4.804 2.182v1.364h-3.942V67.09h3.942Zm-3.047-1.568h1.815v6.102c0 .168.026.298.077.392.051.09.122.155.213.192a.878.878 0 0 0 .324.055c.085 0 .17-.007.255-.021l.196-.038.286 1.35a5.103 5.103 0 0 1-.384.098c-.164.04-.365.064-.601.073-.437.017-.821-.041-1.15-.175a1.606 1.606 0 0 1-.763-.622c-.182-.281-.271-.636-.268-1.065v-6.341Zm9.461 3.434-1.662.103a.852.852 0 0 0-.183-.384.971.971 0 0 0-.371-.277 1.258 1.258 0 0 0-.541-.106c-.281 0-.519.06-.712.179-.193.116-.289.272-.289.468 0 .157.062.289.187.397.125.108.34.194.643.26l1.185.238c.637.13 1.111.341 1.423.63.313.29.469.671.469 1.143 0 .429-.126.805-.379 1.13-.25.323-.594.576-1.031.758-.435.179-.936.268-1.505.268-.866 0-1.556-.18-2.071-.541a2.11 2.11 0 0 1-.899-1.483l1.786-.094a.915.915 0 0 0 .392.605c.207.137.473.205.797.205.318 0 .574-.061.767-.183.196-.125.295-.286.298-.482a.5.5 0 0 0-.209-.405c-.136-.108-.346-.19-.63-.247l-1.134-.226c-.639-.127-1.115-.35-1.428-.664-.309-.316-.464-.718-.464-1.206 0-.42.114-.783.341-1.087.23-.304.552-.538.967-.703.418-.165.906-.247 1.466-.247.827 0 1.477.174 1.952.524.477.35.756.825.835 1.427Z"/></svg>